M48
;Layer_Color=9474304
;FILE_FORMAT=2:5
INCH,LZ
;TYPE=PLATED
T1F00S00C0.01200
%
T01
X021557Y0117056
X0219071
X022257
X022607
X0229571
X023307
X0236571
X0240071
X024357
X0247071
X0250571
X025407
X0257571
X026107
X026457
X0268071
X027157
X0275071
X0278571
X0282067Y0116906
X0285567
X0289067
X0292567
X0296067
X0295506Y0123094
X0292006
X0288506
X0285006
X0281506
X027801Y0122944
X027451
X0271009
X026751
X0264009
X0260509
X025701
X0253509
X0250009
X024651
X0243009
X023951
X023601
X0232509
X022901
X022551
X0222009
X021851
X0215009
X0211509
X020801
X0204509
X0201009
X019751
X0194009
X0190509
X018701
X018351
X0180009
X0176509
X017301
X0169509
X0166009
X016251
X015901
X0155509
X0152009
X014851
X014501
X0141509
X013801
X013451
X0131009
X0127509
X012401
X012051
X0117009
X011351
X011001
X0106509
X0103009
X009951
X0096009
X009251
X0089009
X008551
X008201
X0078509
X007501
X0071509
X006801
X0064509
X006101
X0057509
X005807Y0117056
X0061571
X006507
X0068571
X007207
X007557
X0079071
X008257
X0086071
X008957
X0093071
X009657
X0100071
X010357
X0107071
X0110571
X011407
X011757
X0121071
X0124571
X012807
X013157
X0135071
X013857
X014207
X0145571
X0149071
X015257
X015607
X0159571
X016307
X016657
X0170071
X0173571
X017707
X018057
X0184071
X0187571
X019107
X0194571
X0198071
X0201571
X020507
X0208571
X021207
X0054571
X005107
X004757
X0044071
X0040571
X0037071
X0033571
X003007
X002657
X002307
X0019574Y0116906
X0016074
X0012574
X0009074
X0005574
X0002074
X0001513Y0123094
X0005013
X0008513
X0012013
X0019013
X002251Y0122944
X002601
X0029509
X0033009
X0036509
X0040009
X004351
X004701
X005051
X0054009
M30
