M48
;Layer_Color=9474304
;FILE_FORMAT=2:5
INCH,LZ
;TYPE=PLATED
T1F00S00C0.01000
T2F00S00C0.01200
T3F00S00C0.03543
%
T01
X0087638Y0056212
X0090262Y0054379
X0093255Y0053247
X0102825Y0052811
X0106025
X0109225
X0116197Y0053479
X0119232Y0054493
X0137Y00521
X0140013Y0052352
X0143209Y0052193
X0146011Y0051689
X0149207Y005186
X0152407
X0155607
X0158807
X0162007
X0165207
X0168407
X0171606Y0051951
X0174637Y0052974
X0177027Y0055102
X017945Y0054673
Y0051473
Y0048273
Y0045073
Y0041873
Y0038673
Y0035473
Y0032273
Y0029073
Y0025873
Y0022673
X0179477Y0019473
X0180325Y0016387
X0182299Y0013869
X0185076Y001228
X0188251Y0011879
X0191341Y0012712
X0193879Y0014661
X0198735Y0014596
X0197114Y0017355
X0196639Y0020519
Y0023719
Y0026919
Y0030119
Y0033319
Y0036519
Y0039719
Y0042919
Y0046119
Y0049319
Y0052519
Y0055719
X0204519Y0055673
Y0052473
Y0049273
Y0046073
Y0042873
Y0039673
Y0036473
Y0033273
Y0030073
Y0026873
Y0023673
Y0020473
X0204394Y0011868
X0207563Y0012311
X021033Y0013919
X021227Y0016464
X0201298Y001268
X0187329Y0021935
Y0025135
Y0028335
Y0031535
Y0034735
Y0037935
Y0041135
Y0044335
Y0047535
Y0050735
Y0053935
X0213829Y0054674
Y0051474
Y0048274
Y0045074
Y0041874
Y0038674
Y0035474
Y0032274
Y0029074
Y0025874
Y0022674
X0213856Y0019474
X0214704Y0016388
X0216677Y0013869
X0219455Y001228
X0222629Y0011879
X0225719Y0012712
X0228257Y0014661
X0233115Y0014595
X0231493Y0017354
X0231018Y0020518
Y0023719
Y0026919
Y0030119
Y0033318
Y0036518
Y0039718
Y0042919
Y0046119
Y0049319
Y0052518
Y0055718
X0238898Y0055682
Y0052482
Y0049282
Y0046082
Y0042882
Y0039682
Y0036482
Y0033282
Y0030082
Y0026882
Y0023682
Y0020482
X0238774Y0011868
X0241943Y0012312
X024471Y0013919
X024665Y0016464
X0249082Y0016389
X0248235Y0019475
X0248208Y0022674
Y0025875
Y0029074
Y0032274
Y0035475
Y0038675
Y0041875
Y0045074
Y0048274
Y0051474
Y0054675
X0256087Y0053919
Y0050719
Y0047519
Y0044319
Y0041119
Y0037919
Y0034719
Y0031519
Y0028319
Y0025119
Y0021919
X0265398Y0020518
Y0023718
Y0026918
Y0030118
Y0033318
Y0036518
Y0039718
Y0042918
Y0046118
Y0049318
Y0052518
Y0055718
X0273277Y005569
Y005249
Y004929
Y004609
Y004289
Y003969
Y003649
Y003329
Y003009
Y002689
Y002369
Y002049
X0273153Y0011868
X0276323Y0012312
X0279089Y001392
X0281029Y0016465
X0283461Y001639
X0282614Y0019475
X0282587Y0022675
Y0025875
Y0029075
Y0032275
Y0035475
Y0038675
Y0041875
Y0045075
Y0048275
Y0051475
Y0054675
X0290467Y0053912
Y0050712
Y0047512
Y0044312
Y0041112
Y0037912
Y0034712
Y0031512
Y0028312
Y0025112
Y0021912
X0299777Y0020517
Y0023717
Y0026917
Y0030117
Y0033317
Y0036517
Y0039717
Y0042917
Y0046117
Y0049317
Y0052517
Y0055717
X0307656Y0055698
Y0052498
Y0049298
Y0046098
Y0042898
Y0039698
Y0036498
Y0033298
Y0030098
Y0026898
Y0023698
Y0020498
X0307533Y0011868
X0310702Y0012312
X0313469Y001392
X0315408Y0016466
X031784Y001639
X0316993Y0019476
X0316966Y0022676
Y0025876
Y0029076
Y0032276
Y0035476
Y0038676
Y0041876
Y0045076
Y0048276
Y0051476
Y0054676
X0324846Y0053905
Y0050705
Y0047505
Y0044305
Y0041105
Y0037905
Y0034705
Y0031505
Y0028305
Y0025105
Y0021905
X0334156Y0020516
Y0023716
Y0026916
Y0030116
Y0033316
Y0036516
Y0039716
Y0042916
Y0046116
Y0049316
Y0052516
Y0055716
X0342035Y0055705
Y0052505
Y0049305
Y0046105
Y0042905
Y0039705
Y0036505
Y0033305
Y0030105
Y0026905
Y0023705
Y0020505
X0341913Y0011868
X0345082Y0012313
X0347849Y0013921
X0349788Y0016466
X0352219Y0016391
X0351372Y0019477
X0351345Y0022677
Y0025877
Y0029077
Y0032277
Y0035477
Y0038677
Y0041877
Y0045077
Y0048277
Y0051477
Y0054677
X0359225Y0053898
Y0050698
Y0047498
Y0044298
Y0041098
Y0037898
Y0034698
Y0031498
Y0028298
Y0025098
Y0021898
X0368535Y0020516
Y0023716
Y0026915
Y0030115
Y0033315
Y0036515
Y0039715
Y0042915
Y0046115
Y0049315
Y0052515
Y0055715
X0365772Y0014658
X0363233Y001271
X0360143Y0011879
X0356968Y0012281
X0354191Y0013871
X0338818Y0012679
X0336253Y0014593
X0334631Y0017352
X0331393Y0014659
X0328854Y0012711
X0325764Y0011879
X032259Y0012281
X0319813Y0013871
X0304438Y001268
X0301874Y0014594
X0300252Y0017352
X0297014Y0014659
X0294476Y0012711
X0291386Y0011879
X0288211Y0012281
X0285434Y001387
X0270058Y001268
X0267494Y0014594
X0265873Y0017353
X0262636Y001466
X0260098Y0012711
X0257008Y0011879
X0253833Y001228
X0251056Y001387
X0235678Y001268
X0221708Y0021927
Y0025127
Y0028327
Y0031527
Y0034727
Y0037927
Y0041127
Y0044327
Y0047527
Y0050727
Y0053927
X0376414Y0052512
Y0049312
Y0046112
Y0042912
Y0039712
Y0036512
Y0033312
Y0030112
Y0026912
Y0023712
Y0020512
X0376293Y0011868
X0379462Y0012313
X0382228Y0013921
X0384167Y0016467
X0386597Y0016392
X0385751Y0019478
X0385724Y0022678
Y0025878
Y0029078
Y0032278
Y0035478
Y0038678
Y0041878
Y0045078
Y0048278
Y0051478
Y0054678
X0393604Y0053892
Y0050692
Y0047492
Y0044292
Y0041092
Y0037892
Y0034692
Y0031492
Y0028292
Y0025092
Y0021892
X0402914Y0020515
Y0023715
Y0026915
Y0030115
Y0033315
Y0036515
Y0039715
Y0042915
Y0046115
Y0049315
Y0052515
Y0055715
X0410793Y0055718
Y0052518
Y0049318
Y0046118
Y0042918
Y0039718
Y0036518
Y0033318
Y0030118
Y0026918
Y0023718
Y0020518
X0410673Y0011868
X0413842Y0012313
X0416608Y0013922
X0418546Y0016468
X0420976Y0016392
X042013Y0019478
X0420103Y0022678
Y0025878
Y0029078
Y0032278
Y0035478
Y0038678
Y0041878
Y0045078
Y0048278
Y0051478
Y0054678
X0427983Y0053887
Y0050687
Y0047487
Y0044287
Y0041087
Y0037887
Y0034687
Y0031487
Y0028287
Y0025087
Y0021887
X0437293Y0020514
Y0023714
Y0026914
Y0030114
Y0033314
Y0036514
Y0039714
Y0042914
Y0046114
Y0049314
Y0052514
Y0055714
X0445172Y0055723
Y0052523
Y0049323
Y0046123
Y0042923
Y0039723
Y0036523
Y0033323
Y0030123
Y0026923
Y0023723
Y0020523
X0445053Y0011868
X0448221Y0012313
X0450988Y0013922
X0452926Y0016468
X0455355Y0016393
X0454509Y0019479
X0454483Y0022679
Y0025879
Y0029079
Y0032279
Y0035479
Y0038679
Y0041879
Y0045079
Y0048279
Y0051479
Y0054679
X0462362Y0053883
Y0050683
Y0047483
Y0044283
Y0041083
Y0037883
Y0034683
Y0031483
Y0028283
Y0025083
Y0021883
X0471672Y0020513
Y0023713
Y0026913
Y0030113
Y0033313
Y0036513
Y0039713
Y0042913
Y0046113
Y0049313
Y0052513
Y0055713
X0479552Y0055727
Y0052527
Y0049327
Y0046128
Y0042928
Y0039728
Y0036527
Y0033327
Y0030128
Y0026928
Y0023728
Y0020527
X0479432Y0011868
X0482601Y0012314
X0485367Y0013923
X0487305Y0016469
X0489734Y0016394
X0488888Y001948
X0488862Y002268
Y002588
Y002908
Y003228
Y003548
Y003868
Y004188
Y004508
Y004828
Y005148
Y005468
X0496741Y0053879
Y0050679
Y0047479
Y0044279
Y0041079
Y0037879
Y0034679
Y0031479
Y0028279
Y0025079
Y0021879
X0505336Y0020594
Y0023794
Y0026994
Y0030194
Y0033394
Y0036594
Y0039794
Y0042994
Y0046194
Y0049394
X0507374Y005186
X0510574
X0513774
X0516974
X0520175Y0051856
X0523346Y0052284
X0504891Y0017425
X0503286Y0014656
X0500746Y0012709
X0497656Y0011878
X0494482Y0012282
X0491705Y0013873
X0476337Y0012678
X0473771Y0014591
X0472149Y0017349
X0468908Y0014657
X0466368Y001271
X0463278Y0011878
X0460103Y0012282
X0457327Y0013873
X0441957Y0012678
X0439392Y0014592
X0437769Y001735
X0434529Y0014657
X043199Y001271
X0428899Y0011879
X0425725Y0012282
X0422948Y0013872
X0407577Y0012679
X0405012Y0014592
X040339Y001735
X040015Y0014658
X0397611Y001271
X0394521Y0011879
X0391347Y0012282
X038857Y0013872
X0373198Y0012679
X0370633Y0014593
X0369011Y0017351
X0376414Y0055712
X0526347Y0053393
X0529003Y0055178
X0531204Y0057501
X0532786Y0060283
X0533729Y0063341
X053394Y0066534
Y0069734
Y0072934
Y0076134
Y0079334
Y0082534
Y0085734
Y0088934
Y0092134
Y0095334
Y0098534
Y0101734
Y0104934
Y0108134
X053361Y0111317
X0532115Y0114146
X0533102Y011795
X0529902
X0526702
X0526264Y0125829
X0529464
X0532664
X0535864
X0539064
X0542264
X0545464
X0548664
X0551864
X0555064
X0558264
X0561464
X0564664
X0565102Y011795
X0561902
X0558702
X0555502
X0552302
X0549102
X0545902
X0542702
X0539502
X0536302
X0537627Y0134424
X0540827
X0544027
X0547226
X0550426
X0553626
X0556826
X0560027
X0563227
X0566426Y0134384
X0569503Y0133506
X0571993Y0131495
X0573558Y0128704
X0573908Y0125523
X0573049Y012244
X0571059Y0119934
X0568277Y0118354
X0534426Y0134424
X0531226
X0530905Y0137005
X0528089Y0135486
X0532956Y0139462
X0533883Y0142525
X053394Y0145724
Y0148924
Y0152124
Y0155324
Y0158524
Y0161724
Y0164924
Y0168124
Y0171324
Y0174524
Y0177724
Y0180924
Y0184124
X0533669Y0187313
X0532686Y0190358
X0531046Y0193106
X0528806Y0195391
X0526122Y0197134
X0525227Y0187604
X052606Y0184514
Y0181314
Y0178114
Y0174914
Y0171714
Y0168514
Y0165314
Y0162114
Y0158914
Y0155714
Y0152514
Y0149314
Y0146114
X0525248Y0143019
X052606Y0108356
Y0105156
Y0101956
Y0098756
Y0095556
Y0092356
Y0089156
Y0085956
Y0082756
Y0079556
Y0076356
Y0073156
Y0069956
Y0066756
X0525625Y0063586
X0523693Y0061035
X0520733Y0059817
X0517534Y005974
X0514334
X0511134
X0507934
X0504735Y0059669
X0501685Y0058701
X0499256Y0056618
X0496741Y0057079
Y0060279
Y0063479
Y0066679
Y0069879
Y0073079
Y0076279
Y0079479
Y0082679
Y0085879
Y0089079
X0496694Y0092278
X0495796Y009535
X0493769Y0097826
X0490967Y0099372
X0487784Y00997
X0484707Y0098824
X0482216Y0096814
X0477551Y009688
X0479137Y0094101
X0479552Y0090927
Y0087727
Y0084527
Y0081327
Y0078127
Y0074928
Y0071728
Y0068528
Y0065328
Y0062128
Y0058928
X0471672Y0058913
Y0062113
Y0065313
Y0068513
Y0071713
Y0074913
Y0078113
Y0081313
Y0084513
Y0087713
Y0090913
X0471952Y0099711
X0468773Y0099349
X0465986Y0097777
X0463983Y0095281
X0461415Y0095353
X0462315Y0092282
X0462362Y0089083
Y0085883
Y0082683
Y0079483
Y0076283
Y0073083
Y0069883
Y0066683
Y0063483
Y0060283
Y0057083
X0454483Y0057879
Y0061079
Y0064279
Y0067479
Y0070679
Y0073879
Y0077079
Y0080279
Y0083479
Y0086679
Y0089879
X0445172Y0090923
Y0087723
Y0084523
Y0081323
Y0078123
Y0074923
Y0071723
Y0068523
Y0065323
Y0062123
Y0058923
X0437293Y0058914
Y0062114
Y0065314
Y0068514
Y0071714
Y0074914
Y0078114
Y0081314
Y0084514
Y0087714
Y0090914
X0437578Y0099711
X0434398Y0099351
X043161Y009778
X0429606Y0095285
X0427034Y0095357
X0427935Y0092287
X0427983Y0089087
Y0085887
Y0082687
Y0079487
Y0076287
Y0073087
Y0069887
Y0066687
Y0063487
Y0060287
Y0057087
X0420103Y0057878
Y0061078
Y0064278
Y0067478
Y0070678
Y0073878
Y0077078
Y0080278
Y0083478
Y0086678
Y0089878
X0410793Y0090918
Y0087718
Y0084518
Y0081318
Y0078118
Y0074918
Y0071718
Y0068518
Y0065318
Y0062118
Y0058918
X0402914Y0058915
Y0062115
Y0065315
Y0068515
Y0071715
Y0074915
Y0078115
Y0081315
Y0084515
Y0087715
Y0090915
X0403204Y009971
X0400024Y0099353
X0397236Y0097783
X039523Y009529
X0392652Y0095362
X0393555Y0092292
X0393604Y0089092
Y0085892
Y0082692
Y0079492
Y0076292
Y0073092
Y0069892
Y0066692
Y0063492
Y0060292
Y0057092
X0385724Y0057878
Y0061078
Y0064278
Y0067478
Y0070678
Y0073878
Y0077078
Y0080278
Y0083478
Y0086678
Y0089878
X0376414Y0090912
Y0087712
Y0084512
Y0081312
Y0078112
Y0074912
Y0071712
Y0068512
Y0065312
Y0062112
Y0058912
X0376006Y0094086
X0374424Y0096867
X0371915Y0098853
X0368831Y0099709
X037907Y0096802
X0381556Y0098816
X0384632Y0099698
X0387816Y0099376
X039062Y0097834
X0406288Y0098856
X0408799Y0096872
X0410383Y0094091
X0413452Y0096806
X041594Y0098819
X0419017Y0099699
X04222Y0099374
X0425004Y0097831
X0440662Y0098858
X0443175Y0096876
X044476Y0094096
X0447835Y009681
X0450324Y0098821
X0453401Y00997
X0456584Y0099373
X0459386Y0097828
X0475037Y009886
X0488862Y008988
Y008668
Y008348
Y008028
Y007708
Y007388
Y007068
Y006748
Y006428
Y006108
Y005788
X0488436Y0111802
X0486687Y0114482
X0486035Y0117615
X0486704Y0120744
X0488468Y0123414
X0491135Y0125181
X0494264Y0125853
X0497464Y0125829
X0500664
X0503864
X0507064
X0510264
X0513464
X0516664
X0519864
X0523064
X0523502Y011795
X0520302
X0517102
X0513902
X0510702
X0507502
X0504302
X0501102
X0497902
X0494702
X049422Y0109337
X049742Y0109355
X050062
X050382
X050702
X051022
X051342
X051662
X051982
X052302
X0521707Y0135139
X0518507
X0524907
X0522048Y0143019
X0518848
X0515661Y0142726
X0512807Y0141279
X0510695Y0138874
X0509692Y0135836
X050989Y0132642
X0511321Y012978
X0491094Y011002
X0491056Y019066
X0487856
X0484656
X0481456
X0478256
X0475056
X0471856
X0468656
X0465456
X0462256
X0459056
X0455856
X0452656
X0449456
X0446256
X0443056
X0439856
X0436656
X0433456
X0430256
X0427056
X0423856
X0420656
X0417456
X0414256
X0411056
X0407856
X0404656
X0401456
X0398256
X0395056
X0391862Y0190853
X0388795Y0191768
X0386003Y0193331
X0383656Y0195506
X0381842Y0198142
X0380712Y0201136
X0380256Y0204304
X038026Y0207504
Y0210703
X038814Y0210302
Y0207102
X0388214Y0203903
X0389412Y0200935
X039195Y0198986
X0395118Y019854
X0398318
X0401518
X0404718
X0407918
X0411118
X0414318
X0417518
X0420718
X0423918
X0427118
X0430318
X0433518
X0436718
X0439918
X0443118
X0446318
X0449518
X0452718
X0455918
X0459118
X0462318
X0465518
X0468718
X0471918
X0475118
X0478318
X0481518
X0484718
X0487918
X0491118
X0494318
X0497518
X0500718
X0503918
X0507118
X0510318
X0513518
X0516718
X0519918Y0198547
X0523097Y0198176
X0522953Y0189855
X0519856Y019066
X0516656
X0513456
X0510256
X0507056
X0503856
X0500656
X0497456
X0494256
X0365651Y0099355
X0362861Y0097787
X0360854Y0095295
X035827Y0095367
X0359175Y0092298
X0359225Y0089098
Y0085898
Y0082698
Y0079498
Y0076298
Y0073098
Y0069898
Y0066698
Y0063498
Y0060298
Y0057098
X0351345Y0057877
Y0061077
Y0064277
Y0067477
Y0070677
Y0073877
Y0077077
Y0080277
Y0083477
Y0086677
Y0089877
X0342035Y0090905
Y0087705
Y0084505
Y0081305
Y0078105
Y0074905
Y0071705
Y0068505
Y0065305
Y0062105
Y0058905
X0334156Y0058916
Y0062116
Y0065316
Y0068516
Y0071716
Y0074916
Y0078116
Y0081316
Y0084516
Y0087716
Y0090916
X0334459Y0099708
X0331278Y0099357
X0328488Y0097791
X0326478Y0095301
X0323887Y0095373
X0324795Y0092304
X0324846Y0089105
Y0085905
Y0082705
Y0079505
Y0076305
Y0073105
Y0069905
Y0066705
Y0063505
Y0060305
Y0057105
X0316966Y0057876
Y0061076
Y0064276
Y0067476
Y0070676
Y0073876
Y0077076
Y0080276
Y0083476
Y0086676
Y0089876
X0307656Y0090898
Y0087698
Y0084498
Y0081298
Y0078098
Y0074898
Y0071698
Y0068498
Y0065298
Y0062098
Y0058898
X0299777Y0058917
Y0062117
Y0065317
Y0068517
Y0071717
Y0074917
Y0078117
Y0081317
Y0084517
Y0087717
Y0090917
X0300087Y0099707
X0296906Y0099359
X0294114Y0097795
X0292102Y0095307
X0289505Y0095379
X0290416Y0092311
X0290467Y0089112
Y0085912
Y0082712
Y0079512
Y0076312
Y0073112
Y0069912
Y0066712
Y0063512
Y0060312
Y0057112
X0282587Y0057875
Y0061075
Y0064275
Y0067475
Y0070675
Y0073875
Y0077075
Y0080275
Y0083475
Y0086675
Y0089875
X0273277Y009089
Y008769
Y008449
Y008129
Y007809
Y007489
Y007169
Y006849
Y006529
Y006209
Y005889
X0265398Y0058918
Y0062118
Y0065318
Y0068518
Y0071718
Y0074918
Y0078118
Y0081318
Y0084518
Y0087718
Y0090918
X0265716Y0099706
X0262535Y0099361
X0259741Y00978
X0257727Y0095314
X0255122Y0095385
X0256035Y0092319
X0256087Y0089119
Y0085919
Y0082719
Y0079519
Y0076319
Y0073119
Y0069919
Y0066719
Y0063519
Y0060319
Y0057119
X0248208Y0057875
Y0061075
Y0064275
Y0067475
Y0070675
Y0073874
Y0077074
Y0080274
Y0083474
Y0086674
Y0089875
X0238898Y0090882
Y0087682
Y0084482
Y0081282
Y0078082
Y0074882
Y0071682
Y0068482
Y0065282
Y0062082
Y0058882
X0231018Y0058918
Y0062119
Y0065319
Y0068519
Y0071719
Y0074919
Y0078118
Y0081318
Y0084518
Y0087718
Y0090918
X0231346Y0099705
X0228164Y0099363
X0225369Y0097805
X0223352Y0095321
X0220739Y0095393
X0221655Y0092327
X0221708Y0089127
Y0085927
Y0082727
Y0079527
Y0076327
Y0073127
Y0069927
Y0066727
Y0063527
Y0060327
Y0057127
X0213829Y0057874
Y0061074
Y0064274
Y0067474
Y0070674
Y0073874
Y0077074
Y0080274
Y0083474
Y0086674
Y0089874
X02127Y0099694
X0215885Y0099385
X0218696Y0097856
X0234427Y0098841
X0236926Y0096843
X0238502Y0094057
X0241536Y0096779
X0244015Y0098801
X0247088Y0099695
X0250273Y0099383
X0253082Y0097851
X0268798Y0098845
X02713Y009685
X0272877Y0094065
X027592Y0096785
X0278401Y0098806
X0281475Y0099696
X0284659Y0099381
X0287467Y0097846
X030317Y0098848
X0305674Y0096856
X0307253Y0094073
X0310303Y0096791
X0312787Y0098809
X0315861Y0099697
X0319045Y0099379
X0321852Y0097842
X0337542Y0098851
X0340049Y0096862
X034163Y0094079
X0344687Y0096797
X0347172Y0098813
X0350247Y0099698
X0353431Y0099377
X0356236Y0097838
X0368535Y0090915
Y0087715
Y0084515
Y0081315
Y0078115
Y0074915
Y0071715
Y0068515
Y0065315
Y0062115
Y0058915
X0204519Y0058873
Y0062073
Y0065273
Y0068473
Y0071673
Y0074873
Y0078073
Y0081273
Y0084473
Y0087673
Y0090873
X0204126Y0094049
X0202553Y0096836
X0200056Y0098837
X0196976Y0099704
X0193793Y0099365
X0190997Y009781
X0188977Y0095328
X0186355Y00954
X0187275Y0092335
X0187329Y0089135
Y0085935
Y0082735
Y0079535
Y0076335
Y0073135
Y0069935
Y0066735
Y0063535
Y0060335
Y0057135
X017945Y0057873
Y0061073
Y0064273
Y0067473
Y0070673
Y0073873
Y0077073
Y0080273
Y0083473
Y0086673
Y0089873
X0170855Y0090783
Y0087583
Y0084383
Y0081183
Y0077983
Y0074783
Y0071583
Y0068383
Y0065183
Y0061983
X0168573Y005974
X0165373
X0162173
X0158973
X0155773
X0152573
X0149373
X014446Y0059317
X0141179Y0059375
X0117084Y0063832
X01073Y00608
X010474Y0060691
X0095147Y0060914
X0092409Y006257
X0090992Y0065439
X0090889Y0071837
X0090631Y0075027
X0090889Y0078986
Y0082186
Y0085386
Y0088586
Y0091786
Y0094986
Y0098186
Y0101386
Y0104586
Y0107786
Y0110986
X0091564Y0114114
X0093651Y0116539
X0096583Y0117822
X0099782Y0117911
X0102982
X0109382
X01171Y01187
X0119609Y0119411
X0118384Y0128931
X0107173Y0125791
X0100773
X0097573
X0093638Y0125259
X0090679Y012404
X0088081Y0122171
X0085877Y0119851
X0084233Y0117106
X0083258Y0114058
X0083009Y0110868
Y0107668
Y0104468
Y0101268
Y0098068
Y0094868
Y0091668
Y0088468
Y0085268
Y0082068
X0079247Y0080081
X0076047
X0072847
X0069647
X0066447
X0063247
X0060047
X0056847
X0056693Y0072202
X0059893
X0063093
X0066293
X0069493
X0072693
X0075893
X0079093
X00828Y00704
X0083139Y0064491
X0083982Y0061404
X0085486Y0058579
X0057434Y0106175
X0057543Y0109373
X005903Y0151948
X0062229Y015186
X0065429
X0068629
X0071829
X0075029
X0078229
X0081429
X0084629
X0087829
X0091029
X0094229
X0097429
X0100629
X0103829
X0107029
X0110229
X0113429
X0116629
X0119829
X0123029
X0126229
X0129429
X0132629
X0135829
X0139029
X0142229
X0145429
X0148629
X0151588Y0150641
X015385Y0148378
X015526Y0145505
Y0142305
Y0139105
Y0135905
Y0132705
X0154974Y0129518
X0153312Y0126784
X0150759Y0124854
X0147559Y0124831
X0143691Y0124317
X0139549Y0124142
X0139267Y01176
X01365Y01173
X0142441Y0117193
X0146256Y0116689
X0149452Y011686
X0152637Y011717
X0155595Y0118389
X0158079Y0120407
X0160258Y012275
X0161893Y0125501
X0162873Y0128547
X016314Y0131736
Y0134936
Y0138136
Y0141336
Y0144536
X0162997Y0147733
X0161948Y0150756
X0160044Y0153328
X0157781Y015559
X0155393Y0157721
X0152523Y0159136
X0149379Y0159731
X0146179Y015974
X0142979
X0139779
X0136579
X0133379
X0130179
X0126979
X0123779
X0120579
X0117379
X0114179
X0110979
X0107779
X0104579
X0101379
X0098179
X0094979
X0091779
X0088579
X0085379
X0082179
X0078979
X0075779
X0072579
X0069379
X0066179
X0062979
X005978Y0159816
X0056818Y0161027
X0057608Y017735
X0060808
X0064008
X0067208
X0070408
X0073608
X0076808
X0080008
X0083208
X0086408Y0177348
X0089526Y0178065
X0092156Y0179889
X0093862Y0182596
X0094448Y0185742
X0093744Y0188864
X0091937Y0191504
X0091993Y0196915
X0089313Y0195166
X008618Y0194514
X0082981Y0194539
X0079781
X0076581
X0073381
X007018
X006698
X006378
X006058
X005738
X0059422Y0202419
X0062622
X0065822
X0069022
X0072222
X0075422
X0078622
X0081822
X0085022
X0094458Y0202699
X0093833Y0205838
X0092102Y0208529
X0089455Y0210328
X0089531Y0212446
X0086413Y0211727
X0083213Y0211729
X0080013
X0076813
X0073613
X0070413
X0067213
X0064013
X0060813
X0057613
X0056388Y0185229
X0059588
X0062788
X0065988
X0069188
X0072388
X0075588
X0078788
X0081988
X0085188
X0093775Y0199573
X0172767Y0096764
X0171222Y0093962
X0175242Y0098793
X0178313Y0099692
X0181498Y0099387
X0184311Y0097861
X0196639Y0090919
Y0087719
Y0084519
Y0081319
Y0078119
Y0074919
Y0071719
Y0068519
Y0065319
Y0062119
Y0058919
X0207151Y0096772
X0209629Y0098797
X0054097Y0097531
Y0094331
Y0091131
Y0087931
Y0084731
X0053647Y0080081
X0053493Y0072202
X0050293
X00471Y00728
X0041516Y00748
X0038316
X0035116
X0031916
X0028716
X0025516
X0022316
X0019116
X0015916
X0012716
X0009516
X0006321Y0074613
X0003121
X0002667Y0082867
X0005866
X0008909Y008276
X0012108Y008268
X0015308
X0018508
X0021708
X0024908
X0028108
X0031308
X0034508
X0037708
X0040908
X00433Y0083
X0046218Y0084804
Y0088004
Y0091204
Y0094404
Y0097604
Y0100804
X0044795Y010367
X0043463Y010658
X0043553Y0109778
X004502Y0112623
X004758Y0114543
X0050703Y011517
X0053802Y0114373
X0056234Y0112293
X0055951Y0103339
X0054097Y0100731
X0055904Y0152632
X0053033Y0154045
X0050536Y0156046
X004859Y0158586
X0047248Y0161491
X0046625Y016463
X004656Y016783
X0043497Y0168755
X0040297
X0037097
X0033897
X0030697
X0027497
X0024297
X0021097
X0017897
X0014697Y016874
X0011572Y0169429
X0008919Y0171219
X0007178Y0173904
X0006538Y0177039
X0007213Y0180167
X0008985Y0182831
X0011658Y0184591
X0014788Y0185257
X0017988Y0185229
X0021188
X0024388
X0027588
X0030788
X0033988
X0037188
X0040388
X0043588
X0046788
X0049988
X0053188
X0054408Y017735
X0051208
X0050857Y0175189
X0053103Y0172909
X0054292Y0169938
X005444Y0166742
X0054879Y0163572
X0048008Y017735
X0044808
X0041608
X0038408
X0035208
X0032008
X0028808
X0025608
X0022408
X0019208
X0016008
X001578Y0194539
X0018981
X0022181
X0025381
X002858
X003178
X003498
X0038181
X0041381
X0044581
X004778
X0050981
X0054181
X0053022Y0202419
X0056222
X0049822
X0046622
X0043422
X0040222
X0037022
X0033822
X0030622
X0027422
X0024222
X0021022
X0017822
X0014622Y0202424
X0011501Y0201715
X0011578Y0203806
X0008924Y0205594
X000718Y0208277
X0006537Y0211412
X0016013Y0211729
X0019213
X0022413
X0025613
X0028813
X0032013
X0035213
X0038413
X0041613
X0044813
X0048013
X0051213
X0054413
X0008865Y0199901
X0007149Y01972
X0006548Y0194057
X0007244Y0190934
X0009041Y0188286
X0007211Y021454
X0008981Y0217206
X0011653Y0218968
X0014782Y0219635
X0017982Y0219608
X0021182
X0024382
X0027582
X0030782
X0033982
X0037182
X0040382
X0043582
X0046782
X0049982
X0053182
X0054175Y0228919
X0050975
X0047775
X0044575
X0041375
X0038175
X0034975
X0031775
X0028575
X0025375
X0022175
X0018975
X0015775
X0014628Y0236804
X0017828Y0236798
X0021028
X0024228
X0027428
X0030628
X0033828
X0037028
X0040228
X0043428
X0046628
X0049828
X0053028
X0056228
X0054418Y0246108
X0051218
X0048018
X0044818
X0041618
X0038418
X0035218
X0032018
X0028818
X0025618
X0022418
X0019218
X0016018
X0014776Y0254013
X0017976Y0253988
X0021176
X0024376
X0027576
X0030776
X0033976
X0037176
X0040376
X0043576
X0046776
X0049976
X0053176
X005417Y0263298
X005097
X004777
X004457
X004137
X003817
X003497
X003177
X002857
X002537
X002217
X001897
X001577
X0014633Y0271184
X0017833Y0271177
X0021033
X0024233
X0027433
X0030633
X0033833
X0037033
X0040233
X0043433
X0046633
X0049833
X0053033
X0056233
X0054423Y0280487
X0051223
X0048023
X0044823
X0041623
X0038423
X0035223
X0032023
X0028823
X0025623
X0022423
X0019223
X0016023
X001477Y0288391
X001797Y0288367
X002117
X002437
X002757
X003077
X003397
X003717
X004037
X004357
X004677
X004997
X0050284Y0290419
X0048005Y0292666
X0046731Y0295601
X004656Y0298797
Y0301996
X0046555Y0305196
X0046966Y030837
X0048057Y0311378
X0049828Y0314043
X0052136Y031626
X0054911Y0317855
X0055186Y0307939
X005444Y0304827
Y0301627
Y0298427
X005317Y0288367
X0011641Y0287721
X0008972Y0285956
X0007207Y0283287
X0006536Y0280158
X0007185Y0277025
X0008932Y0274344
X0011588Y027256
X0011512Y0270478
X0008873Y0268667
X0007153Y0265969
X0006547Y0262827
X0007239Y0259703
X0009033Y0257053
X0008977Y0251581
X0011647Y0253344
X0007209Y0248914
X0006537Y0245785
X0007182Y0242651
X0008928Y0239969
X0011583Y0238183
X0011507Y0236097
X0008869Y0234284
X0007151Y0231585
X0006548Y0228442
X0007242Y0225318
X0009037Y022267
X0008576Y0364936
X0005376Y0364873
X0002176
X0011773Y036506
X0014973
X0018173
X0021373
X0024573
X0027773
X0030973
X0034173
X0037373
X0040573
X0043773
X0046973
X0050173
X0053373
X0056573
X0059773
X0062973
X0066173
X0069373
X0072573
X0075773
X0078973
X0082173
X0085373
X0088573
X0091773
X0094973
X0098173
X0101373
X0104573
X0107773
X0110973
X0114173
X0117373
X0120573
X0123773
X0126973
X0130173
X0133373
X0136573
X0139773
X0142973
X0146173
X0149373
X0152573
X0155773
X0158973
X0162173
X0165373
X0168573
X0171773
X0174973
X0178173
X0181373
X0184573
X0187773
X0190973
X0194173
X0197373
X0200573
X0203773
X0206973
X0210173
X0208333Y035904
X0205183Y0358479
X0202466Y0356788
X0200626Y035417
X0198413Y0354244
X0199179Y0351137
X0199177Y0347937
Y0344737
Y0341537
Y0338337
Y0335137
Y0331937
Y0328737
Y0325537
Y0322337
Y0319137
Y0315937
Y0312737
Y0309537
Y0306337
Y0303137
Y0299937
Y0296737
Y0293537
Y0290337
Y0287137
Y0283937
Y0280737
X0191297Y0281668
Y0284868
Y0288068
Y0291268
Y0294468
Y0297668
Y0300868
Y0304068
Y0307268
Y0310468
Y0313668
Y0316868
Y0320068
Y0323268
Y0326468
Y0329668
Y0332868
Y0336068
Y0339268
Y0342468
Y0345668
Y0348868
X0181988Y0347454
Y0344254
Y0341054
Y0337854
Y0334654
Y0331454
Y0328254
Y0325054
Y0321854
Y0318654
Y0315454
Y0312254
Y0309054
Y0305854
Y0302654
Y0299454
Y0296254
Y0293054
Y0289854
Y0286654
Y0283454
Y0280254
X0174108Y0280131
Y0283331
Y0286531
Y0289731
Y0292931
Y0296131
Y0299331
Y0302531
Y0305731
Y0308931
Y0312131
Y0315331
Y0318531
Y0321731
Y0324931
Y0328131
Y0331331
Y0334531
Y0337731
Y0340931
Y0344131
Y0347331
Y0350531
X0181997Y0350654
X0181407Y0353799
X0179698Y0356505
X0177067Y0358326
X0173948Y035904
X0170798Y0358477
X0168082Y0356784
X0166245Y0354165
X0164036Y0354238
X0164799Y0351131
X0164798Y0347931
Y0344731
Y0341531
Y0338331
Y0335131
Y0331931
Y0328731
Y0325531
Y0322331
Y0319131
Y0315931
Y0312731
Y0309531
Y0306331
Y0303131
Y0299931
Y0296731
Y0293531
Y0290331
Y0287131
Y0283931
Y0280731
X0156919Y0281675
Y0284875
Y0288074
Y0291274
Y0294475
Y0297674
Y0300874
Y0304075
Y0307275
Y0310474
Y0313674
Y0316875
Y0320075
Y0323274
Y0326474
Y0329675
Y0332874
Y0336074
Y0339275
Y0342475
Y0345674
Y0348874
X0147608Y0347459
Y0344259
Y0341059
Y0337859
Y0334659
Y0331459
Y0328259
Y0325059
Y0321859
Y0318659
Y0315459
Y0312259
Y0309059
Y0305859
Y0302659
Y0299459
Y0296259
Y0293059
Y0289859
Y0286659
Y0283459
Y0280259
X0139729Y0280124
Y0283324
Y0286524
Y0289724
Y0292924
Y0296124
Y0299324
Y0302524
Y0305724
Y0308924
Y0312124
Y0315324
Y0318524
Y0321724
Y0324924
Y0328124
Y0331324
Y0334524
Y0337724
Y0340924
Y0344124
Y0347324
Y0350524
X0147618Y0350659
X0147026Y0353804
X0145315Y0356508
X0142683Y0358328
X0139564Y0359041
X0136414Y0358475
X01337Y0356781
X0131864Y035416
X0129659Y0354233
X013042Y0351125
X0130419Y0347925
Y0344725
Y0341525
Y0338325
Y0335125
Y0331925
Y0328725
Y0325525
Y0322325
Y0319125
Y0315925
Y0312725
Y0309525
Y0306325
Y0303125
Y0299925
Y0296725
Y0293525
Y0290325
Y0287125
Y0283925
Y0280725
X0122539Y0281681
Y0284881
Y0288081
Y0291281
Y0294481
Y0297681
Y0300881
Y0304081
Y0307281
Y0310481
Y0313681
Y0316881
Y0320081
Y0323281
Y0326481
Y0329681
Y0332881
Y0336081
Y0339281
Y0342481
Y0345681
Y0348881
X0113229Y0347464
Y0344264
Y0341064
Y0337864
Y0334664
Y0331464
Y0328264
Y0325064
Y0321864
Y0318664
Y0315464
Y0312264
Y0309064
Y0305864
Y0302664
Y0299464
Y0296264
Y0293064
Y0289864
Y0286664
Y0283464
Y0280264
X010535Y0280117
Y0283317
Y0286517
Y0289717
Y0292917
Y0296117
Y0299317
Y0302517
Y0305717
Y0308917
Y0312117
Y0315317
Y0318517
Y0321717
Y0324917
Y0328117
Y0331317
Y0334517
Y0337717
Y0340917
Y0344117
Y0347317
Y0350517
X011324Y0350664
X0112645Y0353808
X0110933Y0356512
X01083Y035833
X010518Y0359042
X0102031Y0358473
X0099317Y0356777
X0097483Y0354155
X0096754Y0351039
X0096755Y0347839
Y0344639
Y0341439
Y0338239
Y0335039
Y0331839
Y0328639
Y0325439
Y0322239
X0096356Y0319064
X0093157Y0319038
X0089957
X0086757
X0083557
X0080357
X0077157
X0073957
X0070757
X0067557
X0064357
X0061157
X0057965Y031881
X0057383Y0310265
X0060459Y0311149
X0063659Y0311159
X0066859
X0070059
X0073259
X0076459
X0079659
X0082859
X0086059
X0089259
X0092459
X0095659
X0098838Y031152
X0101644Y0313059
X0091926Y0294652
X0089227Y0296371
X0086084Y0296974
X0082884Y0296961
X0079684
X0076484
X0073284
X0070084
X0066884
X0063684
X0060484
X0057284
X005637Y0288367
X005957
X006277
X006597
X006917
X007237
X007557
X007877
X008197
X008517
X0086423Y0280486
X0083223Y0280487
X0080023
X0076823
X0073623
X0070423
X0067223
X0064023
X0060823
X0057623
X0059433Y0271177
X0062633
X0065833
X0069033
X0072233
X0075433
X0078633
X0081833
X0085033
X008617Y0263274
X008297Y0263298
X007977
X007657
X007337
X007017
X006697
X006377
X006057
X005737
X0056376Y0253988
X0059576
X0062776
X0065976
X0069176
X0072376
X0075576
X0078776
X0081976
X0085176
X0086418Y0246106
X0083218Y0246108
X0080018
X0076818
X0073618
X0070418
X0067218
X0064018
X0060818
X0057618
X0059428Y0236798
X0062628
X0065828
X0069028
X0072228
X0075428
X0078628
X0081828
X0085028
X0086175Y0228894
X0082975Y0228919
X0079775
X0076575
X0073375
X0070175
X0066975
X0063775
X0060575
X0057375
X0056382Y0219608
X0059582
X0062782
X0065982
X0069182
X0072382
X0075582
X0078782
X0081982
X0085182
X0094447Y0220126
X0093865Y021698
X0092159Y0214272
X0093742Y0223248
X0091933Y0225887
X0091989Y0231291
X0089308Y0229543
X0093773Y0233947
X0094457Y0237073
X0093835Y0240212
X0092105Y0242904
X008946Y0244705
X0089536Y0246827
X0092163Y0248654
X0093866Y0251363
X0094446Y025451
X009374Y0257631
X009193Y026027
X0091985Y0265666
X0089304Y026392
X0093771Y0268322
X0094457Y0271448
X0093837Y0274587
X0092109Y027728
X0089464Y0279082
X008954Y0281208
X0092166Y0283036
X0093868Y0285746
X0094446Y0288894
X0093739Y0292015
X0105716Y0276938
X0107261Y0274135
X0109735Y0272106
X0112806Y0271206
X0115992Y0271511
X0118805Y0273036
X012085Y0275498
X0123555Y0275426
X0122604Y0278482
X0125625Y0272986
X0128453Y0271489
X0131642Y0271217
X0134703Y0272149
X0137156Y0274204
X0141635Y0274141
X0140094Y0276945
X0144108Y027211
X0147178Y0271207
X0150364Y0271509
X0153178Y0273032
X0155225Y0275492
X0157938Y027542
X0156984Y0278475
X0160009Y0272982
X0162839Y0271487
X0166028Y0271218
X0169088Y0272153
X0171539Y027421
X017601Y0274146
X0174471Y0276952
X0178481Y0272113
X0181551Y0271208
X0184737Y0271507
X0187552Y0273028
X0189601Y0275486
X019232Y0275415
X0191364Y0278469
X0194394Y0272978
X0197224Y0271485
X0200413Y0271219
X0203473Y0272156
X0205923Y0274215
X0210385Y0274152
X0208848Y0276958
X0208487Y0280138
Y0283338
Y0286538
Y0289738
Y0292938
Y0296138
Y0299338
Y0302538
Y0305738
Y0308938
Y0312138
Y0315338
Y0318538
Y0321738
Y0324938
Y0328138
Y0331338
Y0334538
Y0337738
Y0340938
Y0344138
Y0347338
Y0350538
X0211452Y0358324
X0196548Y0356844
X0193815Y0358509
X0190659Y035904
X0187547Y0358295
X0184935Y0356447
X0162173Y035684
X0159441Y0358507
X0156286Y035904
X0153173Y0358297
X0150559Y0356451
X0127798Y0356836
X0125067Y0358505
X0121912Y035904
X0118799Y0358299
X0116184Y0356455
X0214082Y03565
X0215789Y0353794
X0216375Y0350648
X0216367Y0347448
Y0344248
Y0341048
Y0337848
Y0334648
Y0331448
Y0328248
Y0325048
Y0321848
Y0318648
Y0315448
Y0312248
Y0309048
Y0305848
Y0302648
Y0299448
Y0296248
Y0293048
Y0289848
Y0286648
Y0283448
Y0280248
X0215923Y0271209
X0219109Y0271505
X0221926Y0273024
X0223977Y0275481
X0226702Y0275409
X0225744Y0278463
X0225677Y0281662
Y0284862
Y0288062
Y0291262
Y0294462
Y0297662
Y0300862
Y0304062
Y0307262
Y0310462
Y0313662
Y0316862
Y0320062
Y0323262
Y0326462
Y0329662
Y0332862
Y0336062
Y0339262
Y0342462
Y0345662
Y0348862
X0233556Y0347943
Y0344743
Y0341543
Y0338343
Y0335143
Y0331943
Y0328743
Y0325543
Y0322343
Y0319143
Y0315943
Y0312743
Y0309543
Y0306343
Y0303143
Y0299943
Y0296743
Y0293543
Y0290343
Y0287143
Y0283943
Y0280743
X0242866Y0280145
Y0283345
Y0286545
Y0289745
Y0292945
Y0296145
Y0299345
Y0302545
Y0305745
Y0308945
Y0312145
Y0315345
Y0318545
Y0321745
Y0324945
Y0328145
Y0331345
Y0334545
Y0337745
Y0340945
Y0344145
Y0347345
Y0350545
X0250753Y0350641
X0250746Y0347442
Y0344241
Y0341041
Y0337842
Y0334642
Y0331441
Y0328241
Y0325042
Y0321842
Y0318641
Y0315441
Y0312242
Y0309042
Y0305841
Y0302642
Y0299442
Y0296241
Y0293041
Y0289842
Y0286642
Y0283441
Y0280241
X0250296Y027121
X0253482Y0271504
X02563Y0273021
X0258353Y0275475
X0261084Y0275404
X0260124Y0278456
X0260056Y0281656
Y0284856
Y0288056
Y0291256
Y0294456
Y0297656
Y0300856
Y0304056
Y0307256
Y0310456
Y0313656
Y0316856
Y0320056
Y0323256
Y0326456
Y0329656
Y0332856
Y0336056
Y0339256
Y0342456
Y0345656
Y0348856
X0267935Y0347951
Y0344751
Y0341551
Y0338351
Y0335151
Y0331951
Y0328751
Y0325551
Y0322351
Y0319151
Y0315951
Y0312751
Y0309551
Y0306351
Y0303151
Y0299951
Y0296751
Y0293551
Y0290351
Y0287151
Y0283951
Y0280751
X0277245Y0280151
Y0283351
Y0286551
Y0289751
Y0292951
Y0296151
Y0299351
Y0302551
Y0305751
Y0308951
Y0312151
Y0315351
Y0318551
Y0321751
Y0324951
Y0328151
Y0331351
Y0334551
Y0337751
Y0340951
Y0344151
Y0347351
Y0350551
X0285131Y0350635
X0285125Y0347435
Y0344235
Y0341035
Y0337835
Y0334635
Y0331435
Y0328235
Y0325035
Y0321835
Y0318635
Y0315435
Y0312235
Y0309035
Y0305835
Y0302635
Y0299435
Y0296235
Y0293035
Y0289835
Y0286635
Y0283435
Y0280235
X0284669Y0271211
X0287855Y0271502
X0290674Y0273017
X0292729Y027547
X0295466Y0275399
X0294504Y027845
X0294435Y028165
Y028485
Y028805
Y029125
Y029445
Y029765
Y030085
Y030405
Y030725
Y031045
Y031365
Y031685
Y032005
Y032325
Y032645
Y032965
Y033285
Y033605
Y033925
Y034245
Y034565
Y034885
X0302314Y0347958
Y0344758
Y0341558
Y0338358
Y0335158
Y0331958
Y0328758
Y0325558
Y0322358
Y0319158
Y0315958
Y0312758
Y0309558
Y0306358
Y0303158
Y0299958
Y0296758
Y0293558
Y0290358
Y0287158
Y0283958
Y0280758
X0311624Y0280157
Y0283357
Y0286557
Y0289757
Y0292957
Y0296157
Y0299357
Y0302557
Y0305757
Y0308957
Y0312157
Y0315357
Y0318557
Y0321757
Y0324957
Y0328157
Y0331357
Y0334557
Y0337757
Y0340957
Y0344157
Y0347357
Y0350557
X0319509Y0350628
X0319504Y0347428
Y0344228
Y0341028
Y0337828
Y0334628
Y0331428
Y0328228
Y0325028
Y0321828
Y0318628
Y0315428
Y0312228
Y0309028
Y0305828
Y0302628
Y0299428
Y0296228
Y0293028
Y0289828
Y0286628
Y0283428
Y0280228
X0319042Y0271211
X0322229Y0271501
X0325049Y0273013
X0327105Y0275465
X0330718Y027566
X0329177Y0278465
X0328814Y0281644
Y0284844
Y0288044
Y0291244
Y0294444
Y0297644
Y0300844
Y0304044
Y0307244
Y0310444
Y0313644
Y0316844
Y0320044
Y0323244
Y0326444
Y0329644
Y0332844
Y0336044
Y0339244
Y0342444
Y0345644
Y0348844
X0336693Y0347448
Y0344248
Y0341048
Y0337848
Y0334648
Y0331448
Y0328248
Y0325048
X0339255Y0324572
X0341703Y0326633
X0344762Y0327572
X0347951Y0327308
X0350783Y0325817
X0352858Y0323381
X0353816Y0320328
X0356744Y0319038
X0359944
X0363144
X0366344
X0364817Y0311159
X0361617
X0358417
X0355217
X0352031Y0311459
X0349181Y0312915
X0347077Y0315326
X0346083Y0318368
X0345288Y0312068
Y0308868
Y0305668
Y0302468
Y0299268
Y0296068
Y0292868
Y0289668
Y0286468
Y0283268
X0345232Y0280068
X0344308Y0277005
X034226Y0274546
X0339445Y0273024
X033626Y0272724
X033319Y0273628
X0336693Y0283448
Y0286648
Y0289848
Y0293048
Y0296248
Y0299448
Y0302648
Y0305848
Y0309048
Y0312248
Y0315448
Y0318648
Y0321848
X0336702Y0350648
X0336115Y0353794
X0334408Y0356501
X0331778Y0358324
X0328659Y035904
X0325039Y0358284
X0322432Y0356428
X0317233Y0356486
X0318934Y0353775
X0314608Y0358316
X0311491Y035904
X0308339Y0358487
X0305618Y0356803
X0303771Y035419
X0301542Y0354263
X0302316Y0351158
X0299671Y0356859
X0296934Y0358517
X0293777Y035904
X0290666Y0358287
X0288058Y0356433
X0282849Y0356491
X0284552Y0353782
X0280222Y0358319
X0277104Y035904
X0273953Y0358484
X0271233Y0356798
X0269389Y0354183
X0267166Y0354256
X0267937Y0351151
X0265297Y0356854
X0262561Y0358514
X0259405Y035904
X0256294Y035829
X0253684Y0356438
X0248465Y0356496
X025017Y0353788
X0245837Y0358321
X0242719Y035904
X0239567Y0358482
X0236849Y0356793
X0235008Y0354176
X0232789Y035425
X0233558Y0351143
X0230923Y0356849
X0228188Y0358511
X0225032Y035904
X0221921Y0358292
X0219309Y0356443
X0219773Y036506
X0216573
X0213373
X0222973
X0226173
X0229373
X0232573
X0235773
X0238973
X0242173
X0245373
X0248573
X0251773
X0254973
X0258173
X0261373
X0264573
X0267773
X0270973
X0274173
X0277373
X0280573
X0283773
X0286973
X0290173
X0293373
X0296573
X0299773
X0302973
X0306173
X0309373
X0312573
X0315773
X0318973
X0322173
X0325373
X0328573
X0331773
X0334973
X0338173
X0341373
X0344573
X0347773
X0350973
X0354173
X0357373
X0360573
X0363773
X0366973
X0368017Y0311159
X031198Y0276977
X0313511Y0274167
X0309072Y0274231
X0306627Y0272166
X0303569Y0271221
X030038Y0271481
X0297546Y0272966
X0281602Y0272123
X0279135Y0274162
X0277603Y0276971
X0274689Y0274226
X0272242Y0272163
X0269184Y0271221
X0265995Y0271482
X0263162Y027297
X0247228Y027212
X024476Y0274157
X0243225Y0276965
X0240306Y0274221
X0237858Y027216
X0234799Y027122
X023161Y0271484
X0228778Y0272974
X0212855Y0272117
X0315975Y0272126
X038026Y0271503
Y0274704
Y0277904
Y0281103
Y0284303
Y0287504
Y0290704
Y0293903
Y0297104
X0380264Y0300304
X0380736Y0303468
X0381885Y0306455
X0383723Y0309075
X0384017Y0311159
X0380817
X0377617
X0374417
X0371217
X0372744Y0319038
X0375944
X0379144
X0382344
X0385544
X0388744
X0391944
X0395144
X0398344
X0401544
X0404744
X0407944
X0411121Y0318652
X0417335Y031644
X0420535
X0423735
X0426935
X0430135
X0433335
X0436535
X0439735
X0442935
X0441026Y0318968
X0439356Y0321698
X0438357Y0324738
X043806Y0327924
Y0331124
Y0334325
Y0337525
X0436283Y0340185
X043496Y0343099
X0435059Y0346298
X0436532Y0349139
X0439098Y035105
X0442203Y035167
X0445302Y0350873
X0447734Y0348793
X0449043Y0345873
X0448934Y0342675
X0447451Y0339839
X044594Y0337018
Y0333819
Y0330619
X0445959Y0327418
X044688Y0324354
X0449246Y0322199
X0452368Y0321499
X0455568
X0458768
X0461968
X0465168
X0468368
X0471566Y0321384
X0479061Y03189
X0482261
X0485461
X0488661
X0491861
X0495061
X0498261
X0501461
X0504661
X0507861
X0511061
X0514261
X0517461
X0520661
X0523861
X0523773Y0311021
X0520573
X0517373
X0514173
X0510973
X0507773
X0504573
X0501373
X0498173
X0494973
X0491773
X0488573
X0485373
X0482173
X0478973
X04728Y03088
X0469737Y0308428
X046654Y030856
X046334
X046014
X045694
X045374
X045054
X044734
X044414
X044094
X043774
X043454
X043134
X042814
X042494
X042174
X041854
X041534
X0410428Y030607
X040723Y0305962
X040403
X040083
X039763
X039443
X0391323Y0305196
X0389014Y0302981
X0388145Y0299902
X038814Y0296702
Y0293502
Y0290302
Y0287102
Y0283902
Y0280702
Y0277502
Y0274302
Y0271102
Y0267902
Y0264702
Y0261502
Y0258302
Y0255102
Y0251902
Y0248702
Y0245502
Y0242302
Y0239102
Y0235902
Y0232702
Y0229502
Y0226302
Y0223102
Y0219902
Y0216702
Y0213502
X038026Y0213903
Y0217104
Y0220304
Y0223503
Y0226704
Y0229904
Y0233103
Y0236303
Y0239504
Y0242704
Y0245903
Y0249103
Y0252304
Y0255504
Y0258703
Y0261904
Y0265104
Y0268303
X0369544Y0319038
X0370173Y036506
X0373373
X0376573
X0379773
X0382973
X0386173
X0389373
X0392573
X0395773
X0398973
X0402173
X0405373
X0408573
X0411773
X0414973
X0418173
X0421373
X0424573
X0427773
X0430973
X0434173
X0437373
X0440573
X0443773
X0446973
X0450173
X0453373
X0456573
X0459773
X0462973
X0466173
X0469373
X0472573
X0475773
X0478973
X0482173
X0485373
X0488573
X0491773
X0494973
X0498173
X0501373
X0504573
X0507773
X0510973
X0514173
X0517373
X0520573
X0523773
X0526973
X0530173
X0533373
X0536573
X0539773
X0542973
X0546173
X0549373
X0552573
X0555773
X0558973
X0562173
X0565373
X0568573
X0571773
X0574973
X0578173
X0581373
X0584568Y0364873
X0587768
X0587856Y0319087
X0584656
X0581461Y0318906
X0578261Y03189
X0575061
X0571861
X0568661
X0565461
X0562261
X0559061
X0555861
X0552661
X0549461
X0546261
X0543061
X0539861
X0536661
X0533461
X0530261
X0527061
X0526973Y0311021
X0530173
X0533373
X0536573
X0539773
X0542973
X0546173
X0549373
X0552573
X0555773
X0558973
X0562173
X0565373
X0568573
X0571773
X0574973
X0578173
X0581373
X0584568Y0310834
X0587768
X0586023Y0373127
X0582823
X0579629Y037294
X0576429
X0573229
X0570029
X0566829
X0563629
X0560429
X0557229
X0554029
X0550829
X0547629
X0544429
X0541229
X0538029
X0534829
X0531629
X0528429
X0525229
X0522029
X0518829
X0515629
X0512429
X0509229
X0506029
X0502829
X0499629
X0496429
X0493229
X0490029
X0486829
X0483629
X0480429
X0477229
X0474029
X0470829
X0467629
X0464429
X0461229
X0458029
X0454829
X0451629
X0448429
X0445229
X0442029
X0438829
X0435629
X0432429
X0429229
X0426029
X0422829
X0419629
X0416429
X0413229
X0410029
X0406829
X0403629
X0400429
X0397229
X0394029
X0390829
X0387629
X0384429
X0381229
X0378029
X0374829
X0371629
X0368429
X0365229
X0362029
X0358829
X0355629
X0352429
X0349229
X0346029
X0342829
X0339629
X0336429
X0333229
X0330029
X0326829
X0323629
X0320429
X0317229
X0314029
X0310829
X0307629
X0304429
X0301229
X0298029
X0294829
X0291629
X0288429
X0285229
X0282029
X0278829
X0275629
X0272429
X0269229
X0266029
X0262829
X0259629
X0256429
X0253229
X0250029
X0246829
X0243629
X0240429
X0237229
X0234029
X0230829
X0227629
X0224429
X0221229
X0218029
X0214829
X0211629
X0208429
X0205229
X0202029
X0198829
X0195629
X0192429
X0189229
X0186029
X0182829
X0179629
X0176429
X0173229
X0170029
X0166829
X0163629
X0160429
X0157229
X0154029
X0150829
X0147629
X0144429
X0141229
X0138029
X0134829
X0131629
X0128429
X0125229
X0122029
X0118829
X0115629
X0112429
X0109229
X0106029
X0102829
X0099629
X0096429
X0093229
X0090029
X0086829
X0083629
X0080429
X0077229
X0074029
X0070829
X0067629
X0064429
X0061229
X0058029
X0054829
X0051629
X0048429
X0045229
X0042029
X0038829
X0035629
X0032429
X0029229
X0026029
X0022829
X0019629
X0016429
X0013229
X0010029
X0006834Y0373127
X0003634
T02
X0113386Y004124
X0128326Y0041549
X0136417Y0032382
X0129516Y005874
X0119587Y0073228
X01088Y00678
X0118996Y0112894
X01237Y01093
X01287Y01066
X0131791Y010748
X012989Y0123791
X0124311Y0133563
X01086Y01422
X00619Y01194
X0061327Y0097173
X0039673
Y0118827
X0431173Y0333673
Y0355327
X0452827
Y0333673
T03
X005Y00248
Y00348
X006
X007
Y00248
X006
M30
