G04*
G04 #@! TF.GenerationSoftware,Altium Limited,Altium Designer,20.0.9 (164)*
G04*
G04 Layer_Color=65535*
%FSLAX25Y25*%
%MOIN*%
G70*
G01*
G75*
%ADD10C,0.00787*%
%ADD11C,0.01181*%
%ADD12C,0.00400*%
%ADD13C,0.00500*%
%ADD14C,0.01200*%
%ADD15C,0.01000*%
%ADD16C,0.00600*%
%ADD17C,0.00800*%
D10*
X121031Y128713D02*
G03*
X121031Y128713I-394J0D01*
G01*
X442394Y362216D02*
G03*
X442394Y362216I-394J0D01*
G01*
X50894Y125716D02*
G03*
X50894Y125716I-394J0D01*
G01*
X120658Y63661D02*
G03*
X120658Y63661I-394J0D01*
G01*
X32677Y24311D02*
Y25492D01*
X127069Y142009D02*
Y143191D01*
X45000Y19800D02*
Y39800D01*
X75000Y19800D02*
Y39800D01*
X45000Y19800D02*
X75000D01*
X45000Y39800D02*
X75000D01*
X45000D02*
X64167D01*
X126695Y76958D02*
Y78139D01*
D11*
X111780Y119765D02*
G03*
X111780Y119765I-118J0D01*
G01*
X81083Y78738D02*
G03*
X81083Y78738I-118J0D01*
G01*
X44291Y81378D02*
G03*
X44291Y81378I-118J0D01*
G01*
X415102Y309862D02*
G03*
X415102Y309862I-118J0D01*
G01*
X476205Y312323D02*
G03*
X476205Y312323I-118J0D01*
G01*
X110480Y54665D02*
G03*
X110480Y54665I-118J0D01*
G01*
D12*
X252200Y231500D02*
X253800D01*
X251400Y231100D02*
X254600D01*
X251400Y230700D02*
X254600D01*
X251000Y230300D02*
X255000D01*
X251000Y229900D02*
X255000D01*
X251000Y229500D02*
X255000D01*
X251400Y229100D02*
X255400D01*
X251400Y228700D02*
X255800D01*
X251400Y228300D02*
X256600D01*
X233400Y227900D02*
X235800D01*
X251000D02*
X253000D01*
X254200D02*
X257000D01*
X232600Y227500D02*
X236200D01*
X251000D02*
X253000D01*
X254600D02*
X257400D01*
X232200Y227100D02*
X236600D01*
X250600D02*
X252600D01*
X255000D02*
X257800D01*
X232200Y226700D02*
X237000D01*
X250600D02*
X252600D01*
X255800D02*
X258600D01*
X231800Y226300D02*
X237000D01*
X250200D02*
X252200D01*
X256200D02*
X259000D01*
X231800Y225900D02*
X237400D01*
X250200D02*
X252200D01*
X256600D02*
X259400D01*
X231800Y225500D02*
X237400D01*
X249800D02*
X251800D01*
X257000D02*
X259800D01*
X231800Y225100D02*
X237400D01*
X249800D02*
X251800D01*
X257800D02*
X260600D01*
X231800Y224700D02*
X238200D01*
X249800D02*
X251400D01*
X258200D02*
X261000D01*
X279800D02*
X282200D01*
X231800Y224300D02*
X239000D01*
X249400D02*
X251400D01*
X258600D02*
X261400D01*
X261800D02*
X264200D01*
X279400D02*
X282600D01*
X232200Y223900D02*
X240200D01*
X249400D02*
X251000D01*
X259000D02*
X264600D01*
X279000D02*
X283000D01*
X232600Y223500D02*
X241000D01*
X249000D02*
X251000D01*
X259800D02*
X265000D01*
X279000D02*
X283400D01*
X233000Y223100D02*
X236200D01*
X237400D02*
X241800D01*
X249000D02*
X251000D01*
X260200D02*
X265400D01*
X278600D02*
X283400D01*
X233800Y222700D02*
X235000D01*
X238600D02*
X242600D01*
X248600D02*
X250600D01*
X260600D02*
X265400D01*
X278600D02*
X283400D01*
X239400Y222300D02*
X243800D01*
X248600D02*
X250600D01*
X260600D02*
X265400D01*
X279000D02*
X283400D01*
X240200Y221900D02*
X244600D01*
X248200D02*
X250200D01*
X260600D02*
X265400D01*
X278600D02*
X283000D01*
X241000Y221500D02*
X245400D01*
X248200D02*
X250200D01*
X260600D02*
X265800D01*
X278200D02*
X283000D01*
X242200Y221100D02*
X249800D01*
X260600D02*
X266200D01*
X277400D02*
X282600D01*
X243000Y220700D02*
X249800D01*
X261000D02*
X267000D01*
X277000D02*
X279800D01*
X280200D02*
X281800D01*
X243800Y220300D02*
X250200D01*
X261000D02*
X267800D01*
X276600D02*
X279400D01*
X244600Y219900D02*
X250200D01*
X261800D02*
X264600D01*
X265000D02*
X268200D01*
X276200D02*
X279000D01*
X245000Y219500D02*
X250600D01*
X262200D02*
X263800D01*
X265400D02*
X269000D01*
X275800D02*
X278200D01*
X245000Y219100D02*
X250600D01*
X262200D02*
X263800D01*
X266200D02*
X269800D01*
X275400D02*
X277800D01*
X245000Y218700D02*
X250600D01*
X262200D02*
X263800D01*
X267000D02*
X270200D01*
X274600D02*
X277400D01*
X245000Y218300D02*
X251000D01*
X262200D02*
X263800D01*
X267800D02*
X271000D01*
X274200D02*
X277000D01*
X245000Y217900D02*
X251400D01*
X262200D02*
X263800D01*
X268200D02*
X271800D01*
X273800D02*
X276600D01*
X245000Y217500D02*
X251800D01*
X262200D02*
X263800D01*
X269000D02*
X272600D01*
X273400D02*
X276200D01*
X245000Y217100D02*
X252200D01*
X262200D02*
X263800D01*
X269800D02*
X275400D01*
X244600Y216700D02*
X253000D01*
X262200D02*
X263800D01*
X270200D02*
X275000D01*
X224600Y216300D02*
X226200D01*
X244200D02*
X249800D01*
X250600D02*
X253400D01*
X262200D02*
X263800D01*
X271000D02*
X274600D01*
X223800Y215900D02*
X227000D01*
X243800D02*
X249400D01*
X251000D02*
X253800D01*
X262200D02*
X263800D01*
X271800D02*
X274200D01*
X223400Y215500D02*
X227400D01*
X243400D02*
X246200D01*
X251400D02*
X254200D01*
X262200D02*
X263800D01*
X272200D02*
X274600D01*
X223000Y215100D02*
X227400D01*
X243000D02*
X245800D01*
X251800D02*
X254600D01*
X262200D02*
X263800D01*
X272600D02*
X275000D01*
X223000Y214700D02*
X227400D01*
X242600D02*
X245400D01*
X252600D02*
X255000D01*
X262200D02*
X263800D01*
X273000D02*
X275000D01*
X223000Y214300D02*
X227800D01*
X242200D02*
X245000D01*
X253000D02*
X255800D01*
X262200D02*
X263800D01*
X273400D02*
X275400D01*
X223000Y213900D02*
X227800D01*
X241800D02*
X244600D01*
X253400D02*
X256200D01*
X262200D02*
X263800D01*
X273400D02*
X275800D01*
X223000Y213500D02*
X228600D01*
X241400D02*
X244200D01*
X253800D02*
X256600D01*
X262200D02*
X263800D01*
X273800D02*
X276200D01*
X223000Y213100D02*
X229800D01*
X237800D02*
X238600D01*
X241000D02*
X243800D01*
X254200D02*
X257000D01*
X262200D02*
X263800D01*
X274200D02*
X276200D01*
X223400Y212700D02*
X230600D01*
X236200D02*
X239800D01*
X240600D02*
X243400D01*
X254600D02*
X257400D01*
X262200D02*
X263800D01*
X274600D02*
X276600D01*
X223800Y212300D02*
X231400D01*
X235400D02*
X243000D01*
X255000D02*
X257800D01*
X262200D02*
X263800D01*
X274600D02*
X277000D01*
X224600Y211900D02*
X226200D01*
X228200D02*
X232200D01*
X235000D02*
X242600D01*
X255800D02*
X258200D01*
X262200D02*
X263800D01*
X275000D02*
X277000D01*
X229000Y211500D02*
X233000D01*
X234600D02*
X242200D01*
X256200D02*
X259000D01*
X262200D02*
X263800D01*
X275400D02*
X277400D01*
X229800Y211100D02*
X241800D01*
X256600D02*
X259400D01*
X262200D02*
X263800D01*
X275400D02*
X277800D01*
X230600Y210700D02*
X241800D01*
X257000D02*
X259800D01*
X262200D02*
X263800D01*
X275800D02*
X278200D01*
X231400Y210300D02*
X242200D01*
X257400D02*
X260200D01*
X262200D02*
X263800D01*
X276200D02*
X278200D01*
X232600Y209900D02*
X242200D01*
X257800D02*
X260600D01*
X262200D02*
X263800D01*
X276600D02*
X278600D01*
X233400Y209500D02*
X242200D01*
X258600D02*
X261000D01*
X262200D02*
X263800D01*
X276600D02*
X279000D01*
X233800Y209100D02*
X242200D01*
X259000D02*
X264600D01*
X277000D02*
X279000D01*
X233800Y208700D02*
X242200D01*
X259400D02*
X265400D01*
X277400D02*
X279400D01*
X233800Y208300D02*
X242200D01*
X259800D02*
X265800D01*
X277400D02*
X279800D01*
X233800Y207900D02*
X242200D01*
X260200D02*
X266200D01*
X277800D02*
X280200D01*
X233800Y207500D02*
X242200D01*
X259800D02*
X266200D01*
X278200D02*
X280200D01*
X234200Y207100D02*
X242200D01*
X259400D02*
X266600D01*
X278600D02*
X281000D01*
X234200Y206700D02*
X242600D01*
X259400D02*
X266600D01*
X278600D02*
X281400D01*
X234600Y206300D02*
X243000D01*
X259400D02*
X266600D01*
X279000D02*
X281800D01*
X235000Y205900D02*
X243800D01*
X259400D02*
X266600D01*
X279000D02*
X281800D01*
X234600Y205500D02*
X244200D01*
X259400D02*
X266600D01*
X279000D02*
X281800D01*
X234600Y205100D02*
X240200D01*
X241800D02*
X244600D01*
X257800D02*
X266600D01*
X279400D02*
X281800D01*
X234200Y204700D02*
X236200D01*
X236600D02*
X239400D01*
X242200D02*
X245400D01*
X247000D02*
X248600D01*
X256600D02*
X266600D01*
X279400D02*
X281400D01*
X233800Y204300D02*
X236200D01*
X242600D02*
X245800D01*
X246200D02*
X249400D01*
X255400D02*
X266200D01*
X233800Y203900D02*
X235800D01*
X243400D02*
X249800D01*
X254200D02*
X266200D01*
X233400Y203500D02*
X235400D01*
X243800D02*
X250200D01*
X252600D02*
X258600D01*
X260200D02*
X266600D01*
X233000Y203100D02*
X235400D01*
X244600D02*
X250600D01*
X251400D02*
X257400D01*
X260600D02*
X267000D01*
X233000Y202700D02*
X235000D01*
X245000D02*
X255800D01*
X261000D02*
X267800D01*
X232600Y202300D02*
X234600D01*
X245000D02*
X254600D01*
X261800D02*
X264200D01*
X265400D02*
X268200D01*
X232200Y201900D02*
X234200D01*
X244600D02*
X253400D01*
X265800D02*
X268600D01*
X232200Y201500D02*
X234200D01*
X245000D02*
X252200D01*
X266200D02*
X269000D01*
X231800Y201100D02*
X233800D01*
X245000D02*
X251000D01*
X266600D02*
X269400D01*
X231000Y200700D02*
X233400D01*
X245000D02*
X250600D01*
X267400D02*
X269800D01*
X271000D02*
X271400D01*
X230200Y200300D02*
X233400D01*
X245400D02*
X250200D01*
X267800D02*
X272600D01*
X229800Y199900D02*
X233000D01*
X245400D02*
X249800D01*
X268200D02*
X273000D01*
X229400Y199500D02*
X233000D01*
X245800D02*
X249400D01*
X268600D02*
X273000D01*
X229400Y199100D02*
X233000D01*
X246600D02*
X249000D01*
X269000D02*
X273000D01*
X229400Y198700D02*
X233000D01*
X269000D02*
X273400D01*
X229800Y198300D02*
X233000D01*
X269000D02*
X273400D01*
X229800Y197900D02*
X232600D01*
X269400D02*
X273000D01*
X230200Y197500D02*
X232600D01*
X269400D02*
X273000D01*
X269800Y197100D02*
X272600D01*
X270600Y196700D02*
X271800D01*
X216600Y193500D02*
X219800D01*
X225400D02*
X228200D01*
X233800D02*
X237000D01*
X241800D02*
X246600D01*
X253400D02*
X258200D01*
X262600D02*
X265400D01*
X271400D02*
X274200D01*
X281000D02*
X285800D01*
X216600Y193100D02*
X219800D01*
X225000D02*
X228600D01*
X233800D02*
X237000D01*
X241000D02*
X247400D01*
X252600D02*
X259400D01*
X262600D02*
X265800D01*
X271000D02*
X274600D01*
X279800D02*
X286600D01*
X216600Y192700D02*
X220200D01*
X225000D02*
X228600D01*
X233400D02*
X236600D01*
X240200D02*
X248200D01*
X251800D02*
X260200D01*
X262600D02*
X265800D01*
X271000D02*
X274600D01*
X279400D02*
X287400D01*
X216600Y192300D02*
X220200D01*
X225000D02*
X228600D01*
X233400D02*
X236600D01*
X239800D02*
X248600D01*
X251400D02*
X260200D01*
X262600D02*
X266200D01*
X271000D02*
X274600D01*
X278600D02*
X288200D01*
X217000Y191900D02*
X220200D01*
X224600D02*
X229000D01*
X233400D02*
X236600D01*
X239000D02*
X249400D01*
X251000D02*
X260200D01*
X262600D02*
X266600D01*
X271000D02*
X274600D01*
X278200D02*
X288600D01*
X217000Y191500D02*
X220600D01*
X224600D02*
X229000D01*
X233000D02*
X236200D01*
X238600D02*
X249400D01*
X250600D02*
X259800D01*
X262600D02*
X267000D01*
X271000D02*
X274600D01*
X277800D02*
X288600D01*
X217000Y191100D02*
X220600D01*
X224600D02*
X229000D01*
X233000D02*
X236200D01*
X238600D02*
X249400D01*
X250600D02*
X259800D01*
X262600D02*
X267400D01*
X271000D02*
X274600D01*
X277400D02*
X288600D01*
X217400Y190700D02*
X220600D01*
X224200D02*
X229400D01*
X233000D02*
X236200D01*
X238200D02*
X243000D01*
X245800D02*
X249000D01*
X250600D02*
X254200D01*
X257800D02*
X259800D01*
X262600D02*
X267800D01*
X271000D02*
X274600D01*
X277400D02*
X281800D01*
X285000D02*
X288200D01*
X217400Y190300D02*
X221000D01*
X224200D02*
X229400D01*
X232600D02*
X235800D01*
X237800D02*
X242200D01*
X246600D02*
X248600D01*
X250200D02*
X253800D01*
X259000D02*
X259400D01*
X262600D02*
X267800D01*
X271000D02*
X274600D01*
X277000D02*
X281400D01*
X285800D02*
X287800D01*
X217400Y189900D02*
X221000D01*
X224200D02*
X229400D01*
X232600D02*
X235800D01*
X237800D02*
X241800D01*
X247000D02*
X248200D01*
X250200D02*
X253800D01*
X262600D02*
X268200D01*
X271000D02*
X274600D01*
X276600D02*
X280600D01*
X286200D02*
X287400D01*
X217800Y189500D02*
X221000D01*
X223800D02*
X229400D01*
X232600D02*
X235800D01*
X237800D02*
X241400D01*
X250200D02*
X253800D01*
X262600D02*
X268600D01*
X271000D02*
X274600D01*
X276600D02*
X280200D01*
X217800Y189100D02*
X221400D01*
X223800D02*
X229800D01*
X232200D02*
X235400D01*
X237400D02*
X241000D01*
X250200D02*
X254200D01*
X262600D02*
X269000D01*
X271000D02*
X274600D01*
X276600D02*
X280200D01*
X217800Y188700D02*
X221400D01*
X223800D02*
X229800D01*
X232200D02*
X235400D01*
X237400D02*
X241000D01*
X250600D02*
X255400D01*
X262600D02*
X269400D01*
X271000D02*
X274600D01*
X276600D02*
X279800D01*
X218200Y188300D02*
X221400D01*
X223400D02*
X226600D01*
X227000D02*
X229800D01*
X232200D02*
X235400D01*
X237400D02*
X240600D01*
X250600D02*
X257000D01*
X262600D02*
X269400D01*
X271000D02*
X274600D01*
X276200D02*
X279800D01*
X218200Y187900D02*
X221800D01*
X223400D02*
X226600D01*
X227000D02*
X230200D01*
X231800D02*
X235000D01*
X237400D02*
X240600D01*
X250600D02*
X258200D01*
X262600D02*
X269800D01*
X271000D02*
X274600D01*
X276200D02*
X279800D01*
X218200Y187500D02*
X221800D01*
X223400D02*
X226200D01*
X227000D02*
X230200D01*
X231800D02*
X235000D01*
X237400D02*
X240600D01*
X251000D02*
X259000D01*
X262600D02*
X265800D01*
X266200D02*
X270200D01*
X271000D02*
X274600D01*
X276200D02*
X279400D01*
X285800D02*
X288600D01*
X218600Y187100D02*
X221800D01*
X223000D02*
X226200D01*
X227400D02*
X230200D01*
X231800D02*
X235000D01*
X237400D02*
X240600D01*
X251400D02*
X259800D01*
X262600D02*
X265800D01*
X266600D02*
X270600D01*
X271000D02*
X274600D01*
X276200D02*
X279400D01*
X285400D02*
X288600D01*
X218600Y186700D02*
X221800D01*
X223000D02*
X226200D01*
X227400D02*
X230600D01*
X231400D02*
X234600D01*
X237400D02*
X240600D01*
X252200D02*
X260200D01*
X262600D02*
X265800D01*
X266600D02*
X274600D01*
X276200D02*
X279400D01*
X285400D02*
X288600D01*
X218600Y186300D02*
X222200D01*
X223000D02*
X225800D01*
X227400D02*
X230600D01*
X231400D02*
X234600D01*
X237400D02*
X240600D01*
X253000D02*
X260600D01*
X262600D02*
X265800D01*
X267000D02*
X274600D01*
X276200D02*
X279800D01*
X285400D02*
X288600D01*
X219000Y185900D02*
X222200D01*
X222600D02*
X225800D01*
X227800D02*
X230600D01*
X231400D02*
X234600D01*
X237400D02*
X240600D01*
X254200D02*
X260600D01*
X262600D02*
X265800D01*
X267400D02*
X274600D01*
X276200D02*
X279800D01*
X285400D02*
X288600D01*
X219000Y185500D02*
X222200D01*
X222600D02*
X225800D01*
X227800D02*
X234200D01*
X237400D02*
X241000D01*
X255800D02*
X260600D01*
X262600D02*
X265800D01*
X267800D02*
X274600D01*
X276600D02*
X279800D01*
X285400D02*
X288600D01*
X219000Y185100D02*
X225400D01*
X227800D02*
X234200D01*
X237400D02*
X241000D01*
X257000D02*
X261000D01*
X262600D02*
X265800D01*
X268200D02*
X274600D01*
X276600D02*
X280200D01*
X285400D02*
X288600D01*
X219400Y184700D02*
X225400D01*
X228200D02*
X234200D01*
X237800D02*
X241400D01*
X247400D02*
X247800D01*
X257400D02*
X261000D01*
X262600D02*
X265800D01*
X268600D02*
X274600D01*
X276600D02*
X280200D01*
X285400D02*
X288600D01*
X219400Y184300D02*
X225400D01*
X228200D02*
X233800D01*
X237800D02*
X241800D01*
X247000D02*
X248200D01*
X251000D02*
X251400D01*
X257800D02*
X261000D01*
X262600D02*
X265800D01*
X268600D02*
X274600D01*
X277000D02*
X280600D01*
X285400D02*
X288600D01*
X219400Y183900D02*
X225000D01*
X228200D02*
X233800D01*
X237800D02*
X242200D01*
X246200D02*
X248600D01*
X251000D02*
X252200D01*
X257400D02*
X261000D01*
X262600D02*
X265800D01*
X269000D02*
X274600D01*
X277000D02*
X281400D01*
X285400D02*
X288600D01*
X219800Y183500D02*
X225000D01*
X228600D02*
X233800D01*
X238200D02*
X243000D01*
X245400D02*
X249000D01*
X250600D02*
X253400D01*
X257000D02*
X260600D01*
X262600D02*
X265800D01*
X269400D02*
X274600D01*
X277400D02*
X282200D01*
X285000D02*
X288600D01*
X219800Y183100D02*
X225000D01*
X228600D02*
X233400D01*
X238600D02*
X249400D01*
X250600D02*
X260600D01*
X262600D02*
X265800D01*
X269800D02*
X274600D01*
X277400D02*
X288600D01*
X219800Y182700D02*
X224600D01*
X228600D02*
X233400D01*
X239000D02*
X249400D01*
X250200D02*
X260600D01*
X262600D02*
X265800D01*
X270200D02*
X274600D01*
X277800D02*
X288600D01*
X220200Y182300D02*
X224600D01*
X228600D02*
X233400D01*
X239000D02*
X249000D01*
X250200D02*
X260200D01*
X262600D02*
X265800D01*
X270200D02*
X274600D01*
X278200D02*
X288600D01*
X220200Y181900D02*
X224600D01*
X229000D02*
X233000D01*
X239800D02*
X248600D01*
X250200D02*
X259800D01*
X262600D02*
X265800D01*
X270600D02*
X274600D01*
X278600D02*
X288200D01*
X220200Y181500D02*
X224200D01*
X229000D02*
X233000D01*
X240200D02*
X248200D01*
X250600D02*
X259400D01*
X262600D02*
X265800D01*
X271000D02*
X274600D01*
X279400D02*
X287800D01*
X220600Y181100D02*
X224200D01*
X229000D02*
X233000D01*
X241000D02*
X247400D01*
X251800D02*
X258600D01*
X262600D02*
X265800D01*
X271400D02*
X274600D01*
X280200D02*
X286600D01*
X220600Y180700D02*
X223800D01*
X229400D02*
X232600D01*
X242200D02*
X246200D01*
X253000D02*
X257800D01*
X262600D02*
X265800D01*
X271800D02*
X274200D01*
X281000D02*
X285400D01*
D13*
X123984Y129697D02*
X125165D01*
X123984Y128516D02*
Y129697D01*
Y117886D02*
Y119067D01*
Y117886D02*
X125165D01*
X135795Y128516D02*
Y129697D01*
X134614D02*
X135795D01*
X134614Y117886D02*
X135795D01*
Y119067D01*
X109674Y121438D02*
Y126162D01*
X118926Y121438D02*
Y126162D01*
X437669Y330720D02*
X446331D01*
X437669Y358279D02*
X446331D01*
X46169Y94221D02*
X54831D01*
X46169Y121780D02*
X54831D01*
X82638Y80726D02*
X87362D01*
X82638Y71474D02*
X87362D01*
X45847Y83366D02*
X50571D01*
X45847Y74114D02*
X50571D01*
X408587Y307874D02*
X413311D01*
X408587Y317126D02*
X413311D01*
X469689Y310335D02*
X474413D01*
X469689Y319587D02*
X474413D01*
X108374Y56338D02*
Y61062D01*
X117626Y56338D02*
Y61062D01*
X123610Y64646D02*
X124791D01*
X123610Y63465D02*
Y64646D01*
Y52835D02*
Y54016D01*
Y52835D02*
X124791D01*
X135421Y63465D02*
Y64646D01*
X134240D02*
X135421D01*
X134240Y52835D02*
X135421D01*
Y54016D01*
D14*
X283416Y109199D02*
X284082Y109866D01*
X285415D01*
X286082Y109199D01*
Y108533D01*
X285415Y107867D01*
X284749D01*
X285415D01*
X286082Y107200D01*
Y106534D01*
X285415Y105867D01*
X284082D01*
X283416Y106534D01*
X290080Y105867D02*
X287415D01*
X290080Y108533D01*
Y109199D01*
X289414Y109866D01*
X288081D01*
X287415Y109199D01*
X294079Y109866D02*
X291413D01*
Y107867D01*
X292746Y108533D01*
X293413D01*
X294079Y107867D01*
Y106534D01*
X293413Y105867D01*
X292080D01*
X291413Y106534D01*
X295412Y109199D02*
X296078Y109866D01*
X297411D01*
X298078Y109199D01*
Y106534D01*
X297411Y105867D01*
X296078D01*
X295412Y106534D01*
Y109199D01*
X299411Y105867D02*
Y106534D01*
X300077D01*
Y105867D01*
X299411D01*
X302743Y109199D02*
X303409Y109866D01*
X304742D01*
X305409Y109199D01*
Y108533D01*
X304742Y107867D01*
X305409Y107200D01*
Y106534D01*
X304742Y105867D01*
X303409D01*
X302743Y106534D01*
Y107200D01*
X303409Y107867D01*
X302743Y108533D01*
Y109199D01*
X303409Y107867D02*
X304742D01*
X313406Y109866D02*
Y105867D01*
X311407D01*
X310740Y106534D01*
Y107867D01*
X311407Y108533D01*
X313406D01*
X316738Y105867D02*
X315406D01*
X314739Y106534D01*
Y107867D01*
X315406Y108533D01*
X316738D01*
X317405Y107867D01*
Y107200D01*
X314739D01*
X320071Y104534D02*
X320737D01*
X321404Y105201D01*
Y108533D01*
X319404D01*
X318738Y107867D01*
Y106534D01*
X319404Y105867D01*
X321404D01*
X328068D02*
X326735Y107200D01*
Y108533D01*
X328068Y109866D01*
X330067Y109199D02*
X330734Y109866D01*
X332067D01*
X332733Y109199D01*
Y108533D01*
X332067Y107867D01*
X331400D01*
X332067D01*
X332733Y107200D01*
Y106534D01*
X332067Y105867D01*
X330734D01*
X330067Y106534D01*
X334066Y109199D02*
X334733Y109866D01*
X336066D01*
X336732Y109199D01*
Y108533D01*
X336066Y107867D01*
X336732Y107200D01*
Y106534D01*
X336066Y105867D01*
X334733D01*
X334066Y106534D01*
Y107200D01*
X334733Y107867D01*
X334066Y108533D01*
Y109199D01*
X334733Y107867D02*
X336066D01*
X340731Y109866D02*
X339398Y109199D01*
X338065Y107867D01*
Y106534D01*
X338731Y105867D01*
X340064D01*
X340731Y106534D01*
Y107200D01*
X340064Y107867D01*
X338065D01*
X344729Y109866D02*
X342063D01*
Y107867D01*
X343396Y108533D01*
X344063D01*
X344729Y107867D01*
Y106534D01*
X344063Y105867D01*
X342730D01*
X342063Y106534D01*
X348728Y105867D02*
X346062D01*
X348728Y108533D01*
Y109199D01*
X348062Y109866D01*
X346729D01*
X346062Y109199D01*
X350061Y105867D02*
Y106534D01*
X350727D01*
Y105867D01*
X350061D01*
X353393Y109866D02*
X356059D01*
Y109199D01*
X353393Y106534D01*
Y105867D01*
X357392Y109866D02*
X360058D01*
Y109199D01*
X357392Y106534D01*
Y105867D01*
X361391Y109199D02*
X362057Y109866D01*
X363390D01*
X364056Y109199D01*
Y106534D01*
X363390Y105867D01*
X362057D01*
X361391Y106534D01*
Y109199D01*
X365389Y105867D02*
Y108533D01*
X366056D01*
X366722Y107867D01*
Y105867D01*
Y107867D01*
X367389Y108533D01*
X368055Y107867D01*
Y105867D01*
X369388D02*
X370721D01*
X370055D01*
Y108533D01*
X369388D01*
X372720Y105867D02*
X374053D01*
X373387D01*
Y109866D01*
X372720D01*
X376053Y105867D02*
X378052D01*
X378718Y106534D01*
X378052Y107200D01*
X376719D01*
X376053Y107867D01*
X376719Y108533D01*
X378718D01*
X380051Y105867D02*
X381384Y107200D01*
Y108533D01*
X380051Y109866D01*
X178016Y263967D02*
X179349D01*
X178683D01*
Y267966D01*
X178016Y267299D01*
X181348D02*
X182015Y267966D01*
X183348D01*
X184014Y267299D01*
Y266633D01*
X183348Y265966D01*
X182681D01*
X183348D01*
X184014Y265300D01*
Y264634D01*
X183348Y263967D01*
X182015D01*
X181348Y264634D01*
X185347Y267299D02*
X186013Y267966D01*
X187346D01*
X188013Y267299D01*
Y264634D01*
X187346Y263967D01*
X186013D01*
X185347Y264634D01*
Y267299D01*
X189346D02*
X190012Y267966D01*
X191345D01*
X192012Y267299D01*
Y264634D01*
X191345Y263967D01*
X190012D01*
X189346Y264634D01*
Y267299D01*
X193344Y263967D02*
Y264634D01*
X194011D01*
Y263967D01*
X193344D01*
X196677Y267299D02*
X197343Y267966D01*
X198676D01*
X199343Y267299D01*
Y266633D01*
X198676Y265966D01*
X198010D01*
X198676D01*
X199343Y265300D01*
Y264634D01*
X198676Y263967D01*
X197343D01*
X196677Y264634D01*
X207340Y267966D02*
Y263967D01*
X205341D01*
X204674Y264634D01*
Y265966D01*
X205341Y266633D01*
X207340D01*
X210672Y263967D02*
X209339D01*
X208673Y264634D01*
Y265966D01*
X209339Y266633D01*
X210672D01*
X211339Y265966D01*
Y265300D01*
X208673D01*
X214004Y262634D02*
X214671D01*
X215337Y263301D01*
Y266633D01*
X213338D01*
X212672Y265966D01*
Y264634D01*
X213338Y263967D01*
X215337D01*
X222002D02*
X220669Y265300D01*
Y266633D01*
X222002Y267966D01*
X226667Y263967D02*
X224001D01*
X226667Y266633D01*
Y267299D01*
X226001Y267966D01*
X224668D01*
X224001Y267299D01*
X229999Y263967D02*
Y267966D01*
X228000Y265966D01*
X230666D01*
X231999Y264634D02*
X232665Y263967D01*
X233998D01*
X234665Y264634D01*
Y267299D01*
X233998Y267966D01*
X232665D01*
X231999Y267299D01*
Y266633D01*
X232665Y265966D01*
X234665D01*
X235997Y263967D02*
X237330D01*
X236664D01*
Y267966D01*
X235997Y267299D01*
X239330Y263967D02*
X240663D01*
X239996D01*
Y267966D01*
X239330Y267299D01*
X242662Y263967D02*
Y264634D01*
X243328D01*
Y263967D01*
X242662D01*
X248660D02*
X245994D01*
X248660Y266633D01*
Y267299D01*
X247994Y267966D01*
X246661D01*
X245994Y267299D01*
X249993D02*
X250659Y267966D01*
X251992D01*
X252659Y267299D01*
Y266633D01*
X251992Y265966D01*
X252659Y265300D01*
Y264634D01*
X251992Y263967D01*
X250659D01*
X249993Y264634D01*
Y265300D01*
X250659Y265966D01*
X249993Y266633D01*
Y267299D01*
X250659Y265966D02*
X251992D01*
X253992Y267299D02*
X254658Y267966D01*
X255991D01*
X256657Y267299D01*
Y266633D01*
X255991Y265966D01*
X256657Y265300D01*
Y264634D01*
X255991Y263967D01*
X254658D01*
X253992Y264634D01*
Y265300D01*
X254658Y265966D01*
X253992Y266633D01*
Y267299D01*
X254658Y265966D02*
X255991D01*
X261989Y263967D02*
Y266633D01*
X262655D01*
X263322Y265966D01*
Y263967D01*
Y265966D01*
X263988Y266633D01*
X264655Y265966D01*
Y263967D01*
X265988D02*
X267321D01*
X266654D01*
Y266633D01*
X265988D01*
X269320Y263967D02*
X270653D01*
X269987D01*
Y267966D01*
X269320D01*
X272652Y263967D02*
X274652D01*
X275318Y264634D01*
X274652Y265300D01*
X273319D01*
X272652Y265966D01*
X273319Y266633D01*
X275318D01*
X276651Y263967D02*
X277984Y265300D01*
Y266633D01*
X276651Y267966D01*
D15*
X236372Y166300D02*
Y168966D01*
X237704Y170299D01*
X239037Y168966D01*
Y166300D01*
Y168299D01*
X236372D01*
X243036Y169632D02*
X242370Y170299D01*
X241037D01*
X240370Y169632D01*
Y166966D01*
X241037Y166300D01*
X242370D01*
X243036Y166966D01*
X248368Y170299D02*
Y166300D01*
X250367D01*
X251034Y166966D01*
Y167633D01*
Y168299D01*
X250367Y168966D01*
X248368D01*
X253033Y166300D02*
X254366D01*
X255032Y166966D01*
Y168299D01*
X254366Y168966D01*
X253033D01*
X252366Y168299D01*
Y166966D01*
X253033Y166300D01*
X257032Y168966D02*
X258365D01*
X259031Y168299D01*
Y166300D01*
X257032D01*
X256365Y166966D01*
X257032Y167633D01*
X259031D01*
X260364Y168966D02*
Y166300D01*
Y167633D01*
X261030Y168299D01*
X261697Y168966D01*
X262363D01*
X267028Y170299D02*
Y166300D01*
X265029D01*
X264363Y166966D01*
Y168299D01*
X265029Y168966D01*
X267028D01*
X243036Y159101D02*
Y163100D01*
X245036D01*
X245702Y162434D01*
Y161101D01*
X245036Y160434D01*
X243036D01*
X244369D02*
X245702Y159101D01*
X249034D02*
X247701D01*
X247035Y159768D01*
Y161101D01*
X247701Y161767D01*
X249034D01*
X249701Y161101D01*
Y160434D01*
X247035D01*
X251034Y161767D02*
X252366Y159101D01*
X253699Y161767D01*
X259031Y159101D02*
X260364D01*
X259697D01*
Y163100D01*
X259031Y162434D01*
X243626Y381733D02*
X242959Y382399D01*
X241626D01*
X240960Y381733D01*
Y379067D01*
X241626Y378401D01*
X242959D01*
X243626Y379067D01*
X244958Y378401D02*
Y382399D01*
X246958D01*
X247624Y381733D01*
Y380400D01*
X246958Y379734D01*
X244958D01*
X248957Y382399D02*
Y378401D01*
X250290Y379734D01*
X251623Y378401D01*
Y382399D01*
X255622Y381733D02*
X254955Y382399D01*
X253622D01*
X252956Y381733D01*
Y379067D01*
X253622Y378401D01*
X254955D01*
X255622Y379067D01*
Y380400D01*
X254289D01*
X262286Y378401D02*
X260953D01*
Y382399D01*
X262286D01*
X266951Y378401D02*
X264286D01*
X266951Y381066D01*
Y381733D01*
X266285Y382399D01*
X264952D01*
X264286Y381733D01*
X268284D02*
X268951Y382399D01*
X270284D01*
X270950Y381733D01*
Y379067D01*
X270284Y378401D01*
X268951D01*
X268284Y379067D01*
Y381733D01*
X272283Y378401D02*
Y381066D01*
X272950D01*
X273616Y380400D01*
Y378401D01*
Y380400D01*
X274282Y381066D01*
X274949Y380400D01*
Y378401D01*
X276282D02*
X277615D01*
X276948D01*
Y381066D01*
X276282D01*
X279614Y378401D02*
X280947D01*
X280280D01*
Y382399D01*
X279614D01*
X282946Y378401D02*
X284946D01*
X285612Y379067D01*
X284946Y379734D01*
X283613D01*
X282946Y380400D01*
X283613Y381066D01*
X285612D01*
X290944Y382399D02*
X292277D01*
X291610D01*
Y378401D01*
X290944D01*
X292277D01*
X294276D02*
X296275D01*
X296942Y379067D01*
X296275Y379734D01*
X294942D01*
X294276Y380400D01*
X294942Y381066D01*
X296942D01*
X298941Y378401D02*
X300274D01*
X300940Y379067D01*
Y380400D01*
X300274Y381066D01*
X298941D01*
X298275Y380400D01*
Y379067D01*
X298941Y378401D01*
X302273D02*
X303606D01*
Y382399D01*
X302273D01*
X309604Y378401D02*
X310937D01*
X310271D01*
Y382399D01*
X309604Y381733D01*
X315602Y382399D02*
X312937D01*
Y380400D01*
X314269Y381066D01*
X314936D01*
X315602Y380400D01*
Y379067D01*
X314936Y378401D01*
X313603D01*
X312937Y379067D01*
X316935Y378401D02*
Y379067D01*
X317602D01*
Y378401D01*
X316935D01*
X320268Y379067D02*
X320934Y378401D01*
X322267D01*
X322933Y379067D01*
Y381733D01*
X322267Y382399D01*
X320934D01*
X320268Y381733D01*
Y381066D01*
X320934Y380400D01*
X322933D01*
X326266Y378401D02*
Y382399D01*
X324266Y380400D01*
X326932D01*
X328265Y381733D02*
X328931Y382399D01*
X330264D01*
X330931Y381733D01*
Y381066D01*
X330264Y380400D01*
X330931Y379734D01*
Y379067D01*
X330264Y378401D01*
X328931D01*
X328265Y379067D01*
Y379734D01*
X328931Y380400D01*
X328265Y381066D01*
Y381733D01*
X328931Y380400D02*
X330264D01*
X336262Y378401D02*
Y381066D01*
X336929D01*
X337595Y380400D01*
Y378401D01*
Y380400D01*
X338262Y381066D01*
X338928Y380400D01*
Y378401D01*
X340261D02*
X341594D01*
X340928D01*
Y381066D01*
X340261D01*
X343593Y378401D02*
X344926D01*
X344260D01*
Y382399D01*
X343593D01*
X346926Y378401D02*
X348925D01*
X349591Y379067D01*
X348925Y379734D01*
X347592D01*
X346926Y380400D01*
X347592Y381066D01*
X349591D01*
D16*
X48199Y41447D02*
X47865Y41780D01*
Y42446D01*
X48199Y42779D01*
X48532D01*
X48865Y42446D01*
X49198Y42779D01*
X49531D01*
X49865Y42446D01*
Y41780D01*
X49531Y41447D01*
X49198D01*
X48865Y41780D01*
X48532Y41447D01*
X48199D01*
X48865Y41780D02*
Y42446D01*
X47865Y43446D02*
X49198D01*
X49865Y44112D01*
X49198Y44779D01*
X47865D01*
X59383Y41447D02*
Y42113D01*
Y41780D01*
X61382D01*
Y41447D01*
Y42113D01*
X60383Y43113D02*
Y44445D01*
X61382Y45112D02*
Y45778D01*
Y45445D01*
X59383D01*
X59716Y45112D01*
X72567Y42779D02*
X71234D01*
X70901Y42446D01*
Y41780D01*
X71234Y41447D01*
X72567D01*
X72900Y41780D01*
Y42446D01*
X72234Y42113D02*
X72900Y42779D01*
Y42446D02*
X72567Y42779D01*
X71900Y43446D02*
Y44779D01*
X72900Y45445D02*
Y46112D01*
Y45778D01*
X70901D01*
X71234Y45445D01*
X49865Y11131D02*
X48532D01*
X47865Y11798D01*
X48532Y12464D01*
X49865D01*
X48865D01*
Y11131D01*
X48199Y14464D02*
X47865Y14130D01*
Y13464D01*
X48199Y13131D01*
X49531D01*
X49865Y13464D01*
Y14130D01*
X49531Y14464D01*
X48865D01*
Y13797D01*
X49865Y15130D02*
X47865D01*
X49865Y16463D01*
X47865D01*
Y17130D02*
X49865D01*
Y18129D01*
X49531Y18462D01*
X48199D01*
X47865Y18129D01*
Y17130D01*
X59383Y13464D02*
Y14130D01*
Y13797D01*
X61382D01*
Y13464D01*
Y14130D01*
X60383Y15130D02*
Y16463D01*
X61382Y18462D02*
Y17130D01*
X60049Y18462D01*
X59716D01*
X59383Y18129D01*
Y17463D01*
X59716Y17130D01*
X72567Y14464D02*
X71234D01*
X70901Y14130D01*
Y13464D01*
X71234Y13131D01*
X72567D01*
X72900Y13464D01*
Y14130D01*
X72234Y13797D02*
X72900Y14464D01*
Y14130D02*
X72567Y14464D01*
X71900Y15130D02*
Y16463D01*
X72900Y18462D02*
Y17130D01*
X71567Y18462D01*
X71234D01*
X70901Y18129D01*
Y17463D01*
X71234Y17130D01*
D17*
X40668Y21802D02*
X42334Y22635D01*
X44000Y24301D01*
Y25967D01*
X43167Y26800D01*
X41501D01*
X40668Y25967D01*
Y25134D01*
X41501Y24301D01*
X44000D01*
X40668Y31802D02*
X44000D01*
Y34301D01*
X42334Y33468D01*
X41501D01*
X40668Y34301D01*
Y35967D01*
X41501Y36800D01*
X43167D01*
X44000Y35967D01*
X76668Y26800D02*
X80000D01*
X76668Y23468D01*
Y22635D01*
X77501Y21802D01*
X79167D01*
X80000Y22635D01*
X78000Y36800D02*
X76334D01*
X77167D01*
Y31802D01*
X78000Y32635D01*
M02*
