M48
;Layer_Color=9474304
;FILE_FORMAT=2:5
INCH,LZ
;TYPE=PLATED
T1F00S00C0.01200
%
T01
X00037Y00436
Y00474
X00098
X00099Y00437
X00159Y00439
X00158Y00475
X0043Y00175
X00477Y00174
X0048Y00105
X00435Y00104
Y00044
X00482
X00774Y00037
X00834Y00039
X0083Y00108
X00776Y00107
X0078Y0018
X00827Y00179
X0106Y00185
X01112Y00183
X01111Y00111
X01065Y00108
X01067Y00033
X01108Y00038
X01414Y00035
X01448Y00041
X01465Y00109
X01416
X0141Y0018
X01464Y00181
X03778Y00438
Y00476
X03839
X0384Y00439
X039Y00441
X03899Y00477
X0388419Y0059698
X0384436Y0060065
X0380436Y0060077
X0376436
X0372436
X0372722Y0065907
X0376722
X0380722
X0384717Y0066108
X0388713Y0066286
X03889Y00788
X03888Y00824
X03828Y00823
X03829Y00786
X03767Y00785
Y00823
Y01066
Y01104
X03828
X03829Y01067
X03889Y01069
X03888Y01105
X0388419Y012269
X0384433Y0123023
X0380433
X0376433
X0372433
X0372732Y0128946
X0376732
X0380732
X0384729Y0129105
X0388725Y0129278
X03895Y01416
X03894Y01452
X03834Y01451
X03835Y01414
X03773Y01413
Y01451
X0377Y01696
Y01734
X03831
X03832Y01697
X03892Y01699
X03891Y01735
X0388419Y0185682
X0384433Y0186015
X0380433
X0376433
X0372433
X0372732Y0191938
X0376732
X0380732
X0384729Y0192097
X0388725Y0192271
X03891Y02047
X0389Y02083
X0383Y02082
X03831Y02045
X03769Y02044
Y02082
X0368732Y0191938
X0364732
X0360732
X0356732
X0352732
X0348732
X0344732
X0340732
X0336732
X0332732
X0328732
X0324732
X0320732
X0316732
X0312732
X0308732
X0304732
X0300732
X0296732
X0292732
X0288732
X0284732
X0280732
X0276732
X0272732
X0268732
X0264732
X0260732
X0256732
X0252732
X0248732
X0244732
X0240732
X0236732
X0232732
X0228732
X0224732
X0220732
X0216732
X0212732
X0216433Y0186015
X0220433
X0224433
X0228433
X0232433
X0236433
X0240433
X0244433
X0248433
X0252433
X0256433
X0260433
X0264433
X0268433
X0272433
X0276433
X0280433
X0284433
X0288433
X0292433
X0296433
X0300433
X0304433
X0308433
X0312433
X0316433
X0320433
X0324433
X0328433
X0332433
X0336433
X0340433
X0344433
X0348433
X0352433
X0356433
X0360433
X0364433
X0368433
X0368732Y0128946
X0364732
X0360732
X0356732
X0352732
X0348732
X0344732
X0340732
X0336732
X0332732
X0328732
X0324732
X0320732
X0316732
X0312732
X0308732
X0304732
X0300732
X0296732
X0292732
X0288732
X0284732
X0280732
X0276732
X0272732
X0268732
X0264732
X0260732
X0256732
X0252732
X0248732
X0244732
X0240732
X0236732
X0232732
X0228732
X0224732
X0220732
X0216732
X0212732
X0216433Y0123023
X0220433
X0224433
X0228433
X0232433
X0236433
X0240433
X0244433
X0248433
X0252433
X0256433
X0260433
X0264433
X0268433
X0272433
X0276433
X0280433
X0284433
X0288433
X0292433
X0296433
X0300433
X0304433
X0308433
X0312433
X0316433
X0320433
X0324433
X0328433
X0332433
X0336433
X0340433
X0344433
X0348433
X0352433
X0356433
X0360433
X0364433
X0368433
X0368722Y0065907
X0364722
X0360722
X0356722
X0352722
X0348722
X0344722
X0340722
X0336722
X0332722
X0328722
X0324722
X0320722
X0316722
X0312722
X0308722
X0304722
X0300722
X0296722
X0292722
X0288722
X0284722
X0280722
X0276722
X0272722
X0268722
X0264722
X0260722
X0256722
X0252722
X0248722
X0244722
X0240722
X0236722
X0232722
X0228722
X0224722
X0220722
X0216722
X0212722
X0216436Y0060077
X0220436
X0224436
X0228436
X0232436
X0236436
X0240436
X0244436
X0248436
X0252436
X0256436
X0260436
X0264436
X0268436
X0272436
X0276436
X0280436
X0284436
X0288436
X0292436
X0296436
X0300436
X0304436
X0308436
X0312436
X0316436
X0320436
X0324436
X0328436
X0332436
X0336436
X0340436
X0344436
X0348436
X0352436
X0356436
X0360436
X0364436
X0368436
X0212436
X0208436
X0204436
X0200436
X0196436
X0192436
X0188436
X0184436
X0180436
X0176436
X0172436
X0168436
X0164436
X0160436
X0156436
X0152436
X0148436
X0144436
X0140436
X0136436
X0136722Y0065907
X0140722
X0144722
X0148722
X0152722
X0156722
X0160722
X0164722
X0168722
X0172722
X0176722
X0180722
X0184722
X0188722
X0192722
X0196722
X0200722
X0204722
X0208722
X0208433Y0123023
X0204433
X0200433
X0196433
X0192433
X0188433
X0184433
X0180433
X0176433
X0172433
X0168433
X0164433
X0160433
X0156433
X0152433
X0148433
X0144433
X0140433
X0136433
X0136732Y0128946
X0140732
X0144732
X0148732
X0152732
X0156732
X0160732
X0164732
X0168732
X0172732
X0176732
X0180732
X0184732
X0188732
X0192732
X0196732
X0200732
X0204732
X0208732
X0212433Y0123023
Y0186015
X0208433
X0204433
X0200433
X0196433
X0192433
X0188433
X0184433
X0180433
X0176433
X0172433
X0168433
X0164433
X0160433
X0156433
X0152433
X0148433
X0144433
X0140433
X0136433
X0136732Y0191938
X0140732
X0144732
X0148732
X0152732
X0156732
X0160732
X0164732
X0168732
X0172732
X0176732
X0180732
X0184732
X0188732
X0192732
X0196732
X0200732
X0204732
X0208732
X0112732
X0108732
X0104732
X0100732
X0096732
X0092732
X0088732
X0084732
X0080732
X0076732
X0072732
X0072433Y0186015
X0076433
X0080433
X0084433
X0088433
X0092433
X0096433
X0100433
X0104433
X0108433
X0112433
X0116433
X0112732Y0128946
X0108732
X0104732
X0100732
X0096732
X0092732
X0088732
X0084732
X0080732
X0076732
X0072732
X0072433Y0123023
X0076433
X0080433
X0084433
X0088433
X0092433
X0096433
X0100433
X0104433
X0108433
X0112433
X0116433
X01165Y0066
X0112722Y0065907
X0108722
X0104722
X0100722
X0096722
X0092722
X0088722
X0084722
X0080722
X0076722
X0072722
X0072436Y0060077
X0076436
X0080436
X0084436
X0088436
X0092436
X0096436
X0100436
X0104436
X0108436
X0112436
X0116436
X0052436
X0048436
X0044436
X0040436
X0036436
X0032436
X0028436
X0024436
X0020436
X0016436
X0012436
X0008448Y0059767
X0004448Y0059698
X0004732Y0066286
X000873Y0066161
X0012722Y0065907
X0016722
X0020722
X0024722
X0028722
X0032722
X0036722
X0040722
X0044722
X0048722
X0052722
X00166Y00788
X00165Y00824
X00105Y00823
X00106Y00786
X00044Y00785
Y00823
X00046Y01068
Y01106
X00107
X00108Y01069
X00168Y01071
X00167Y01107
X0016433Y0123023
X0012433
X0008441Y0122758
X0004442Y012269
X0004739Y0129278
X0008737Y0129152
X0012732Y0128946
X0016732
X0020732
X0024732
X0028732
X0032732
X0036732
X0040732
X0044732
X0048732
X0052732
X0052433Y0123023
X0048433
X0044433
X0040433
X0036433
X0032433
X0028433
X0024433
X0020433
X0017Y01419
X00169Y01455
X00109Y01454
X0011Y01417
X00048Y01416
Y01454
X00045Y01696
Y01734
X00106
X00107Y01697
X00167Y01699
X00166Y01735
X0016433Y0186015
X0020433
X0024433
X0028433
X0032433
X0036433
X0040433
X0044433
X0048433
X0052433
X0052732Y0191938
X0048732
X0044732
X0040732
X0036732
X0032732
X0028732
X0024732
X0020732
X0016732
X0012732
X0008737Y0192144
X0004739Y0192271
X0004442Y0185682
X0008441Y018575
X0012433Y0186015
X00107Y02045
X00106Y02082
X00166Y02083
X00167Y02047
X00045Y02044
Y02082
X00048Y02322
Y0236
X00109
X0011Y02323
X0017Y02325
X00169Y02361
X0015936Y0247995
X0011936
X0007948Y0247691
X0003948
X0005607Y0256246
X0001607
X0009596Y0255942
X0013596
X0017596
X0021596
X0025596
X0029596
X0033596
X0037596
X0041596
X0045596
X0049596
X0053596
X0051936Y0247995
X0047936
X0043936
X0039936
X0035936
X0031936
X0027936
X0023936
X0019936
X0017Y02676
X00169Y02712
X00109Y02711
X0011Y02674
X00048Y02673
Y02711
X0073596Y0255942
X0077596
X0081596
X0085596
X0089596
X0093596
X0097596
X0101596
X0105596
X0109596
X0113596
X0111936Y0247995
X0107936
X0103936
X0099936
X0095936
X0091936
X0087936
X0083936
X0079936
X0075936
X0115936
X0135936
X0139936
X0143936
X0147936
X0151936
X0155936
X0159936
X0163936
X0167936
X0171936
X0175936
X0179936
X0183936
X0187936
X0191936
X0195936
X0199936
X0203936
X0207936
X0211936
X0209596Y0255942
X0205596
X0201596
X0197596
X0193596
X0189596
X0185596
X0181596
X0177596
X0173596
X0169596
X0165596
X0161596
X0157596
X0153596
X0149596
X0145596
X0141596
X0137596
X0213596
X0217596
X0221596
X0225596
X0229596
X0233596
X0237596
X0241596
X0245596
X0249596
X0253596
X0257596
X0261596
X0265596
X0269596
X0273596
X0277596
X0281596
X0285596
X0289596
X0293596
X0297596
X0301596
X0305596
X0309596
X0313596
X0317596
X0321596
X0325596
X0329596
X0333596
X0337596
X0341596
X0345596
X0349596
X0353596
X0357596
X0361596
X0365596
X0363936Y0247995
X0359936
X0355936
X0351936
X0347936
X0343936
X0339936
X0335936
X0331936
X0327936
X0323936
X0319936
X0315936
X0311936
X0307936
X0303936
X0299936
X0295936
X0291936
X0287936
X0283936
X0279936
X0275936
X0271936
X0267936
X0263936
X0259936
X0255936
X0251936
X0247936
X0243936
X0239936
X0235936
X0231936
X0227936
X0223936
X0219936
X0215936
X0367936
X03682Y03102
X03621
X03571
X03507
X03448Y03101
X03392Y03102
Y03167
X03438
X03485Y03168
X03542
X03601
X03662
X03716Y03169
X03774Y0317
X03818Y03168
X03867Y03172
X0391Y03173
X03871Y03099
X03826Y03104
X03786Y03103
X03735
X03762Y02983
Y02942
X03824Y02941
Y02983
X03878
Y02942
X03896Y02713
X03897Y02677
X03837Y02675
X03836Y02712
X03775
Y02674
X0377596Y0255942
X0381596
X0385584Y0256244
X0389584Y0256246
X0387925Y0247691
X0383936Y0247995
X0379936
X0375936
X0371936
X0373596Y0255942
X0369596
X03767Y02366
Y02328
X03829Y02329
X03828Y02366
X03888Y02367
X03889Y02331
X03891Y03285
X0389Y03326
X03827Y03327
X03828Y03287
X03762Y03289
X03763Y03325
X03386Y03772
X0335Y03773
X03348Y03837
X03388Y03838
X0339Y03901
X03349Y039
X03044Y03902
X03003Y03901
X03002Y03838
X03042Y03839
X0304Y03773
X03004Y03774
X02822Y03766
X02786Y03767
X02784Y03831
X02824Y03832
X02826Y03895
X02785Y03894
X02476
X02435Y03893
X02434Y0383
X02474Y03831
X02472Y03765
X02436Y03766
X01458Y03767
X01411Y03764
Y03837
X01456Y0384
X01458Y03911
X0141Y0391
X01111Y03906
X0106Y03905
Y03832
X01114Y0383
X01109Y03759
X0106Y0376
X00832Y03766
X00779Y03764
X00781Y0383
X00828Y03831
X00832Y039
X0078
X00483Y03911
X0043Y0391
Y03829
X00483Y03834
X00485Y03764
X00431Y03768
M30
