G04*
G04 #@! TF.GenerationSoftware,Altium Limited,Altium Designer,19.1.7 (138)*
G04*
G04 Layer_Color=32896*
%FSLAX25Y25*%
%MOIN*%
G70*
G01*
G75*
%ADD11C,0.01000*%
D11*
X129860Y263779D02*
Y262447D01*
Y263113D01*
X133858D01*
Y263779D01*
Y262447D01*
X130526Y257782D02*
X129860Y258448D01*
Y259781D01*
X130526Y260447D01*
X133192D01*
X133858Y259781D01*
Y258448D01*
X133192Y257782D01*
X131859Y252450D02*
Y249784D01*
X133858Y244452D02*
X129860D01*
X131193Y243120D01*
X129860Y241787D01*
X133858D01*
X129860Y240454D02*
X133858D01*
Y237788D01*
X129860Y236455D02*
Y235122D01*
Y235789D01*
X133858D01*
Y236455D01*
Y235122D01*
Y233123D02*
X129860D01*
X133858Y230457D01*
X129860D01*
X133858Y223792D02*
Y225125D01*
X129860D01*
Y223792D01*
X130526Y221793D02*
X129860Y221127D01*
Y219794D01*
X130526Y219127D01*
X131193D01*
X131859Y219794D01*
X132525Y219127D01*
X133192D01*
X133858Y219794D01*
Y221127D01*
X133192Y221793D01*
X132525D01*
X131859Y221127D01*
X131193Y221793D01*
X130526D01*
X131859Y221127D02*
Y219794D01*
X130526Y217794D02*
X129860Y217128D01*
Y215795D01*
X130526Y215129D01*
X133192D01*
X133858Y215795D01*
Y217128D01*
X133192Y217794D01*
X130526D01*
X133858Y213796D02*
X131193D01*
Y213129D01*
X131859Y212463D01*
X133858D01*
X131859D01*
X131193Y211796D01*
X131859Y211130D01*
X133858D01*
Y209797D02*
Y208464D01*
Y209131D01*
X131193D01*
Y209797D01*
X133858Y206465D02*
Y205132D01*
Y205798D01*
X129860D01*
Y206465D01*
X133858Y203132D02*
Y201133D01*
X133192Y200467D01*
X132525Y201133D01*
Y202466D01*
X131859Y203132D01*
X131193Y202466D01*
Y200467D01*
X129860Y195135D02*
Y193802D01*
Y194469D01*
X133858D01*
Y195135D01*
Y193802D01*
Y191803D02*
Y189803D01*
X133192Y189137D01*
X132525Y189803D01*
Y191136D01*
X131859Y191803D01*
X131193Y191136D01*
Y189137D01*
X133858Y187138D02*
Y185805D01*
X133192Y185138D01*
X131859D01*
X131193Y185805D01*
Y187138D01*
X131859Y187804D01*
X133192D01*
X133858Y187138D01*
Y183805D02*
Y182472D01*
X129860D01*
Y183805D01*
X133858Y176474D02*
Y175142D01*
Y175808D01*
X129860D01*
X130526Y176474D01*
X133858Y170476D02*
Y173142D01*
X131193Y170476D01*
X130526D01*
X129860Y171143D01*
Y172476D01*
X130526Y173142D01*
X133858Y169143D02*
X133192D01*
Y168477D01*
X133858D01*
Y169143D01*
Y165811D02*
Y164478D01*
Y165145D01*
X129860D01*
X130526Y165811D01*
Y162479D02*
X129860Y161812D01*
Y160479D01*
X130526Y159813D01*
X133192D01*
X133858Y160479D01*
Y161812D01*
X133192Y162479D01*
X130526D01*
X133858Y155814D02*
Y158480D01*
X131193Y155814D01*
X130526D01*
X129860Y156481D01*
Y157814D01*
X130526Y158480D01*
X133858Y150483D02*
X131193D01*
Y149816D01*
X131859Y149150D01*
X133858D01*
X131859D01*
X131193Y148483D01*
X131859Y147817D01*
X133858D01*
Y146484D02*
Y145151D01*
Y145818D01*
X131193D01*
Y146484D01*
X133858Y143152D02*
Y141819D01*
Y142485D01*
X129860D01*
Y143152D01*
X133858Y139820D02*
Y137820D01*
X133192Y137154D01*
X132525Y137820D01*
Y139153D01*
X131859Y139820D01*
X131193Y139153D01*
Y137154D01*
X70866Y251969D02*
X66867D01*
X68200Y250636D01*
X66867Y249303D01*
X70866D01*
X66867Y247970D02*
X70866D01*
Y245304D01*
X66867Y243971D02*
Y242638D01*
Y243305D01*
X70866D01*
Y243971D01*
Y242638D01*
Y240639D02*
X66867D01*
X70866Y237973D01*
X66867D01*
X70866Y231309D02*
Y232641D01*
X66867D01*
Y231309D01*
X67534Y229309D02*
X66867Y228643D01*
Y227310D01*
X67534Y226643D01*
X68200D01*
X68867Y227310D01*
X69533Y226643D01*
X70200D01*
X70866Y227310D01*
Y228643D01*
X70200Y229309D01*
X69533D01*
X68867Y228643D01*
X68200Y229309D01*
X67534D01*
X68867Y228643D02*
Y227310D01*
X67534Y225310D02*
X66867Y224644D01*
Y223311D01*
X67534Y222645D01*
X70200D01*
X70866Y223311D01*
Y224644D01*
X70200Y225310D01*
X67534D01*
X70866Y221312D02*
X68200D01*
Y220645D01*
X68867Y219979D01*
X70866D01*
X68867D01*
X68200Y219312D01*
X68867Y218646D01*
X70866D01*
Y217313D02*
Y215980D01*
Y216647D01*
X68200D01*
Y217313D01*
X70866Y213981D02*
Y212648D01*
Y213314D01*
X66867D01*
Y213981D01*
X70866Y210648D02*
Y208649D01*
X70200Y207983D01*
X69533Y208649D01*
Y209982D01*
X68867Y210648D01*
X68200Y209982D01*
Y207983D01*
X66867Y202651D02*
Y201318D01*
Y201985D01*
X70866D01*
Y202651D01*
Y201318D01*
Y199319D02*
Y197319D01*
X70200Y196653D01*
X69533Y197319D01*
Y198652D01*
X68867Y199319D01*
X68200Y198652D01*
Y196653D01*
X70866Y194654D02*
Y193321D01*
X70200Y192654D01*
X68867D01*
X68200Y193321D01*
Y194654D01*
X68867Y195320D01*
X70200D01*
X70866Y194654D01*
Y191321D02*
Y189989D01*
X66867D01*
Y191321D01*
X70866Y183990D02*
Y182658D01*
Y183324D01*
X66867D01*
X67534Y183990D01*
X70866Y177992D02*
Y180658D01*
X68200Y177992D01*
X67534D01*
X66867Y178659D01*
Y179992D01*
X67534Y180658D01*
X70866Y176659D02*
X70200D01*
Y175993D01*
X70866D01*
Y176659D01*
Y173327D02*
Y171994D01*
Y172661D01*
X66867D01*
X67534Y173327D01*
Y169995D02*
X66867Y169328D01*
Y167996D01*
X67534Y167329D01*
X70200D01*
X70866Y167996D01*
Y169328D01*
X70200Y169995D01*
X67534D01*
X70866Y163330D02*
Y165996D01*
X68200Y163330D01*
X67534D01*
X66867Y163997D01*
Y165330D01*
X67534Y165996D01*
X70866Y157999D02*
X68200D01*
Y157332D01*
X68867Y156666D01*
X70866D01*
X68867D01*
X68200Y156000D01*
X68867Y155333D01*
X70866D01*
Y154000D02*
Y152667D01*
Y153334D01*
X68200D01*
Y154000D01*
X70866Y150668D02*
Y149335D01*
Y150001D01*
X66867D01*
Y150668D01*
X70866Y147336D02*
Y145336D01*
X70200Y144670D01*
X69533Y145336D01*
Y146669D01*
X68867Y147336D01*
X68200Y146669D01*
Y144670D01*
M02*
