G04*
G04 #@! TF.GenerationSoftware,Altium Limited,Altium Designer,19.1.7 (138)*
G04*
G04 Layer_Color=65535*
%FSLAX25Y25*%
%MOIN*%
G70*
G01*
G75*
%ADD10C,0.00400*%
%ADD11C,0.01000*%
D10*
X88740Y345235D02*
X90340D01*
X87940Y344835D02*
X91140D01*
X87940Y344435D02*
X91140D01*
X87540Y344035D02*
X91540D01*
X87540Y343635D02*
X91540D01*
X87540Y343235D02*
X91540D01*
X87940Y342835D02*
X91940D01*
X87940Y342435D02*
X92340D01*
X87940Y342035D02*
X93140D01*
X69940Y341635D02*
X72340D01*
X87540D02*
X89540D01*
X90740D02*
X93540D01*
X69140Y341235D02*
X72740D01*
X87540D02*
X89540D01*
X91140D02*
X93940D01*
X68740Y340835D02*
X73140D01*
X87140D02*
X89140D01*
X91540D02*
X94340D01*
X68740Y340435D02*
X73540D01*
X87140D02*
X89140D01*
X92340D02*
X95140D01*
X68340Y340035D02*
X73540D01*
X86740D02*
X88740D01*
X92740D02*
X95540D01*
X68340Y339635D02*
X73940D01*
X86740D02*
X88740D01*
X93140D02*
X95940D01*
X68340Y339235D02*
X73940D01*
X86340D02*
X88340D01*
X93540D02*
X96340D01*
X68340Y338835D02*
X73940D01*
X86340D02*
X88340D01*
X94340D02*
X97140D01*
X68340Y338435D02*
X74740D01*
X86340D02*
X87940D01*
X94740D02*
X97540D01*
X116340D02*
X118740D01*
X68340Y338035D02*
X75540D01*
X85940D02*
X87940D01*
X95140D02*
X97940D01*
X98340D02*
X100740D01*
X115940D02*
X119140D01*
X68740Y337635D02*
X76740D01*
X85940D02*
X87540D01*
X95540D02*
X101140D01*
X115540D02*
X119540D01*
X69140Y337235D02*
X77540D01*
X85540D02*
X87540D01*
X96340D02*
X101540D01*
X115540D02*
X119940D01*
X69540Y336835D02*
X72740D01*
X73940D02*
X78340D01*
X85540D02*
X87540D01*
X96740D02*
X101940D01*
X115140D02*
X119940D01*
X70340Y336435D02*
X71540D01*
X75140D02*
X79140D01*
X85140D02*
X87140D01*
X97140D02*
X101940D01*
X115140D02*
X119940D01*
X75940Y336035D02*
X80340D01*
X85140D02*
X87140D01*
X97140D02*
X101940D01*
X115540D02*
X119940D01*
X76740Y335635D02*
X81140D01*
X84740D02*
X86740D01*
X97140D02*
X101940D01*
X115140D02*
X119540D01*
X77540Y335235D02*
X81940D01*
X84740D02*
X86740D01*
X97140D02*
X102340D01*
X114740D02*
X119540D01*
X78740Y334835D02*
X86340D01*
X97140D02*
X102740D01*
X113940D02*
X119140D01*
X79540Y334435D02*
X86340D01*
X97540D02*
X103540D01*
X113540D02*
X116340D01*
X116740D02*
X118340D01*
X80340Y334035D02*
X86740D01*
X97540D02*
X104340D01*
X113140D02*
X115940D01*
X81140Y333635D02*
X86740D01*
X98340D02*
X101140D01*
X101540D02*
X104740D01*
X112740D02*
X115540D01*
X81540Y333235D02*
X87140D01*
X98740D02*
X100340D01*
X101940D02*
X105540D01*
X112340D02*
X114740D01*
X81540Y332835D02*
X87140D01*
X98740D02*
X100340D01*
X102740D02*
X106340D01*
X111940D02*
X114340D01*
X81540Y332435D02*
X87140D01*
X98740D02*
X100340D01*
X103540D02*
X106740D01*
X111140D02*
X113940D01*
X81540Y332035D02*
X87540D01*
X98740D02*
X100340D01*
X104340D02*
X107540D01*
X110740D02*
X113540D01*
X81540Y331635D02*
X87940D01*
X98740D02*
X100340D01*
X104740D02*
X108340D01*
X110340D02*
X113140D01*
X81540Y331235D02*
X88340D01*
X98740D02*
X100340D01*
X105540D02*
X109140D01*
X109940D02*
X112740D01*
X81540Y330835D02*
X88740D01*
X98740D02*
X100340D01*
X106340D02*
X111940D01*
X81140Y330435D02*
X89540D01*
X98740D02*
X100340D01*
X106740D02*
X111540D01*
X61140Y330035D02*
X62740D01*
X80740D02*
X86340D01*
X87140D02*
X89940D01*
X98740D02*
X100340D01*
X107540D02*
X111140D01*
X60340Y329635D02*
X63540D01*
X80340D02*
X85940D01*
X87540D02*
X90340D01*
X98740D02*
X100340D01*
X108340D02*
X110740D01*
X59940Y329235D02*
X63940D01*
X79940D02*
X82740D01*
X87940D02*
X90740D01*
X98740D02*
X100340D01*
X108740D02*
X111140D01*
X59540Y328835D02*
X63940D01*
X79540D02*
X82340D01*
X88340D02*
X91140D01*
X98740D02*
X100340D01*
X109140D02*
X111540D01*
X59540Y328435D02*
X63940D01*
X79140D02*
X81940D01*
X89140D02*
X91540D01*
X98740D02*
X100340D01*
X109540D02*
X111540D01*
X59540Y328035D02*
X64340D01*
X78740D02*
X81540D01*
X89540D02*
X92340D01*
X98740D02*
X100340D01*
X109940D02*
X111940D01*
X59540Y327635D02*
X64340D01*
X78340D02*
X81140D01*
X89940D02*
X92740D01*
X98740D02*
X100340D01*
X109940D02*
X112340D01*
X59540Y327235D02*
X65140D01*
X77940D02*
X80740D01*
X90340D02*
X93140D01*
X98740D02*
X100340D01*
X110340D02*
X112740D01*
X59540Y326835D02*
X66340D01*
X74340D02*
X75140D01*
X77540D02*
X80340D01*
X90740D02*
X93540D01*
X98740D02*
X100340D01*
X110740D02*
X112740D01*
X59940Y326435D02*
X67140D01*
X72740D02*
X76340D01*
X77140D02*
X79940D01*
X91140D02*
X93940D01*
X98740D02*
X100340D01*
X111140D02*
X113140D01*
X60340Y326035D02*
X67940D01*
X71940D02*
X79540D01*
X91540D02*
X94340D01*
X98740D02*
X100340D01*
X111140D02*
X113540D01*
X61140Y325635D02*
X62740D01*
X64740D02*
X68740D01*
X71540D02*
X79140D01*
X92340D02*
X94740D01*
X98740D02*
X100340D01*
X111540D02*
X113540D01*
X65540Y325235D02*
X69540D01*
X71140D02*
X78740D01*
X92740D02*
X95540D01*
X98740D02*
X100340D01*
X111940D02*
X113940D01*
X66340Y324835D02*
X78340D01*
X93140D02*
X95940D01*
X98740D02*
X100340D01*
X111940D02*
X114340D01*
X67140Y324435D02*
X78340D01*
X93540D02*
X96340D01*
X98740D02*
X100340D01*
X112340D02*
X114740D01*
X67940Y324035D02*
X78740D01*
X93940D02*
X96740D01*
X98740D02*
X100340D01*
X112740D02*
X114740D01*
X69140Y323635D02*
X78740D01*
X94340D02*
X97140D01*
X98740D02*
X100340D01*
X113140D02*
X115140D01*
X69940Y323235D02*
X78740D01*
X95140D02*
X97540D01*
X98740D02*
X100340D01*
X113140D02*
X115540D01*
X70340Y322835D02*
X78740D01*
X95540D02*
X101140D01*
X113540D02*
X115540D01*
X70340Y322435D02*
X78740D01*
X95940D02*
X101940D01*
X113940D02*
X115940D01*
X70340Y322035D02*
X78740D01*
X96340D02*
X102340D01*
X113940D02*
X116340D01*
X70340Y321635D02*
X78740D01*
X96740D02*
X102740D01*
X114340D02*
X116740D01*
X70340Y321235D02*
X78740D01*
X96340D02*
X102740D01*
X114740D02*
X116740D01*
X70740Y320835D02*
X78740D01*
X95940D02*
X103140D01*
X115140D02*
X117540D01*
X70740Y320435D02*
X79140D01*
X95940D02*
X103140D01*
X115140D02*
X117940D01*
X71140Y320035D02*
X79540D01*
X95940D02*
X103140D01*
X115540D02*
X118340D01*
X71540Y319635D02*
X80340D01*
X95940D02*
X103140D01*
X115540D02*
X118340D01*
X71140Y319235D02*
X80740D01*
X95940D02*
X103140D01*
X115540D02*
X118340D01*
X71140Y318835D02*
X76740D01*
X78340D02*
X81140D01*
X94340D02*
X103140D01*
X115940D02*
X118340D01*
X70740Y318435D02*
X72740D01*
X73140D02*
X75940D01*
X78740D02*
X81940D01*
X83540D02*
X85140D01*
X93140D02*
X103140D01*
X115940D02*
X117940D01*
X70340Y318035D02*
X72740D01*
X79140D02*
X82340D01*
X82740D02*
X85940D01*
X91940D02*
X102740D01*
X70340Y317635D02*
X72340D01*
X79940D02*
X86340D01*
X90740D02*
X102740D01*
X69940Y317235D02*
X71940D01*
X80340D02*
X86740D01*
X89140D02*
X95140D01*
X96740D02*
X103140D01*
X69540Y316835D02*
X71940D01*
X81140D02*
X87140D01*
X87940D02*
X93940D01*
X97140D02*
X103540D01*
X69540Y316435D02*
X71540D01*
X81540D02*
X92340D01*
X97540D02*
X104340D01*
X69140Y316035D02*
X71140D01*
X81540D02*
X91140D01*
X98340D02*
X100740D01*
X101940D02*
X104740D01*
X68740Y315635D02*
X70740D01*
X81140D02*
X89940D01*
X102340D02*
X105140D01*
X68740Y315235D02*
X70740D01*
X81540D02*
X88740D01*
X102740D02*
X105540D01*
X68340Y314835D02*
X70340D01*
X81540D02*
X87540D01*
X103140D02*
X105940D01*
X67540Y314435D02*
X69940D01*
X81540D02*
X87140D01*
X103940D02*
X106340D01*
X107540D02*
X107940D01*
X66740Y314035D02*
X69940D01*
X81940D02*
X86740D01*
X104340D02*
X109140D01*
X66340Y313635D02*
X69540D01*
X81940D02*
X86340D01*
X104740D02*
X109540D01*
X65940Y313235D02*
X69540D01*
X82340D02*
X85940D01*
X105140D02*
X109540D01*
X65940Y312835D02*
X69540D01*
X83140D02*
X85540D01*
X105540D02*
X109540D01*
X65940Y312435D02*
X69540D01*
X105540D02*
X109940D01*
X66340Y312035D02*
X69540D01*
X105540D02*
X109940D01*
X66340Y311635D02*
X69140D01*
X105940D02*
X109540D01*
X66740Y311235D02*
X69140D01*
X105940D02*
X109540D01*
X106340Y310835D02*
X109140D01*
X107140Y310435D02*
X108340D01*
X53140Y307235D02*
X56340D01*
X61940D02*
X64740D01*
X70340D02*
X73540D01*
X78340D02*
X83140D01*
X89940D02*
X94740D01*
X99140D02*
X101940D01*
X107940D02*
X110740D01*
X117540D02*
X122340D01*
X53140Y306835D02*
X56340D01*
X61540D02*
X65140D01*
X70340D02*
X73540D01*
X77540D02*
X83940D01*
X89140D02*
X95940D01*
X99140D02*
X102340D01*
X107540D02*
X111140D01*
X116340D02*
X123140D01*
X53140Y306435D02*
X56740D01*
X61540D02*
X65140D01*
X69940D02*
X73140D01*
X76740D02*
X84740D01*
X88340D02*
X96740D01*
X99140D02*
X102340D01*
X107540D02*
X111140D01*
X115940D02*
X123940D01*
X53140Y306035D02*
X56740D01*
X61540D02*
X65140D01*
X69940D02*
X73140D01*
X76340D02*
X85140D01*
X87940D02*
X96740D01*
X99140D02*
X102740D01*
X107540D02*
X111140D01*
X115140D02*
X124740D01*
X53540Y305635D02*
X56740D01*
X61140D02*
X65540D01*
X69940D02*
X73140D01*
X75540D02*
X85940D01*
X87540D02*
X96740D01*
X99140D02*
X103140D01*
X107540D02*
X111140D01*
X114740D02*
X125140D01*
X53540Y305235D02*
X57140D01*
X61140D02*
X65540D01*
X69540D02*
X72740D01*
X75140D02*
X85940D01*
X87140D02*
X96340D01*
X99140D02*
X103540D01*
X107540D02*
X111140D01*
X114340D02*
X125140D01*
X53540Y304835D02*
X57140D01*
X61140D02*
X65540D01*
X69540D02*
X72740D01*
X75140D02*
X85940D01*
X87140D02*
X96340D01*
X99140D02*
X103940D01*
X107540D02*
X111140D01*
X113940D02*
X125140D01*
X53940Y304435D02*
X57140D01*
X60740D02*
X65940D01*
X69540D02*
X72740D01*
X74740D02*
X79540D01*
X82340D02*
X85540D01*
X87140D02*
X90740D01*
X94340D02*
X96340D01*
X99140D02*
X104340D01*
X107540D02*
X111140D01*
X113940D02*
X118340D01*
X121540D02*
X124740D01*
X53940Y304035D02*
X57540D01*
X60740D02*
X65940D01*
X69140D02*
X72340D01*
X74340D02*
X78740D01*
X83140D02*
X85140D01*
X86740D02*
X90340D01*
X95540D02*
X95940D01*
X99140D02*
X104340D01*
X107540D02*
X111140D01*
X113540D02*
X117940D01*
X122340D02*
X124340D01*
X53940Y303635D02*
X57540D01*
X60740D02*
X65940D01*
X69140D02*
X72340D01*
X74340D02*
X78340D01*
X83540D02*
X84740D01*
X86740D02*
X90340D01*
X99140D02*
X104740D01*
X107540D02*
X111140D01*
X113140D02*
X117140D01*
X122740D02*
X123940D01*
X54340Y303235D02*
X57540D01*
X60340D02*
X65940D01*
X69140D02*
X72340D01*
X74340D02*
X77940D01*
X86740D02*
X90340D01*
X99140D02*
X105140D01*
X107540D02*
X111140D01*
X113140D02*
X116740D01*
X54340Y302835D02*
X57940D01*
X60340D02*
X66340D01*
X68740D02*
X71940D01*
X73940D02*
X77540D01*
X86740D02*
X90740D01*
X99140D02*
X105540D01*
X107540D02*
X111140D01*
X113140D02*
X116740D01*
X54340Y302435D02*
X57940D01*
X60340D02*
X66340D01*
X68740D02*
X71940D01*
X73940D02*
X77540D01*
X87140D02*
X91940D01*
X99140D02*
X105940D01*
X107540D02*
X111140D01*
X113140D02*
X116340D01*
X54740Y302035D02*
X57940D01*
X59940D02*
X63140D01*
X63540D02*
X66340D01*
X68740D02*
X71940D01*
X73940D02*
X77140D01*
X87140D02*
X93540D01*
X99140D02*
X105940D01*
X107540D02*
X111140D01*
X112740D02*
X116340D01*
X54740Y301635D02*
X58340D01*
X59940D02*
X63140D01*
X63540D02*
X66740D01*
X68340D02*
X71540D01*
X73940D02*
X77140D01*
X87140D02*
X94740D01*
X99140D02*
X106340D01*
X107540D02*
X111140D01*
X112740D02*
X116340D01*
X54740Y301235D02*
X58340D01*
X59940D02*
X62740D01*
X63540D02*
X66740D01*
X68340D02*
X71540D01*
X73940D02*
X77140D01*
X87540D02*
X95540D01*
X99140D02*
X102340D01*
X102740D02*
X106740D01*
X107540D02*
X111140D01*
X112740D02*
X115940D01*
X122340D02*
X125140D01*
X55140Y300835D02*
X58340D01*
X59540D02*
X62740D01*
X63940D02*
X66740D01*
X68340D02*
X71540D01*
X73940D02*
X77140D01*
X87940D02*
X96340D01*
X99140D02*
X102340D01*
X103140D02*
X107140D01*
X107540D02*
X111140D01*
X112740D02*
X115940D01*
X121940D02*
X125140D01*
X55140Y300435D02*
X58340D01*
X59540D02*
X62740D01*
X63940D02*
X67140D01*
X67940D02*
X71140D01*
X73940D02*
X77140D01*
X88740D02*
X96740D01*
X99140D02*
X102340D01*
X103140D02*
X111140D01*
X112740D02*
X115940D01*
X121940D02*
X125140D01*
X55140Y300035D02*
X58740D01*
X59540D02*
X62340D01*
X63940D02*
X67140D01*
X67940D02*
X71140D01*
X73940D02*
X77140D01*
X89540D02*
X97140D01*
X99140D02*
X102340D01*
X103540D02*
X111140D01*
X112740D02*
X116340D01*
X121940D02*
X125140D01*
X55540Y299635D02*
X58740D01*
X59140D02*
X62340D01*
X64340D02*
X67140D01*
X67940D02*
X71140D01*
X73940D02*
X77140D01*
X90740D02*
X97140D01*
X99140D02*
X102340D01*
X103940D02*
X111140D01*
X112740D02*
X116340D01*
X121940D02*
X125140D01*
X55540Y299235D02*
X58740D01*
X59140D02*
X62340D01*
X64340D02*
X70740D01*
X73940D02*
X77540D01*
X92340D02*
X97140D01*
X99140D02*
X102340D01*
X104340D02*
X111140D01*
X113140D02*
X116340D01*
X121940D02*
X125140D01*
X55540Y298835D02*
X61940D01*
X64340D02*
X70740D01*
X73940D02*
X77540D01*
X93540D02*
X97540D01*
X99140D02*
X102340D01*
X104740D02*
X111140D01*
X113140D02*
X116740D01*
X121940D02*
X125140D01*
X55940Y298435D02*
X61940D01*
X64740D02*
X70740D01*
X74340D02*
X77940D01*
X83940D02*
X84340D01*
X93940D02*
X97540D01*
X99140D02*
X102340D01*
X105140D02*
X111140D01*
X113140D02*
X116740D01*
X121940D02*
X125140D01*
X55940Y298035D02*
X61940D01*
X64740D02*
X70340D01*
X74340D02*
X78340D01*
X83540D02*
X84740D01*
X87540D02*
X87940D01*
X94340D02*
X97540D01*
X99140D02*
X102340D01*
X105140D02*
X111140D01*
X113540D02*
X117140D01*
X121940D02*
X125140D01*
X55940Y297635D02*
X61540D01*
X64740D02*
X70340D01*
X74340D02*
X78740D01*
X82740D02*
X85140D01*
X87540D02*
X88740D01*
X93940D02*
X97540D01*
X99140D02*
X102340D01*
X105540D02*
X111140D01*
X113540D02*
X117940D01*
X121940D02*
X125140D01*
X56340Y297235D02*
X61540D01*
X65140D02*
X70340D01*
X74740D02*
X79540D01*
X81940D02*
X85540D01*
X87140D02*
X89940D01*
X93540D02*
X97140D01*
X99140D02*
X102340D01*
X105940D02*
X111140D01*
X113940D02*
X118740D01*
X121540D02*
X125140D01*
X56340Y296835D02*
X61540D01*
X65140D02*
X69940D01*
X75140D02*
X85940D01*
X87140D02*
X97140D01*
X99140D02*
X102340D01*
X106340D02*
X111140D01*
X113940D02*
X125140D01*
X56340Y296435D02*
X61140D01*
X65140D02*
X69940D01*
X75540D02*
X85940D01*
X86740D02*
X97140D01*
X99140D02*
X102340D01*
X106740D02*
X111140D01*
X114340D02*
X125140D01*
X56740Y296035D02*
X61140D01*
X65140D02*
X69940D01*
X75540D02*
X85540D01*
X86740D02*
X96740D01*
X99140D02*
X102340D01*
X106740D02*
X111140D01*
X114740D02*
X125140D01*
X56740Y295635D02*
X61140D01*
X65540D02*
X69540D01*
X76340D02*
X85140D01*
X86740D02*
X96340D01*
X99140D02*
X102340D01*
X107140D02*
X111140D01*
X115140D02*
X124740D01*
X56740Y295235D02*
X60740D01*
X65540D02*
X69540D01*
X76740D02*
X84740D01*
X87140D02*
X95940D01*
X99140D02*
X102340D01*
X107540D02*
X111140D01*
X115940D02*
X124340D01*
X57140Y294835D02*
X60740D01*
X65540D02*
X69540D01*
X77540D02*
X83940D01*
X88340D02*
X95140D01*
X99140D02*
X102340D01*
X107940D02*
X111140D01*
X116740D02*
X123140D01*
X57140Y294435D02*
X60340D01*
X65940D02*
X69140D01*
X78740D02*
X82740D01*
X89540D02*
X94340D01*
X99140D02*
X102340D01*
X108340D02*
X110740D01*
X117540D02*
X121940D01*
D11*
X144398Y263175D02*
X143732Y263841D01*
X142399D01*
X141732Y263175D01*
Y260509D01*
X142399Y259842D01*
X143732D01*
X144398Y260509D01*
X145731Y259842D02*
Y263841D01*
X147730D01*
X148397Y263175D01*
Y261842D01*
X147730Y261175D01*
X145731D01*
X149730Y263841D02*
Y259842D01*
X151063Y261175D01*
X152395Y259842D01*
Y263841D01*
X156394Y263175D02*
X155728Y263841D01*
X154395D01*
X153728Y263175D01*
Y260509D01*
X154395Y259842D01*
X155728D01*
X156394Y260509D01*
Y261842D01*
X155061D01*
X163059Y259842D02*
X161726D01*
Y263841D01*
X163059D01*
X167724Y259842D02*
X165058D01*
X167724Y262508D01*
Y263175D01*
X167057Y263841D01*
X165725D01*
X165058Y263175D01*
X169057D02*
X169723Y263841D01*
X171056D01*
X171723Y263175D01*
Y260509D01*
X171056Y259842D01*
X169723D01*
X169057Y260509D01*
Y263175D01*
X173056Y259842D02*
Y262508D01*
X173722D01*
X174388Y261842D01*
Y259842D01*
Y261842D01*
X175055Y262508D01*
X175721Y261842D01*
Y259842D01*
X177054D02*
X178387D01*
X177721D01*
Y262508D01*
X177054D01*
X180386Y259842D02*
X181719D01*
X181053D01*
Y263841D01*
X180386D01*
X183719Y259842D02*
X185718D01*
X186384Y260509D01*
X185718Y261175D01*
X184385D01*
X183719Y261842D01*
X184385Y262508D01*
X186384D01*
X191716Y263841D02*
X193049D01*
X192383D01*
Y259842D01*
X191716D01*
X193049D01*
X195048D02*
X197048D01*
X197714Y260509D01*
X197048Y261175D01*
X195715D01*
X195048Y261842D01*
X195715Y262508D01*
X197714D01*
X199714Y259842D02*
X201046D01*
X201713Y260509D01*
Y261842D01*
X201046Y262508D01*
X199714D01*
X199047Y261842D01*
Y260509D01*
X199714Y259842D01*
X203046D02*
X204379D01*
Y263841D01*
X203046D01*
X210377Y259842D02*
X211710D01*
X211043D01*
Y263841D01*
X210377Y263175D01*
X213709D02*
X214375Y263841D01*
X215708D01*
X216375Y263175D01*
Y262508D01*
X215708Y261842D01*
X215042D01*
X215708D01*
X216375Y261175D01*
Y260509D01*
X215708Y259842D01*
X214375D01*
X213709Y260509D01*
X217708Y259842D02*
Y260509D01*
X218374D01*
Y259842D01*
X217708D01*
X223706Y263841D02*
X222373Y263175D01*
X221040Y261842D01*
Y260509D01*
X221707Y259842D01*
X223039D01*
X223706Y260509D01*
Y261175D01*
X223039Y261842D01*
X221040D01*
X227038Y259842D02*
Y263841D01*
X225039Y261842D01*
X227705D01*
X229037Y263175D02*
X229704Y263841D01*
X231037D01*
X231703Y263175D01*
Y262508D01*
X231037Y261842D01*
X230370D01*
X231037D01*
X231703Y261175D01*
Y260509D01*
X231037Y259842D01*
X229704D01*
X229037Y260509D01*
X237035Y259842D02*
Y262508D01*
X237701D01*
X238368Y261842D01*
Y259842D01*
Y261842D01*
X239034Y262508D01*
X239701Y261842D01*
Y259842D01*
X241034D02*
X242367D01*
X241700D01*
Y262508D01*
X241034D01*
X244366Y259842D02*
X245699D01*
X245032D01*
Y263841D01*
X244366D01*
X247698Y259842D02*
X249697D01*
X250364Y260509D01*
X249697Y261175D01*
X248365D01*
X247698Y261842D01*
X248365Y262508D01*
X250364D01*
X131890Y200849D02*
X133223D01*
X132556D01*
Y196850D01*
X131890D01*
X133223D01*
X137888Y200183D02*
X137221Y200849D01*
X135889D01*
X135222Y200183D01*
Y197517D01*
X135889Y196850D01*
X137221D01*
X137888Y197517D01*
X143219Y198850D02*
X145885D01*
X153883Y200183D02*
X153216Y200849D01*
X151883D01*
X151217Y200183D01*
Y197517D01*
X151883Y196850D01*
X153216D01*
X153883Y197517D01*
X155216Y196850D02*
Y200849D01*
X157215D01*
X157881Y200183D01*
Y198850D01*
X157215Y198183D01*
X155216D01*
X159214Y200849D02*
Y196850D01*
X160547Y198183D01*
X161880Y196850D01*
Y200849D01*
X165879Y200183D02*
X165212Y200849D01*
X163879D01*
X163213Y200183D01*
Y197517D01*
X163879Y196850D01*
X165212D01*
X165879Y197517D01*
Y198850D01*
X164546D01*
X172543Y196850D02*
X171210D01*
Y200849D01*
X172543D01*
X174543Y196850D02*
X175876D01*
X175209D01*
Y200849D01*
X174543Y200183D01*
X180541Y200849D02*
X177875D01*
Y198850D01*
X179208Y199516D01*
X179874D01*
X180541Y198850D01*
Y197517D01*
X179874Y196850D01*
X178541D01*
X177875Y197517D01*
X181874Y196850D02*
Y199516D01*
X182540D01*
X183206Y198850D01*
Y196850D01*
Y198850D01*
X183873Y199516D01*
X184539Y198850D01*
Y196850D01*
X185872D02*
X187205D01*
X186539D01*
Y199516D01*
X185872D01*
X189205Y196850D02*
X190538D01*
X189871D01*
Y200849D01*
X189205D01*
X192537Y196850D02*
X194536D01*
X195203Y197517D01*
X194536Y198183D01*
X193203D01*
X192537Y198850D01*
X193203Y199516D01*
X195203D01*
X200534Y200849D02*
X201867D01*
X201201D01*
Y196850D01*
X200534D01*
X201867D01*
X203867D02*
X205866D01*
X206532Y197517D01*
X205866Y198183D01*
X204533D01*
X203867Y198850D01*
X204533Y199516D01*
X206532D01*
X208532Y196850D02*
X209865D01*
X210531Y197517D01*
Y198850D01*
X209865Y199516D01*
X208532D01*
X207865Y198850D01*
Y197517D01*
X208532Y196850D01*
X211864D02*
X213197D01*
Y200849D01*
X211864D01*
X219195Y196850D02*
X220528D01*
X219861D01*
Y200849D01*
X219195Y200183D01*
X222527D02*
X223194Y200849D01*
X224527D01*
X225193Y200183D01*
Y199516D01*
X224527Y198850D01*
X223860D01*
X224527D01*
X225193Y198183D01*
Y197517D01*
X224527Y196850D01*
X223194D01*
X222527Y197517D01*
X226526Y196850D02*
Y197517D01*
X227192D01*
Y196850D01*
X226526D01*
X229858Y200183D02*
X230525Y200849D01*
X231857D01*
X232524Y200183D01*
Y197517D01*
X231857Y196850D01*
X230525D01*
X229858Y197517D01*
Y200183D01*
X233857Y197517D02*
X234523Y196850D01*
X235856D01*
X236523Y197517D01*
Y200183D01*
X235856Y200849D01*
X234523D01*
X233857Y200183D01*
Y199516D01*
X234523Y198850D01*
X236523D01*
X239855Y196850D02*
Y200849D01*
X237856Y198850D01*
X240521D01*
X245853Y196850D02*
Y199516D01*
X246519D01*
X247186Y198850D01*
Y196850D01*
Y198850D01*
X247852Y199516D01*
X248519Y198850D01*
Y196850D01*
X249852D02*
X251185D01*
X250518D01*
Y199516D01*
X249852D01*
X253184Y196850D02*
X254517D01*
X253850D01*
Y200849D01*
X253184D01*
X256516Y196850D02*
X258516D01*
X259182Y197517D01*
X258516Y198183D01*
X257183D01*
X256516Y198850D01*
X257183Y199516D01*
X259182D01*
X144398Y137190D02*
X143732Y137857D01*
X142399D01*
X141732Y137190D01*
Y134525D01*
X142399Y133858D01*
X143732D01*
X144398Y134525D01*
X145731Y133858D02*
Y137857D01*
X147730D01*
X148397Y137190D01*
Y135858D01*
X147730Y135191D01*
X145731D01*
X149730Y137857D02*
Y133858D01*
X151063Y135191D01*
X152395Y133858D01*
Y137857D01*
X156394Y137190D02*
X155728Y137857D01*
X154395D01*
X153728Y137190D01*
Y134525D01*
X154395Y133858D01*
X155728D01*
X156394Y134525D01*
Y135858D01*
X155061D01*
X163059Y133858D02*
X161726D01*
Y137857D01*
X163059D01*
X165058Y133858D02*
X166391D01*
X165725D01*
Y137857D01*
X165058Y137190D01*
X171056Y137857D02*
X168390D01*
Y135858D01*
X169723Y136524D01*
X170390D01*
X171056Y135858D01*
Y134525D01*
X170390Y133858D01*
X169057D01*
X168390Y134525D01*
X172389Y133858D02*
Y136524D01*
X173056D01*
X173722Y135858D01*
Y133858D01*
Y135858D01*
X174388Y136524D01*
X175055Y135858D01*
Y133858D01*
X176388D02*
X177721D01*
X177054D01*
Y136524D01*
X176388D01*
X179720Y133858D02*
X181053D01*
X180386D01*
Y137857D01*
X179720D01*
X183052Y133858D02*
X185052D01*
X185718Y134525D01*
X185052Y135191D01*
X183719D01*
X183052Y135858D01*
X183719Y136524D01*
X185718D01*
X191050Y137857D02*
X192383D01*
X191716D01*
Y133858D01*
X191050D01*
X192383D01*
X194382D02*
X196381D01*
X197048Y134525D01*
X196381Y135191D01*
X195048D01*
X194382Y135858D01*
X195048Y136524D01*
X197048D01*
X199047Y133858D02*
X200380D01*
X201046Y134525D01*
Y135858D01*
X200380Y136524D01*
X199047D01*
X198381Y135858D01*
Y134525D01*
X199047Y133858D01*
X202379D02*
X203712D01*
Y137857D01*
X202379D01*
X209710Y133858D02*
X211043D01*
X210377D01*
Y137857D01*
X209710Y137190D01*
X213043D02*
X213709Y137857D01*
X215042D01*
X215708Y137190D01*
Y136524D01*
X215042Y135858D01*
X214375D01*
X215042D01*
X215708Y135191D01*
Y134525D01*
X215042Y133858D01*
X213709D01*
X213043Y134525D01*
X217041Y133858D02*
Y134525D01*
X217708D01*
Y133858D01*
X217041D01*
X220374Y137190D02*
X221040Y137857D01*
X222373D01*
X223039Y137190D01*
Y134525D01*
X222373Y133858D01*
X221040D01*
X220374Y134525D01*
Y137190D01*
X224372Y134525D02*
X225039Y133858D01*
X226372D01*
X227038Y134525D01*
Y137190D01*
X226372Y137857D01*
X225039D01*
X224372Y137190D01*
Y136524D01*
X225039Y135858D01*
X227038D01*
X230370Y133858D02*
Y137857D01*
X228371Y135858D01*
X231037D01*
X236368Y133858D02*
Y136524D01*
X237035D01*
X237701Y135858D01*
Y133858D01*
Y135858D01*
X238368Y136524D01*
X239034Y135858D01*
Y133858D01*
X240367D02*
X241700D01*
X241034D01*
Y136524D01*
X240367D01*
X243699Y133858D02*
X245032D01*
X244366D01*
Y137857D01*
X243699D01*
X247032Y133858D02*
X249031D01*
X249697Y134525D01*
X249031Y135191D01*
X247698D01*
X247032Y135858D01*
X247698Y136524D01*
X249697D01*
X146367Y74198D02*
X145700Y74865D01*
X144367D01*
X143701Y74198D01*
Y71533D01*
X144367Y70866D01*
X145700D01*
X146367Y71533D01*
X147699Y70866D02*
Y74865D01*
X149699D01*
X150365Y74198D01*
Y72865D01*
X149699Y72199D01*
X147699D01*
X151698Y74865D02*
Y70866D01*
X153031Y72199D01*
X154364Y70866D01*
Y74865D01*
X158363Y74198D02*
X157696Y74865D01*
X156363D01*
X155697Y74198D01*
Y71533D01*
X156363Y70866D01*
X157696D01*
X158363Y71533D01*
Y72865D01*
X157030D01*
X165027Y70866D02*
X163694D01*
Y74865D01*
X165027D01*
X167027Y70866D02*
X168359D01*
X167693D01*
Y74865D01*
X167027Y74198D01*
X170359D02*
X171025Y74865D01*
X172358D01*
X173025Y74198D01*
Y71533D01*
X172358Y70866D01*
X171025D01*
X170359Y71533D01*
Y74198D01*
X174358Y70866D02*
Y73532D01*
X175024D01*
X175690Y72865D01*
Y70866D01*
Y72865D01*
X176357Y73532D01*
X177023Y72865D01*
Y70866D01*
X178356D02*
X179689D01*
X179023D01*
Y73532D01*
X178356D01*
X181688Y70866D02*
X183021D01*
X182355D01*
Y74865D01*
X181688D01*
X185021Y70866D02*
X187020D01*
X187687Y71533D01*
X187020Y72199D01*
X185687D01*
X185021Y72865D01*
X185687Y73532D01*
X187687D01*
X193018Y74865D02*
X194351D01*
X193685D01*
Y70866D01*
X193018D01*
X194351D01*
X196351D02*
X198350D01*
X199016Y71533D01*
X198350Y72199D01*
X197017D01*
X196351Y72865D01*
X197017Y73532D01*
X199016D01*
X201016Y70866D02*
X202348D01*
X203015Y71533D01*
Y72865D01*
X202348Y73532D01*
X201016D01*
X200349Y72865D01*
Y71533D01*
X201016Y70866D01*
X204348D02*
X205681D01*
Y74865D01*
X204348D01*
X211679Y70866D02*
X213012D01*
X212345D01*
Y74865D01*
X211679Y74198D01*
X217677Y70866D02*
X215011D01*
X217677Y73532D01*
Y74198D01*
X217010Y74865D01*
X215678D01*
X215011Y74198D01*
X219010Y70866D02*
Y71533D01*
X219676D01*
Y70866D01*
X219010D01*
X222342D02*
X223675D01*
X223009D01*
Y74865D01*
X222342Y74198D01*
X225674D02*
X226341Y74865D01*
X227674D01*
X228340Y74198D01*
Y73532D01*
X227674Y72865D01*
X228340Y72199D01*
Y71533D01*
X227674Y70866D01*
X226341D01*
X225674Y71533D01*
Y72199D01*
X226341Y72865D01*
X225674Y73532D01*
Y74198D01*
X226341Y72865D02*
X227674D01*
X229673Y70866D02*
X231006D01*
X230340D01*
Y74865D01*
X229673Y74198D01*
X237004Y70866D02*
Y73532D01*
X237670D01*
X238337Y72865D01*
Y70866D01*
Y72865D01*
X239003Y73532D01*
X239670Y72865D01*
Y70866D01*
X241003D02*
X242336D01*
X241669D01*
Y73532D01*
X241003D01*
X244335Y70866D02*
X245668D01*
X245002D01*
Y74865D01*
X244335D01*
X247667Y70866D02*
X249667D01*
X250333Y71533D01*
X249667Y72199D01*
X248334D01*
X247667Y72865D01*
X248334Y73532D01*
X250333D01*
M02*
