G04*
G04 #@! TF.GenerationSoftware,Altium Limited,Altium Designer,19.1.7 (138)*
G04*
G04 Layer_Physical_Order=1*
G04 Layer_Color=255*
%FSLAX25Y25*%
%MOIN*%
G70*
G01*
G75*
%ADD12R,0.07500X0.02000*%
%ADD13R,0.20000X0.09000*%
%ADD14R,0.09000X0.20000*%
%ADD15C,0.01364*%
%ADD16C,0.01309*%
%ADD23C,0.01218*%
%ADD24C,0.01500*%
G36*
X384601Y60992D02*
X393701D01*
Y0D01*
X148884D01*
Y21600D01*
X137884D01*
Y0D01*
X114084D01*
Y21600D01*
X103084D01*
Y0D01*
X85892D01*
Y21600D01*
X74892D01*
Y0D01*
X51092D01*
Y21600D01*
X40092D01*
Y0D01*
X0D01*
Y60992D01*
X9100D01*
Y61352D01*
X384601D01*
Y60992D01*
D02*
G37*
G36*
X384101Y123484D02*
X393701D01*
Y64992D01*
X384601D01*
Y64633D01*
X9100D01*
Y64992D01*
X0D01*
Y123484D01*
X9600D01*
Y123787D01*
X384101D01*
Y123484D01*
D02*
G37*
G36*
X384601Y186976D02*
X393701D01*
Y128484D01*
X384101D01*
Y128181D01*
X9600D01*
Y128484D01*
X0D01*
Y186976D01*
X9100D01*
Y187289D01*
X384601D01*
Y186976D01*
D02*
G37*
G36*
X151500Y279528D02*
X393701Y279528D01*
Y254969D01*
X383601D01*
Y254674D01*
X10100D01*
Y254969D01*
X0D01*
Y393701D01*
X40092Y393701D01*
Y372101D01*
X51092D01*
Y393701D01*
X74892D01*
Y372101D01*
X85892D01*
Y393701D01*
X103084D01*
Y372101D01*
X114084D01*
Y393701D01*
X137884D01*
Y372101D01*
X148884D01*
Y393701D01*
X151500D01*
X151500Y279528D01*
D02*
G37*
G36*
X393701Y283465D02*
X156000Y283465D01*
Y393701D01*
X393701Y393701D01*
Y283465D01*
D02*
G37*
G36*
X383601Y248969D02*
X393701D01*
Y190976D01*
X384601D01*
Y190664D01*
X9100D01*
Y190976D01*
X0D01*
Y248969D01*
X10100D01*
Y249263D01*
X383601D01*
Y248969D01*
D02*
G37*
D12*
X389351Y251969D02*
D03*
Y125984D02*
D03*
X4350D02*
D03*
X389351Y62992D02*
D03*
X4350D02*
D03*
X389351Y188976D02*
D03*
X4350D02*
D03*
Y251969D02*
D03*
D13*
X383101Y234569D02*
D03*
Y269369D02*
D03*
Y330900D02*
D03*
Y296100D02*
D03*
Y143384D02*
D03*
Y108584D02*
D03*
X10600D02*
D03*
Y143384D02*
D03*
X383101Y80392D02*
D03*
Y45592D02*
D03*
X10600D02*
D03*
Y80392D02*
D03*
X383101Y206376D02*
D03*
Y171576D02*
D03*
X10600D02*
D03*
Y206376D02*
D03*
Y234569D02*
D03*
Y269369D02*
D03*
D14*
X45592Y10600D02*
D03*
X80392D02*
D03*
Y383101D02*
D03*
X45592D02*
D03*
X108584Y10600D02*
D03*
X143384D02*
D03*
Y383101D02*
D03*
X108584D02*
D03*
X302100Y383101D02*
D03*
X336900D02*
D03*
X245598D02*
D03*
X280398D02*
D03*
D15*
X4350Y251969D02*
X389351D01*
D16*
X4350Y188976D02*
X389351D01*
X4350Y125984D02*
X389351D01*
D23*
X4350Y62992D02*
X389351D01*
D24*
X389584Y256246D02*
D03*
X385584Y256244D02*
D03*
X381596Y255942D02*
D03*
X377596D02*
D03*
X373596D02*
D03*
X369596D02*
D03*
X365596D02*
D03*
X361596D02*
D03*
X357596D02*
D03*
X353596D02*
D03*
X349596D02*
D03*
X345596D02*
D03*
X341596D02*
D03*
X337596D02*
D03*
X333596D02*
D03*
X329596D02*
D03*
X325596D02*
D03*
X321596D02*
D03*
X317596D02*
D03*
X313596D02*
D03*
X309596D02*
D03*
X305596D02*
D03*
X301596D02*
D03*
X297596D02*
D03*
X293596D02*
D03*
X289596D02*
D03*
X285596D02*
D03*
X281596D02*
D03*
X277596D02*
D03*
X273596D02*
D03*
X269596D02*
D03*
X265596D02*
D03*
X261596D02*
D03*
X257596D02*
D03*
X253596D02*
D03*
X249596D02*
D03*
X245596D02*
D03*
X241596D02*
D03*
X237596D02*
D03*
X233596D02*
D03*
X229596D02*
D03*
X225596D02*
D03*
X221596D02*
D03*
X217596D02*
D03*
X213596D02*
D03*
X209596D02*
D03*
X205596D02*
D03*
X201596D02*
D03*
X197596D02*
D03*
X193596D02*
D03*
X189596D02*
D03*
X185596D02*
D03*
X181596D02*
D03*
X177596D02*
D03*
X173596D02*
D03*
X169596D02*
D03*
X165596D02*
D03*
X161596D02*
D03*
X157596D02*
D03*
X153596D02*
D03*
X149596D02*
D03*
X145596D02*
D03*
X141596D02*
D03*
X137596D02*
D03*
X113596D02*
D03*
X109596D02*
D03*
X105596D02*
D03*
X101596D02*
D03*
X97596D02*
D03*
X93596D02*
D03*
X89596D02*
D03*
X85596D02*
D03*
X81596D02*
D03*
X77596D02*
D03*
X73596D02*
D03*
X53596D02*
D03*
X49596D02*
D03*
X45596D02*
D03*
X41596D02*
D03*
X37596D02*
D03*
X33596D02*
D03*
X29596D02*
D03*
X25596D02*
D03*
X21596D02*
D03*
X17596D02*
D03*
X13596D02*
D03*
X9596D02*
D03*
X5607Y256246D02*
D03*
X1607D02*
D03*
X3948Y247691D02*
D03*
X7948D02*
D03*
X11936Y247995D02*
D03*
X15936D02*
D03*
X19936D02*
D03*
X23936D02*
D03*
X27936D02*
D03*
X31936D02*
D03*
X35936D02*
D03*
X39936D02*
D03*
X43936D02*
D03*
X47936D02*
D03*
X51936D02*
D03*
X75936D02*
D03*
X79936D02*
D03*
X83936D02*
D03*
X87936D02*
D03*
X91936D02*
D03*
X95936D02*
D03*
X99936D02*
D03*
X103936D02*
D03*
X107936D02*
D03*
X111936D02*
D03*
X115936D02*
D03*
X135936D02*
D03*
X139936D02*
D03*
X143936D02*
D03*
X147936D02*
D03*
X151936D02*
D03*
X155936D02*
D03*
X159936D02*
D03*
X163936D02*
D03*
X167936D02*
D03*
X171936D02*
D03*
X175936D02*
D03*
X179936D02*
D03*
X183936D02*
D03*
X187936D02*
D03*
X191936D02*
D03*
X195936D02*
D03*
X199936D02*
D03*
X203936D02*
D03*
X207936D02*
D03*
X211936D02*
D03*
X215936D02*
D03*
X219936D02*
D03*
X223936D02*
D03*
X227936D02*
D03*
X231936D02*
D03*
X235936D02*
D03*
X239936D02*
D03*
X243936D02*
D03*
X247936D02*
D03*
X251936D02*
D03*
X255936D02*
D03*
X259936D02*
D03*
X263936D02*
D03*
X267936D02*
D03*
X271936D02*
D03*
X275936D02*
D03*
X279936D02*
D03*
X283936D02*
D03*
X287936D02*
D03*
X291936D02*
D03*
X295936D02*
D03*
X299936D02*
D03*
X303936D02*
D03*
X307936D02*
D03*
X311936D02*
D03*
X315936D02*
D03*
X319936D02*
D03*
X323936D02*
D03*
X327936D02*
D03*
X331936D02*
D03*
X335936D02*
D03*
X339936D02*
D03*
X343936D02*
D03*
X347936D02*
D03*
X351936D02*
D03*
X355936D02*
D03*
X359936D02*
D03*
X363936D02*
D03*
X367936D02*
D03*
X371936D02*
D03*
X375936D02*
D03*
X379936D02*
D03*
X383936D02*
D03*
X387925Y247691D02*
D03*
X116500Y66000D02*
D03*
X84722Y65907D02*
D03*
X80722D02*
D03*
X84436Y60077D02*
D03*
X80436D02*
D03*
X76722Y65907D02*
D03*
X76436Y60077D02*
D03*
X72722Y65907D02*
D03*
X72436Y60077D02*
D03*
X84732Y128946D02*
D03*
X80732D02*
D03*
X84433Y123023D02*
D03*
X80433D02*
D03*
X76732Y128946D02*
D03*
X72732D02*
D03*
X76433Y123023D02*
D03*
X72433D02*
D03*
X84732Y191938D02*
D03*
X84433Y186015D02*
D03*
X80732Y191938D02*
D03*
X80433Y186015D02*
D03*
X76732Y191938D02*
D03*
X76433Y186015D02*
D03*
X72732Y191938D02*
D03*
X72433Y186015D02*
D03*
X100722Y65907D02*
D03*
X96722D02*
D03*
X100436Y60077D02*
D03*
X96436D02*
D03*
X92722Y65907D02*
D03*
X88722D02*
D03*
X92436Y60077D02*
D03*
X88436D02*
D03*
X52732Y191938D02*
D03*
X32433Y186015D02*
D03*
X28732Y191938D02*
D03*
X28433Y186015D02*
D03*
X24732Y191938D02*
D03*
X24433Y186015D02*
D03*
X20732Y191938D02*
D03*
X20433Y186015D02*
D03*
X16700Y204700D02*
D03*
X16600Y208300D02*
D03*
X16732Y191938D02*
D03*
X16433Y186015D02*
D03*
X36732Y191938D02*
D03*
X36433Y186015D02*
D03*
X32732Y191938D02*
D03*
X52436Y60077D02*
D03*
X52722Y65907D02*
D03*
X44436Y60077D02*
D03*
X44722Y65907D02*
D03*
X48436Y60077D02*
D03*
X48722Y65907D02*
D03*
X40436Y60077D02*
D03*
X40722Y65907D02*
D03*
X52433Y186015D02*
D03*
X44732Y191938D02*
D03*
X48732D02*
D03*
X44433Y186015D02*
D03*
X48433D02*
D03*
X40732Y191938D02*
D03*
X40433Y186015D02*
D03*
X136433D02*
D03*
X136732Y191938D02*
D03*
X140433Y186015D02*
D03*
X144433D02*
D03*
X140732Y191938D02*
D03*
X144732D02*
D03*
X148433Y186015D02*
D03*
X148732Y191938D02*
D03*
X116433Y123023D02*
D03*
X112433D02*
D03*
X112732Y128946D02*
D03*
X108433Y123023D02*
D03*
X104433D02*
D03*
X108732Y128946D02*
D03*
X104732D02*
D03*
X116436Y60077D02*
D03*
X112436D02*
D03*
X112722Y65907D02*
D03*
X108436Y60077D02*
D03*
X104436D02*
D03*
X108722Y65907D02*
D03*
X104722D02*
D03*
X36722D02*
D03*
X36436Y60077D02*
D03*
X28722Y65907D02*
D03*
X32722D02*
D03*
X28436Y60077D02*
D03*
X32436D02*
D03*
X24436D02*
D03*
X24722Y65907D02*
D03*
X36732Y128946D02*
D03*
X32732D02*
D03*
X36433Y123023D02*
D03*
X32433D02*
D03*
X28732Y128946D02*
D03*
X24732D02*
D03*
X28433Y123023D02*
D03*
X24433D02*
D03*
X20722Y65907D02*
D03*
X20436Y60077D02*
D03*
X388725Y192271D02*
D03*
X384729Y192097D02*
D03*
X380732Y191938D02*
D03*
X376732D02*
D03*
X372732D02*
D03*
X368732D02*
D03*
X364732D02*
D03*
X360732D02*
D03*
X356732D02*
D03*
X352732D02*
D03*
X348732D02*
D03*
X344732D02*
D03*
X340732D02*
D03*
X336732D02*
D03*
X332732D02*
D03*
X328732D02*
D03*
X324732D02*
D03*
X320732D02*
D03*
X316732D02*
D03*
X312732D02*
D03*
X308732D02*
D03*
X304732D02*
D03*
X300732D02*
D03*
X296732D02*
D03*
X292732D02*
D03*
X288732D02*
D03*
X284732D02*
D03*
X280732D02*
D03*
X276732D02*
D03*
X272732D02*
D03*
X268732D02*
D03*
X264732D02*
D03*
X260732D02*
D03*
X256732D02*
D03*
X252732D02*
D03*
X248732D02*
D03*
X244732D02*
D03*
X240732D02*
D03*
X236732D02*
D03*
X232732D02*
D03*
X228732D02*
D03*
X224732D02*
D03*
X220732D02*
D03*
X216732D02*
D03*
X212732D02*
D03*
X208732D02*
D03*
X204732D02*
D03*
X200732D02*
D03*
X196732D02*
D03*
X192732D02*
D03*
X188732D02*
D03*
X184732D02*
D03*
X180732D02*
D03*
X176732D02*
D03*
X172732D02*
D03*
X168732D02*
D03*
X164732D02*
D03*
X160732D02*
D03*
X156732D02*
D03*
X152732D02*
D03*
X112732D02*
D03*
X108732D02*
D03*
X104732D02*
D03*
X100732D02*
D03*
X96732D02*
D03*
X92732D02*
D03*
X88732D02*
D03*
X12732D02*
D03*
X8737Y192144D02*
D03*
X4739Y192271D02*
D03*
X4442Y185682D02*
D03*
X8441Y185750D02*
D03*
X12433Y186015D02*
D03*
X88433D02*
D03*
X92433D02*
D03*
X96433D02*
D03*
X100433D02*
D03*
X104433D02*
D03*
X108433D02*
D03*
X112433D02*
D03*
X116433D02*
D03*
X152433D02*
D03*
X156433D02*
D03*
X160433D02*
D03*
X164433D02*
D03*
X168433D02*
D03*
X172433D02*
D03*
X176433D02*
D03*
X180433D02*
D03*
X184433D02*
D03*
X188433D02*
D03*
X192433D02*
D03*
X196433D02*
D03*
X200433D02*
D03*
X204433D02*
D03*
X208433D02*
D03*
X212433D02*
D03*
X216433D02*
D03*
X220433D02*
D03*
X224433D02*
D03*
X228433D02*
D03*
X232433D02*
D03*
X236433D02*
D03*
X240433D02*
D03*
X244433D02*
D03*
X248433D02*
D03*
X252433D02*
D03*
X256433D02*
D03*
X260433D02*
D03*
X264433D02*
D03*
X268433D02*
D03*
X272433D02*
D03*
X276433D02*
D03*
X280433D02*
D03*
X284433D02*
D03*
X288433D02*
D03*
X292433D02*
D03*
X296433D02*
D03*
X300433D02*
D03*
X304433D02*
D03*
X308433D02*
D03*
X312433D02*
D03*
X316433D02*
D03*
X320433D02*
D03*
X324433D02*
D03*
X328433D02*
D03*
X332433D02*
D03*
X336433D02*
D03*
X340433D02*
D03*
X344433D02*
D03*
X348433D02*
D03*
X352433D02*
D03*
X356433D02*
D03*
X360433D02*
D03*
X364433D02*
D03*
X368433D02*
D03*
X372433D02*
D03*
X376433D02*
D03*
X380433D02*
D03*
X384433D02*
D03*
X388419Y185682D02*
D03*
X388725Y129278D02*
D03*
X384729Y129105D02*
D03*
X380732Y128946D02*
D03*
X376732D02*
D03*
X372732D02*
D03*
X368732D02*
D03*
X364732D02*
D03*
X360732D02*
D03*
X356732D02*
D03*
X352732D02*
D03*
X348732D02*
D03*
X344732D02*
D03*
X340732D02*
D03*
X336732D02*
D03*
X332732D02*
D03*
X328732D02*
D03*
X324732D02*
D03*
X320732D02*
D03*
X316732D02*
D03*
X312732D02*
D03*
X308732D02*
D03*
X304732D02*
D03*
X300732D02*
D03*
X296732D02*
D03*
X292732D02*
D03*
X288732D02*
D03*
X284732D02*
D03*
X280732D02*
D03*
X276732D02*
D03*
X272732D02*
D03*
X268732D02*
D03*
X264732D02*
D03*
X260732D02*
D03*
X256732D02*
D03*
X252732D02*
D03*
X248732D02*
D03*
X244732D02*
D03*
X240732D02*
D03*
X236732D02*
D03*
X232732D02*
D03*
X228732D02*
D03*
X224732D02*
D03*
X220732D02*
D03*
X216732D02*
D03*
X212732D02*
D03*
X208732D02*
D03*
X204732D02*
D03*
X200732D02*
D03*
X196732D02*
D03*
X192732D02*
D03*
X188732D02*
D03*
X184732D02*
D03*
X180732D02*
D03*
X176732D02*
D03*
X172732D02*
D03*
X168732D02*
D03*
X164732D02*
D03*
X160732D02*
D03*
X156732D02*
D03*
X152732D02*
D03*
X148732D02*
D03*
X144732D02*
D03*
X140732D02*
D03*
X136732D02*
D03*
X100732D02*
D03*
X96732D02*
D03*
X92732D02*
D03*
X88732D02*
D03*
X52732D02*
D03*
X48732D02*
D03*
X44732D02*
D03*
X40732D02*
D03*
X20732D02*
D03*
X16732D02*
D03*
X12732D02*
D03*
X8737Y129152D02*
D03*
X4739Y129278D02*
D03*
X4442Y122690D02*
D03*
X8441Y122758D02*
D03*
X12433Y123023D02*
D03*
X16433D02*
D03*
X20433D02*
D03*
X40433D02*
D03*
X44433D02*
D03*
X48433D02*
D03*
X52433D02*
D03*
X88433D02*
D03*
X92433D02*
D03*
X96433D02*
D03*
X100433D02*
D03*
X136433D02*
D03*
X140433D02*
D03*
X144433D02*
D03*
X148433D02*
D03*
X152433D02*
D03*
X156433D02*
D03*
X160433D02*
D03*
X164433D02*
D03*
X168433D02*
D03*
X172433D02*
D03*
X176433D02*
D03*
X180433D02*
D03*
X184433D02*
D03*
X188433D02*
D03*
X192433D02*
D03*
X196433D02*
D03*
X200433D02*
D03*
X204433D02*
D03*
X208433D02*
D03*
X212433D02*
D03*
X216433D02*
D03*
X220433D02*
D03*
X224433D02*
D03*
X228433D02*
D03*
X232433D02*
D03*
X236433D02*
D03*
X240433D02*
D03*
X244433D02*
D03*
X248433D02*
D03*
X252433D02*
D03*
X256433D02*
D03*
X260433D02*
D03*
X264433D02*
D03*
X268433D02*
D03*
X272433D02*
D03*
X276433D02*
D03*
X280433D02*
D03*
X284433D02*
D03*
X288433D02*
D03*
X292433D02*
D03*
X296433D02*
D03*
X300433D02*
D03*
X304433D02*
D03*
X308433D02*
D03*
X312433D02*
D03*
X316433D02*
D03*
X320433D02*
D03*
X324433D02*
D03*
X328433D02*
D03*
X332433D02*
D03*
X336433D02*
D03*
X340433D02*
D03*
X344433D02*
D03*
X348433D02*
D03*
X352433D02*
D03*
X356433D02*
D03*
X360433D02*
D03*
X364433D02*
D03*
X368433D02*
D03*
X372433D02*
D03*
X376433D02*
D03*
X380433D02*
D03*
X384433D02*
D03*
X388419Y122690D02*
D03*
X388713Y66286D02*
D03*
X384717Y66108D02*
D03*
X380722Y65907D02*
D03*
X376722D02*
D03*
X372722D02*
D03*
X368722D02*
D03*
X364722D02*
D03*
X360722D02*
D03*
X356722D02*
D03*
X352722D02*
D03*
X348722D02*
D03*
X344722D02*
D03*
X340722D02*
D03*
X336722D02*
D03*
X332722D02*
D03*
X328722D02*
D03*
X324722D02*
D03*
X320722D02*
D03*
X316722D02*
D03*
X312722D02*
D03*
X308722D02*
D03*
X304722D02*
D03*
X300722D02*
D03*
X296722D02*
D03*
X292722D02*
D03*
X288722D02*
D03*
X284722D02*
D03*
X280722D02*
D03*
X276722D02*
D03*
X272722D02*
D03*
X268722D02*
D03*
X264722D02*
D03*
X260722D02*
D03*
X256722D02*
D03*
X252722D02*
D03*
X248722D02*
D03*
X244722D02*
D03*
X240722D02*
D03*
X236722D02*
D03*
X232722D02*
D03*
X228722D02*
D03*
X224722D02*
D03*
X220722D02*
D03*
X216722D02*
D03*
X212722D02*
D03*
X208722D02*
D03*
X204722D02*
D03*
X200722D02*
D03*
X196722D02*
D03*
X192722D02*
D03*
X188722D02*
D03*
X184722D02*
D03*
X180722D02*
D03*
X176722D02*
D03*
X172722D02*
D03*
X168722D02*
D03*
X164722D02*
D03*
X160722D02*
D03*
X156722D02*
D03*
X152722D02*
D03*
X148722D02*
D03*
X144722D02*
D03*
X140722D02*
D03*
X136722D02*
D03*
X16722D02*
D03*
X12722D02*
D03*
X8730Y66161D02*
D03*
X4732Y66286D02*
D03*
X4448Y59698D02*
D03*
X8448Y59767D02*
D03*
X12436Y60077D02*
D03*
X16436D02*
D03*
X136436D02*
D03*
X140436D02*
D03*
X144436D02*
D03*
X148436D02*
D03*
X152436D02*
D03*
X156436D02*
D03*
X160436D02*
D03*
X164436D02*
D03*
X168436D02*
D03*
X172436D02*
D03*
X176436D02*
D03*
X180436D02*
D03*
X184436D02*
D03*
X188436D02*
D03*
X192436D02*
D03*
X196436D02*
D03*
X200436D02*
D03*
X204436D02*
D03*
X208436D02*
D03*
X212436D02*
D03*
X216436D02*
D03*
X220436D02*
D03*
X224436D02*
D03*
X228436D02*
D03*
X232436D02*
D03*
X236436D02*
D03*
X240436D02*
D03*
X244436D02*
D03*
X248436D02*
D03*
X252436D02*
D03*
X256436D02*
D03*
X260436D02*
D03*
X264436D02*
D03*
X268436D02*
D03*
X272436D02*
D03*
X276436D02*
D03*
X280436D02*
D03*
X284436D02*
D03*
X288436D02*
D03*
X292436D02*
D03*
X296436D02*
D03*
X300436D02*
D03*
X304436D02*
D03*
X308436D02*
D03*
X312436D02*
D03*
X316436D02*
D03*
X320436D02*
D03*
X324436D02*
D03*
X328436D02*
D03*
X332436D02*
D03*
X336436D02*
D03*
X340436D02*
D03*
X344436D02*
D03*
X348436D02*
D03*
X352436D02*
D03*
X356436D02*
D03*
X360436D02*
D03*
X364436D02*
D03*
X368436D02*
D03*
X372436D02*
D03*
X376436D02*
D03*
X380436D02*
D03*
X384436Y60065D02*
D03*
X388419Y59698D02*
D03*
X144800Y4100D02*
D03*
X141400Y3500D02*
D03*
X141600Y10900D02*
D03*
X146500D02*
D03*
X146400Y18100D02*
D03*
X141000Y18000D02*
D03*
X110800Y3800D02*
D03*
X106700Y3300D02*
D03*
X106500Y10800D02*
D03*
X111100Y11100D02*
D03*
X111200Y18300D02*
D03*
X106000Y18500D02*
D03*
X83400Y3900D02*
D03*
X77400Y3700D02*
D03*
X77600Y10700D02*
D03*
X83000Y10800D02*
D03*
X82700Y17900D02*
D03*
X78000Y18000D02*
D03*
X48200Y4400D02*
D03*
X43500D02*
D03*
Y10400D02*
D03*
X48000Y10500D02*
D03*
X47700Y17400D02*
D03*
X43000Y17500D02*
D03*
X145800Y376700D02*
D03*
X141100Y376400D02*
D03*
Y383700D02*
D03*
X145600Y384000D02*
D03*
X145800Y391100D02*
D03*
X141000Y391000D02*
D03*
X110900Y375900D02*
D03*
X106000Y376000D02*
D03*
Y383200D02*
D03*
X111400Y383000D02*
D03*
X111100Y390600D02*
D03*
X106000Y390500D02*
D03*
X83200Y376600D02*
D03*
X77900Y376400D02*
D03*
X78100Y383000D02*
D03*
X82800Y383100D02*
D03*
X83200Y390000D02*
D03*
X78000D02*
D03*
X48500Y376400D02*
D03*
X43100Y376800D02*
D03*
X43000Y382900D02*
D03*
X48300Y383400D02*
D03*
Y391100D02*
D03*
X43000Y391000D02*
D03*
X335000Y377300D02*
D03*
X334800Y383700D02*
D03*
X334900Y390000D02*
D03*
X339000Y390100D02*
D03*
X338800Y383800D02*
D03*
X338600Y377200D02*
D03*
X300400Y377400D02*
D03*
X300200Y383800D02*
D03*
X300300Y390100D02*
D03*
X304400Y390200D02*
D03*
X304200Y383900D02*
D03*
X304000Y377300D02*
D03*
X278600Y376700D02*
D03*
X278400Y383100D02*
D03*
X278500Y389400D02*
D03*
X282600Y389500D02*
D03*
X282400Y383200D02*
D03*
X282200Y376600D02*
D03*
X243600D02*
D03*
X243400Y383000D02*
D03*
X243500Y389300D02*
D03*
X247600Y389400D02*
D03*
X247400Y383100D02*
D03*
X247200Y376500D02*
D03*
X377800Y47600D02*
D03*
X383900D02*
D03*
X389900Y47700D02*
D03*
X390000Y44100D02*
D03*
X384000Y43900D02*
D03*
X377800Y43800D02*
D03*
X376700Y82300D02*
D03*
X382800D02*
D03*
X388800Y82400D02*
D03*
X388900Y78800D02*
D03*
X382900Y78600D02*
D03*
X376700Y78500D02*
D03*
Y110400D02*
D03*
X382800D02*
D03*
X388800Y110500D02*
D03*
X388900Y106900D02*
D03*
X382900Y106700D02*
D03*
X376700Y106600D02*
D03*
X377300Y145100D02*
D03*
X383400D02*
D03*
X389400Y145200D02*
D03*
X389500Y141600D02*
D03*
X383500Y141400D02*
D03*
X377300Y141300D02*
D03*
X377000Y173400D02*
D03*
X383100D02*
D03*
X389100Y173500D02*
D03*
X389200Y169900D02*
D03*
X383200Y169700D02*
D03*
X377000Y169600D02*
D03*
X376900Y208200D02*
D03*
X383000D02*
D03*
X389000Y208300D02*
D03*
X389100Y204700D02*
D03*
X383100Y204500D02*
D03*
X376900Y204400D02*
D03*
X376700Y236600D02*
D03*
X382800D02*
D03*
X388800Y236700D02*
D03*
X388900Y233100D02*
D03*
X382900Y232900D02*
D03*
X376700Y232800D02*
D03*
X377500Y271200D02*
D03*
X383600D02*
D03*
X389600Y271300D02*
D03*
X389700Y267700D02*
D03*
X383700Y267500D02*
D03*
X377500Y267400D02*
D03*
X4800Y271100D02*
D03*
X10900D02*
D03*
X16900Y271200D02*
D03*
X17000Y267600D02*
D03*
X11000Y267400D02*
D03*
X4800Y267300D02*
D03*
Y236000D02*
D03*
X10900D02*
D03*
X16900Y236100D02*
D03*
X17000Y232500D02*
D03*
X11000Y232300D02*
D03*
X4800Y232200D02*
D03*
X4500Y208200D02*
D03*
X10600D02*
D03*
X10700Y204500D02*
D03*
X4500Y204400D02*
D03*
Y173400D02*
D03*
X10600D02*
D03*
X16600Y173500D02*
D03*
X16700Y169900D02*
D03*
X10700Y169700D02*
D03*
X4500Y169600D02*
D03*
X4800Y145400D02*
D03*
X10900D02*
D03*
X16900Y145500D02*
D03*
X17000Y141900D02*
D03*
X11000Y141700D02*
D03*
X4800Y141600D02*
D03*
X4600Y110600D02*
D03*
X10700D02*
D03*
X16700Y110700D02*
D03*
X16800Y107100D02*
D03*
X10800Y106900D02*
D03*
X4600Y106800D02*
D03*
X4400Y82300D02*
D03*
X10500D02*
D03*
X16500Y82400D02*
D03*
X16600Y78800D02*
D03*
X10600Y78600D02*
D03*
X4400Y78500D02*
D03*
X3700Y47400D02*
D03*
X9800D02*
D03*
X15800Y47500D02*
D03*
X15900Y43900D02*
D03*
X9900Y43700D02*
D03*
X3700Y43600D02*
D03*
X376200Y328900D02*
D03*
X382800Y328700D02*
D03*
X389100Y328500D02*
D03*
X389000Y332600D02*
D03*
X382700Y332700D02*
D03*
X376300Y332500D02*
D03*
X376200Y294200D02*
D03*
X382400Y294100D02*
D03*
X387800Y294200D02*
D03*
Y298300D02*
D03*
X382400D02*
D03*
X376200D02*
D03*
X387100Y309900D02*
D03*
X391000Y317300D02*
D03*
X386700Y317200D02*
D03*
X381800Y316800D02*
D03*
X382600Y310400D02*
D03*
X378600Y310300D02*
D03*
X373500D02*
D03*
X368200Y310200D02*
D03*
X377400Y317000D02*
D03*
X371600Y316900D02*
D03*
X366200Y316800D02*
D03*
X360100D02*
D03*
X354200D02*
D03*
X362100Y310200D02*
D03*
X357100D02*
D03*
X350700D02*
D03*
X344800Y310100D02*
D03*
X339200Y310200D02*
D03*
X348500Y316800D02*
D03*
X343800Y316700D02*
D03*
X339200D02*
D03*
M02*
