G04*
G04 #@! TF.GenerationSoftware,Altium Limited,Altium Designer,19.1.7 (138)*
G04*
G04 Layer_Physical_Order=2*
G04 Layer_Color=36540*
%FSLAX25Y25*%
%MOIN*%
G70*
G01*
G75*
%ADD24C,0.01500*%
G36*
X393701Y283465D02*
X156000Y283465D01*
Y393701D01*
X393701Y393701D01*
Y283465D01*
D02*
G37*
G36*
X151500Y279528D02*
X393701Y279528D01*
Y0D01*
X0D01*
Y393701D01*
X151500Y393701D01*
X151500Y279528D01*
D02*
G37*
%LPC*%
G36*
X145800Y392884D02*
X145117Y392748D01*
X144538Y392362D01*
X144151Y391783D01*
X144016Y391100D01*
X144151Y390417D01*
X144538Y389838D01*
X145117Y389452D01*
X145800Y389316D01*
X146483Y389452D01*
X147062Y389838D01*
X147449Y390417D01*
X147584Y391100D01*
X147449Y391783D01*
X147062Y392362D01*
X146483Y392748D01*
X145800Y392884D01*
D02*
G37*
G36*
X48300D02*
X47617Y392748D01*
X47038Y392362D01*
X46652Y391783D01*
X46516Y391100D01*
X46652Y390417D01*
X47038Y389838D01*
X47617Y389452D01*
X48300Y389316D01*
X48983Y389452D01*
X49562Y389838D01*
X49948Y390417D01*
X50084Y391100D01*
X49948Y391783D01*
X49562Y392362D01*
X48983Y392748D01*
X48300Y392884D01*
D02*
G37*
G36*
X141000Y392784D02*
X140317Y392649D01*
X139738Y392262D01*
X139351Y391683D01*
X139216Y391000D01*
X139351Y390317D01*
X139738Y389738D01*
X140317Y389352D01*
X141000Y389216D01*
X141683Y389352D01*
X142262Y389738D01*
X142648Y390317D01*
X142784Y391000D01*
X142648Y391683D01*
X142262Y392262D01*
X141683Y392649D01*
X141000Y392784D01*
D02*
G37*
G36*
X43000D02*
X42317Y392649D01*
X41738Y392262D01*
X41352Y391683D01*
X41216Y391000D01*
X41352Y390317D01*
X41738Y389738D01*
X42317Y389352D01*
X43000Y389216D01*
X43683Y389352D01*
X44262Y389738D01*
X44649Y390317D01*
X44784Y391000D01*
X44649Y391683D01*
X44262Y392262D01*
X43683Y392649D01*
X43000Y392784D01*
D02*
G37*
G36*
X111100Y392384D02*
X110417Y392249D01*
X109838Y391862D01*
X109451Y391283D01*
X109316Y390600D01*
X109451Y389917D01*
X109838Y389338D01*
X110417Y388951D01*
X111100Y388816D01*
X111783Y388951D01*
X112362Y389338D01*
X112749Y389917D01*
X112884Y390600D01*
X112749Y391283D01*
X112362Y391862D01*
X111783Y392249D01*
X111100Y392384D01*
D02*
G37*
G36*
X106000Y392284D02*
X105317Y392148D01*
X104738Y391762D01*
X104351Y391183D01*
X104216Y390500D01*
X104351Y389817D01*
X104738Y389238D01*
X105317Y388851D01*
X106000Y388716D01*
X106683Y388851D01*
X107262Y389238D01*
X107649Y389817D01*
X107784Y390500D01*
X107649Y391183D01*
X107262Y391762D01*
X106683Y392148D01*
X106000Y392284D01*
D02*
G37*
G36*
X83200Y391784D02*
X82517Y391649D01*
X81938Y391262D01*
X81551Y390683D01*
X81416Y390000D01*
X81551Y389317D01*
X81938Y388738D01*
X82517Y388351D01*
X83200Y388216D01*
X83883Y388351D01*
X84462Y388738D01*
X84848Y389317D01*
X84984Y390000D01*
X84848Y390683D01*
X84462Y391262D01*
X83883Y391649D01*
X83200Y391784D01*
D02*
G37*
G36*
X78000D02*
X77317Y391649D01*
X76738Y391262D01*
X76351Y390683D01*
X76216Y390000D01*
X76351Y389317D01*
X76738Y388738D01*
X77317Y388351D01*
X78000Y388216D01*
X78683Y388351D01*
X79262Y388738D01*
X79649Y389317D01*
X79784Y390000D01*
X79649Y390683D01*
X79262Y391262D01*
X78683Y391649D01*
X78000Y391784D01*
D02*
G37*
G36*
X145600Y385784D02*
X144917Y385648D01*
X144338Y385262D01*
X143951Y384683D01*
X143816Y384000D01*
X143951Y383317D01*
X144338Y382738D01*
X144917Y382351D01*
X145600Y382216D01*
X146283Y382351D01*
X146862Y382738D01*
X147248Y383317D01*
X147384Y384000D01*
X147248Y384683D01*
X146862Y385262D01*
X146283Y385648D01*
X145600Y385784D01*
D02*
G37*
G36*
X141100Y385484D02*
X140417Y385349D01*
X139838Y384962D01*
X139452Y384383D01*
X139316Y383700D01*
X139452Y383017D01*
X139838Y382438D01*
X140417Y382051D01*
X141100Y381916D01*
X141783Y382051D01*
X142362Y382438D01*
X142748Y383017D01*
X142884Y383700D01*
X142748Y384383D01*
X142362Y384962D01*
X141783Y385349D01*
X141100Y385484D01*
D02*
G37*
G36*
X48300Y385184D02*
X47617Y385049D01*
X47038Y384662D01*
X46652Y384083D01*
X46516Y383400D01*
X46652Y382717D01*
X47038Y382138D01*
X47617Y381751D01*
X48300Y381616D01*
X48983Y381751D01*
X49562Y382138D01*
X49948Y382717D01*
X50084Y383400D01*
X49948Y384083D01*
X49562Y384662D01*
X48983Y385049D01*
X48300Y385184D01*
D02*
G37*
G36*
X106000Y384984D02*
X105317Y384848D01*
X104738Y384462D01*
X104351Y383883D01*
X104216Y383200D01*
X104351Y382517D01*
X104738Y381938D01*
X105317Y381552D01*
X106000Y381416D01*
X106683Y381552D01*
X107262Y381938D01*
X107649Y382517D01*
X107784Y383200D01*
X107649Y383883D01*
X107262Y384462D01*
X106683Y384848D01*
X106000Y384984D01*
D02*
G37*
G36*
X82800Y384884D02*
X82117Y384749D01*
X81538Y384362D01*
X81151Y383783D01*
X81016Y383100D01*
X81151Y382417D01*
X81538Y381838D01*
X82117Y381452D01*
X82800Y381316D01*
X83483Y381452D01*
X84062Y381838D01*
X84448Y382417D01*
X84584Y383100D01*
X84448Y383783D01*
X84062Y384362D01*
X83483Y384749D01*
X82800Y384884D01*
D02*
G37*
G36*
X111400Y384784D02*
X110717Y384648D01*
X110138Y384262D01*
X109751Y383683D01*
X109616Y383000D01*
X109751Y382317D01*
X110138Y381738D01*
X110717Y381351D01*
X111400Y381216D01*
X112083Y381351D01*
X112662Y381738D01*
X113049Y382317D01*
X113184Y383000D01*
X113049Y383683D01*
X112662Y384262D01*
X112083Y384648D01*
X111400Y384784D01*
D02*
G37*
G36*
X78100D02*
X77417Y384648D01*
X76838Y384262D01*
X76451Y383683D01*
X76316Y383000D01*
X76451Y382317D01*
X76838Y381738D01*
X77417Y381351D01*
X78100Y381216D01*
X78783Y381351D01*
X79362Y381738D01*
X79748Y382317D01*
X79884Y383000D01*
X79748Y383683D01*
X79362Y384262D01*
X78783Y384648D01*
X78100Y384784D01*
D02*
G37*
G36*
X43000Y384684D02*
X42317Y384548D01*
X41738Y384162D01*
X41352Y383583D01*
X41216Y382900D01*
X41352Y382217D01*
X41738Y381638D01*
X42317Y381252D01*
X43000Y381116D01*
X43683Y381252D01*
X44262Y381638D01*
X44649Y382217D01*
X44784Y382900D01*
X44649Y383583D01*
X44262Y384162D01*
X43683Y384548D01*
X43000Y384684D01*
D02*
G37*
G36*
X43100Y378584D02*
X42417Y378449D01*
X41838Y378062D01*
X41451Y377483D01*
X41316Y376800D01*
X41451Y376117D01*
X41838Y375538D01*
X42417Y375151D01*
X43100Y375016D01*
X43783Y375151D01*
X44362Y375538D01*
X44748Y376117D01*
X44884Y376800D01*
X44748Y377483D01*
X44362Y378062D01*
X43783Y378449D01*
X43100Y378584D01*
D02*
G37*
G36*
X145800Y378484D02*
X145117Y378348D01*
X144538Y377962D01*
X144151Y377383D01*
X144016Y376700D01*
X144151Y376017D01*
X144538Y375438D01*
X145117Y375051D01*
X145800Y374916D01*
X146483Y375051D01*
X147062Y375438D01*
X147449Y376017D01*
X147584Y376700D01*
X147449Y377383D01*
X147062Y377962D01*
X146483Y378348D01*
X145800Y378484D01*
D02*
G37*
G36*
X83200Y378384D02*
X82517Y378249D01*
X81938Y377862D01*
X81551Y377283D01*
X81416Y376600D01*
X81551Y375917D01*
X81938Y375338D01*
X82517Y374952D01*
X83200Y374816D01*
X83883Y374952D01*
X84462Y375338D01*
X84848Y375917D01*
X84984Y376600D01*
X84848Y377283D01*
X84462Y377862D01*
X83883Y378249D01*
X83200Y378384D01*
D02*
G37*
G36*
X141100Y378184D02*
X140417Y378048D01*
X139838Y377662D01*
X139452Y377083D01*
X139316Y376400D01*
X139452Y375717D01*
X139838Y375138D01*
X140417Y374751D01*
X141100Y374616D01*
X141783Y374751D01*
X142362Y375138D01*
X142748Y375717D01*
X142884Y376400D01*
X142748Y377083D01*
X142362Y377662D01*
X141783Y378048D01*
X141100Y378184D01*
D02*
G37*
G36*
X77900D02*
X77217Y378048D01*
X76638Y377662D01*
X76252Y377083D01*
X76116Y376400D01*
X76252Y375717D01*
X76638Y375138D01*
X77217Y374751D01*
X77900Y374616D01*
X78583Y374751D01*
X79162Y375138D01*
X79549Y375717D01*
X79684Y376400D01*
X79549Y377083D01*
X79162Y377662D01*
X78583Y378048D01*
X77900Y378184D01*
D02*
G37*
G36*
X48500D02*
X47817Y378048D01*
X47238Y377662D01*
X46852Y377083D01*
X46716Y376400D01*
X46852Y375717D01*
X47238Y375138D01*
X47817Y374751D01*
X48500Y374616D01*
X49183Y374751D01*
X49762Y375138D01*
X50148Y375717D01*
X50284Y376400D01*
X50148Y377083D01*
X49762Y377662D01*
X49183Y378048D01*
X48500Y378184D01*
D02*
G37*
G36*
X106000Y377784D02*
X105317Y377648D01*
X104738Y377262D01*
X104351Y376683D01*
X104216Y376000D01*
X104351Y375317D01*
X104738Y374738D01*
X105317Y374352D01*
X106000Y374216D01*
X106683Y374352D01*
X107262Y374738D01*
X107649Y375317D01*
X107784Y376000D01*
X107649Y376683D01*
X107262Y377262D01*
X106683Y377648D01*
X106000Y377784D01*
D02*
G37*
G36*
X110900Y377684D02*
X110217Y377549D01*
X109638Y377162D01*
X109251Y376583D01*
X109116Y375900D01*
X109251Y375217D01*
X109638Y374638D01*
X110217Y374252D01*
X110900Y374116D01*
X111583Y374252D01*
X112162Y374638D01*
X112548Y375217D01*
X112684Y375900D01*
X112548Y376583D01*
X112162Y377162D01*
X111583Y377549D01*
X110900Y377684D01*
D02*
G37*
G36*
X106000Y20284D02*
X105317Y20148D01*
X104738Y19762D01*
X104351Y19183D01*
X104216Y18500D01*
X104351Y17817D01*
X104738Y17238D01*
X105317Y16851D01*
X106000Y16716D01*
X106683Y16851D01*
X107262Y17238D01*
X107649Y17817D01*
X107784Y18500D01*
X107649Y19183D01*
X107262Y19762D01*
X106683Y20148D01*
X106000Y20284D01*
D02*
G37*
G36*
X111200Y20084D02*
X110517Y19949D01*
X109938Y19562D01*
X109552Y18983D01*
X109416Y18300D01*
X109552Y17617D01*
X109938Y17038D01*
X110517Y16651D01*
X111200Y16516D01*
X111883Y16651D01*
X112462Y17038D01*
X112848Y17617D01*
X112984Y18300D01*
X112848Y18983D01*
X112462Y19562D01*
X111883Y19949D01*
X111200Y20084D01*
D02*
G37*
G36*
X146400Y19884D02*
X145717Y19748D01*
X145138Y19362D01*
X144752Y18783D01*
X144616Y18100D01*
X144752Y17417D01*
X145138Y16838D01*
X145717Y16452D01*
X146400Y16316D01*
X147083Y16452D01*
X147662Y16838D01*
X148048Y17417D01*
X148184Y18100D01*
X148048Y18783D01*
X147662Y19362D01*
X147083Y19748D01*
X146400Y19884D01*
D02*
G37*
G36*
X141000Y19784D02*
X140317Y19648D01*
X139738Y19262D01*
X139351Y18683D01*
X139216Y18000D01*
X139351Y17317D01*
X139738Y16738D01*
X140317Y16352D01*
X141000Y16216D01*
X141683Y16352D01*
X142262Y16738D01*
X142648Y17317D01*
X142784Y18000D01*
X142648Y18683D01*
X142262Y19262D01*
X141683Y19648D01*
X141000Y19784D01*
D02*
G37*
G36*
X78000D02*
X77317Y19648D01*
X76738Y19262D01*
X76351Y18683D01*
X76216Y18000D01*
X76351Y17317D01*
X76738Y16738D01*
X77317Y16352D01*
X78000Y16216D01*
X78683Y16352D01*
X79262Y16738D01*
X79649Y17317D01*
X79784Y18000D01*
X79649Y18683D01*
X79262Y19262D01*
X78683Y19648D01*
X78000Y19784D01*
D02*
G37*
G36*
X82700Y19684D02*
X82017Y19548D01*
X81438Y19162D01*
X81051Y18583D01*
X80916Y17900D01*
X81051Y17217D01*
X81438Y16638D01*
X82017Y16251D01*
X82700Y16116D01*
X83383Y16251D01*
X83962Y16638D01*
X84348Y17217D01*
X84484Y17900D01*
X84348Y18583D01*
X83962Y19162D01*
X83383Y19548D01*
X82700Y19684D01*
D02*
G37*
G36*
X43000Y19284D02*
X42317Y19149D01*
X41738Y18762D01*
X41352Y18183D01*
X41216Y17500D01*
X41352Y16817D01*
X41738Y16238D01*
X42317Y15852D01*
X43000Y15716D01*
X43683Y15852D01*
X44262Y16238D01*
X44649Y16817D01*
X44784Y17500D01*
X44649Y18183D01*
X44262Y18762D01*
X43683Y19149D01*
X43000Y19284D01*
D02*
G37*
G36*
X47700Y19184D02*
X47017Y19049D01*
X46438Y18662D01*
X46051Y18083D01*
X45916Y17400D01*
X46051Y16717D01*
X46438Y16138D01*
X47017Y15752D01*
X47700Y15616D01*
X48383Y15752D01*
X48962Y16138D01*
X49349Y16717D01*
X49484Y17400D01*
X49349Y18083D01*
X48962Y18662D01*
X48383Y19049D01*
X47700Y19184D01*
D02*
G37*
G36*
X111100Y12884D02*
X110417Y12749D01*
X109838Y12362D01*
X109451Y11783D01*
X109316Y11100D01*
X109451Y10417D01*
X109838Y9838D01*
X110417Y9452D01*
X111100Y9316D01*
X111783Y9452D01*
X112362Y9838D01*
X112749Y10417D01*
X112884Y11100D01*
X112749Y11783D01*
X112362Y12362D01*
X111783Y12749D01*
X111100Y12884D01*
D02*
G37*
G36*
X146500Y12684D02*
X145817Y12549D01*
X145238Y12162D01*
X144852Y11583D01*
X144716Y10900D01*
X144852Y10217D01*
X145238Y9638D01*
X145817Y9251D01*
X146500Y9116D01*
X147183Y9251D01*
X147762Y9638D01*
X148149Y10217D01*
X148284Y10900D01*
X148149Y11583D01*
X147762Y12162D01*
X147183Y12549D01*
X146500Y12684D01*
D02*
G37*
G36*
X141600D02*
X140917Y12549D01*
X140338Y12162D01*
X139952Y11583D01*
X139816Y10900D01*
X139952Y10217D01*
X140338Y9638D01*
X140917Y9251D01*
X141600Y9116D01*
X142283Y9251D01*
X142862Y9638D01*
X143248Y10217D01*
X143384Y10900D01*
X143248Y11583D01*
X142862Y12162D01*
X142283Y12549D01*
X141600Y12684D01*
D02*
G37*
G36*
X106500Y12584D02*
X105817Y12449D01*
X105238Y12062D01*
X104851Y11483D01*
X104716Y10800D01*
X104851Y10117D01*
X105238Y9538D01*
X105817Y9151D01*
X106500Y9016D01*
X107183Y9151D01*
X107762Y9538D01*
X108149Y10117D01*
X108284Y10800D01*
X108149Y11483D01*
X107762Y12062D01*
X107183Y12449D01*
X106500Y12584D01*
D02*
G37*
G36*
X83000D02*
X82317Y12449D01*
X81738Y12062D01*
X81352Y11483D01*
X81216Y10800D01*
X81352Y10117D01*
X81738Y9538D01*
X82317Y9151D01*
X83000Y9016D01*
X83683Y9151D01*
X84262Y9538D01*
X84649Y10117D01*
X84784Y10800D01*
X84649Y11483D01*
X84262Y12062D01*
X83683Y12449D01*
X83000Y12584D01*
D02*
G37*
G36*
X77600Y12484D02*
X76917Y12348D01*
X76338Y11962D01*
X75951Y11383D01*
X75816Y10700D01*
X75951Y10017D01*
X76338Y9438D01*
X76917Y9052D01*
X77600Y8916D01*
X78283Y9052D01*
X78862Y9438D01*
X79248Y10017D01*
X79384Y10700D01*
X79248Y11383D01*
X78862Y11962D01*
X78283Y12348D01*
X77600Y12484D01*
D02*
G37*
G36*
X48000Y12284D02*
X47317Y12149D01*
X46738Y11762D01*
X46352Y11183D01*
X46216Y10500D01*
X46352Y9817D01*
X46738Y9238D01*
X47317Y8851D01*
X48000Y8716D01*
X48683Y8851D01*
X49262Y9238D01*
X49648Y9817D01*
X49784Y10500D01*
X49648Y11183D01*
X49262Y11762D01*
X48683Y12149D01*
X48000Y12284D01*
D02*
G37*
G36*
X43500Y12184D02*
X42817Y12049D01*
X42238Y11662D01*
X41851Y11083D01*
X41716Y10400D01*
X41851Y9717D01*
X42238Y9138D01*
X42817Y8751D01*
X43500Y8616D01*
X44183Y8751D01*
X44762Y9138D01*
X45149Y9717D01*
X45284Y10400D01*
X45149Y11083D01*
X44762Y11662D01*
X44183Y12049D01*
X43500Y12184D01*
D02*
G37*
G36*
X144800Y5884D02*
X144117Y5748D01*
X143538Y5362D01*
X143200Y4856D01*
X142673Y4745D01*
X142662Y4762D01*
X142083Y5148D01*
X141400Y5284D01*
X140717Y5148D01*
X140138Y4762D01*
X139752Y4183D01*
X139616Y3500D01*
X139752Y2817D01*
X140138Y2238D01*
X140717Y1852D01*
X141400Y1716D01*
X142083Y1852D01*
X142662Y2238D01*
X143000Y2744D01*
X143527Y2855D01*
X143538Y2838D01*
X144117Y2451D01*
X144800Y2316D01*
X145483Y2451D01*
X146062Y2838D01*
X146449Y3417D01*
X146584Y4100D01*
X146449Y4783D01*
X146062Y5362D01*
X145483Y5748D01*
X144800Y5884D01*
D02*
G37*
G36*
X48200Y6184D02*
X47517Y6049D01*
X46938Y5662D01*
X46551Y5083D01*
X46416Y4400D01*
X46551Y3717D01*
X46938Y3138D01*
X47517Y2751D01*
X48200Y2616D01*
X48883Y2751D01*
X49462Y3138D01*
X49848Y3717D01*
X49984Y4400D01*
X49848Y5083D01*
X49462Y5662D01*
X48883Y6049D01*
X48200Y6184D01*
D02*
G37*
G36*
X43500D02*
X42817Y6049D01*
X42238Y5662D01*
X41851Y5083D01*
X41716Y4400D01*
X41851Y3717D01*
X42238Y3138D01*
X42817Y2751D01*
X43500Y2616D01*
X44183Y2751D01*
X44762Y3138D01*
X45149Y3717D01*
X45284Y4400D01*
X45149Y5083D01*
X44762Y5662D01*
X44183Y6049D01*
X43500Y6184D01*
D02*
G37*
G36*
X83400Y5684D02*
X82717Y5548D01*
X82138Y5162D01*
X81752Y4583D01*
X81616Y3900D01*
X81752Y3217D01*
X82138Y2638D01*
X82717Y2252D01*
X83400Y2116D01*
X84083Y2252D01*
X84662Y2638D01*
X85049Y3217D01*
X85184Y3900D01*
X85049Y4583D01*
X84662Y5162D01*
X84083Y5548D01*
X83400Y5684D01*
D02*
G37*
G36*
X110800Y5584D02*
X110117Y5449D01*
X109538Y5062D01*
X109151Y4483D01*
X109016Y3800D01*
X109151Y3117D01*
X109538Y2538D01*
X110117Y2152D01*
X110800Y2016D01*
X111483Y2152D01*
X112062Y2538D01*
X112449Y3117D01*
X112584Y3800D01*
X112449Y4483D01*
X112062Y5062D01*
X111483Y5449D01*
X110800Y5584D01*
D02*
G37*
G36*
X77400Y5484D02*
X76717Y5348D01*
X76138Y4962D01*
X75752Y4383D01*
X75616Y3700D01*
X75752Y3017D01*
X76138Y2438D01*
X76717Y2052D01*
X77400Y1916D01*
X78083Y2052D01*
X78662Y2438D01*
X79049Y3017D01*
X79184Y3700D01*
X79049Y4383D01*
X78662Y4962D01*
X78083Y5348D01*
X77400Y5484D01*
D02*
G37*
G36*
X106700Y5084D02*
X106017Y4949D01*
X105438Y4562D01*
X105052Y3983D01*
X104916Y3300D01*
X105052Y2617D01*
X105438Y2038D01*
X106017Y1651D01*
X106700Y1516D01*
X107383Y1651D01*
X107962Y2038D01*
X108349Y2617D01*
X108484Y3300D01*
X108349Y3983D01*
X107962Y4562D01*
X107383Y4949D01*
X106700Y5084D01*
D02*
G37*
%LPD*%
D24*
X389584Y256246D02*
D03*
X385584Y256244D02*
D03*
X381596Y255942D02*
D03*
X377596D02*
D03*
X373596D02*
D03*
X369596D02*
D03*
X365596D02*
D03*
X361596D02*
D03*
X357596D02*
D03*
X353596D02*
D03*
X349596D02*
D03*
X345596D02*
D03*
X341596D02*
D03*
X337596D02*
D03*
X333596D02*
D03*
X329596D02*
D03*
X325596D02*
D03*
X321596D02*
D03*
X317596D02*
D03*
X313596D02*
D03*
X309596D02*
D03*
X305596D02*
D03*
X301596D02*
D03*
X297596D02*
D03*
X293596D02*
D03*
X289596D02*
D03*
X285596D02*
D03*
X281596D02*
D03*
X277596D02*
D03*
X273596D02*
D03*
X269596D02*
D03*
X265596D02*
D03*
X261596D02*
D03*
X257596D02*
D03*
X253596D02*
D03*
X249596D02*
D03*
X245596D02*
D03*
X241596D02*
D03*
X237596D02*
D03*
X233596D02*
D03*
X229596D02*
D03*
X225596D02*
D03*
X221596D02*
D03*
X217596D02*
D03*
X213596D02*
D03*
X209596D02*
D03*
X205596D02*
D03*
X201596D02*
D03*
X197596D02*
D03*
X193596D02*
D03*
X189596D02*
D03*
X185596D02*
D03*
X181596D02*
D03*
X177596D02*
D03*
X173596D02*
D03*
X169596D02*
D03*
X165596D02*
D03*
X161596D02*
D03*
X157596D02*
D03*
X153596D02*
D03*
X149596D02*
D03*
X145596D02*
D03*
X141596D02*
D03*
X137596D02*
D03*
X113596D02*
D03*
X109596D02*
D03*
X105596D02*
D03*
X101596D02*
D03*
X97596D02*
D03*
X93596D02*
D03*
X89596D02*
D03*
X85596D02*
D03*
X81596D02*
D03*
X77596D02*
D03*
X73596D02*
D03*
X53596D02*
D03*
X49596D02*
D03*
X45596D02*
D03*
X41596D02*
D03*
X37596D02*
D03*
X33596D02*
D03*
X29596D02*
D03*
X25596D02*
D03*
X21596D02*
D03*
X17596D02*
D03*
X13596D02*
D03*
X9596D02*
D03*
X5607Y256246D02*
D03*
X1607D02*
D03*
X3948Y247691D02*
D03*
X7948D02*
D03*
X11936Y247995D02*
D03*
X15936D02*
D03*
X19936D02*
D03*
X23936D02*
D03*
X27936D02*
D03*
X31936D02*
D03*
X35936D02*
D03*
X39936D02*
D03*
X43936D02*
D03*
X47936D02*
D03*
X51936D02*
D03*
X75936D02*
D03*
X79936D02*
D03*
X83936D02*
D03*
X87936D02*
D03*
X91936D02*
D03*
X95936D02*
D03*
X99936D02*
D03*
X103936D02*
D03*
X107936D02*
D03*
X111936D02*
D03*
X115936D02*
D03*
X135936D02*
D03*
X139936D02*
D03*
X143936D02*
D03*
X147936D02*
D03*
X151936D02*
D03*
X155936D02*
D03*
X159936D02*
D03*
X163936D02*
D03*
X167936D02*
D03*
X171936D02*
D03*
X175936D02*
D03*
X179936D02*
D03*
X183936D02*
D03*
X187936D02*
D03*
X191936D02*
D03*
X195936D02*
D03*
X199936D02*
D03*
X203936D02*
D03*
X207936D02*
D03*
X211936D02*
D03*
X215936D02*
D03*
X219936D02*
D03*
X223936D02*
D03*
X227936D02*
D03*
X231936D02*
D03*
X235936D02*
D03*
X239936D02*
D03*
X243936D02*
D03*
X247936D02*
D03*
X251936D02*
D03*
X255936D02*
D03*
X259936D02*
D03*
X263936D02*
D03*
X267936D02*
D03*
X271936D02*
D03*
X275936D02*
D03*
X279936D02*
D03*
X283936D02*
D03*
X287936D02*
D03*
X291936D02*
D03*
X295936D02*
D03*
X299936D02*
D03*
X303936D02*
D03*
X307936D02*
D03*
X311936D02*
D03*
X315936D02*
D03*
X319936D02*
D03*
X323936D02*
D03*
X327936D02*
D03*
X331936D02*
D03*
X335936D02*
D03*
X339936D02*
D03*
X343936D02*
D03*
X347936D02*
D03*
X351936D02*
D03*
X355936D02*
D03*
X359936D02*
D03*
X363936D02*
D03*
X367936D02*
D03*
X371936D02*
D03*
X375936D02*
D03*
X379936D02*
D03*
X383936D02*
D03*
X387925Y247691D02*
D03*
X116500Y66000D02*
D03*
X84722Y65907D02*
D03*
X80722D02*
D03*
X84436Y60077D02*
D03*
X80436D02*
D03*
X76722Y65907D02*
D03*
X76436Y60077D02*
D03*
X72722Y65907D02*
D03*
X72436Y60077D02*
D03*
X84732Y128946D02*
D03*
X80732D02*
D03*
X84433Y123023D02*
D03*
X80433D02*
D03*
X76732Y128946D02*
D03*
X72732D02*
D03*
X76433Y123023D02*
D03*
X72433D02*
D03*
X84732Y191938D02*
D03*
X84433Y186015D02*
D03*
X80732Y191938D02*
D03*
X80433Y186015D02*
D03*
X76732Y191938D02*
D03*
X76433Y186015D02*
D03*
X72732Y191938D02*
D03*
X72433Y186015D02*
D03*
X100722Y65907D02*
D03*
X96722D02*
D03*
X100436Y60077D02*
D03*
X96436D02*
D03*
X92722Y65907D02*
D03*
X88722D02*
D03*
X92436Y60077D02*
D03*
X88436D02*
D03*
X52732Y191938D02*
D03*
X32433Y186015D02*
D03*
X28732Y191938D02*
D03*
X28433Y186015D02*
D03*
X24732Y191938D02*
D03*
X24433Y186015D02*
D03*
X20732Y191938D02*
D03*
X20433Y186015D02*
D03*
X16700Y204700D02*
D03*
X16600Y208300D02*
D03*
X16732Y191938D02*
D03*
X16433Y186015D02*
D03*
X36732Y191938D02*
D03*
X36433Y186015D02*
D03*
X32732Y191938D02*
D03*
X52436Y60077D02*
D03*
X52722Y65907D02*
D03*
X44436Y60077D02*
D03*
X44722Y65907D02*
D03*
X48436Y60077D02*
D03*
X48722Y65907D02*
D03*
X40436Y60077D02*
D03*
X40722Y65907D02*
D03*
X52433Y186015D02*
D03*
X44732Y191938D02*
D03*
X48732D02*
D03*
X44433Y186015D02*
D03*
X48433D02*
D03*
X40732Y191938D02*
D03*
X40433Y186015D02*
D03*
X136433D02*
D03*
X136732Y191938D02*
D03*
X140433Y186015D02*
D03*
X144433D02*
D03*
X140732Y191938D02*
D03*
X144732D02*
D03*
X148433Y186015D02*
D03*
X148732Y191938D02*
D03*
X116433Y123023D02*
D03*
X112433D02*
D03*
X112732Y128946D02*
D03*
X108433Y123023D02*
D03*
X104433D02*
D03*
X108732Y128946D02*
D03*
X104732D02*
D03*
X116436Y60077D02*
D03*
X112436D02*
D03*
X112722Y65907D02*
D03*
X108436Y60077D02*
D03*
X104436D02*
D03*
X108722Y65907D02*
D03*
X104722D02*
D03*
X36722D02*
D03*
X36436Y60077D02*
D03*
X28722Y65907D02*
D03*
X32722D02*
D03*
X28436Y60077D02*
D03*
X32436D02*
D03*
X24436D02*
D03*
X24722Y65907D02*
D03*
X36732Y128946D02*
D03*
X32732D02*
D03*
X36433Y123023D02*
D03*
X32433D02*
D03*
X28732Y128946D02*
D03*
X24732D02*
D03*
X28433Y123023D02*
D03*
X24433D02*
D03*
X20722Y65907D02*
D03*
X20436Y60077D02*
D03*
X388725Y192271D02*
D03*
X384729Y192097D02*
D03*
X380732Y191938D02*
D03*
X376732D02*
D03*
X372732D02*
D03*
X368732D02*
D03*
X364732D02*
D03*
X360732D02*
D03*
X356732D02*
D03*
X352732D02*
D03*
X348732D02*
D03*
X344732D02*
D03*
X340732D02*
D03*
X336732D02*
D03*
X332732D02*
D03*
X328732D02*
D03*
X324732D02*
D03*
X320732D02*
D03*
X316732D02*
D03*
X312732D02*
D03*
X308732D02*
D03*
X304732D02*
D03*
X300732D02*
D03*
X296732D02*
D03*
X292732D02*
D03*
X288732D02*
D03*
X284732D02*
D03*
X280732D02*
D03*
X276732D02*
D03*
X272732D02*
D03*
X268732D02*
D03*
X264732D02*
D03*
X260732D02*
D03*
X256732D02*
D03*
X252732D02*
D03*
X248732D02*
D03*
X244732D02*
D03*
X240732D02*
D03*
X236732D02*
D03*
X232732D02*
D03*
X228732D02*
D03*
X224732D02*
D03*
X220732D02*
D03*
X216732D02*
D03*
X212732D02*
D03*
X208732D02*
D03*
X204732D02*
D03*
X200732D02*
D03*
X196732D02*
D03*
X192732D02*
D03*
X188732D02*
D03*
X184732D02*
D03*
X180732D02*
D03*
X176732D02*
D03*
X172732D02*
D03*
X168732D02*
D03*
X164732D02*
D03*
X160732D02*
D03*
X156732D02*
D03*
X152732D02*
D03*
X112732D02*
D03*
X108732D02*
D03*
X104732D02*
D03*
X100732D02*
D03*
X96732D02*
D03*
X92732D02*
D03*
X88732D02*
D03*
X12732D02*
D03*
X8737Y192144D02*
D03*
X4739Y192271D02*
D03*
X4442Y185682D02*
D03*
X8441Y185750D02*
D03*
X12433Y186015D02*
D03*
X88433D02*
D03*
X92433D02*
D03*
X96433D02*
D03*
X100433D02*
D03*
X104433D02*
D03*
X108433D02*
D03*
X112433D02*
D03*
X116433D02*
D03*
X152433D02*
D03*
X156433D02*
D03*
X160433D02*
D03*
X164433D02*
D03*
X168433D02*
D03*
X172433D02*
D03*
X176433D02*
D03*
X180433D02*
D03*
X184433D02*
D03*
X188433D02*
D03*
X192433D02*
D03*
X196433D02*
D03*
X200433D02*
D03*
X204433D02*
D03*
X208433D02*
D03*
X212433D02*
D03*
X216433D02*
D03*
X220433D02*
D03*
X224433D02*
D03*
X228433D02*
D03*
X232433D02*
D03*
X236433D02*
D03*
X240433D02*
D03*
X244433D02*
D03*
X248433D02*
D03*
X252433D02*
D03*
X256433D02*
D03*
X260433D02*
D03*
X264433D02*
D03*
X268433D02*
D03*
X272433D02*
D03*
X276433D02*
D03*
X280433D02*
D03*
X284433D02*
D03*
X288433D02*
D03*
X292433D02*
D03*
X296433D02*
D03*
X300433D02*
D03*
X304433D02*
D03*
X308433D02*
D03*
X312433D02*
D03*
X316433D02*
D03*
X320433D02*
D03*
X324433D02*
D03*
X328433D02*
D03*
X332433D02*
D03*
X336433D02*
D03*
X340433D02*
D03*
X344433D02*
D03*
X348433D02*
D03*
X352433D02*
D03*
X356433D02*
D03*
X360433D02*
D03*
X364433D02*
D03*
X368433D02*
D03*
X372433D02*
D03*
X376433D02*
D03*
X380433D02*
D03*
X384433D02*
D03*
X388419Y185682D02*
D03*
X388725Y129278D02*
D03*
X384729Y129105D02*
D03*
X380732Y128946D02*
D03*
X376732D02*
D03*
X372732D02*
D03*
X368732D02*
D03*
X364732D02*
D03*
X360732D02*
D03*
X356732D02*
D03*
X352732D02*
D03*
X348732D02*
D03*
X344732D02*
D03*
X340732D02*
D03*
X336732D02*
D03*
X332732D02*
D03*
X328732D02*
D03*
X324732D02*
D03*
X320732D02*
D03*
X316732D02*
D03*
X312732D02*
D03*
X308732D02*
D03*
X304732D02*
D03*
X300732D02*
D03*
X296732D02*
D03*
X292732D02*
D03*
X288732D02*
D03*
X284732D02*
D03*
X280732D02*
D03*
X276732D02*
D03*
X272732D02*
D03*
X268732D02*
D03*
X264732D02*
D03*
X260732D02*
D03*
X256732D02*
D03*
X252732D02*
D03*
X248732D02*
D03*
X244732D02*
D03*
X240732D02*
D03*
X236732D02*
D03*
X232732D02*
D03*
X228732D02*
D03*
X224732D02*
D03*
X220732D02*
D03*
X216732D02*
D03*
X212732D02*
D03*
X208732D02*
D03*
X204732D02*
D03*
X200732D02*
D03*
X196732D02*
D03*
X192732D02*
D03*
X188732D02*
D03*
X184732D02*
D03*
X180732D02*
D03*
X176732D02*
D03*
X172732D02*
D03*
X168732D02*
D03*
X164732D02*
D03*
X160732D02*
D03*
X156732D02*
D03*
X152732D02*
D03*
X148732D02*
D03*
X144732D02*
D03*
X140732D02*
D03*
X136732D02*
D03*
X100732D02*
D03*
X96732D02*
D03*
X92732D02*
D03*
X88732D02*
D03*
X52732D02*
D03*
X48732D02*
D03*
X44732D02*
D03*
X40732D02*
D03*
X20732D02*
D03*
X16732D02*
D03*
X12732D02*
D03*
X8737Y129152D02*
D03*
X4739Y129278D02*
D03*
X4442Y122690D02*
D03*
X8441Y122758D02*
D03*
X12433Y123023D02*
D03*
X16433D02*
D03*
X20433D02*
D03*
X40433D02*
D03*
X44433D02*
D03*
X48433D02*
D03*
X52433D02*
D03*
X88433D02*
D03*
X92433D02*
D03*
X96433D02*
D03*
X100433D02*
D03*
X136433D02*
D03*
X140433D02*
D03*
X144433D02*
D03*
X148433D02*
D03*
X152433D02*
D03*
X156433D02*
D03*
X160433D02*
D03*
X164433D02*
D03*
X168433D02*
D03*
X172433D02*
D03*
X176433D02*
D03*
X180433D02*
D03*
X184433D02*
D03*
X188433D02*
D03*
X192433D02*
D03*
X196433D02*
D03*
X200433D02*
D03*
X204433D02*
D03*
X208433D02*
D03*
X212433D02*
D03*
X216433D02*
D03*
X220433D02*
D03*
X224433D02*
D03*
X228433D02*
D03*
X232433D02*
D03*
X236433D02*
D03*
X240433D02*
D03*
X244433D02*
D03*
X248433D02*
D03*
X252433D02*
D03*
X256433D02*
D03*
X260433D02*
D03*
X264433D02*
D03*
X268433D02*
D03*
X272433D02*
D03*
X276433D02*
D03*
X280433D02*
D03*
X284433D02*
D03*
X288433D02*
D03*
X292433D02*
D03*
X296433D02*
D03*
X300433D02*
D03*
X304433D02*
D03*
X308433D02*
D03*
X312433D02*
D03*
X316433D02*
D03*
X320433D02*
D03*
X324433D02*
D03*
X328433D02*
D03*
X332433D02*
D03*
X336433D02*
D03*
X340433D02*
D03*
X344433D02*
D03*
X348433D02*
D03*
X352433D02*
D03*
X356433D02*
D03*
X360433D02*
D03*
X364433D02*
D03*
X368433D02*
D03*
X372433D02*
D03*
X376433D02*
D03*
X380433D02*
D03*
X384433D02*
D03*
X388419Y122690D02*
D03*
X388713Y66286D02*
D03*
X384717Y66108D02*
D03*
X380722Y65907D02*
D03*
X376722D02*
D03*
X372722D02*
D03*
X368722D02*
D03*
X364722D02*
D03*
X360722D02*
D03*
X356722D02*
D03*
X352722D02*
D03*
X348722D02*
D03*
X344722D02*
D03*
X340722D02*
D03*
X336722D02*
D03*
X332722D02*
D03*
X328722D02*
D03*
X324722D02*
D03*
X320722D02*
D03*
X316722D02*
D03*
X312722D02*
D03*
X308722D02*
D03*
X304722D02*
D03*
X300722D02*
D03*
X296722D02*
D03*
X292722D02*
D03*
X288722D02*
D03*
X284722D02*
D03*
X280722D02*
D03*
X276722D02*
D03*
X272722D02*
D03*
X268722D02*
D03*
X264722D02*
D03*
X260722D02*
D03*
X256722D02*
D03*
X252722D02*
D03*
X248722D02*
D03*
X244722D02*
D03*
X240722D02*
D03*
X236722D02*
D03*
X232722D02*
D03*
X228722D02*
D03*
X224722D02*
D03*
X220722D02*
D03*
X216722D02*
D03*
X212722D02*
D03*
X208722D02*
D03*
X204722D02*
D03*
X200722D02*
D03*
X196722D02*
D03*
X192722D02*
D03*
X188722D02*
D03*
X184722D02*
D03*
X180722D02*
D03*
X176722D02*
D03*
X172722D02*
D03*
X168722D02*
D03*
X164722D02*
D03*
X160722D02*
D03*
X156722D02*
D03*
X152722D02*
D03*
X148722D02*
D03*
X144722D02*
D03*
X140722D02*
D03*
X136722D02*
D03*
X16722D02*
D03*
X12722D02*
D03*
X8730Y66161D02*
D03*
X4732Y66286D02*
D03*
X4448Y59698D02*
D03*
X8448Y59767D02*
D03*
X12436Y60077D02*
D03*
X16436D02*
D03*
X136436D02*
D03*
X140436D02*
D03*
X144436D02*
D03*
X148436D02*
D03*
X152436D02*
D03*
X156436D02*
D03*
X160436D02*
D03*
X164436D02*
D03*
X168436D02*
D03*
X172436D02*
D03*
X176436D02*
D03*
X180436D02*
D03*
X184436D02*
D03*
X188436D02*
D03*
X192436D02*
D03*
X196436D02*
D03*
X200436D02*
D03*
X204436D02*
D03*
X208436D02*
D03*
X212436D02*
D03*
X216436D02*
D03*
X220436D02*
D03*
X224436D02*
D03*
X228436D02*
D03*
X232436D02*
D03*
X236436D02*
D03*
X240436D02*
D03*
X244436D02*
D03*
X248436D02*
D03*
X252436D02*
D03*
X256436D02*
D03*
X260436D02*
D03*
X264436D02*
D03*
X268436D02*
D03*
X272436D02*
D03*
X276436D02*
D03*
X280436D02*
D03*
X284436D02*
D03*
X288436D02*
D03*
X292436D02*
D03*
X296436D02*
D03*
X300436D02*
D03*
X304436D02*
D03*
X308436D02*
D03*
X312436D02*
D03*
X316436D02*
D03*
X320436D02*
D03*
X324436D02*
D03*
X328436D02*
D03*
X332436D02*
D03*
X336436D02*
D03*
X340436D02*
D03*
X344436D02*
D03*
X348436D02*
D03*
X352436D02*
D03*
X356436D02*
D03*
X360436D02*
D03*
X364436D02*
D03*
X368436D02*
D03*
X372436D02*
D03*
X376436D02*
D03*
X380436D02*
D03*
X384436Y60065D02*
D03*
X388419Y59698D02*
D03*
X335000Y377300D02*
D03*
X334800Y383700D02*
D03*
X334900Y390000D02*
D03*
X339000Y390100D02*
D03*
X338800Y383800D02*
D03*
X338600Y377200D02*
D03*
X300400Y377400D02*
D03*
X300200Y383800D02*
D03*
X300300Y390100D02*
D03*
X304400Y390200D02*
D03*
X304200Y383900D02*
D03*
X304000Y377300D02*
D03*
X278600Y376700D02*
D03*
X278400Y383100D02*
D03*
X278500Y389400D02*
D03*
X282600Y389500D02*
D03*
X282400Y383200D02*
D03*
X282200Y376600D02*
D03*
X243600D02*
D03*
X243400Y383000D02*
D03*
X243500Y389300D02*
D03*
X247600Y389400D02*
D03*
X247400Y383100D02*
D03*
X247200Y376500D02*
D03*
X377800Y47600D02*
D03*
X383900D02*
D03*
X389900Y47700D02*
D03*
X390000Y44100D02*
D03*
X384000Y43900D02*
D03*
X377800Y43800D02*
D03*
X376700Y82300D02*
D03*
X382800D02*
D03*
X388800Y82400D02*
D03*
X388900Y78800D02*
D03*
X382900Y78600D02*
D03*
X376700Y78500D02*
D03*
Y110400D02*
D03*
X382800D02*
D03*
X388800Y110500D02*
D03*
X388900Y106900D02*
D03*
X382900Y106700D02*
D03*
X376700Y106600D02*
D03*
X377300Y145100D02*
D03*
X383400D02*
D03*
X389400Y145200D02*
D03*
X389500Y141600D02*
D03*
X383500Y141400D02*
D03*
X377300Y141300D02*
D03*
X377000Y173400D02*
D03*
X383100D02*
D03*
X389100Y173500D02*
D03*
X389200Y169900D02*
D03*
X383200Y169700D02*
D03*
X377000Y169600D02*
D03*
X376900Y208200D02*
D03*
X383000D02*
D03*
X389000Y208300D02*
D03*
X389100Y204700D02*
D03*
X383100Y204500D02*
D03*
X376900Y204400D02*
D03*
X376700Y236600D02*
D03*
X382800D02*
D03*
X388800Y236700D02*
D03*
X388900Y233100D02*
D03*
X382900Y232900D02*
D03*
X376700Y232800D02*
D03*
X377500Y271200D02*
D03*
X383600D02*
D03*
X389600Y271300D02*
D03*
X389700Y267700D02*
D03*
X383700Y267500D02*
D03*
X377500Y267400D02*
D03*
X4800Y271100D02*
D03*
X10900D02*
D03*
X16900Y271200D02*
D03*
X17000Y267600D02*
D03*
X11000Y267400D02*
D03*
X4800Y267300D02*
D03*
Y236000D02*
D03*
X10900D02*
D03*
X16900Y236100D02*
D03*
X17000Y232500D02*
D03*
X11000Y232300D02*
D03*
X4800Y232200D02*
D03*
X4500Y208200D02*
D03*
X10600D02*
D03*
X10700Y204500D02*
D03*
X4500Y204400D02*
D03*
Y173400D02*
D03*
X10600D02*
D03*
X16600Y173500D02*
D03*
X16700Y169900D02*
D03*
X10700Y169700D02*
D03*
X4500Y169600D02*
D03*
X4800Y145400D02*
D03*
X10900D02*
D03*
X16900Y145500D02*
D03*
X17000Y141900D02*
D03*
X11000Y141700D02*
D03*
X4800Y141600D02*
D03*
X4600Y110600D02*
D03*
X10700D02*
D03*
X16700Y110700D02*
D03*
X16800Y107100D02*
D03*
X10800Y106900D02*
D03*
X4600Y106800D02*
D03*
X4400Y82300D02*
D03*
X10500D02*
D03*
X16500Y82400D02*
D03*
X16600Y78800D02*
D03*
X10600Y78600D02*
D03*
X4400Y78500D02*
D03*
X3700Y47400D02*
D03*
X9800D02*
D03*
X15800Y47500D02*
D03*
X15900Y43900D02*
D03*
X9900Y43700D02*
D03*
X3700Y43600D02*
D03*
X376200Y328900D02*
D03*
X382800Y328700D02*
D03*
X389100Y328500D02*
D03*
X389000Y332600D02*
D03*
X382700Y332700D02*
D03*
X376300Y332500D02*
D03*
X376200Y294200D02*
D03*
X382400Y294100D02*
D03*
X387800Y294200D02*
D03*
Y298300D02*
D03*
X382400D02*
D03*
X376200D02*
D03*
X387100Y309900D02*
D03*
X391000Y317300D02*
D03*
X386700Y317200D02*
D03*
X381800Y316800D02*
D03*
X382600Y310400D02*
D03*
X378600Y310300D02*
D03*
X373500D02*
D03*
X368200Y310200D02*
D03*
X377400Y317000D02*
D03*
X371600Y316900D02*
D03*
X366200Y316800D02*
D03*
X360100D02*
D03*
X354200D02*
D03*
X362100Y310200D02*
D03*
X357100D02*
D03*
X350700D02*
D03*
X344800Y310100D02*
D03*
X339200Y310200D02*
D03*
X348500Y316800D02*
D03*
X343800Y316700D02*
D03*
X339200D02*
D03*
M02*
