G04*
G04 #@! TF.GenerationSoftware,Altium Limited,Altium Designer,20.0.9 (164)*
G04*
G04 Layer_Color=8388736*
%FSLAX25Y25*%
%MOIN*%
G70*
G01*
G75*
%ADD14C,0.01128*%
%ADD15C,0.01155*%
%ADD16C,0.01372*%
%ADD17C,0.09714*%
%ADD18C,0.00300*%
%ADD19R,0.03162X0.02769*%
%ADD20R,0.01587X0.02355*%
%ADD21R,0.02355X0.01587*%
%ADD22R,0.04737X0.04737*%
%ADD23R,0.20800X0.09800*%
%ADD24R,0.08300X0.02800*%
%ADD25R,0.09800X0.20800*%
%ADD26R,0.02800X0.08300*%
%ADD27R,0.06299X0.09714*%
%ADD28R,0.06000X0.09714*%
%ADD29R,0.06706X0.06706*%
%ADD30C,0.06706*%
%ADD31C,0.01600*%
%ADD32C,0.02200*%
%ADD33C,0.02300*%
G36*
X211890Y217221D02*
X212424Y217253D01*
X212988Y217348D01*
X213583Y217506D01*
X214208Y217727D01*
X214863Y218012D01*
X215548Y218360D01*
X217010Y219246D01*
X217786Y219783D01*
X218592Y220384D01*
Y212687D01*
X217786Y213288D01*
X216264Y214300D01*
X215548Y214711D01*
X214208Y215343D01*
X213583Y215565D01*
X212988Y215723D01*
X212424Y215818D01*
X211890Y215849D01*
Y217221D01*
D02*
G37*
G36*
X314420Y368970D02*
X217271D01*
Y378684D01*
X314420D01*
Y368970D01*
D02*
G37*
G36*
X137313Y445110D02*
X85843D01*
Y470450D01*
X103000D01*
Y473683D01*
X71343D01*
Y483383D01*
X103000D01*
X103000Y486617D01*
X85843D01*
Y511957D01*
X137313D01*
Y445110D01*
D02*
G37*
G36*
X95611Y552515D02*
X44141D01*
Y577855D01*
X61298D01*
Y581088D01*
X1111D01*
Y590789D01*
X61298D01*
X61298Y594022D01*
X44141D01*
Y619362D01*
X95611D01*
Y552515D01*
D02*
G37*
G36*
X218157Y594167D02*
X201000D01*
Y590933D01*
X232657D01*
Y581233D01*
X201000D01*
X201000Y578000D01*
X218157D01*
Y552660D01*
X166687D01*
Y619507D01*
X218157D01*
Y594167D01*
D02*
G37*
D14*
X281246Y517783D02*
G03*
X278500Y510900I7254J-6883D01*
G01*
X268500Y489400D02*
G03*
X278500Y499400I0J10000D01*
G01*
X265700Y489400D02*
G03*
X260072Y483772I0J-5628D01*
G01*
X278500Y499400D02*
Y510900D01*
X265700Y489400D02*
X268500D01*
X260072Y482950D02*
Y483772D01*
X256528Y482950D02*
Y514458D01*
X256428Y459700D02*
Y475454D01*
X260072Y474500D02*
Y475450D01*
X262050Y478346D02*
X310611D01*
D15*
X255102Y78740D02*
G03*
X196850Y20488I0J-58252D01*
G01*
X255102Y78740D02*
X310910D01*
X196850Y4350D02*
Y20488D01*
D16*
X118110Y20458D02*
G03*
X59828Y78740I-58283J0D01*
G01*
X231300Y586016D02*
X310611Y586016D01*
X4334Y478425D02*
X35425D01*
X4350Y374016D02*
X217271D01*
X4350Y295276D02*
X215650D01*
X1300Y216535D02*
X221555Y216535D01*
X118110Y4350D02*
Y20458D01*
X4350Y78740D02*
X59828D01*
D17*
X35500Y478533D02*
X76100D01*
X221555Y216535D02*
X308071Y216535D01*
X217717Y295276D02*
X308071D01*
D18*
X4350Y137795D02*
X310611D01*
D19*
X241568Y484900D02*
D03*
X237632D02*
D03*
X241568Y480800D02*
D03*
X237632D02*
D03*
X241469Y472400D02*
D03*
X237531D02*
D03*
X241469Y476200D02*
D03*
X237531D02*
D03*
D20*
X260072Y482950D02*
D03*
X258300D02*
D03*
X256528D02*
D03*
Y475450D02*
D03*
X258300D02*
D03*
X260072D02*
D03*
D21*
X254550Y481857D02*
D03*
Y480086D02*
D03*
Y478314D02*
D03*
Y476543D02*
D03*
X262050D02*
D03*
Y478314D02*
D03*
Y480086D02*
D03*
Y481857D02*
D03*
D22*
X258300Y479200D02*
D03*
D23*
X304361Y495747D02*
D03*
Y460947D02*
D03*
X10600Y356616D02*
D03*
Y391416D02*
D03*
X304361D02*
D03*
Y356616D02*
D03*
X304361Y603416D02*
D03*
Y568616D02*
D03*
X10600Y568615D02*
D03*
Y603415D02*
D03*
X10600Y277876D02*
D03*
Y312676D02*
D03*
X304361Y233935D02*
D03*
Y199135D02*
D03*
X304361Y155195D02*
D03*
Y120395D02*
D03*
X304361Y96140D02*
D03*
Y61340D02*
D03*
X10600D02*
D03*
Y96140D02*
D03*
X304361Y312676D02*
D03*
Y277876D02*
D03*
X10600Y199135D02*
D03*
Y233935D02*
D03*
Y120395D02*
D03*
Y155195D02*
D03*
X10600Y461025D02*
D03*
Y495825D02*
D03*
D24*
X310611Y478346D02*
D03*
X4350Y374016D02*
D03*
X310611D02*
D03*
X310611Y586016D02*
D03*
X4350Y586015D02*
D03*
X4350Y295276D02*
D03*
X310611Y216535D02*
D03*
X310611Y137795D02*
D03*
X310611Y78740D02*
D03*
X4350D02*
D03*
X310611Y295276D02*
D03*
X4350Y216535D02*
D03*
Y137795D02*
D03*
X4350Y478425D02*
D03*
D25*
X214250Y10600D02*
D03*
X179450D02*
D03*
X135510D02*
D03*
X100710D02*
D03*
D26*
X196850Y4350D02*
D03*
X118110D02*
D03*
D27*
X79500Y478532D02*
D03*
D28*
X229680Y586083D02*
D03*
X220100Y373800D02*
D03*
D29*
X214600Y515800D02*
D03*
X204600Y503900D02*
D03*
D30*
Y515800D02*
D03*
X214600Y503900D02*
D03*
D31*
X312103Y481793D02*
D03*
X309303D02*
D03*
X306504Y481722D02*
D03*
X303722Y481404D02*
D03*
X300922D02*
D03*
X298122D02*
D03*
X295322D02*
D03*
X292522D02*
D03*
X289722D02*
D03*
X286922D02*
D03*
X284122D02*
D03*
X281322D02*
D03*
X278522D02*
D03*
X275722D02*
D03*
X272922D02*
D03*
X270122D02*
D03*
X267322D02*
D03*
X264522D02*
D03*
X266716Y475289D02*
D03*
X269516D02*
D03*
X272316D02*
D03*
X275116D02*
D03*
X277916D02*
D03*
X280716D02*
D03*
X283516D02*
D03*
X286316D02*
D03*
X289116D02*
D03*
X291916D02*
D03*
X294716D02*
D03*
X297516D02*
D03*
X300316D02*
D03*
X303116D02*
D03*
X305909Y475096D02*
D03*
X308702Y474899D02*
D03*
X311502D02*
D03*
X278553Y519288D02*
D03*
X276968Y516980D02*
D03*
X275952Y514371D02*
D03*
X275504Y511607D02*
D03*
X275442Y508808D02*
D03*
Y506007D02*
D03*
Y503207D02*
D03*
Y500408D02*
D03*
X275210Y497617D02*
D03*
X273958Y495113D02*
D03*
X271819Y493306D02*
D03*
X269140Y492491D02*
D03*
X266340Y492458D02*
D03*
X263557Y492150D02*
D03*
X263129Y483523D02*
D03*
X264407Y486015D02*
D03*
X267187Y486342D02*
D03*
X269985Y486465D02*
D03*
X272720Y487065D02*
D03*
X275245Y488274D02*
D03*
X277481Y489959D02*
D03*
X279286Y492100D02*
D03*
X280587Y494580D02*
D03*
X281350Y497273D02*
D03*
X281558Y500066D02*
D03*
Y502866D02*
D03*
Y505666D02*
D03*
Y508466D02*
D03*
X281564Y511266D02*
D03*
X282275Y513974D02*
D03*
X283850Y516289D02*
D03*
X283965Y519087D02*
D03*
X281712Y520748D02*
D03*
X253910Y515938D02*
D03*
X253471Y513173D02*
D03*
Y510373D02*
D03*
Y507573D02*
D03*
Y504773D02*
D03*
Y501973D02*
D03*
Y499173D02*
D03*
Y496373D02*
D03*
Y493573D02*
D03*
Y490773D02*
D03*
Y487973D02*
D03*
Y485173D02*
D03*
X259586Y490626D02*
D03*
Y493427D02*
D03*
Y496227D02*
D03*
Y499026D02*
D03*
Y501826D02*
D03*
Y504627D02*
D03*
Y507427D02*
D03*
Y510226D02*
D03*
Y513027D02*
D03*
X259230Y515804D02*
D03*
X256952Y517431D02*
D03*
X253371Y473338D02*
D03*
Y470538D02*
D03*
Y467738D02*
D03*
Y464938D02*
D03*
Y462138D02*
D03*
X253443Y459339D02*
D03*
X255026Y457030D02*
D03*
X257826Y457027D02*
D03*
X259413Y459334D02*
D03*
X259486Y462133D02*
D03*
Y464933D02*
D03*
Y467733D02*
D03*
Y470533D02*
D03*
D32*
X214800Y481200D02*
D03*
X193400Y485300D02*
D03*
X235200Y580200D02*
D03*
X243764Y582593D02*
D03*
X255164D02*
D03*
X266564D02*
D03*
X277964D02*
D03*
X289364D02*
D03*
X300764D02*
D03*
X309646Y589739D02*
D03*
X298250Y589438D02*
D03*
X286850D02*
D03*
X275450D02*
D03*
X264050D02*
D03*
X252650D02*
D03*
X241250D02*
D03*
X25419Y481848D02*
D03*
X14019D02*
D03*
X5137Y474702D02*
D03*
X16533Y475002D02*
D03*
X27933D02*
D03*
X122119Y377438D02*
D03*
X65119D02*
D03*
X181509Y370593D02*
D03*
X53719Y377438D02*
D03*
X110719D02*
D03*
X192909Y370593D02*
D03*
X10509D02*
D03*
X201919Y377438D02*
D03*
X133519D02*
D03*
X33309Y370593D02*
D03*
X144919Y377438D02*
D03*
X167719D02*
D03*
X78909Y370593D02*
D03*
X30919Y377438D02*
D03*
X179119D02*
D03*
X42319D02*
D03*
X170109Y370593D02*
D03*
X87919Y377438D02*
D03*
X156319D02*
D03*
X190519D02*
D03*
X113109Y370593D02*
D03*
X67509D02*
D03*
X44709D02*
D03*
X21909D02*
D03*
X213319Y377438D02*
D03*
X101709Y370593D02*
D03*
X90309D02*
D03*
X8123Y377736D02*
D03*
X19519Y377438D02*
D03*
X135909Y370593D02*
D03*
X99319Y377438D02*
D03*
X147309Y370593D02*
D03*
X204309D02*
D03*
X124509D02*
D03*
X56109D02*
D03*
X76519Y377438D02*
D03*
X158709Y370593D02*
D03*
X204326Y219958D02*
D03*
X192926D02*
D03*
X181526D02*
D03*
X170126D02*
D03*
X158726D02*
D03*
X147326D02*
D03*
X135926D02*
D03*
X124526D02*
D03*
X113126D02*
D03*
X101726D02*
D03*
X90326D02*
D03*
X78926D02*
D03*
X67526D02*
D03*
X56126D02*
D03*
X44726D02*
D03*
X33326D02*
D03*
X21926D02*
D03*
X10526D02*
D03*
X1644Y212812D02*
D03*
X13040Y213113D02*
D03*
X24440D02*
D03*
X35840D02*
D03*
X47240D02*
D03*
X58640D02*
D03*
X70040D02*
D03*
X81440D02*
D03*
X92840D02*
D03*
X104240D02*
D03*
X115640D02*
D03*
X127040D02*
D03*
X138440D02*
D03*
X149840D02*
D03*
X161240D02*
D03*
X172640D02*
D03*
X184040D02*
D03*
X195440D02*
D03*
X206840D02*
D03*
X204545Y298698D02*
D03*
X193145D02*
D03*
X181745D02*
D03*
X170345D02*
D03*
X158945D02*
D03*
X147545D02*
D03*
X136145D02*
D03*
X124745D02*
D03*
X113345D02*
D03*
X101945D02*
D03*
X90545D02*
D03*
X79145D02*
D03*
X67745D02*
D03*
X56345D02*
D03*
X44945D02*
D03*
X33545D02*
D03*
X22145D02*
D03*
X10745D02*
D03*
X1863Y291552D02*
D03*
X13259Y291853D02*
D03*
X24659D02*
D03*
X36059D02*
D03*
X47459D02*
D03*
X58859D02*
D03*
X70259D02*
D03*
X81659D02*
D03*
X93059D02*
D03*
X104459D02*
D03*
X115859D02*
D03*
X127259D02*
D03*
X138659D02*
D03*
X150059D02*
D03*
X161459D02*
D03*
X172859D02*
D03*
X184259D02*
D03*
X195659D02*
D03*
X207059D02*
D03*
X305552Y82089D02*
D03*
X294152D02*
D03*
X282752D02*
D03*
X271352D02*
D03*
X259952D02*
D03*
X248559Y81696D02*
D03*
X237383Y79445D02*
D03*
X226807Y75190D02*
D03*
X217228Y69010D02*
D03*
X208918Y61205D02*
D03*
X202199Y51995D02*
D03*
X197318Y41693D02*
D03*
X194371Y30681D02*
D03*
X193502Y19314D02*
D03*
X193127Y7920D02*
D03*
X200199Y9891D02*
D03*
X200190Y21291D02*
D03*
X201537Y32611D02*
D03*
X205212Y43403D02*
D03*
X211000Y53224D02*
D03*
X218715Y61617D02*
D03*
X227998Y68233D02*
D03*
X238431Y72829D02*
D03*
X249598Y75121D02*
D03*
X260995Y75392D02*
D03*
X272395D02*
D03*
X283795D02*
D03*
X295195D02*
D03*
X306591Y75092D02*
D03*
X9393Y75317D02*
D03*
X20793D02*
D03*
X32193D02*
D03*
X43593D02*
D03*
X54993D02*
D03*
X66385Y74888D02*
D03*
X77504Y72372D02*
D03*
X87855Y67596D02*
D03*
X96984Y60769D02*
D03*
X104535Y52227D02*
D03*
X110129Y42294D02*
D03*
X113545Y31418D02*
D03*
X114688Y20076D02*
D03*
X114463Y8678D02*
D03*
X121758Y8677D02*
D03*
X121533Y20075D02*
D03*
X120545Y31432D02*
D03*
X117484Y42413D02*
D03*
X112492Y52662D02*
D03*
X105645Y61777D02*
D03*
X97262Y69503D02*
D03*
X87616Y75579D02*
D03*
X76993Y79715D02*
D03*
X65799Y81873D02*
D03*
X54403Y82163D02*
D03*
X43003D02*
D03*
X31603D02*
D03*
X20203D02*
D03*
X8805Y82371D02*
D03*
X304321Y141355D02*
D03*
X292920D02*
D03*
X281521D02*
D03*
X270121D02*
D03*
X258720D02*
D03*
X247321D02*
D03*
X235921D02*
D03*
X224520D02*
D03*
X213121D02*
D03*
X201720D02*
D03*
X190321D02*
D03*
X178920D02*
D03*
X167520D02*
D03*
X156121D02*
D03*
X144720D02*
D03*
X133320D02*
D03*
X121921D02*
D03*
X110521D02*
D03*
X99120D02*
D03*
X87721D02*
D03*
X76320D02*
D03*
X64921D02*
D03*
X53521D02*
D03*
X42121D02*
D03*
X30720D02*
D03*
X19320D02*
D03*
X7922Y141519D02*
D03*
X9892Y134235D02*
D03*
X21292D02*
D03*
X32692D02*
D03*
X44092D02*
D03*
X55492D02*
D03*
X66892D02*
D03*
X78292D02*
D03*
X89692D02*
D03*
X101092D02*
D03*
X112492D02*
D03*
X123892D02*
D03*
X135292D02*
D03*
X146692D02*
D03*
X158092D02*
D03*
X169492D02*
D03*
X180892D02*
D03*
X192292D02*
D03*
X203692D02*
D03*
X215092D02*
D03*
X226492D02*
D03*
X237892D02*
D03*
X249292D02*
D03*
X260692D02*
D03*
X272092D02*
D03*
X283492D02*
D03*
X294892D02*
D03*
X306292Y134147D02*
D03*
D33*
X304361Y277876D02*
D03*
M02*
