G04*
G04 #@! TF.GenerationSoftware,Altium Limited,Altium Designer,19.1.8 (144)*
G04*
G04 Layer_Color=65535*
%FSLAX25Y25*%
%MOIN*%
G70*
G01*
G75*
%ADD10C,0.00500*%
%ADD11C,0.01319*%
%ADD12C,0.00787*%
%ADD13C,0.01000*%
D10*
X263997Y476500D02*
G03*
X263997Y476500I-197J0D01*
G01*
D11*
X1181Y423228D02*
X313779D01*
X1181Y167323D02*
X313779Y167323D01*
D12*
X199600Y510800D02*
Y520800D01*
X219600D01*
Y510800D02*
Y520800D01*
X199600Y510800D02*
X219600D01*
Y498900D02*
Y508900D01*
X199600Y498900D02*
X219600D01*
X199600D02*
Y508900D01*
X219600D01*
D13*
X135373Y120065D02*
Y124064D01*
X133374Y122065D01*
X136040D01*
X140039Y124064D02*
X137373D01*
Y122065D01*
X138706Y122731D01*
X139372D01*
X140039Y122065D01*
Y120732D01*
X139372Y120065D01*
X138039D01*
X137373Y120732D01*
X142038Y120065D02*
X143371D01*
X144037Y120732D01*
Y122065D01*
X143371Y122731D01*
X142038D01*
X141372Y122065D01*
Y120732D01*
X142038Y120065D01*
X145370Y124064D02*
Y120065D01*
Y122065D01*
X146037Y122731D01*
X147370D01*
X148036Y122065D01*
Y120065D01*
X149369D02*
Y122731D01*
X150035D01*
X150702Y122065D01*
Y120065D01*
Y122065D01*
X151368Y122731D01*
X152035Y122065D01*
Y120065D01*
X160032Y123398D02*
X159366Y124064D01*
X158033D01*
X157366Y123398D01*
Y120732D01*
X158033Y120065D01*
X159366D01*
X160032Y120732D01*
X161365Y120065D02*
Y124064D01*
X163364D01*
X164031Y123398D01*
Y122065D01*
X163364Y121398D01*
X161365D01*
X165364Y124064D02*
Y120065D01*
X166697Y121398D01*
X168030Y120065D01*
Y124064D01*
X172028Y123398D02*
X171362Y124064D01*
X170029D01*
X169362Y123398D01*
Y120732D01*
X170029Y120065D01*
X171362D01*
X172028Y120732D01*
Y122065D01*
X170695D01*
X110381Y112867D02*
X111714D01*
X111048D01*
Y116866D01*
X110381Y116199D01*
X113714D02*
X114380Y116866D01*
X115713D01*
X116380Y116199D01*
Y113533D01*
X115713Y112867D01*
X114380D01*
X113714Y113533D01*
Y116199D01*
X117712Y112867D02*
Y115533D01*
X118379D01*
X119045Y114866D01*
Y112867D01*
Y114866D01*
X119712Y115533D01*
X120378Y114866D01*
Y112867D01*
X121711D02*
X123044D01*
X122378D01*
Y115533D01*
X121711D01*
X125043Y112867D02*
X126376D01*
X125710D01*
Y116866D01*
X125043D01*
X128376Y112867D02*
X130375D01*
X131042Y113533D01*
X130375Y114200D01*
X129042D01*
X128376Y114866D01*
X129042Y115533D01*
X131042D01*
X136373Y116866D02*
X137706D01*
X137040D01*
Y112867D01*
X136373D01*
X137706D01*
X139705D02*
X141705D01*
X142371Y113533D01*
X141705Y114200D01*
X140372D01*
X139705Y114866D01*
X140372Y115533D01*
X142371D01*
X144370Y112867D02*
X145703D01*
X146370Y113533D01*
Y114866D01*
X145703Y115533D01*
X144370D01*
X143704Y114866D01*
Y113533D01*
X144370Y112867D01*
X151701Y114866D02*
X154367D01*
X159699Y112867D02*
X161032D01*
X160365D01*
Y116866D01*
X159699Y116199D01*
X165697Y116866D02*
X164364Y116199D01*
X163031Y114866D01*
Y113533D01*
X163698Y112867D01*
X165031D01*
X165697Y113533D01*
Y114200D01*
X165031Y114866D01*
X163031D01*
X167030Y112867D02*
Y113533D01*
X167696D01*
Y112867D01*
X167030D01*
X172362D02*
Y116866D01*
X170362Y114866D01*
X173028D01*
X174361Y112867D02*
X175694D01*
X175027D01*
Y116866D01*
X174361Y116199D01*
X181692Y112867D02*
Y115533D01*
X182358D01*
X183025Y114866D01*
Y112867D01*
Y114866D01*
X183691Y115533D01*
X184358Y114866D01*
Y112867D01*
X185691D02*
X187023D01*
X186357D01*
Y115533D01*
X185691D01*
X189023Y112867D02*
X190356D01*
X189689D01*
Y116866D01*
X189023D01*
X192355Y112867D02*
X194354D01*
X195021Y113533D01*
X194354Y114200D01*
X193022D01*
X192355Y114866D01*
X193022Y115533D01*
X195021D01*
X240989Y43984D02*
X238323D01*
Y41985D01*
X239656Y42652D01*
X240322D01*
X240989Y41985D01*
Y40652D01*
X240322Y39986D01*
X238989D01*
X238323Y40652D01*
X244987Y43984D02*
X242322D01*
Y41985D01*
X243654Y42652D01*
X244321D01*
X244987Y41985D01*
Y40652D01*
X244321Y39986D01*
X242988D01*
X242322Y40652D01*
X246987Y39986D02*
X248320D01*
X248986Y40652D01*
Y41985D01*
X248320Y42652D01*
X246987D01*
X246320Y41985D01*
Y40652D01*
X246987Y39986D01*
X250319Y43984D02*
Y39986D01*
Y41985D01*
X250986Y42652D01*
X252318D01*
X252985Y41985D01*
Y39986D01*
X254318D02*
Y42652D01*
X254984D01*
X255651Y41985D01*
Y39986D01*
Y41985D01*
X256317Y42652D01*
X256984Y41985D01*
Y39986D01*
X264981Y43318D02*
X264315Y43984D01*
X262982D01*
X262315Y43318D01*
Y40652D01*
X262982Y39986D01*
X264315D01*
X264981Y40652D01*
X266314Y39986D02*
Y43984D01*
X268313D01*
X268980Y43318D01*
Y41985D01*
X268313Y41319D01*
X266314D01*
X270313Y43984D02*
Y39986D01*
X271645Y41319D01*
X272978Y39986D01*
Y43984D01*
X276977Y43318D02*
X276311Y43984D01*
X274978D01*
X274311Y43318D01*
Y40652D01*
X274978Y39986D01*
X276311D01*
X276977Y40652D01*
Y41985D01*
X275644D01*
X215330Y32787D02*
X216663D01*
X215997D01*
Y36786D01*
X215330Y36119D01*
X218663D02*
X219329Y36786D01*
X220662D01*
X221328Y36119D01*
Y33454D01*
X220662Y32787D01*
X219329D01*
X218663Y33454D01*
Y36119D01*
X222661Y32787D02*
Y35453D01*
X223328D01*
X223994Y34787D01*
Y32787D01*
Y34787D01*
X224661Y35453D01*
X225327Y34787D01*
Y32787D01*
X226660D02*
X227993D01*
X227326D01*
Y35453D01*
X226660D01*
X229992Y32787D02*
X231325D01*
X230659D01*
Y36786D01*
X229992D01*
X233325Y32787D02*
X235324D01*
X235990Y33454D01*
X235324Y34120D01*
X233991D01*
X233325Y34787D01*
X233991Y35453D01*
X235990D01*
X241322Y36786D02*
X242655D01*
X241988D01*
Y32787D01*
X241322D01*
X242655D01*
X244654D02*
X246654D01*
X247320Y33454D01*
X246654Y34120D01*
X245321D01*
X244654Y34787D01*
X245321Y35453D01*
X247320D01*
X249319Y32787D02*
X250652D01*
X251319Y33454D01*
Y34787D01*
X250652Y35453D01*
X249319D01*
X248653Y34787D01*
Y33454D01*
X249319Y32787D01*
X256650Y34787D02*
X259316D01*
X264648Y32787D02*
X265981D01*
X265314D01*
Y36786D01*
X264648Y36119D01*
X267980Y32787D02*
X269313D01*
X268647D01*
Y36786D01*
X267980Y36119D01*
X271312Y32787D02*
Y33454D01*
X271979D01*
Y32787D01*
X271312D01*
X277310Y36786D02*
X274644D01*
Y34787D01*
X275977Y35453D01*
X276644D01*
X277310Y34787D01*
Y33454D01*
X276644Y32787D01*
X275311D01*
X274644Y33454D01*
X281309Y36786D02*
X278643D01*
Y34787D01*
X279976Y35453D01*
X280643D01*
X281309Y34787D01*
Y33454D01*
X280643Y32787D01*
X279310D01*
X278643Y33454D01*
X286641Y32787D02*
Y35453D01*
X287307D01*
X287974Y34787D01*
Y32787D01*
Y34787D01*
X288640Y35453D01*
X289306Y34787D01*
Y32787D01*
X290639D02*
X291972D01*
X291306D01*
Y35453D01*
X290639D01*
X293972Y32787D02*
X295304D01*
X294638D01*
Y36786D01*
X293972D01*
X297304Y32787D02*
X299303D01*
X299970Y33454D01*
X299303Y34120D01*
X297970D01*
X297304Y34787D01*
X297970Y35453D01*
X299970D01*
X121160Y203026D02*
X123826D01*
X122493D01*
Y199027D01*
X127158D02*
X125825D01*
X125159Y199693D01*
Y201026D01*
X125825Y201693D01*
X127158D01*
X127825Y201026D01*
Y200360D01*
X125159D01*
X129824Y201693D02*
X131157D01*
X131824Y201026D01*
Y199027D01*
X129824D01*
X129158Y199693D01*
X129824Y200360D01*
X131824D01*
X133156Y201693D02*
Y199027D01*
Y200360D01*
X133823Y201026D01*
X134489Y201693D01*
X135156D01*
X139821Y203026D02*
Y199027D01*
X137822D01*
X137155Y199693D01*
Y201026D01*
X137822Y201693D01*
X139821D01*
X141154D02*
Y199027D01*
Y200360D01*
X141820Y201026D01*
X142487Y201693D01*
X143153D01*
X145819Y199027D02*
X147152D01*
X147818Y199693D01*
Y201026D01*
X147152Y201693D01*
X145819D01*
X145152Y201026D01*
Y199693D01*
X145819Y199027D01*
X149151Y197694D02*
Y201693D01*
X151151D01*
X151817Y201026D01*
Y199693D01*
X151151Y199027D01*
X149151D01*
X157149Y203026D02*
X159815D01*
X158482D01*
Y199027D01*
X161147Y201693D02*
Y199027D01*
Y200360D01*
X161814Y201026D01*
X162480Y201693D01*
X163147D01*
X165813D02*
X167145D01*
X167812Y201026D01*
Y199027D01*
X165813D01*
X165146Y199693D01*
X165813Y200360D01*
X167812D01*
X169145Y199027D02*
Y201693D01*
X171144D01*
X171811Y201026D01*
Y199027D01*
X173143D02*
X175143D01*
X175809Y199693D01*
X175143Y200360D01*
X173810D01*
X173143Y201026D01*
X173810Y201693D01*
X175809D01*
X177142Y199027D02*
X178475D01*
X177809D01*
Y201693D01*
X177142D01*
X181141Y202359D02*
Y201693D01*
X180474D01*
X181807D01*
X181141D01*
Y199693D01*
X181807Y199027D01*
X183807D02*
X185140D01*
X184473D01*
Y201693D01*
X183807D01*
X187805Y199027D02*
X189138D01*
X189805Y199693D01*
Y201026D01*
X189138Y201693D01*
X187805D01*
X187139Y201026D01*
Y199693D01*
X187805Y199027D01*
X191138D02*
Y201693D01*
X193137D01*
X193804Y201026D01*
Y199027D01*
X127156Y277257D02*
Y281256D01*
X129156D01*
X129822Y280589D01*
Y279256D01*
X129156Y278590D01*
X127156D01*
X128489D02*
X129822Y277257D01*
X131822D02*
X133154D01*
X133821Y277923D01*
Y279256D01*
X133154Y279923D01*
X131822D01*
X131155Y279256D01*
Y277923D01*
X131822Y277257D01*
X135154Y279923D02*
Y277923D01*
X135820Y277257D01*
X137820D01*
Y279923D01*
X139152Y277257D02*
Y279923D01*
X141152D01*
X141818Y279256D01*
Y277257D01*
X145817Y281256D02*
Y277257D01*
X143818D01*
X143151Y277923D01*
Y279256D01*
X143818Y279923D01*
X145817D01*
X151149Y281256D02*
X153814D01*
X152481D01*
Y277257D01*
X155147Y279923D02*
Y277257D01*
Y278590D01*
X155814Y279256D01*
X156480Y279923D01*
X157147D01*
X159812D02*
X161145D01*
X161812Y279256D01*
Y277257D01*
X159812D01*
X159146Y277923D01*
X159812Y278590D01*
X161812D01*
X163145Y277257D02*
Y279923D01*
X165144D01*
X165811Y279256D01*
Y277257D01*
X167143D02*
X169143D01*
X169809Y277923D01*
X169143Y278590D01*
X167810D01*
X167143Y279256D01*
X167810Y279923D01*
X169809D01*
X171142Y277257D02*
X172475D01*
X171809D01*
Y279923D01*
X171142D01*
X175141Y280589D02*
Y279923D01*
X174474D01*
X175807D01*
X175141D01*
Y277923D01*
X175807Y277257D01*
X177807D02*
X179139D01*
X178473D01*
Y279923D01*
X177807D01*
X181805Y277257D02*
X183138D01*
X183805Y277923D01*
Y279256D01*
X183138Y279923D01*
X181805D01*
X181139Y279256D01*
Y277923D01*
X181805Y277257D01*
X185138D02*
Y279923D01*
X187137D01*
X187803Y279256D01*
Y277257D01*
X129823Y359996D02*
X129157Y360662D01*
X127824D01*
X127157Y359996D01*
Y359329D01*
X127824Y358663D01*
X129157D01*
X129823Y357997D01*
Y357330D01*
X129157Y356664D01*
X127824D01*
X127157Y357330D01*
X131156Y360662D02*
Y356664D01*
Y358663D01*
X131823Y359329D01*
X133156D01*
X133822Y358663D01*
Y356664D01*
X135821Y359329D02*
X137154D01*
X137821Y358663D01*
Y356664D01*
X135821D01*
X135155Y357330D01*
X135821Y357997D01*
X137821D01*
X139154Y359329D02*
Y356664D01*
Y357997D01*
X139820Y358663D01*
X140487Y359329D01*
X141153D01*
X143152Y355331D02*
Y359329D01*
X145152D01*
X145818Y358663D01*
Y357330D01*
X145152Y356664D01*
X143152D01*
X151150Y360662D02*
X153815D01*
X152483D01*
Y356664D01*
X155148Y359329D02*
Y356664D01*
Y357997D01*
X155815Y358663D01*
X156481Y359329D01*
X157148D01*
X159814D02*
X161146D01*
X161813Y358663D01*
Y356664D01*
X159814D01*
X159147Y357330D01*
X159814Y357997D01*
X161813D01*
X163146Y356664D02*
Y359329D01*
X165145D01*
X165812Y358663D01*
Y356664D01*
X167145D02*
X169144D01*
X169810Y357330D01*
X169144Y357997D01*
X167811D01*
X167145Y358663D01*
X167811Y359329D01*
X169810D01*
X171143Y356664D02*
X172476D01*
X171810D01*
Y359329D01*
X171143D01*
X175142Y359996D02*
Y359329D01*
X174476D01*
X175808D01*
X175142D01*
Y357330D01*
X175808Y356664D01*
X177808D02*
X179141D01*
X178474D01*
Y359329D01*
X177808D01*
X181807Y356664D02*
X183139D01*
X183806Y357330D01*
Y358663D01*
X183139Y359329D01*
X181807D01*
X181140Y358663D01*
Y357330D01*
X181807Y356664D01*
X185139D02*
Y359329D01*
X187138D01*
X187805Y358663D01*
Y356664D01*
X38234Y43984D02*
X35569D01*
Y41985D01*
X36902Y42652D01*
X37568D01*
X38234Y41985D01*
Y40652D01*
X37568Y39986D01*
X36235D01*
X35569Y40652D01*
X39567Y43318D02*
X40234Y43984D01*
X41567D01*
X42233Y43318D01*
Y40652D01*
X41567Y39986D01*
X40234D01*
X39567Y40652D01*
Y43318D01*
X44233Y39986D02*
X45566D01*
X46232Y40652D01*
Y41985D01*
X45566Y42652D01*
X44233D01*
X43566Y41985D01*
Y40652D01*
X44233Y39986D01*
X47565Y43984D02*
Y39986D01*
Y41985D01*
X48231Y42652D01*
X49564D01*
X50231Y41985D01*
Y39986D01*
X51564D02*
Y42652D01*
X52230D01*
X52896Y41985D01*
Y39986D01*
Y41985D01*
X53563Y42652D01*
X54229Y41985D01*
Y39986D01*
X62227Y43318D02*
X61560Y43984D01*
X60227D01*
X59561Y43318D01*
Y40652D01*
X60227Y39986D01*
X61560D01*
X62227Y40652D01*
X63560Y39986D02*
Y43984D01*
X65559D01*
X66225Y43318D01*
Y41985D01*
X65559Y41319D01*
X63560D01*
X67558Y43984D02*
Y39986D01*
X68891Y41319D01*
X70224Y39986D01*
Y43984D01*
X74223Y43318D02*
X73557Y43984D01*
X72224D01*
X71557Y43318D01*
Y40652D01*
X72224Y39986D01*
X73557D01*
X74223Y40652D01*
Y41985D01*
X72890D01*
X12243Y32787D02*
X13576D01*
X12909D01*
Y36786D01*
X12243Y36119D01*
X15575D02*
X16242Y36786D01*
X17574D01*
X18241Y36119D01*
Y33454D01*
X17574Y32787D01*
X16242D01*
X15575Y33454D01*
Y36119D01*
X19574Y32787D02*
Y35453D01*
X20240D01*
X20907Y34787D01*
Y32787D01*
Y34787D01*
X21573Y35453D01*
X22240Y34787D01*
Y32787D01*
X23573D02*
X24905D01*
X24239D01*
Y35453D01*
X23573D01*
X26905Y32787D02*
X28238D01*
X27571D01*
Y36786D01*
X26905D01*
X30237Y32787D02*
X32236D01*
X32903Y33454D01*
X32236Y34120D01*
X30904D01*
X30237Y34787D01*
X30904Y35453D01*
X32903D01*
X38234Y36786D02*
X39567D01*
X38901D01*
Y32787D01*
X38234D01*
X39567D01*
X41567D02*
X43566D01*
X44233Y33454D01*
X43566Y34120D01*
X42233D01*
X41567Y34787D01*
X42233Y35453D01*
X44233D01*
X46232Y32787D02*
X47565D01*
X48231Y33454D01*
Y34787D01*
X47565Y35453D01*
X46232D01*
X45566Y34787D01*
Y33454D01*
X46232Y32787D01*
X53563Y34787D02*
X56229D01*
X61560Y32787D02*
X62893D01*
X62227D01*
Y36786D01*
X61560Y36119D01*
X64893D02*
X65559Y36786D01*
X66892D01*
X67558Y36119D01*
Y35453D01*
X66892Y34787D01*
X66225D01*
X66892D01*
X67558Y34120D01*
Y33454D01*
X66892Y32787D01*
X65559D01*
X64893Y33454D01*
X68891Y32787D02*
Y33454D01*
X69558D01*
Y32787D01*
X68891D01*
X72224Y36786D02*
X74889D01*
Y36119D01*
X72224Y33454D01*
Y32787D01*
X78888D02*
X76222D01*
X78888Y35453D01*
Y36119D01*
X78222Y36786D01*
X76889D01*
X76222Y36119D01*
X84220Y32787D02*
Y35453D01*
X84886D01*
X85553Y34787D01*
Y32787D01*
Y34787D01*
X86219Y35453D01*
X86885Y34787D01*
Y32787D01*
X88218D02*
X89551D01*
X88885D01*
Y35453D01*
X88218D01*
X91551Y32787D02*
X92884D01*
X92217D01*
Y36786D01*
X91551D01*
X94883Y32787D02*
X96882D01*
X97549Y33454D01*
X96882Y34120D01*
X95549D01*
X94883Y34787D01*
X95549Y35453D01*
X97549D01*
X0Y629921D02*
X0Y0D01*
X0Y629921D02*
X314961Y629921D01*
X314961Y0D01*
X0D02*
X314961D01*
M02*
