G04*
G04 #@! TF.GenerationSoftware,Altium Limited,Altium Designer,20.0.9 (164)*
G04*
G04 Layer_Color=32896*
%FSLAX25Y25*%
%MOIN*%
G70*
G01*
G75*
%ADD48C,0.00400*%
D48*
X156300Y99300D02*
X157900D01*
X155500Y98900D02*
X158700D01*
X155500Y98500D02*
X158700D01*
X155100Y98100D02*
X159100D01*
X155100Y97700D02*
X159100D01*
X155100Y97300D02*
X159100D01*
X154700Y96900D02*
X158700D01*
X154300Y96500D02*
X158700D01*
X153500Y96100D02*
X158700D01*
X174300Y95700D02*
X176700D01*
X157100D02*
X159100D01*
X153100D02*
X155900D01*
X173900Y95300D02*
X177500D01*
X157100D02*
X159100D01*
X152700D02*
X155500D01*
X173500Y94900D02*
X177900D01*
X157500D02*
X159500D01*
X152300D02*
X155100D01*
X173100Y94500D02*
X177900D01*
X157500D02*
X159500D01*
X151500D02*
X154300D01*
X173100Y94100D02*
X178300D01*
X157900D02*
X159900D01*
X151100D02*
X153900D01*
X172700Y93700D02*
X178300D01*
X157900D02*
X159900D01*
X150700D02*
X153500D01*
X172700Y93300D02*
X178300D01*
X158300D02*
X160300D01*
X150300D02*
X153100D01*
X172700Y92900D02*
X178300D01*
X158300D02*
X160300D01*
X149500D02*
X152300D01*
X171900Y92500D02*
X178300D01*
X158700D02*
X160300D01*
X149100D02*
X151900D01*
X127900D02*
X130300D01*
X171100Y92100D02*
X178300D01*
X158700D02*
X160700D01*
X148700D02*
X151500D01*
X145900D02*
X148300D01*
X127500D02*
X130700D01*
X169900Y91700D02*
X177900D01*
X159100D02*
X160700D01*
X145500D02*
X151100D01*
X127100D02*
X131100D01*
X169100Y91300D02*
X177500D01*
X159100D02*
X161100D01*
X145100D02*
X150300D01*
X126700D02*
X131100D01*
X173900Y90900D02*
X177100D01*
X168300D02*
X172700D01*
X159100D02*
X161100D01*
X144700D02*
X149900D01*
X126700D02*
X131500D01*
X175100Y90500D02*
X176300D01*
X167500D02*
X171500D01*
X159500D02*
X161500D01*
X144700D02*
X149500D01*
X126700D02*
X131500D01*
X166300Y90100D02*
X170700D01*
X159500D02*
X161500D01*
X144700D02*
X149500D01*
X126700D02*
X131100D01*
X165500Y89700D02*
X169900D01*
X159900D02*
X161900D01*
X144700D02*
X149500D01*
X127100D02*
X131500D01*
X164700Y89300D02*
X169100D01*
X159900D02*
X161900D01*
X144300D02*
X149500D01*
X127100D02*
X131900D01*
X160300Y88900D02*
X167900D01*
X143900D02*
X149500D01*
X127500D02*
X132700D01*
X160300Y88500D02*
X167100D01*
X143100D02*
X149100D01*
X130300D02*
X133100D01*
X128300D02*
X129900D01*
X159900Y88100D02*
X166300D01*
X142300D02*
X149100D01*
X130700D02*
X133500D01*
X159900Y87700D02*
X165500D01*
X145500D02*
X148300D01*
X141900D02*
X145100D01*
X131100D02*
X133900D01*
X159500Y87300D02*
X165100D01*
X146300D02*
X147900D01*
X141100D02*
X144700D01*
X131900D02*
X134300D01*
X159500Y86900D02*
X165100D01*
X146300D02*
X147900D01*
X140300D02*
X143900D01*
X132300D02*
X134700D01*
X159500Y86500D02*
X165100D01*
X146300D02*
X147900D01*
X139900D02*
X143100D01*
X132700D02*
X135500D01*
X159100Y86100D02*
X165100D01*
X146300D02*
X147900D01*
X139100D02*
X142300D01*
X133100D02*
X135900D01*
X158700Y85700D02*
X165100D01*
X146300D02*
X147900D01*
X138300D02*
X141900D01*
X133500D02*
X136300D01*
X158300Y85300D02*
X165100D01*
X146300D02*
X147900D01*
X137500D02*
X141100D01*
X133900D02*
X136700D01*
X157900Y84900D02*
X165100D01*
X146300D02*
X147900D01*
X134700D02*
X140300D01*
X157100Y84500D02*
X165500D01*
X146300D02*
X147900D01*
X135100D02*
X139900D01*
X183900Y84100D02*
X185500D01*
X160300D02*
X165900D01*
X156700D02*
X159500D01*
X146300D02*
X147900D01*
X135500D02*
X139100D01*
X183100Y83700D02*
X186300D01*
X160700D02*
X166300D01*
X156300D02*
X159100D01*
X146300D02*
X147900D01*
X135900D02*
X138300D01*
X182700Y83300D02*
X186700D01*
X163900D02*
X166700D01*
X155900D02*
X158700D01*
X146300D02*
X147900D01*
X135500D02*
X137900D01*
X182700Y82900D02*
X187100D01*
X164300D02*
X167100D01*
X155500D02*
X158300D01*
X146300D02*
X147900D01*
X135100D02*
X137500D01*
X182700Y82500D02*
X187100D01*
X164700D02*
X167500D01*
X155100D02*
X157500D01*
X146300D02*
X147900D01*
X135100D02*
X137100D01*
X182300Y82100D02*
X187100D01*
X165100D02*
X167900D01*
X154300D02*
X157100D01*
X146300D02*
X147900D01*
X134700D02*
X136700D01*
X182300Y81700D02*
X187100D01*
X165500D02*
X168300D01*
X153900D02*
X156700D01*
X146300D02*
X147900D01*
X134300D02*
X136700D01*
X181500Y81300D02*
X187100D01*
X165900D02*
X168700D01*
X153500D02*
X156300D01*
X146300D02*
X147900D01*
X133900D02*
X136300D01*
X180300Y80900D02*
X187100D01*
X171500D02*
X172300D01*
X166300D02*
X169100D01*
X153100D02*
X155900D01*
X146300D02*
X147900D01*
X133900D02*
X135900D01*
X179500Y80500D02*
X186700D01*
X170300D02*
X173900D01*
X166700D02*
X169500D01*
X152700D02*
X155500D01*
X146300D02*
X147900D01*
X133500D02*
X135500D01*
X178700Y80100D02*
X186300D01*
X167100D02*
X174700D01*
X152300D02*
X155100D01*
X146300D02*
X147900D01*
X133100D02*
X135500D01*
X183900Y79700D02*
X185500D01*
X177900D02*
X181900D01*
X167500D02*
X175100D01*
X151900D02*
X154300D01*
X146300D02*
X147900D01*
X133100D02*
X135100D01*
X177100Y79300D02*
X181100D01*
X167900D02*
X175500D01*
X151100D02*
X153900D01*
X146300D02*
X147900D01*
X132700D02*
X134700D01*
X168300Y78900D02*
X180300D01*
X150700D02*
X153500D01*
X146300D02*
X147900D01*
X132300D02*
X134700D01*
X168300Y78500D02*
X179500D01*
X150300D02*
X153100D01*
X146300D02*
X147900D01*
X131900D02*
X134300D01*
X167900Y78100D02*
X178700D01*
X149900D02*
X152700D01*
X146300D02*
X147900D01*
X131900D02*
X133900D01*
X167900Y77700D02*
X177500D01*
X149500D02*
X152300D01*
X146300D02*
X147900D01*
X131500D02*
X133500D01*
X167900Y77300D02*
X176700D01*
X149100D02*
X151500D01*
X146300D02*
X147900D01*
X131100D02*
X133500D01*
X167900Y76900D02*
X176300D01*
X145500D02*
X151100D01*
X131100D02*
X133100D01*
X167900Y76500D02*
X176300D01*
X144700D02*
X150700D01*
X130700D02*
X132700D01*
X167900Y76100D02*
X176300D01*
X144300D02*
X150300D01*
X130300D02*
X132700D01*
X167900Y75700D02*
X176300D01*
X143900D02*
X149900D01*
X129900D02*
X132300D01*
X167900Y75300D02*
X176300D01*
X143900D02*
X150300D01*
X129900D02*
X131900D01*
X167900Y74900D02*
X175900D01*
X143500D02*
X150700D01*
X129100D02*
X131500D01*
X167500Y74500D02*
X175900D01*
X143500D02*
X150700D01*
X128700D02*
X131500D01*
X167100Y74100D02*
X175500D01*
X143500D02*
X150700D01*
X128300D02*
X131100D01*
X166300Y73700D02*
X175100D01*
X143500D02*
X150700D01*
X128300D02*
X131100D01*
X165900Y73300D02*
X175500D01*
X143500D02*
X150700D01*
X128300D02*
X131100D01*
X169900Y72900D02*
X175500D01*
X165500D02*
X168300D01*
X143500D02*
X152300D01*
X128300D02*
X130700D01*
X173900Y72500D02*
X175900D01*
X170700D02*
X173500D01*
X164700D02*
X167900D01*
X161500D02*
X163100D01*
X143500D02*
X153500D01*
X128700D02*
X130700D01*
X173900Y72100D02*
X176300D01*
X164300D02*
X167500D01*
X160700D02*
X163900D01*
X143900D02*
X154700D01*
X174300Y71700D02*
X176300D01*
X160300D02*
X166700D01*
X143900D02*
X155900D01*
X174700Y71300D02*
X176700D01*
X159900D02*
X166300D01*
X151500D02*
X157500D01*
X143500D02*
X149900D01*
X174700Y70900D02*
X177100D01*
X159500D02*
X165500D01*
X152700D02*
X158700D01*
X143100D02*
X149500D01*
X175100Y70500D02*
X177100D01*
X154300D02*
X165100D01*
X142300D02*
X149100D01*
X175500Y70100D02*
X177500D01*
X155500D02*
X165100D01*
X145900D02*
X148300D01*
X141900D02*
X144700D01*
X175900Y69700D02*
X177900D01*
X156700D02*
X165500D01*
X141500D02*
X144300D01*
X175900Y69300D02*
X177900D01*
X157900D02*
X165100D01*
X141100D02*
X143900D01*
X176300Y68900D02*
X178300D01*
X159100D02*
X165100D01*
X140700D02*
X143500D01*
X176700Y68500D02*
X179100D01*
X159500D02*
X165100D01*
X140300D02*
X142700D01*
X138700D02*
X139100D01*
X176700Y68100D02*
X179900D01*
X159900D02*
X164700D01*
X137500D02*
X142300D01*
X177100Y67700D02*
X180300D01*
X160300D02*
X164700D01*
X137100D02*
X141900D01*
X177100Y67300D02*
X180700D01*
X160700D02*
X164300D01*
X137100D02*
X141500D01*
X177100Y66900D02*
X180700D01*
X161100D02*
X163500D01*
X137100D02*
X141100D01*
X177100Y66500D02*
X180700D01*
X136700D02*
X141100D01*
X177100Y66100D02*
X180300D01*
X136700D02*
X141100D01*
X177500Y65700D02*
X180300D01*
X137100D02*
X140700D01*
X177500Y65300D02*
X179900D01*
X137100D02*
X140700D01*
X137500Y64900D02*
X140300D01*
X138300Y64500D02*
X139500D01*
X190300Y61300D02*
X193500D01*
X181900D02*
X184700D01*
X173100D02*
X176300D01*
X163500D02*
X168300D01*
X151900D02*
X156700D01*
X144700D02*
X147500D01*
X135900D02*
X138700D01*
X124300D02*
X129100D01*
X190300Y60900D02*
X193500D01*
X181500D02*
X185100D01*
X173100D02*
X176300D01*
X162700D02*
X169100D01*
X150700D02*
X157500D01*
X144300D02*
X147500D01*
X135500D02*
X139100D01*
X123500D02*
X130300D01*
X189900Y60500D02*
X193500D01*
X181500D02*
X185100D01*
X173500D02*
X176700D01*
X161900D02*
X169900D01*
X149900D02*
X158300D01*
X144300D02*
X147500D01*
X135500D02*
X139100D01*
X122700D02*
X130700D01*
X189900Y60100D02*
X193500D01*
X181500D02*
X185100D01*
X173500D02*
X176700D01*
X161500D02*
X170300D01*
X149900D02*
X158700D01*
X143900D02*
X147500D01*
X135500D02*
X139100D01*
X121900D02*
X131500D01*
X189900Y59700D02*
X193100D01*
X181100D02*
X185500D01*
X173500D02*
X176700D01*
X160700D02*
X171100D01*
X149900D02*
X159100D01*
X143500D02*
X147500D01*
X135500D02*
X139100D01*
X121500D02*
X131900D01*
X189500Y59300D02*
X193100D01*
X181100D02*
X185500D01*
X173900D02*
X177100D01*
X160700D02*
X171500D01*
X150300D02*
X159500D01*
X143100D02*
X147500D01*
X135500D02*
X139100D01*
X121500D02*
X132300D01*
X189500Y58900D02*
X193100D01*
X181100D02*
X185500D01*
X173900D02*
X177100D01*
X160700D02*
X171500D01*
X150300D02*
X159500D01*
X142700D02*
X147500D01*
X135500D02*
X139100D01*
X121500D02*
X132700D01*
X189500Y58500D02*
X192700D01*
X180700D02*
X185900D01*
X173900D02*
X177100D01*
X167100D02*
X171900D01*
X161100D02*
X164300D01*
X155900D02*
X159500D01*
X150300D02*
X152300D01*
X142300D02*
X147500D01*
X135500D02*
X139100D01*
X128300D02*
X132700D01*
X121900D02*
X125100D01*
X189100Y58100D02*
X192700D01*
X180700D02*
X185900D01*
X174300D02*
X177500D01*
X167900D02*
X172300D01*
X161500D02*
X163500D01*
X156300D02*
X159900D01*
X150700D02*
X151100D01*
X142300D02*
X147500D01*
X135500D02*
X139100D01*
X128700D02*
X133100D01*
X122300D02*
X124300D01*
X189100Y57700D02*
X192700D01*
X180700D02*
X185900D01*
X174300D02*
X177500D01*
X168300D02*
X172300D01*
X161900D02*
X163100D01*
X156300D02*
X159900D01*
X141900D02*
X147500D01*
X135500D02*
X139100D01*
X129500D02*
X133500D01*
X122700D02*
X123900D01*
X189100Y57300D02*
X192300D01*
X180700D02*
X186300D01*
X174300D02*
X177500D01*
X168700D02*
X172300D01*
X156300D02*
X159900D01*
X141500D02*
X147500D01*
X135500D02*
X139100D01*
X129900D02*
X133500D01*
X188700Y56900D02*
X192300D01*
X180300D02*
X186300D01*
X174700D02*
X177900D01*
X169100D02*
X172700D01*
X155900D02*
X159900D01*
X141100D02*
X147500D01*
X135500D02*
X139100D01*
X129900D02*
X133500D01*
X188700Y56500D02*
X192300D01*
X180300D02*
X186300D01*
X174700D02*
X177900D01*
X169100D02*
X172700D01*
X154700D02*
X159500D01*
X140700D02*
X147500D01*
X135500D02*
X139100D01*
X130300D02*
X133500D01*
X188700Y56100D02*
X191900D01*
X183500D02*
X186700D01*
X180300D02*
X183100D01*
X174700D02*
X177900D01*
X169500D02*
X172700D01*
X153100D02*
X159500D01*
X140700D02*
X147500D01*
X135500D02*
X139100D01*
X130300D02*
X133900D01*
X188300Y55700D02*
X191900D01*
X183500D02*
X186700D01*
X179900D02*
X183100D01*
X175100D02*
X178300D01*
X169500D02*
X172700D01*
X151900D02*
X159500D01*
X140300D02*
X147500D01*
X135500D02*
X139100D01*
X130300D02*
X133900D01*
X188300Y55300D02*
X191900D01*
X183900D02*
X186700D01*
X179900D02*
X183100D01*
X175100D02*
X178300D01*
X169500D02*
X172700D01*
X151100D02*
X159100D01*
X144300D02*
X147500D01*
X139900D02*
X143900D01*
X135500D02*
X139100D01*
X130700D02*
X133900D01*
X121500D02*
X124300D01*
X188300Y54900D02*
X191500D01*
X183900D02*
X187100D01*
X179900D02*
X182700D01*
X175100D02*
X178300D01*
X169500D02*
X172700D01*
X150300D02*
X158700D01*
X144300D02*
X147500D01*
X139500D02*
X143500D01*
X135500D02*
X139100D01*
X130700D02*
X133900D01*
X121500D02*
X124700D01*
X188300Y54500D02*
X191500D01*
X183900D02*
X187100D01*
X179500D02*
X182700D01*
X175500D02*
X178700D01*
X169500D02*
X172700D01*
X149900D02*
X157900D01*
X144300D02*
X147500D01*
X135500D02*
X143500D01*
X130700D02*
X133900D01*
X121500D02*
X124700D01*
X187900Y54100D02*
X191500D01*
X184300D02*
X187100D01*
X179500D02*
X182700D01*
X175500D02*
X178700D01*
X169500D02*
X172700D01*
X149500D02*
X157100D01*
X144300D02*
X147500D01*
X135500D02*
X143100D01*
X130300D02*
X133900D01*
X121500D02*
X124700D01*
X187900Y53700D02*
X191100D01*
X184300D02*
X187500D01*
X179500D02*
X182300D01*
X175500D02*
X178700D01*
X169500D02*
X172700D01*
X149500D02*
X155900D01*
X144300D02*
X147500D01*
X135500D02*
X142700D01*
X130300D02*
X133900D01*
X121500D02*
X124700D01*
X187900Y53300D02*
X191100D01*
X184300D02*
X187500D01*
X175900D02*
X182300D01*
X169100D02*
X172700D01*
X149500D02*
X154300D01*
X144300D02*
X147500D01*
X135500D02*
X142300D01*
X130300D02*
X133500D01*
X121500D02*
X124700D01*
X184700Y52900D02*
X191100D01*
X175900D02*
X182300D01*
X169100D02*
X172700D01*
X149100D02*
X153100D01*
X144300D02*
X147500D01*
X135500D02*
X141900D01*
X129900D02*
X133500D01*
X121500D02*
X124700D01*
X184700Y52500D02*
X190700D01*
X175900D02*
X181900D01*
X168700D02*
X172300D01*
X162300D02*
X162700D01*
X149100D02*
X152700D01*
X144300D02*
X147500D01*
X135500D02*
X141500D01*
X129900D02*
X133500D01*
X121500D02*
X124700D01*
X184700Y52100D02*
X190700D01*
X176300D02*
X181900D01*
X168300D02*
X172300D01*
X161900D02*
X163100D01*
X158700D02*
X159100D01*
X149100D02*
X152300D01*
X144300D02*
X147500D01*
X135500D02*
X141500D01*
X129500D02*
X133100D01*
X121500D02*
X124700D01*
X185100Y51700D02*
X190700D01*
X176300D02*
X181900D01*
X167900D02*
X172300D01*
X161500D02*
X163900D01*
X157900D02*
X159100D01*
X149100D02*
X152700D01*
X144300D02*
X147500D01*
X135500D02*
X141100D01*
X128700D02*
X133100D01*
X121500D02*
X124700D01*
X185100Y51300D02*
X190300D01*
X176300D02*
X181500D01*
X167100D02*
X171900D01*
X161100D02*
X164700D01*
X156700D02*
X159500D01*
X149500D02*
X153100D01*
X144300D02*
X147500D01*
X135500D02*
X140700D01*
X127900D02*
X132700D01*
X121500D02*
X125100D01*
X185100Y50900D02*
X190300D01*
X176700D02*
X181500D01*
X160700D02*
X171500D01*
X149500D02*
X159500D01*
X144300D02*
X147500D01*
X135500D02*
X140300D01*
X121500D02*
X132700D01*
X185500Y50500D02*
X190300D01*
X176700D02*
X181500D01*
X160700D02*
X171100D01*
X149500D02*
X159900D01*
X144300D02*
X147500D01*
X135500D02*
X139900D01*
X121500D02*
X132300D01*
X185500Y50100D02*
X189900D01*
X176700D02*
X181500D01*
X161100D02*
X171100D01*
X149900D02*
X159900D01*
X144300D02*
X147500D01*
X135500D02*
X139900D01*
X121500D02*
X131900D01*
X185500Y49700D02*
X189900D01*
X177100D02*
X181100D01*
X161500D02*
X170300D01*
X150300D02*
X159900D01*
X144300D02*
X147500D01*
X135500D02*
X139500D01*
X121900D02*
X131500D01*
X185900Y49300D02*
X189900D01*
X177100D02*
X181100D01*
X161900D02*
X169900D01*
X150700D02*
X159500D01*
X144300D02*
X147500D01*
X135500D02*
X139100D01*
X122300D02*
X130700D01*
X185900Y48900D02*
X189500D01*
X177100D02*
X181100D01*
X162700D02*
X169100D01*
X151500D02*
X158300D01*
X144300D02*
X147500D01*
X135500D02*
X138700D01*
X123500D02*
X129900D01*
X186300Y48500D02*
X189500D01*
X177500D02*
X180700D01*
X163900D02*
X167900D01*
X152300D02*
X157100D01*
X144300D02*
X147500D01*
X135900D02*
X138300D01*
X124700D02*
X129100D01*
M02*
