M48
;Layer_Color=9474304
;FILE_FORMAT=2:5
INCH,LZ
;TYPE=PLATED
T1F00S00C0.00600
T2F00S00C0.01000
T3F00S00C0.01200
T4F00S00C0.03543
%
T01
X0291916Y0475289
X0294716
X0297516
X0300316
X0303116
X0305909Y0475096
X0308702Y0474899
X0311502
X0312103Y0481793
X0309303
X0306504Y0481722
X0303722Y0481404
X0300922
X0298122
X0295322
X0292522
X0289722
X0286922
X0284122
X0281322
X0278522
X0275722
X0272922
X0270122
X0267322
X0264522
X0263129Y0483523
X0264407Y0486015
X0267187Y0486342
X0269985Y0486465
X027272Y0487065
X0275245Y0488274
X0277481Y0489959
X0279286Y04921
X0280587Y049458
X028135Y0497273
X0281558Y0500066
Y0502866
Y0505666
Y0508466
X0281564Y0511266
X0282275Y0513974
X028385Y0516289
X0283965Y0519087
X0281712Y0520748
X0278553Y0519288
X0276968Y051698
X0275952Y0514371
X0275504Y0511607
X0275442Y0508808
Y0506007
Y0503207
Y0500408
X027521Y0497617
X0273958Y0495113
X0271819Y0493306
X026914Y0492491
X026634Y0492458
X0263557Y049215
X0259586Y0493427
Y0490626
Y0496227
Y0499026
Y0501826
Y0504627
Y0507427
Y0510226
Y0513027
X025923Y0515804
X0256952Y0517431
X025391Y0515938
X0253471Y0513173
Y0510373
Y0507573
Y0504773
Y0501973
Y0499173
Y0496373
Y0493573
Y0490773
Y0487973
Y0485173
X0253371Y0473338
Y0470538
Y0467738
Y0464938
Y0462138
X0253443Y0459339
X0255026Y045703
X0257826Y0457027
X0259413Y0459334
X0259486Y0462133
Y0464933
Y0467733
Y0470533
X0266716Y0475289
X0269516
X0272316
X0275116
X0277916
X0280716
X0283516
X0286316
X0289116
T02
X0114463Y0008678
X0121758Y0008677
X0121533Y0020075
X0114688Y0020076
X0113545Y0031418
X0120545Y0031432
X0117484Y0042413
X0110129Y0042294
X0112492Y0052662
X0104535Y0052227
X0202199Y0051995
X0211Y0053224
X0205212Y0043403
X0197318Y0041693
X0201537Y0032611
X0194371Y0030681
X0193502Y0019314
X020019Y0021291
X0200199Y0009891
X0193127Y000792
X0295195Y0075392
X0294152Y0082089
X0305552
X0306591Y0075092
X0306292Y0134147
X0304321Y0141355
X029292
X0294892Y0134235
X0283492
X0281521Y0141355
X0270121
X0272092Y0134235
X0260692
X025872Y0141355
X0247321
X0249292Y0134235
X0237892
X0235921Y0141355
X022452
X0226492Y0134235
X0215092
X0213121Y0141355
X020172
X0203692Y0134235
X0192292
X0190321Y0141355
X017892
X0180892Y0134235
X0169492
X016752Y0141355
X0156121
X0158092Y0134235
X0146692
X014472Y0141355
X0135292Y0134235
X0208918Y0061205
X0218715Y0061617
X0217228Y006901
X0227998Y0068233
X0226807Y007519
X0238431Y0072829
X0237383Y0079445
X0248559Y0081696
X0249598Y0075121
X0260995Y0075392
X0259952Y0082089
X0271352
X0272395Y0075392
X0283795
X0282752Y0082089
X0105645Y0061777
X0096984Y0060769
X0097262Y0069503
X0087855Y0067596
X0087616Y0075579
X0077504Y0072372
X0076993Y0079715
X0065799Y0081873
X0066385Y0074888
X0054993Y0075317
X0054403Y0082163
X0043003
X0043593Y0075317
X0032193
X0031603Y0082163
X0020203
X0020793Y0075317
X0009393
X0008805Y0082371
X0009892Y0134235
X0007922Y0141519
X001932Y0141355
X0021292Y0134235
X0032692
X003072Y0141355
X0042121
X0044092Y0134235
X0055492
X0053521Y0141355
X0064921
X0066892Y0134235
X0078292
X007632Y0141355
X0087721
X0089692Y0134235
X0101092
X009912Y0141355
X0110521
X0112492Y0134235
X0123892
X0121921Y0141355
X013332
X012704Y0213113
X0124526Y0219958
X0113126
X011564Y0213113
X010424
X0101726Y0219958
X0090326
X009284Y0213113
X008144
X0078926Y0219958
X0067526
X007004Y0213113
X005864
X0056126Y0219958
X0044726
X004724Y0213113
X003584
X0033326Y0219958
X0021926
X002444Y0213113
X001304
X0010526Y0219958
X0001644Y0212812
X0001863Y0291552
X0013259Y0291853
X0010745Y0298698
X0022145
X0024659Y0291853
X0036059
X0033545Y0298698
X0044945
X0047459Y0291853
X0058859
X0056345Y0298698
X0067745
X0070259Y0291853
X0081659
X0079145Y0298698
X0090545
X0093059Y0291853
X0104459
X0101945Y0298698
X0113345
X0115859Y0291853
X0127259
X0124745Y0298698
X0136145
X0138659Y0291853
X0150059
X0147545Y0298698
X0158945
X0161459Y0291853
X0172859
X0170345Y0298698
X0181745
X0184259Y0291853
X0195659
X0193145Y0298698
X0204545
X0207059Y0291853
X0204326Y0219958
X020684Y0213113
X019544
X0192926Y0219958
X0181526
X018404Y0213113
X017264
X0170126Y0219958
X0158726
X016124Y0213113
X014984
X0147326Y0219958
X0135926
X013844Y0213113
X0135909Y0370593
X0147309
X0144919Y0377438
X0156319
X0158709Y0370593
X0170109
X0167719Y0377438
X0179119
X0181509Y0370593
X0192909
X0190519Y0377438
X0201919
X0204309Y0370593
X0213319Y0377438
X02148Y04812
X01934Y04853
X0133519Y0377438
X0122119
X0124509Y0370593
X0113109
X0110719Y0377438
X0099319
X0101709Y0370593
X0090309
X0087919Y0377438
X0076519
X0078909Y0370593
X0067509
X0065119Y0377438
X0053719
X0056109Y0370593
X0044709
X0042319Y0377438
X0030919
X0033309Y0370593
X0021909
X0019519Y0377438
X0008123Y0377736
X0010509Y0370593
X0005137Y0474702
X0016533Y0475002
X0014019Y0481848
X0025419
X0027933Y0475002
X02352Y05802
X0243764Y0582593
X024125Y0589438
X025265
X0255164Y0582593
X0266564
X026405Y0589438
X027545
X0277964Y0582593
X0289364
X028685Y0589438
X029825
X0300764Y0582593
X0309646Y0589739
T03
X0304361Y0277876
T04
X02046Y05039
X02146
Y05158
X02046
M30
