G04*
G04 #@! TF.GenerationSoftware,Altium Limited,Altium Designer,20.0.9 (164)*
G04*
G04 Layer_Physical_Order=1*
G04 Layer_Color=255*
%FSLAX25Y25*%
%MOIN*%
G70*
G01*
G75*
%ADD13C,0.01000*%
%ADD14C,0.01128*%
%ADD15C,0.01155*%
%ADD16C,0.01372*%
%ADD17C,0.09714*%
%ADD27R,0.06299X0.09714*%
%ADD28R,0.06000X0.09714*%
%ADD34R,0.02362X0.01968*%
%ADD35R,0.00787X0.01555*%
%ADD36R,0.01555X0.00787*%
%ADD37R,0.03937X0.03937*%
%ADD38R,0.20000X0.09000*%
%ADD39R,0.07500X0.02000*%
%ADD40R,0.09000X0.20000*%
%ADD41R,0.02000X0.07500*%
%ADD42C,0.01641*%
%ADD43R,0.05906X0.05906*%
%ADD44C,0.05906*%
%ADD45C,0.00800*%
%ADD46C,0.01400*%
%ADD47C,0.01500*%
G36*
X314420Y609768D02*
Y588016D01*
X305861D01*
Y587735D01*
X233680Y587735D01*
Y591940D01*
X233268D01*
X233268Y610390D01*
X233623Y610742D01*
X314420Y609768D01*
D02*
G37*
G36*
X305861Y584016D02*
X314420D01*
Y562008D01*
X233268D01*
X233268Y580226D01*
X233680D01*
Y584297D01*
X305861Y584297D01*
Y584016D01*
D02*
G37*
G36*
X218157Y594167D02*
X201000D01*
Y590933D01*
X232657D01*
Y587735D01*
X229680D01*
X229600D01*
X228942Y587604D01*
X228384Y587231D01*
X228012Y586674D01*
X227881Y586016D01*
X228012Y585358D01*
X228384Y584800D01*
X228942Y584428D01*
X229600Y584297D01*
X229680D01*
X232657D01*
Y581233D01*
X201000D01*
X201000Y578000D01*
X218157D01*
Y552660D01*
X166687D01*
Y619507D01*
X218157D01*
Y594167D01*
D02*
G37*
G36*
X95611Y552515D02*
X44141D01*
Y577855D01*
X61298D01*
Y581088D01*
X1111D01*
Y590789D01*
X61298D01*
X61298Y594022D01*
X44141D01*
Y619362D01*
X95611D01*
Y552515D01*
D02*
G37*
G36*
X314420Y480346D02*
X305861D01*
Y479941D01*
X262050D01*
X261769Y479885D01*
X261268Y480261D01*
Y481172D01*
X261465D01*
Y482220D01*
X261545Y482340D01*
X261666Y482950D01*
Y483772D01*
X261657Y483818D01*
X261789Y484820D01*
X262194Y485796D01*
X262837Y486635D01*
X263676Y487278D01*
X264652Y487682D01*
X265654Y487814D01*
X265700Y487805D01*
X268500D01*
Y487800D01*
X270315Y487943D01*
X272085Y488368D01*
X273766Y489064D01*
X275318Y490016D01*
X276702Y491198D01*
X277885Y492582D01*
X278836Y494134D01*
X279532Y495815D01*
X279957Y497585D01*
X280100Y499400D01*
X280095D01*
Y510900D01*
X280081Y510971D01*
X280236Y512544D01*
X280715Y514125D01*
X281494Y515582D01*
X282401Y516687D01*
X282397Y516691D01*
X282719Y517173D01*
X282841Y517783D01*
X282719Y518393D01*
X282373Y518911D01*
X281856Y519256D01*
X281246Y519378D01*
X280636Y519256D01*
X280118Y518911D01*
X280095Y518876D01*
X280100Y518871D01*
X279116Y517718D01*
X278164Y516166D01*
X277468Y514485D01*
X277043Y512715D01*
X276900Y510900D01*
X276905D01*
Y499400D01*
X276919Y499329D01*
X276764Y497756D01*
X276285Y496175D01*
X275506Y494719D01*
X274458Y493442D01*
X273182Y492394D01*
X271725Y491615D01*
X270144Y491136D01*
X268571Y490981D01*
X268500Y490995D01*
X265700D01*
Y490999D01*
X264290Y490860D01*
X262934Y490449D01*
X261685Y489781D01*
X260590Y488882D01*
X259691Y487787D01*
X259023Y486537D01*
X258612Y485182D01*
X258123Y485248D01*
Y514458D01*
X258002Y515068D01*
X257656Y515586D01*
X257139Y515932D01*
X256528Y516053D01*
X255918Y515932D01*
X255401Y515586D01*
X255055Y515068D01*
X254934Y514458D01*
Y483702D01*
X254550Y483387D01*
X248014D01*
X247800Y483429D01*
X247500D01*
Y483438D01*
X247385Y483485D01*
X247338Y483600D01*
X247329D01*
X247314Y483678D01*
X247228Y484331D01*
X246946Y485012D01*
X246497Y485597D01*
X245912Y486046D01*
X245231Y486328D01*
X244578Y486414D01*
X244500Y486429D01*
X243750D01*
Y486884D01*
X239161D01*
Y505800D01*
X239167D01*
X239025Y507605D01*
X238602Y509365D01*
X237910Y511037D01*
X236964Y512580D01*
X235788Y513957D01*
X234412Y515133D01*
X232869Y516078D01*
X231196Y516771D01*
X229436Y517194D01*
X227631Y517336D01*
Y517329D01*
X218553D01*
Y519753D01*
X210647D01*
Y511847D01*
X218553D01*
Y514271D01*
X227631D01*
X227700Y514284D01*
X229288Y514128D01*
X230881Y513645D01*
X232349Y512860D01*
X233635Y511804D01*
X234691Y510517D01*
X235476Y509049D01*
X235959Y507456D01*
X236116Y505868D01*
X236102Y505800D01*
Y486884D01*
X235450D01*
Y482916D01*
X235028Y482729D01*
X215571D01*
X215463Y482801D01*
X214800Y482933D01*
X214137Y482801D01*
X213574Y482426D01*
X213199Y481863D01*
X213067Y481200D01*
X213199Y480537D01*
X213574Y479974D01*
X214137Y479599D01*
X214800Y479467D01*
X215463Y479599D01*
X215571Y479671D01*
X235450D01*
Y478816D01*
X239962D01*
X240240Y478316D01*
X240158Y478184D01*
X239287D01*
Y474216D01*
Y470416D01*
X239939D01*
Y465969D01*
X239936D01*
X239865Y465610D01*
X239662Y465306D01*
X239358Y465103D01*
X239000Y465032D01*
Y465029D01*
X214600D01*
X214532Y465016D01*
X212944Y465172D01*
X211351Y465655D01*
X209883Y466440D01*
X208596Y467496D01*
X207540Y468783D01*
X206755Y470251D01*
X206272Y471843D01*
X206116Y473432D01*
X206129Y473500D01*
Y499947D01*
X208553D01*
Y507853D01*
X200647D01*
Y499947D01*
X203071D01*
Y473500D01*
X203064D01*
X203206Y471695D01*
X203629Y469935D01*
X204322Y468263D01*
X205268Y466720D01*
X206443Y465343D01*
X207820Y464167D01*
X209363Y463222D01*
X211035Y462529D01*
X212795Y462107D01*
X214600Y461964D01*
Y461971D01*
X239000D01*
Y461966D01*
X240036Y462102D01*
X241001Y462502D01*
X241830Y463138D01*
X242466Y463967D01*
X242866Y464932D01*
X243003Y465969D01*
X242998D01*
Y470416D01*
X243650D01*
Y474216D01*
Y476785D01*
X254550D01*
X254748Y476824D01*
X255135Y476507D01*
Y476333D01*
X254955Y476064D01*
X254834Y475454D01*
Y459700D01*
X254955Y459090D01*
X255301Y458572D01*
X255818Y458227D01*
X256428Y458105D01*
X257039Y458227D01*
X257556Y458572D01*
X257902Y459090D01*
X258023Y459700D01*
Y475454D01*
X257968Y475732D01*
X258246Y476154D01*
X258759Y476184D01*
X258823Y476119D01*
X259043Y475732D01*
X258987Y475450D01*
Y474500D01*
X259069Y474085D01*
X259304Y473733D01*
X259656Y473498D01*
X260072Y473415D01*
X260487Y473498D01*
X260839Y473733D01*
X261074Y474085D01*
X261157Y474500D01*
Y475450D01*
X261101Y475732D01*
X261268Y476231D01*
D01*
X261553Y476614D01*
X261769Y476775D01*
X262050Y476719D01*
X262212Y476752D01*
X305861D01*
Y476346D01*
X314420D01*
Y425197D01*
X196850D01*
X196850Y511139D01*
X197396Y511804D01*
X198683Y512860D01*
X200151Y513645D01*
X201096Y513931D01*
X201147Y513807D01*
X201781Y512981D01*
X202607Y512347D01*
X203568Y511949D01*
X204600Y511813D01*
X205632Y511949D01*
X206593Y512347D01*
X207419Y512981D01*
X208053Y513807D01*
X208451Y514768D01*
X208587Y515800D01*
X208451Y516832D01*
X208053Y517793D01*
X207419Y518619D01*
X206593Y519253D01*
X205632Y519651D01*
X204600Y519787D01*
X203568Y519651D01*
X202607Y519253D01*
X201781Y518619D01*
X201147Y517793D01*
X200822Y517008D01*
X199835Y516771D01*
X198163Y516078D01*
X197287Y515541D01*
X196850Y515786D01*
Y523622D01*
X314420D01*
Y480346D01*
D02*
G37*
G36*
X30512Y481624D02*
X30063Y480784D01*
X29869Y480144D01*
X9100D01*
Y480425D01*
X541D01*
Y501968D01*
X30512D01*
Y481624D01*
D02*
G37*
G36*
X30063Y476279D02*
X30512Y475439D01*
Y454724D01*
X541D01*
Y476425D01*
X9100D01*
Y476706D01*
X29933D01*
X30063Y476279D01*
D02*
G37*
G36*
X137313Y445110D02*
X85843D01*
Y470450D01*
X103000D01*
Y473683D01*
X80167D01*
X79998Y474154D01*
X80261Y474370D01*
X80993Y475262D01*
X81537Y476279D01*
X81872Y477383D01*
X81985Y478532D01*
X81872Y479680D01*
X81537Y480784D01*
X80993Y481801D01*
X80261Y482693D01*
X79994Y482913D01*
X80162Y483383D01*
X103000D01*
X103000Y486617D01*
X85843D01*
Y511957D01*
X137313D01*
Y445110D01*
D02*
G37*
G36*
X216535Y379657D02*
X216100D01*
Y375735D01*
X9100D01*
Y376016D01*
X541D01*
Y421260D01*
X216535D01*
X216535Y379657D01*
D02*
G37*
G36*
X314420Y368970D02*
X217120D01*
Y372297D01*
X217271D01*
X217929Y372428D01*
X218486Y372800D01*
X218859Y373358D01*
X218990Y374016D01*
X218859Y374674D01*
X218486Y375231D01*
X217929Y375604D01*
X217271Y375735D01*
X217120D01*
Y378684D01*
X314420D01*
Y368970D01*
D02*
G37*
G36*
X216100Y367943D02*
X216535D01*
X216535Y301038D01*
X215464Y300713D01*
X214447Y300169D01*
X213555Y299437D01*
X212823Y298545D01*
X212279Y297528D01*
X212118Y296995D01*
X9100Y296995D01*
Y297276D01*
X541D01*
X541Y372016D01*
X9100D01*
Y372297D01*
X216100D01*
Y367943D01*
D02*
G37*
G36*
X212279Y293023D02*
X212823Y292006D01*
X213555Y291114D01*
X214447Y290382D01*
X215464Y289838D01*
X216535Y289513D01*
X216535Y220157D01*
X216455Y220101D01*
X215052Y219252D01*
X214428Y218935D01*
X213834Y218677D01*
X213281Y218481D01*
X212772Y218345D01*
X212309Y218268D01*
X212087Y218254D01*
X9100Y218254D01*
Y218535D01*
X541D01*
Y293276D01*
X9100D01*
Y293557D01*
X212118Y293557D01*
X212279Y293023D01*
D02*
G37*
G36*
X218592Y212687D02*
X217786Y213288D01*
X216264Y214300D01*
X215548Y214711D01*
X214208Y215343D01*
X213583Y215565D01*
X212988Y215723D01*
X212424Y215818D01*
X211890Y215849D01*
Y217221D01*
X212424Y217253D01*
X212988Y217348D01*
X213583Y217506D01*
X214208Y217727D01*
X214863Y218012D01*
X215548Y218360D01*
X217010Y219246D01*
X217786Y219783D01*
X218592Y220384D01*
Y212687D01*
D02*
G37*
G36*
X212309Y214803D02*
X212772Y214725D01*
X213281Y214590D01*
X213819Y214400D01*
X215076Y213806D01*
X215727Y213432D01*
X216535Y212895D01*
X216535Y169291D01*
X541D01*
Y214535D01*
X9100D01*
Y214816D01*
X212087Y214816D01*
X212309Y214803D01*
D02*
G37*
G36*
X314420Y139795D02*
X305861D01*
Y139652D01*
X9100D01*
Y139795D01*
X541D01*
Y165354D01*
X314420Y165354D01*
Y139795D01*
D02*
G37*
G36*
X305861Y135795D02*
X314420D01*
X314420Y80740D01*
X305861D01*
Y80349D01*
X255102D01*
Y80364D01*
X250405Y80179D01*
X245736Y79627D01*
X241125Y78710D01*
X236600Y77433D01*
X232189Y75806D01*
X227920Y73838D01*
X223817Y71540D01*
X219908Y68929D01*
X216216Y66018D01*
X212764Y62827D01*
X209573Y59374D01*
X206662Y55682D01*
X204050Y51773D01*
X201753Y47671D01*
X199785Y43402D01*
X198157Y38991D01*
X196881Y34466D01*
X195964Y29855D01*
X195411Y25186D01*
X195227Y20488D01*
X195242D01*
Y9100D01*
X194850D01*
Y541D01*
X120110D01*
Y9100D01*
X119829D01*
Y20458D01*
X119843D01*
X119658Y25166D01*
X119104Y29846D01*
X118184Y34468D01*
X116905Y39003D01*
X115274Y43424D01*
X113301Y47704D01*
X110999Y51815D01*
X108381Y55734D01*
X105463Y59434D01*
X102265Y62894D01*
X98804Y66093D01*
X95104Y69011D01*
X91185Y71629D01*
X87074Y73931D01*
X82794Y75904D01*
X78373Y77535D01*
X73838Y78814D01*
X69216Y79734D01*
X64536Y80287D01*
X59828Y80472D01*
Y80459D01*
X9100D01*
Y80740D01*
X541D01*
X541Y135795D01*
X9100D01*
Y135939D01*
X305861D01*
Y135795D01*
D02*
G37*
G36*
X255102Y77132D02*
X305861D01*
Y76740D01*
X314420D01*
Y541D01*
X198850D01*
Y9100D01*
X198459D01*
Y20488D01*
X198438Y20591D01*
X198609Y24934D01*
X199132Y29353D01*
X200000Y33717D01*
X201208Y38000D01*
X202748Y42174D01*
X204611Y46215D01*
X206785Y50097D01*
X209257Y53797D01*
X212012Y57291D01*
X215032Y60559D01*
X218299Y63579D01*
X221794Y66334D01*
X225493Y68806D01*
X229376Y70980D01*
X233417Y72843D01*
X237591Y74383D01*
X241874Y75591D01*
X246238Y76459D01*
X250656Y76982D01*
X254999Y77152D01*
X255102Y77132D01*
D02*
G37*
G36*
X64268Y76873D02*
X68680Y76351D01*
X73039Y75484D01*
X77315Y74278D01*
X81484Y72740D01*
X85519Y70880D01*
X89396Y68709D01*
X93091Y66240D01*
X96580Y63489D01*
X99843Y60473D01*
X102859Y57210D01*
X105610Y53720D01*
X108079Y50026D01*
X110250Y46149D01*
X112110Y42114D01*
X113648Y37945D01*
X114854Y33668D01*
X115721Y29310D01*
X116244Y24898D01*
X116413Y20570D01*
X116391Y20458D01*
Y9100D01*
X116110D01*
Y541D01*
X541D01*
Y76740D01*
X9100D01*
Y77021D01*
X59828D01*
X59940Y77043D01*
X64268Y76873D01*
D02*
G37*
D13*
X245800Y483600D02*
G03*
X247500Y481900I1700J0D01*
G01*
X245800Y483600D02*
G03*
X244500Y484900I-1300J0D01*
G01*
X237632Y505800D02*
G03*
X227631Y515800I-10000J0D01*
G01*
X237632Y480800D02*
G03*
X237231Y481200I-400J0D01*
G01*
X203400Y515800D02*
G03*
X193400Y505800I0J-10000D01*
G01*
X239000Y463500D02*
G03*
X241469Y465969I0J2468D01*
G01*
X204600Y473500D02*
G03*
X214600Y463500I10000J0D01*
G01*
X243583Y478314D02*
G03*
X241469Y476200I0J-2114D01*
G01*
X241568Y480800D02*
G03*
X242283Y480086I714J0D01*
G01*
X247500Y481900D02*
X247800D01*
X241568Y484900D02*
X244500D01*
X247800Y481857D02*
Y481900D01*
Y481857D02*
X254550D01*
X237632Y484900D02*
Y505800D01*
X214600Y515800D02*
X227631D01*
X203400D02*
X204600D01*
X214800Y481200D02*
X237231D01*
X193400Y485300D02*
Y505800D01*
X241469Y472400D02*
Y476200D01*
X214600Y463500D02*
X239000D01*
X204600Y473500D02*
Y505900D01*
X241469Y465969D02*
Y472400D01*
X243583Y478314D02*
X254550D01*
X242283Y480086D02*
X254550D01*
D14*
X268500Y489400D02*
G03*
X278500Y499400I0J10000D01*
G01*
X265700Y489400D02*
G03*
X260072Y483772I0J-5628D01*
G01*
X281246Y517783D02*
G03*
X278500Y510900I7254J-6883D01*
G01*
X260072Y482950D02*
Y483772D01*
X265700Y489400D02*
X268500D01*
X278500Y499400D02*
Y510900D01*
X256528Y482950D02*
Y514458D01*
X256428Y459700D02*
Y475454D01*
X260072Y474500D02*
Y475450D01*
X262050Y478346D02*
X310611D01*
X262050Y478314D02*
Y478346D01*
D15*
X255102Y78740D02*
G03*
X196850Y20488I0J-58252D01*
G01*
X255102Y78740D02*
X310910D01*
X196850Y4350D02*
Y20488D01*
D16*
X35425Y478425D02*
G03*
X35500Y478500I0J75D01*
G01*
X118110Y20458D02*
G03*
X59828Y78740I-58283J0D01*
G01*
X229680Y586016D02*
X310611Y586016D01*
X229600Y586016D02*
X229680D01*
X4334Y478425D02*
X35425D01*
X4350Y216535D02*
X221555Y216535D01*
X1300Y216535D02*
X4350D01*
Y295276D02*
X215650Y295276D01*
X118110Y4350D02*
Y20458D01*
X4350Y78740D02*
X59828D01*
X4350Y374016D02*
X217271D01*
X118110Y4350D02*
X118110D01*
D17*
X35500Y478532D02*
X76100D01*
X221555Y216535D02*
X308071Y216535D01*
X217717Y295276D02*
X308071D01*
D27*
X79500Y478532D02*
D03*
D28*
X229680Y586083D02*
D03*
X220100Y373800D02*
D03*
D34*
X241568Y484900D02*
D03*
X237632D02*
D03*
X241568Y480800D02*
D03*
X237632D02*
D03*
X241469Y472400D02*
D03*
X237531D02*
D03*
X241469Y476200D02*
D03*
X237531D02*
D03*
D35*
X260072Y482950D02*
D03*
X258300D02*
D03*
X256528D02*
D03*
Y475450D02*
D03*
X258300D02*
D03*
X260072D02*
D03*
D36*
X254550Y481857D02*
D03*
Y480086D02*
D03*
Y478314D02*
D03*
Y476543D02*
D03*
X262050D02*
D03*
Y478314D02*
D03*
Y480086D02*
D03*
Y481857D02*
D03*
D37*
X258300Y479200D02*
D03*
D38*
X304361Y495747D02*
D03*
Y460947D02*
D03*
X10600Y356616D02*
D03*
Y391416D02*
D03*
X304361D02*
D03*
Y356616D02*
D03*
X304361Y603416D02*
D03*
Y568616D02*
D03*
X10600Y568615D02*
D03*
Y603415D02*
D03*
X10600Y277876D02*
D03*
Y312676D02*
D03*
X304361Y233935D02*
D03*
Y199135D02*
D03*
X304361Y155195D02*
D03*
Y120395D02*
D03*
X304361Y96140D02*
D03*
Y61340D02*
D03*
X10600D02*
D03*
Y96140D02*
D03*
X304361Y312676D02*
D03*
Y277876D02*
D03*
X10600Y199135D02*
D03*
Y233935D02*
D03*
Y120395D02*
D03*
Y155195D02*
D03*
X10600Y461025D02*
D03*
Y495825D02*
D03*
D39*
X310611Y478346D02*
D03*
X4350Y374016D02*
D03*
X310611D02*
D03*
X310611Y586016D02*
D03*
X4350Y586015D02*
D03*
X4350Y295276D02*
D03*
X310611Y216535D02*
D03*
X310611Y137795D02*
D03*
X310611Y78740D02*
D03*
X4350D02*
D03*
X310611Y295276D02*
D03*
X4350Y216535D02*
D03*
Y137795D02*
D03*
X4350Y478425D02*
D03*
D40*
X214250Y10600D02*
D03*
X179450D02*
D03*
X135510D02*
D03*
X100710D02*
D03*
D41*
X196850Y4350D02*
D03*
X118110D02*
D03*
D42*
X4350Y137795D02*
X310611D01*
D43*
X214600Y515800D02*
D03*
X204600Y503900D02*
D03*
D44*
Y515800D02*
D03*
X214600Y503900D02*
D03*
D45*
X312103Y481793D02*
D03*
X309303D02*
D03*
X306504Y481722D02*
D03*
X303722Y481404D02*
D03*
X300922D02*
D03*
X298122D02*
D03*
X295322D02*
D03*
X292522D02*
D03*
X289722D02*
D03*
X286922D02*
D03*
X284122D02*
D03*
X281322D02*
D03*
X278522D02*
D03*
X275722D02*
D03*
X272922D02*
D03*
X270122D02*
D03*
X267322D02*
D03*
X264522D02*
D03*
X266716Y475289D02*
D03*
X269516D02*
D03*
X272316D02*
D03*
X275116D02*
D03*
X277916D02*
D03*
X280716D02*
D03*
X283516D02*
D03*
X286316D02*
D03*
X289116D02*
D03*
X291916D02*
D03*
X294716D02*
D03*
X297516D02*
D03*
X300316D02*
D03*
X303116D02*
D03*
X305909Y475096D02*
D03*
X308702Y474899D02*
D03*
X311502D02*
D03*
X278553Y519288D02*
D03*
X276968Y516980D02*
D03*
X275952Y514371D02*
D03*
X275504Y511607D02*
D03*
X275442Y508808D02*
D03*
Y506007D02*
D03*
Y503207D02*
D03*
Y500408D02*
D03*
X275210Y497617D02*
D03*
X273958Y495113D02*
D03*
X271819Y493306D02*
D03*
X269140Y492491D02*
D03*
X266340Y492458D02*
D03*
X263557Y492150D02*
D03*
X263129Y483523D02*
D03*
X264407Y486015D02*
D03*
X267187Y486342D02*
D03*
X269985Y486465D02*
D03*
X272720Y487065D02*
D03*
X275245Y488274D02*
D03*
X277481Y489959D02*
D03*
X279286Y492100D02*
D03*
X280587Y494580D02*
D03*
X281350Y497273D02*
D03*
X281558Y500066D02*
D03*
Y502866D02*
D03*
Y505666D02*
D03*
Y508466D02*
D03*
X281564Y511266D02*
D03*
X282275Y513974D02*
D03*
X283850Y516289D02*
D03*
X283965Y519087D02*
D03*
X281712Y520748D02*
D03*
X253910Y515938D02*
D03*
X253471Y513173D02*
D03*
Y510373D02*
D03*
Y507573D02*
D03*
Y504773D02*
D03*
Y501973D02*
D03*
Y499173D02*
D03*
Y496373D02*
D03*
Y493573D02*
D03*
Y490773D02*
D03*
Y487973D02*
D03*
Y485173D02*
D03*
X259586Y490626D02*
D03*
Y493427D02*
D03*
Y496227D02*
D03*
Y499026D02*
D03*
Y501826D02*
D03*
Y504627D02*
D03*
Y507427D02*
D03*
Y510226D02*
D03*
Y513027D02*
D03*
X259230Y515804D02*
D03*
X256952Y517431D02*
D03*
X253371Y473338D02*
D03*
Y470538D02*
D03*
Y467738D02*
D03*
Y464938D02*
D03*
Y462138D02*
D03*
X253443Y459339D02*
D03*
X255026Y457030D02*
D03*
X257826Y457027D02*
D03*
X259413Y459334D02*
D03*
X259486Y462133D02*
D03*
Y464933D02*
D03*
Y467733D02*
D03*
Y470533D02*
D03*
D46*
X214800Y481200D02*
D03*
X193400Y485300D02*
D03*
X235200Y580200D02*
D03*
X243764Y582593D02*
D03*
X255164D02*
D03*
X266564D02*
D03*
X277964D02*
D03*
X289364D02*
D03*
X300764D02*
D03*
X309646Y589739D02*
D03*
X298250Y589438D02*
D03*
X286850D02*
D03*
X275450D02*
D03*
X264050D02*
D03*
X252650D02*
D03*
X241250D02*
D03*
X25419Y481848D02*
D03*
X14019D02*
D03*
X5137Y474702D02*
D03*
X16533Y475002D02*
D03*
X27933D02*
D03*
X122119Y377438D02*
D03*
X65119D02*
D03*
X181509Y370593D02*
D03*
X53719Y377438D02*
D03*
X110719D02*
D03*
X192909Y370593D02*
D03*
X10509D02*
D03*
X201919Y377438D02*
D03*
X133519D02*
D03*
X33309Y370593D02*
D03*
X144919Y377438D02*
D03*
X167719D02*
D03*
X78909Y370593D02*
D03*
X30919Y377438D02*
D03*
X179119D02*
D03*
X42319D02*
D03*
X170109Y370593D02*
D03*
X87919Y377438D02*
D03*
X156319D02*
D03*
X190519D02*
D03*
X113109Y370593D02*
D03*
X67509D02*
D03*
X44709D02*
D03*
X21909D02*
D03*
X213319Y377438D02*
D03*
X101709Y370593D02*
D03*
X90309D02*
D03*
X8123Y377736D02*
D03*
X19519Y377438D02*
D03*
X135909Y370593D02*
D03*
X99319Y377438D02*
D03*
X147309Y370593D02*
D03*
X204309D02*
D03*
X124509D02*
D03*
X56109D02*
D03*
X76519Y377438D02*
D03*
X158709Y370593D02*
D03*
X204326Y219958D02*
D03*
X192926D02*
D03*
X181526D02*
D03*
X170126D02*
D03*
X158726D02*
D03*
X147326D02*
D03*
X135926D02*
D03*
X124526D02*
D03*
X113126D02*
D03*
X101726D02*
D03*
X90326D02*
D03*
X78926D02*
D03*
X67526D02*
D03*
X56126D02*
D03*
X44726D02*
D03*
X33326D02*
D03*
X21926D02*
D03*
X10526D02*
D03*
X1644Y212812D02*
D03*
X13040Y213113D02*
D03*
X24440D02*
D03*
X35840D02*
D03*
X47240D02*
D03*
X58640D02*
D03*
X70040D02*
D03*
X81440D02*
D03*
X92840D02*
D03*
X104240D02*
D03*
X115640D02*
D03*
X127040D02*
D03*
X138440D02*
D03*
X149840D02*
D03*
X161240D02*
D03*
X172640D02*
D03*
X184040D02*
D03*
X195440D02*
D03*
X206840D02*
D03*
X204545Y298698D02*
D03*
X193145D02*
D03*
X181745D02*
D03*
X170345D02*
D03*
X158945D02*
D03*
X147545D02*
D03*
X136145D02*
D03*
X124745D02*
D03*
X113345D02*
D03*
X101945D02*
D03*
X90545D02*
D03*
X79145D02*
D03*
X67745D02*
D03*
X56345D02*
D03*
X44945D02*
D03*
X33545D02*
D03*
X22145D02*
D03*
X10745D02*
D03*
X1863Y291552D02*
D03*
X13259Y291853D02*
D03*
X24659D02*
D03*
X36059D02*
D03*
X47459D02*
D03*
X58859D02*
D03*
X70259D02*
D03*
X81659D02*
D03*
X93059D02*
D03*
X104459D02*
D03*
X115859D02*
D03*
X127259D02*
D03*
X138659D02*
D03*
X150059D02*
D03*
X161459D02*
D03*
X172859D02*
D03*
X184259D02*
D03*
X195659D02*
D03*
X207059D02*
D03*
X305552Y82089D02*
D03*
X294152D02*
D03*
X282752D02*
D03*
X271352D02*
D03*
X259952D02*
D03*
X248559Y81696D02*
D03*
X237383Y79445D02*
D03*
X226807Y75190D02*
D03*
X217228Y69010D02*
D03*
X208918Y61205D02*
D03*
X202199Y51995D02*
D03*
X197318Y41693D02*
D03*
X194371Y30681D02*
D03*
X193502Y19314D02*
D03*
X193127Y7920D02*
D03*
X200199Y9891D02*
D03*
X200190Y21291D02*
D03*
X201537Y32611D02*
D03*
X205212Y43403D02*
D03*
X211000Y53224D02*
D03*
X218715Y61617D02*
D03*
X227998Y68233D02*
D03*
X238431Y72829D02*
D03*
X249598Y75121D02*
D03*
X260995Y75392D02*
D03*
X272395D02*
D03*
X283795D02*
D03*
X295195D02*
D03*
X306591Y75092D02*
D03*
X9393Y75317D02*
D03*
X20793D02*
D03*
X32193D02*
D03*
X43593D02*
D03*
X54993D02*
D03*
X66385Y74888D02*
D03*
X77504Y72372D02*
D03*
X87855Y67596D02*
D03*
X96984Y60769D02*
D03*
X104535Y52227D02*
D03*
X110129Y42294D02*
D03*
X113545Y31418D02*
D03*
X114688Y20076D02*
D03*
X114463Y8678D02*
D03*
X121758Y8677D02*
D03*
X121533Y20075D02*
D03*
X120545Y31432D02*
D03*
X117484Y42413D02*
D03*
X112492Y52662D02*
D03*
X105645Y61777D02*
D03*
X97262Y69503D02*
D03*
X87616Y75579D02*
D03*
X76993Y79715D02*
D03*
X65799Y81873D02*
D03*
X54403Y82163D02*
D03*
X43003D02*
D03*
X31603D02*
D03*
X20203D02*
D03*
X8805Y82371D02*
D03*
X304321Y141355D02*
D03*
X292920D02*
D03*
X281521D02*
D03*
X270121D02*
D03*
X258720D02*
D03*
X247321D02*
D03*
X235921D02*
D03*
X224520D02*
D03*
X213121D02*
D03*
X201720D02*
D03*
X190321D02*
D03*
X178920D02*
D03*
X167520D02*
D03*
X156121D02*
D03*
X144720D02*
D03*
X133320D02*
D03*
X121921D02*
D03*
X110521D02*
D03*
X99120D02*
D03*
X87721D02*
D03*
X76320D02*
D03*
X64921D02*
D03*
X53521D02*
D03*
X42121D02*
D03*
X30720D02*
D03*
X19320D02*
D03*
X7922Y141519D02*
D03*
X9892Y134235D02*
D03*
X21292D02*
D03*
X32692D02*
D03*
X44092D02*
D03*
X55492D02*
D03*
X66892D02*
D03*
X78292D02*
D03*
X89692D02*
D03*
X101092D02*
D03*
X112492D02*
D03*
X123892D02*
D03*
X135292D02*
D03*
X146692D02*
D03*
X158092D02*
D03*
X169492D02*
D03*
X180892D02*
D03*
X192292D02*
D03*
X203692D02*
D03*
X215092D02*
D03*
X226492D02*
D03*
X237892D02*
D03*
X249292D02*
D03*
X260692D02*
D03*
X272092D02*
D03*
X283492D02*
D03*
X294892D02*
D03*
X306292Y134147D02*
D03*
D47*
X304361Y277876D02*
D03*
M02*
