G04*
G04 #@! TF.GenerationSoftware,Altium Limited,Altium Designer,19.1.8 (144)*
G04*
G04 Layer_Physical_Order=1*
G04 Layer_Color=255*
%FSLAX25Y25*%
%MOIN*%
G70*
G01*
G75*
%ADD16R,0.00787X0.01555*%
%ADD17R,0.01555X0.00787*%
%ADD18R,0.03937X0.03937*%
%ADD19R,0.06693X0.04331*%
%ADD20C,0.01000*%
%ADD21C,0.01128*%
D16*
X57928Y23150D02*
D03*
X59700D02*
D03*
X61472D02*
D03*
Y30650D02*
D03*
X59700D02*
D03*
X57928D02*
D03*
D17*
X63450Y24242D02*
D03*
Y26014D02*
D03*
Y27786D02*
D03*
Y29557D02*
D03*
X55950D02*
D03*
Y27786D02*
D03*
Y26014D02*
D03*
Y24242D02*
D03*
D18*
X59700Y26900D02*
D03*
D19*
X48100Y11446D02*
D03*
Y817D02*
D03*
X52000Y11446D02*
D03*
Y817D02*
D03*
X61000Y12615D02*
D03*
Y1985D02*
D03*
X65750Y12757D02*
D03*
Y2128D02*
D03*
D20*
X58631Y11427D02*
X60450Y9608D01*
X53778Y14973D02*
Y15493D01*
X51510Y12933D02*
X53550Y14973D01*
X51075Y12933D02*
X51510D01*
X48550Y10408D02*
X51075Y12933D01*
X48550Y10211D02*
Y10408D01*
X55444Y9449D02*
Y13865D01*
X55550Y13972D01*
X57444Y12614D02*
Y15149D01*
X55444Y9449D02*
X55450Y9443D01*
X55550Y13972D02*
Y15493D01*
X57444Y12614D02*
X58631Y11427D01*
X60450Y9411D02*
Y9608D01*
Y9411D02*
X65750D01*
D21*
X4538Y20128D02*
X51800D01*
X20292Y16585D02*
X51800D01*
X59388Y18357D02*
X75142D01*
X57000Y30692D02*
Y32500D01*
Y30692D02*
X57042Y30650D01*
X52200Y26900D02*
X55950D01*
M02*
