G04*
G04 #@! TF.GenerationSoftware,Altium Limited,Altium Designer,20.0.9 (164)*
G04*
G04 Layer_Physical_Order=1*
G04 Layer_Color=255*
%FSLAX25Y25*%
%MOIN*%
G70*
G01*
G75*
%ADD15C,0.01000*%
%ADD18C,0.01595*%
%ADD19C,0.01595*%
%ADD20C,0.01183*%
%ADD36R,0.07500X0.02000*%
%ADD37R,0.20000X0.09000*%
%ADD38R,0.02362X0.01968*%
%ADD39R,0.01968X0.02362*%
%ADD40O,0.03150X0.01024*%
%ADD41O,0.01024X0.03150*%
%ADD42R,0.06693X0.06693*%
%ADD43R,0.01614X0.01299*%
%ADD44R,0.05906X0.05906*%
%ADD45C,0.08071*%
%ADD46R,0.01299X0.01614*%
%ADD47C,0.01364*%
%ADD48C,0.01529*%
%ADD49C,0.05906*%
%ADD50C,0.01200*%
%ADD51C,0.01400*%
%ADD52C,0.01500*%
G36*
X589532Y372000D02*
X580451D01*
Y371821D01*
X10100D01*
Y372000D01*
X1020D01*
Y392681D01*
X589532D01*
Y372000D01*
D02*
G37*
G36*
X329022Y352167D02*
X329502Y351846D01*
X329822Y351367D01*
X329933Y350809D01*
X329932Y350801D01*
Y280912D01*
X329922D01*
X330059Y279521D01*
X330465Y278184D01*
X331123Y276951D01*
X332010Y275871D01*
X333090Y274984D01*
X334323Y274325D01*
X335660Y273920D01*
X336571Y273830D01*
X337051Y273783D01*
X337051Y273783D01*
X337051D01*
Y273783D01*
X337531Y273830D01*
X338442Y273920D01*
X339779Y274325D01*
X341012Y274984D01*
X342092Y275871D01*
X342979Y276951D01*
X343637Y278184D01*
X344043Y279521D01*
X344180Y280912D01*
X344170D01*
Y319396D01*
X344169Y319404D01*
X344280Y319962D01*
X344600Y320441D01*
X345080Y320762D01*
X345638Y320873D01*
X345646Y320872D01*
X345654Y320873D01*
X346212Y320762D01*
X346691Y320441D01*
X347012Y319962D01*
X347031Y319863D01*
X347111Y319396D01*
X347111D01*
X347248Y318005D01*
X347654Y316668D01*
X348313Y315435D01*
X349200Y314355D01*
X350280Y313468D01*
X351512Y312809D01*
X352850Y312404D01*
X354240Y312267D01*
Y312277D01*
X389329D01*
X389428Y311777D01*
X388372Y311339D01*
X386655Y310287D01*
X385123Y308979D01*
X383815Y307447D01*
X382762Y305729D01*
X381991Y303868D01*
X381521Y301910D01*
X381363Y299902D01*
X381379D01*
Y204600D01*
X381363D01*
X381521Y202592D01*
X381991Y200633D01*
X382762Y198772D01*
X383815Y197055D01*
X385123Y195523D01*
X386655Y194215D01*
X388372Y193162D01*
X390233Y192391D01*
X392192Y191921D01*
X394200Y191763D01*
Y191779D01*
X520000D01*
X520038Y191783D01*
X521402Y191649D01*
X522750Y191240D01*
X523993Y190576D01*
X525082Y189682D01*
X525976Y188593D01*
X526640Y187350D01*
X527049Y186002D01*
X527183Y184638D01*
X527178Y184600D01*
Y170000D01*
Y156269D01*
Y147674D01*
Y143377D01*
X527179Y143369D01*
X527069Y142811D01*
X526748Y142331D01*
X526268Y142011D01*
X525710Y141900D01*
X525703Y141901D01*
X517846D01*
Y141911D01*
X516455Y141774D01*
X515118Y141368D01*
X513885Y140709D01*
X512805Y139823D01*
X511918Y138742D01*
X511259Y137510D01*
X510854Y136173D01*
X510764Y135262D01*
X510717Y134782D01*
X510717Y134782D01*
Y134782D01*
X510717D01*
X510764Y134301D01*
X510854Y133391D01*
X511259Y132054D01*
X511918Y130821D01*
X512805Y129741D01*
X513885Y128854D01*
X515118Y128195D01*
X516455Y127790D01*
X517846Y127653D01*
Y127663D01*
X565703D01*
X565710Y127664D01*
X566268Y127553D01*
X566748Y127232D01*
X567068Y126753D01*
X567179Y126195D01*
X567178Y126187D01*
X567179Y126179D01*
X567068Y125621D01*
X566748Y125142D01*
X566268Y124821D01*
X565710Y124710D01*
X565703Y124711D01*
X494297D01*
Y124721D01*
X492907Y124584D01*
X491569Y124179D01*
X490337Y123520D01*
X489256Y122633D01*
X488370Y121553D01*
X487711Y120320D01*
X487305Y118983D01*
X487216Y118073D01*
X487168Y117592D01*
X487168Y117592D01*
Y117592D01*
X487168D01*
X487216Y117112D01*
X487305Y116201D01*
X487711Y114864D01*
X488370Y113631D01*
X489256Y112551D01*
X490337Y111665D01*
X491569Y111006D01*
X492907Y110600D01*
X494297Y110463D01*
Y110473D01*
X525703D01*
X525710Y110474D01*
X526268Y110363D01*
X526748Y110043D01*
X527069Y109563D01*
X527179Y109005D01*
X527178Y108997D01*
Y108200D01*
Y65800D01*
X527183Y65762D01*
X527049Y64398D01*
X526640Y63050D01*
X525976Y61807D01*
X525082Y60718D01*
X523993Y59824D01*
X522750Y59160D01*
X521402Y58751D01*
X520038Y58617D01*
X520000Y58622D01*
X505693D01*
Y58632D01*
X504303Y58495D01*
X502965Y58089D01*
X501733Y57430D01*
X500652Y56544D01*
X499766Y55463D01*
X499107Y54231D01*
X498701Y52893D01*
X498564Y51503D01*
X498575D01*
Y20097D01*
X498576Y20090D01*
X498465Y19532D01*
X498144Y19052D01*
X497664Y18732D01*
X497106Y18620D01*
X497099Y18621D01*
X497091Y18620D01*
X496533Y18732D01*
X496053Y19052D01*
X495733Y19532D01*
X495622Y20090D01*
X495623Y20097D01*
Y91503D01*
X495633D01*
X495496Y92893D01*
X495090Y94231D01*
X494431Y95463D01*
X493545Y96544D01*
X492465Y97430D01*
X491232Y98089D01*
X489895Y98495D01*
X488984Y98584D01*
X488504Y98632D01*
X488504Y98632D01*
X488504D01*
Y98632D01*
X488024Y98584D01*
X487113Y98495D01*
X485776Y98089D01*
X484543Y97430D01*
X483463Y96544D01*
X482576Y95463D01*
X481917Y94231D01*
X481512Y92893D01*
X481375Y91503D01*
X481385D01*
Y20097D01*
X481386Y20090D01*
X481275Y19532D01*
X480955Y19052D01*
X480475Y18732D01*
X479917Y18620D01*
X479909Y18621D01*
X479901Y18620D01*
X479343Y18732D01*
X478864Y19052D01*
X478543Y19532D01*
X478432Y20090D01*
X478433Y20097D01*
Y91503D01*
X478443D01*
X478306Y92893D01*
X477901Y94231D01*
X477242Y95463D01*
X476355Y96544D01*
X475275Y97430D01*
X474043Y98089D01*
X472705Y98495D01*
X471795Y98584D01*
X471314Y98632D01*
X471314Y98632D01*
X471314D01*
Y98632D01*
X470834Y98584D01*
X469924Y98495D01*
X468586Y98089D01*
X467354Y97430D01*
X466273Y96544D01*
X465387Y95463D01*
X464728Y94231D01*
X464322Y92893D01*
X464185Y91503D01*
X464195D01*
Y20097D01*
X464196Y20090D01*
X464085Y19532D01*
X463765Y19052D01*
X463285Y18732D01*
X462727Y18620D01*
X462720Y18621D01*
X462712Y18620D01*
X462154Y18732D01*
X461674Y19052D01*
X461354Y19532D01*
X461243Y20090D01*
X461244Y20097D01*
Y91503D01*
X461254D01*
X461117Y92893D01*
X460711Y94231D01*
X460052Y95463D01*
X459166Y96544D01*
X458086Y97430D01*
X456853Y98089D01*
X455516Y98495D01*
X454605Y98584D01*
X454125Y98632D01*
X454125Y98632D01*
X454125D01*
Y98632D01*
X453644Y98584D01*
X452734Y98495D01*
X451397Y98089D01*
X450164Y97430D01*
X449084Y96544D01*
X448197Y95463D01*
X447538Y94231D01*
X447133Y92893D01*
X446996Y91503D01*
X447006D01*
Y20097D01*
X447007Y20090D01*
X446896Y19532D01*
X446575Y19052D01*
X446096Y18732D01*
X445538Y18620D01*
X445530Y18621D01*
X445522Y18620D01*
X444964Y18732D01*
X444485Y19052D01*
X444164Y19532D01*
X444053Y20090D01*
X444054Y20097D01*
Y91503D01*
X444064D01*
X443927Y92893D01*
X443522Y94231D01*
X442863Y95463D01*
X441976Y96544D01*
X440896Y97430D01*
X439664Y98089D01*
X438326Y98495D01*
X437416Y98584D01*
X436935Y98632D01*
X436935Y98632D01*
X436935D01*
Y98632D01*
X436455Y98584D01*
X435544Y98495D01*
X434207Y98089D01*
X432975Y97430D01*
X431894Y96544D01*
X431008Y95463D01*
X430349Y94231D01*
X429943Y92893D01*
X429806Y91503D01*
X429816D01*
Y20097D01*
X429817Y20090D01*
X429706Y19532D01*
X429386Y19052D01*
X428906Y18732D01*
X428348Y18620D01*
X428340Y18621D01*
X428333Y18620D01*
X427775Y18732D01*
X427295Y19052D01*
X426975Y19532D01*
X426864Y20090D01*
X426865Y20097D01*
Y91503D01*
X426875D01*
X426738Y92893D01*
X426332Y94231D01*
X425673Y95463D01*
X424787Y96544D01*
X423706Y97430D01*
X422474Y98089D01*
X421137Y98495D01*
X420226Y98584D01*
X419746Y98632D01*
X419746Y98632D01*
X419746D01*
Y98632D01*
X419265Y98584D01*
X418355Y98495D01*
X417018Y98089D01*
X415785Y97430D01*
X414705Y96544D01*
X413818Y95463D01*
X413159Y94231D01*
X412754Y92893D01*
X412617Y91503D01*
X412627D01*
Y20097D01*
X412628Y20090D01*
X412517Y19532D01*
X412196Y19052D01*
X411717Y18732D01*
X411159Y18620D01*
X411151Y18621D01*
X411143Y18620D01*
X410585Y18732D01*
X410106Y19052D01*
X409785Y19532D01*
X409674Y20090D01*
X409675Y20097D01*
Y91503D01*
X409685D01*
X409548Y92893D01*
X409143Y94231D01*
X408484Y95463D01*
X407597Y96544D01*
X406517Y97430D01*
X405284Y98089D01*
X403947Y98495D01*
X403037Y98584D01*
X402556Y98632D01*
X402556Y98632D01*
X402556D01*
Y98632D01*
X402076Y98584D01*
X401165Y98495D01*
X399828Y98089D01*
X398595Y97430D01*
X397515Y96544D01*
X396629Y95463D01*
X395970Y94231D01*
X395564Y92893D01*
X395427Y91503D01*
X395437D01*
Y20097D01*
X395438Y20090D01*
X395327Y19532D01*
X395007Y19052D01*
X394527Y18732D01*
X393969Y18620D01*
X393962Y18621D01*
X393954Y18620D01*
X393396Y18732D01*
X392916Y19052D01*
X392596Y19532D01*
X392485Y20090D01*
X392486Y20097D01*
Y91503D01*
X392496D01*
X392359Y92893D01*
X391953Y94231D01*
X391294Y95463D01*
X390408Y96544D01*
X389327Y97430D01*
X388095Y98089D01*
X386757Y98495D01*
X385847Y98584D01*
X385367Y98632D01*
X385367Y98632D01*
X385367D01*
Y98632D01*
X384886Y98584D01*
X383976Y98495D01*
X382639Y98089D01*
X381406Y97430D01*
X380326Y96544D01*
X379439Y95463D01*
X378780Y94231D01*
X378375Y92893D01*
X378238Y91503D01*
X378248D01*
Y20097D01*
X378249Y20090D01*
X378138Y19532D01*
X377817Y19052D01*
X377338Y18732D01*
X376780Y18620D01*
X376772Y18621D01*
X376764Y18620D01*
X376206Y18732D01*
X375727Y19052D01*
X375406Y19532D01*
X375295Y20090D01*
X375296Y20097D01*
Y91503D01*
X375306D01*
X375169Y92893D01*
X374764Y94231D01*
X374105Y95463D01*
X373218Y96544D01*
X372138Y97430D01*
X370905Y98089D01*
X369568Y98495D01*
X368657Y98584D01*
X368177Y98632D01*
X368177Y98632D01*
X368177D01*
Y98632D01*
X367697Y98584D01*
X366786Y98495D01*
X365449Y98089D01*
X364216Y97430D01*
X363136Y96544D01*
X362249Y95463D01*
X361591Y94231D01*
X361185Y92893D01*
X361048Y91503D01*
X361058D01*
Y20097D01*
X361059Y20090D01*
X360948Y19532D01*
X360628Y19052D01*
X360148Y18732D01*
X359590Y18620D01*
X359582Y18621D01*
X359575Y18620D01*
X359017Y18732D01*
X358537Y19052D01*
X358217Y19532D01*
X358105Y20090D01*
X358106Y20097D01*
Y91503D01*
X358117D01*
X357980Y92893D01*
X357574Y94231D01*
X356915Y95463D01*
X356029Y96544D01*
X354948Y97430D01*
X353716Y98089D01*
X352378Y98495D01*
X351468Y98584D01*
X350988Y98632D01*
X350988Y98632D01*
X350988D01*
Y98632D01*
X350507Y98584D01*
X349597Y98495D01*
X348259Y98089D01*
X347027Y97430D01*
X345947Y96544D01*
X345060Y95463D01*
X344401Y94231D01*
X343995Y92893D01*
X343859Y91503D01*
X343869D01*
Y20097D01*
X343870Y20090D01*
X343759Y19532D01*
X343438Y19052D01*
X342959Y18732D01*
X342401Y18620D01*
X342393Y18621D01*
X342385Y18620D01*
X341827Y18732D01*
X341347Y19052D01*
X341027Y19532D01*
X340916Y20090D01*
X340917Y20097D01*
Y91503D01*
X340927D01*
X340790Y92893D01*
X340385Y94231D01*
X339726Y95463D01*
X338839Y96544D01*
X337759Y97430D01*
X336526Y98089D01*
X335189Y98495D01*
X334278Y98584D01*
X333798Y98632D01*
X333798Y98632D01*
X333798D01*
Y98632D01*
X333318Y98584D01*
X332407Y98495D01*
X331070Y98089D01*
X329837Y97430D01*
X328757Y96544D01*
X327870Y95463D01*
X327212Y94231D01*
X326806Y92893D01*
X326669Y91503D01*
X326679D01*
Y20097D01*
X326680Y20090D01*
X326569Y19532D01*
X326249Y19052D01*
X325769Y18732D01*
X325211Y18620D01*
X325203Y18621D01*
X325196Y18620D01*
X324638Y18732D01*
X324158Y19052D01*
X323837Y19532D01*
X323726Y20090D01*
X323727Y20097D01*
Y91503D01*
X323738D01*
X323601Y92893D01*
X323195Y94231D01*
X322536Y95463D01*
X321650Y96544D01*
X320569Y97430D01*
X319337Y98089D01*
X317999Y98495D01*
X317089Y98584D01*
X316609Y98632D01*
X316609Y98632D01*
X316609D01*
Y98632D01*
X316128Y98584D01*
X315218Y98495D01*
X313880Y98089D01*
X312648Y97430D01*
X311567Y96544D01*
X310681Y95463D01*
X310022Y94231D01*
X309616Y92893D01*
X309479Y91503D01*
X309490D01*
Y20097D01*
X309491Y20090D01*
X309380Y19532D01*
X309059Y19052D01*
X308579Y18732D01*
X308021Y18620D01*
X308014Y18621D01*
X308006Y18620D01*
X307448Y18732D01*
X306968Y19052D01*
X306648Y19532D01*
X306537Y20090D01*
X306538Y20097D01*
Y91503D01*
X306548D01*
X306411Y92893D01*
X306005Y94231D01*
X305347Y95463D01*
X304460Y96544D01*
X303380Y97430D01*
X302147Y98089D01*
X300810Y98495D01*
X299899Y98584D01*
X299419Y98632D01*
X299419Y98632D01*
X299419D01*
Y98632D01*
X298939Y98584D01*
X298028Y98495D01*
X296691Y98089D01*
X295458Y97430D01*
X294378Y96544D01*
X293491Y95463D01*
X292833Y94231D01*
X292427Y92893D01*
X292290Y91503D01*
X292300D01*
Y20097D01*
X292301Y20090D01*
X292190Y19532D01*
X291870Y19052D01*
X291390Y18732D01*
X290832Y18620D01*
X290824Y18621D01*
X290816Y18620D01*
X290258Y18732D01*
X289779Y19052D01*
X289458Y19532D01*
X289347Y20090D01*
X289348Y20097D01*
Y91503D01*
X289358D01*
X289222Y92893D01*
X288816Y94231D01*
X288157Y95463D01*
X287270Y96544D01*
X286190Y97430D01*
X284958Y98089D01*
X283620Y98495D01*
X282710Y98584D01*
X282229Y98632D01*
X282229Y98632D01*
X282229D01*
Y98632D01*
X281749Y98584D01*
X280839Y98495D01*
X279501Y98089D01*
X278269Y97430D01*
X277188Y96544D01*
X276302Y95463D01*
X275643Y94231D01*
X275237Y92893D01*
X275100Y91503D01*
X275111D01*
Y20097D01*
X275112Y20090D01*
X275001Y19532D01*
X274680Y19052D01*
X274200Y18732D01*
X273642Y18620D01*
X273635Y18621D01*
X273627Y18620D01*
X273069Y18732D01*
X272589Y19052D01*
X272269Y19532D01*
X272158Y20090D01*
X272159Y20097D01*
Y91503D01*
X272169D01*
X272032Y92893D01*
X271626Y94231D01*
X270968Y95463D01*
X270081Y96544D01*
X269001Y97430D01*
X267768Y98089D01*
X266431Y98495D01*
X265520Y98584D01*
X265040Y98632D01*
X265040Y98632D01*
X265040D01*
Y98632D01*
X264560Y98584D01*
X263649Y98495D01*
X262312Y98089D01*
X261079Y97430D01*
X259999Y96544D01*
X259112Y95463D01*
X258453Y94231D01*
X258048Y92893D01*
X257911Y91503D01*
X257921D01*
Y20097D01*
X257922Y20090D01*
X257811Y19532D01*
X257490Y19052D01*
X257011Y18732D01*
X256453Y18620D01*
X256445Y18621D01*
X256437Y18620D01*
X255879Y18732D01*
X255400Y19052D01*
X255079Y19532D01*
X254968Y20090D01*
X254969Y20097D01*
Y91503D01*
X254979D01*
X254842Y92893D01*
X254437Y94231D01*
X253778Y95463D01*
X252891Y96544D01*
X251811Y97430D01*
X250578Y98089D01*
X249241Y98495D01*
X248331Y98584D01*
X247850Y98632D01*
X247850Y98632D01*
X247850D01*
Y98632D01*
X247370Y98584D01*
X246460Y98495D01*
X245122Y98089D01*
X243890Y97430D01*
X242809Y96544D01*
X241923Y95463D01*
X241264Y94231D01*
X240858Y92893D01*
X240721Y91503D01*
X240732D01*
Y20097D01*
X240733Y20090D01*
X240621Y19532D01*
X240301Y19052D01*
X239821Y18732D01*
X239263Y18620D01*
X239256Y18621D01*
X239248Y18620D01*
X238690Y18732D01*
X238210Y19052D01*
X237890Y19532D01*
X237779Y20090D01*
X237780Y20097D01*
Y91503D01*
X237790D01*
X237653Y92893D01*
X237247Y94231D01*
X236589Y95463D01*
X235702Y96544D01*
X234622Y97430D01*
X233389Y98089D01*
X232052Y98495D01*
X231141Y98584D01*
X230661Y98632D01*
X230661Y98632D01*
X230661D01*
Y98632D01*
X230180Y98584D01*
X229270Y98495D01*
X227933Y98089D01*
X226700Y97430D01*
X225620Y96544D01*
X224733Y95463D01*
X224074Y94231D01*
X223669Y92893D01*
X223532Y91503D01*
X223542D01*
Y20097D01*
X223543Y20090D01*
X223432Y19532D01*
X223112Y19052D01*
X222632Y18732D01*
X222074Y18620D01*
X222066Y18621D01*
X222058Y18620D01*
X221500Y18732D01*
X221021Y19052D01*
X220700Y19532D01*
X220589Y20090D01*
X220590Y20097D01*
Y91503D01*
X220600D01*
X220463Y92893D01*
X220058Y94231D01*
X219399Y95463D01*
X218512Y96544D01*
X217432Y97430D01*
X216199Y98089D01*
X214862Y98495D01*
X213952Y98584D01*
X213471Y98632D01*
X213471Y98632D01*
X213471D01*
Y98632D01*
X212991Y98584D01*
X212081Y98495D01*
X210743Y98089D01*
X209511Y97430D01*
X208430Y96544D01*
X207544Y95463D01*
X206885Y94231D01*
X206479Y92893D01*
X206342Y91503D01*
X206352D01*
Y20097D01*
X206353Y20090D01*
X206242Y19532D01*
X205922Y19052D01*
X205442Y18732D01*
X204884Y18620D01*
X204876Y18621D01*
X204869Y18620D01*
X204311Y18732D01*
X203831Y19052D01*
X203511Y19532D01*
X203400Y20090D01*
X203401Y20097D01*
Y91503D01*
X203411D01*
X203274Y92893D01*
X202868Y94231D01*
X202209Y95463D01*
X201323Y96544D01*
X200242Y97430D01*
X199010Y98089D01*
X197673Y98495D01*
X196762Y98584D01*
X196282Y98632D01*
X196282Y98632D01*
X196282D01*
Y98632D01*
X195801Y98584D01*
X194891Y98495D01*
X193554Y98089D01*
X192321Y97430D01*
X191241Y96544D01*
X190354Y95463D01*
X189695Y94231D01*
X189290Y92893D01*
X189153Y91503D01*
X189163D01*
Y20097D01*
X189164Y20090D01*
X189053Y19532D01*
X188732Y19052D01*
X188253Y18732D01*
X187695Y18620D01*
X187687Y18621D01*
X187679Y18620D01*
X187121Y18732D01*
X186642Y19052D01*
X186321Y19532D01*
X186210Y20090D01*
X186211Y20097D01*
Y91503D01*
X186221D01*
X186084Y92893D01*
X185679Y94231D01*
X185020Y95463D01*
X184133Y96544D01*
X183053Y97430D01*
X181820Y98089D01*
X180483Y98495D01*
X179573Y98584D01*
X179092Y98632D01*
X179092Y98632D01*
X179092D01*
Y98632D01*
X178612Y98584D01*
X177701Y98495D01*
X176364Y98089D01*
X175131Y97430D01*
X174051Y96544D01*
X173165Y95463D01*
X172506Y94231D01*
X172100Y92893D01*
X171963Y91503D01*
X171973D01*
Y60097D01*
X171974Y60090D01*
X171863Y59532D01*
X171543Y59052D01*
X171063Y58732D01*
X170505Y58621D01*
X170497Y58622D01*
X149718D01*
Y58784D01*
X143356D01*
Y57784D01*
X140419D01*
Y57620D01*
X137960D01*
X137848Y57756D01*
X137731Y58346D01*
X137468Y58740D01*
X137731Y59135D01*
X137848Y59724D01*
X137731Y60314D01*
X137468Y60709D01*
X137731Y61103D01*
X137848Y61693D01*
X137731Y62283D01*
X137397Y62783D01*
X136897Y63117D01*
X136307Y63234D01*
X134486D01*
X134274Y63311D01*
X134115Y63812D01*
X134377Y64204D01*
X134534Y64995D01*
X134524D01*
Y71465D01*
X135176D01*
Y75433D01*
X135176D01*
Y75565D01*
X135176D01*
Y79533D01*
X126876D01*
Y79078D01*
X126110D01*
Y79567D01*
X122142D01*
Y79078D01*
X118549D01*
Y79084D01*
X116784Y78945D01*
X115062Y78531D01*
X113426Y77854D01*
X111916Y76929D01*
X110570Y75779D01*
X109420Y74432D01*
X108495Y72923D01*
X107817Y71287D01*
X107404Y69565D01*
X107333Y68665D01*
X107199Y68463D01*
X107067Y67800D01*
X107199Y67137D01*
X107574Y66574D01*
X108137Y66199D01*
X108800Y66067D01*
X109463Y66199D01*
X110026Y66574D01*
X110401Y67137D01*
X110533Y67800D01*
X110401Y68463D01*
X110379Y68497D01*
X110469Y69407D01*
X110937Y70953D01*
X111699Y72377D01*
X112723Y73625D01*
X113972Y74650D01*
X115396Y75411D01*
X116942Y75880D01*
X118485Y76032D01*
X118549Y76019D01*
X122142D01*
Y75205D01*
X121736Y74978D01*
X119807D01*
Y74989D01*
X118179Y74829D01*
X116613Y74354D01*
X115170Y73582D01*
X113905Y72544D01*
X112867Y71279D01*
X112095Y69836D01*
X111620Y68270D01*
X111460Y66642D01*
X111471D01*
Y62298D01*
X108595D01*
Y59573D01*
X96615D01*
X96584Y59569D01*
X95278Y59697D01*
X93993Y60087D01*
X92808Y60720D01*
X91770Y61572D01*
X90918Y62611D01*
X90285Y63795D01*
X89895Y65081D01*
X89766Y66386D01*
X89770Y66417D01*
Y73502D01*
X89674Y74232D01*
X89598Y74415D01*
Y77785D01*
X89674Y77968D01*
X89770Y78698D01*
Y110973D01*
X89770Y111469D01*
X89811Y111952D01*
X89896Y112821D01*
X90290Y114121D01*
X90931Y115320D01*
X91740Y116306D01*
X92362Y116927D01*
X92362Y116927D01*
X92731Y117242D01*
X93445Y117827D01*
X94687Y118491D01*
X96035Y118900D01*
X97400Y119035D01*
X97438Y119030D01*
X111702D01*
X112016Y118754D01*
Y114756D01*
X113028D01*
X113180Y114256D01*
X112919Y114081D01*
X112587Y113585D01*
X112471Y113000D01*
X112469D01*
X112593Y112373D01*
X112948Y111842D01*
X113479Y111487D01*
X114106Y111362D01*
Y111364D01*
X118996D01*
X119581Y111481D01*
X120078Y111812D01*
X120409Y112308D01*
X120526Y112894D01*
X120409Y113479D01*
X120078Y113975D01*
X119581Y114307D01*
X118996Y114423D01*
X116346D01*
X115984Y114756D01*
X115984Y114923D01*
Y119118D01*
X115829D01*
Y120202D01*
X116107D01*
Y120702D01*
X118205D01*
Y121427D01*
X118378Y121542D01*
X119174Y121701D01*
X119206Y121694D01*
X121296D01*
X121628Y121194D01*
X121557Y120839D01*
X121674Y120249D01*
X122009Y119749D01*
X122509Y119414D01*
X123099Y119297D01*
X124161D01*
X124331Y118797D01*
X123558Y118204D01*
X122799Y117215D01*
X122322Y116063D01*
X122159Y114826D01*
X122171D01*
Y110071D01*
X122099Y109963D01*
X121967Y109300D01*
X122099Y108637D01*
X122474Y108074D01*
X123037Y107699D01*
X123700Y107567D01*
X124363Y107699D01*
X124926Y108074D01*
X125301Y108637D01*
X125433Y109300D01*
X125301Y109963D01*
X125229Y110071D01*
Y114826D01*
X125223Y114857D01*
X125348Y115484D01*
X125442Y115625D01*
X125847Y115910D01*
X126347Y115576D01*
X126937Y115459D01*
X127171Y115267D01*
Y107371D01*
X127099Y107263D01*
X126967Y106600D01*
X127099Y105937D01*
X127474Y105374D01*
X128037Y104999D01*
X128700Y104867D01*
X129363Y104999D01*
X129926Y105374D01*
X130301Y105937D01*
X130333Y106095D01*
X130385Y106137D01*
X130880Y106285D01*
X131206Y106067D01*
X131791Y105951D01*
X136500D01*
X137085Y106067D01*
X137581Y106399D01*
X137913Y106895D01*
X138029Y107480D01*
Y107500D01*
X137913Y108085D01*
X137581Y108581D01*
X137320Y108756D01*
X137472Y109256D01*
X138484D01*
Y113618D01*
X134952D01*
X134515Y114272D01*
X134362Y115042D01*
X134372Y115094D01*
Y116939D01*
X134384Y117000D01*
Y118821D01*
X134510Y119171D01*
X134860Y119297D01*
X136681D01*
X136742Y119309D01*
X139650D01*
Y118816D01*
X142587D01*
Y117816D01*
X148950D01*
Y117979D01*
X150072D01*
Y117956D01*
X151959Y118142D01*
X153773Y118692D01*
X155445Y119586D01*
X156911Y120789D01*
X156895Y120805D01*
X157913Y121822D01*
X158277Y122165D01*
X158277Y122165D01*
X159585Y123697D01*
X160638Y125414D01*
X161409Y127275D01*
X161879Y129234D01*
X162037Y131242D01*
X162022D01*
Y146000D01*
X162041D01*
X161866Y147779D01*
X161347Y149489D01*
X160505Y151066D01*
X159371Y152448D01*
X159371Y152448D01*
X159003Y152787D01*
X156195Y155595D01*
X156213Y155613D01*
X154644Y156902D01*
X152853Y157859D01*
X150910Y158448D01*
X148889Y158647D01*
Y158622D01*
X60500D01*
X60462Y158616D01*
X59098Y158751D01*
X57750Y159160D01*
X56507Y159824D01*
X55418Y160718D01*
X54524Y161807D01*
X53860Y163050D01*
X53451Y164398D01*
X53316Y165762D01*
X53321Y165800D01*
Y168397D01*
X53332D01*
X53195Y169788D01*
X52789Y171126D01*
X52130Y172358D01*
X51244Y173439D01*
X50163Y174325D01*
X48931Y174984D01*
X47593Y175390D01*
X46203Y175526D01*
Y175516D01*
X14797D01*
X14790Y175515D01*
X14232Y175626D01*
X13752Y175947D01*
X13431Y176426D01*
X13320Y176985D01*
X13321Y176992D01*
X13320Y177000D01*
X13431Y177558D01*
X13752Y178038D01*
X14232Y178358D01*
X14790Y178469D01*
X14797Y178468D01*
X86203D01*
Y178458D01*
X87593Y178595D01*
X88931Y179000D01*
X90163Y179659D01*
X91244Y180546D01*
X92130Y181626D01*
X92789Y182859D01*
X93195Y184196D01*
X93284Y185107D01*
X93332Y185587D01*
X93332Y185587D01*
Y185587D01*
X93332D01*
X93284Y186067D01*
X93195Y186978D01*
X92789Y188315D01*
X92130Y189548D01*
X91244Y190628D01*
X90163Y191515D01*
X88931Y192173D01*
X87593Y192579D01*
X86203Y192716D01*
Y192706D01*
X14797D01*
X14790Y192705D01*
X14232Y192816D01*
X13752Y193136D01*
X13431Y193616D01*
X13320Y194174D01*
X13321Y194182D01*
X13320Y194190D01*
X13431Y194747D01*
X13752Y195227D01*
X14232Y195548D01*
X14790Y195659D01*
X14797Y195658D01*
X86203D01*
Y195647D01*
X87593Y195784D01*
X88931Y196190D01*
X90163Y196849D01*
X91244Y197736D01*
X92130Y198816D01*
X92789Y200048D01*
X93195Y201386D01*
X93284Y202296D01*
X93332Y202777D01*
X93332Y202777D01*
Y202777D01*
X93332D01*
X93284Y203257D01*
X93195Y204167D01*
X92789Y205505D01*
X92130Y206737D01*
X91244Y207818D01*
X90163Y208704D01*
X88931Y209363D01*
X87593Y209769D01*
X86203Y209906D01*
Y209895D01*
X14797D01*
X14790Y209894D01*
X14232Y210005D01*
X13752Y210326D01*
X13431Y210806D01*
X13320Y211364D01*
X13321Y211371D01*
X13320Y211379D01*
X13431Y211937D01*
X13752Y212417D01*
X14232Y212737D01*
X14790Y212848D01*
X14797Y212847D01*
X86203D01*
Y212837D01*
X87593Y212974D01*
X88931Y213380D01*
X90163Y214038D01*
X91244Y214925D01*
X92130Y216005D01*
X92789Y217238D01*
X93195Y218575D01*
X93284Y219486D01*
X93332Y219966D01*
X93332Y219966D01*
Y219966D01*
X93332D01*
X93284Y220446D01*
X93195Y221357D01*
X92789Y222694D01*
X92130Y223927D01*
X91244Y225007D01*
X90163Y225894D01*
X88931Y226553D01*
X87593Y226958D01*
X86203Y227095D01*
Y227085D01*
X14797D01*
X14790Y227084D01*
X14232Y227195D01*
X13752Y227515D01*
X13431Y227995D01*
X13320Y228553D01*
X13321Y228561D01*
X13320Y228569D01*
X13431Y229127D01*
X13752Y229606D01*
X14232Y229927D01*
X14790Y230038D01*
X14797Y230037D01*
X86203D01*
Y230027D01*
X87593Y230164D01*
X88931Y230569D01*
X90163Y231228D01*
X91244Y232115D01*
X92130Y233195D01*
X92789Y234427D01*
X93195Y235765D01*
X93284Y236675D01*
X93332Y237156D01*
X93332Y237156D01*
Y237156D01*
X93332D01*
X93284Y237636D01*
X93195Y238546D01*
X92789Y239884D01*
X92130Y241116D01*
X91244Y242197D01*
X90163Y243083D01*
X88931Y243742D01*
X87593Y244148D01*
X86203Y244285D01*
Y244274D01*
X14797D01*
X14790Y244273D01*
X14232Y244385D01*
X13752Y244705D01*
X13431Y245185D01*
X13320Y245743D01*
X13321Y245750D01*
X13320Y245758D01*
X13431Y246316D01*
X13752Y246796D01*
X14232Y247116D01*
X14790Y247227D01*
X14797Y247226D01*
X86203D01*
Y247216D01*
X87593Y247353D01*
X88931Y247759D01*
X90163Y248417D01*
X91244Y249304D01*
X92130Y250384D01*
X92789Y251617D01*
X93195Y252954D01*
X93284Y253865D01*
X93332Y254345D01*
X93332Y254345D01*
Y254345D01*
X93332D01*
X93284Y254826D01*
X93195Y255736D01*
X92789Y257073D01*
X92130Y258306D01*
X91244Y259386D01*
X90163Y260273D01*
X88931Y260932D01*
X87593Y261337D01*
X86203Y261474D01*
Y261464D01*
X14797D01*
X14790Y261463D01*
X14232Y261574D01*
X13752Y261894D01*
X13431Y262374D01*
X13320Y262932D01*
X13321Y262940D01*
X13320Y262948D01*
X13431Y263506D01*
X13752Y263985D01*
X14232Y264306D01*
X14790Y264417D01*
X14797Y264416D01*
X86203D01*
Y264406D01*
X87593Y264543D01*
X88931Y264948D01*
X90163Y265607D01*
X91244Y266494D01*
X92130Y267574D01*
X92789Y268807D01*
X93195Y270144D01*
X93284Y271054D01*
X93332Y271535D01*
X93332Y271535D01*
Y271535D01*
X93332D01*
X93284Y272015D01*
X93195Y272925D01*
X92789Y274263D01*
X92130Y275495D01*
X91244Y276576D01*
X90163Y277462D01*
X88931Y278121D01*
X87593Y278527D01*
X86203Y278664D01*
Y278654D01*
X14797D01*
X14790Y278653D01*
X14232Y278764D01*
X13752Y279084D01*
X13431Y279564D01*
X13320Y280122D01*
X13321Y280129D01*
X13320Y280137D01*
X13431Y280695D01*
X13752Y281175D01*
X14232Y281495D01*
X14790Y281606D01*
X14797Y281605D01*
X86203D01*
Y281595D01*
X87593Y281732D01*
X88931Y282138D01*
X90163Y282797D01*
X91244Y283683D01*
X92130Y284764D01*
X92789Y285996D01*
X93195Y287333D01*
X93284Y288244D01*
X93332Y288724D01*
X93332Y288724D01*
Y288724D01*
X93332D01*
X93284Y289205D01*
X93195Y290115D01*
X92789Y291452D01*
X92130Y292685D01*
X91244Y293765D01*
X90163Y294652D01*
X88931Y295311D01*
X87593Y295716D01*
X86203Y295853D01*
Y295843D01*
X54797D01*
X54790Y295842D01*
X54232Y295953D01*
X53752Y296274D01*
X53431Y296753D01*
X53320Y297311D01*
X53321Y297319D01*
Y301200D01*
Y305098D01*
X53316Y305136D01*
X53451Y306501D01*
X53860Y307849D01*
X54524Y309091D01*
X55418Y310181D01*
X56507Y311074D01*
X57750Y311739D01*
X59098Y312148D01*
X60021Y312239D01*
X60500Y312277D01*
D01*
X60994Y312291D01*
X61100Y312277D01*
X96397D01*
Y312267D01*
X97788Y312404D01*
X99126Y312809D01*
X100358Y313468D01*
X101438Y314355D01*
X102325Y315435D01*
X102984Y316668D01*
X103390Y318005D01*
X103526Y319396D01*
X103516D01*
Y350801D01*
X103515Y350809D01*
X103626Y351367D01*
X103947Y351846D01*
X104426Y352167D01*
X104984Y352278D01*
X104992Y352277D01*
X105000Y352278D01*
X105558Y352167D01*
X106038Y351846D01*
X106358Y351367D01*
X106469Y350809D01*
X106468Y350801D01*
Y279396D01*
X106458D01*
X106595Y278005D01*
X107001Y276668D01*
X107659Y275435D01*
X108546Y274355D01*
X109626Y273468D01*
X110859Y272809D01*
X112196Y272404D01*
X113107Y272314D01*
X113587Y272267D01*
X113587Y272267D01*
X113587D01*
Y272267D01*
X114067Y272314D01*
X114978Y272404D01*
X116315Y272809D01*
X117548Y273468D01*
X118628Y274355D01*
X119515Y275435D01*
X120173Y276668D01*
X120579Y278005D01*
X120716Y279396D01*
X120706D01*
Y350801D01*
X120705Y350809D01*
X120816Y351367D01*
X121136Y351846D01*
X121616Y352167D01*
X122174Y352278D01*
X122182Y352277D01*
X122189Y352278D01*
X122748Y352167D01*
X123227Y351846D01*
X123548Y351367D01*
X123659Y350809D01*
X123658Y350801D01*
Y279396D01*
X123647D01*
X123784Y278005D01*
X124190Y276668D01*
X124849Y275435D01*
X125735Y274355D01*
X126816Y273468D01*
X128048Y272809D01*
X129386Y272404D01*
X130296Y272314D01*
X130777Y272267D01*
X130777Y272267D01*
X130777D01*
Y272267D01*
X131257Y272314D01*
X132167Y272404D01*
X133505Y272809D01*
X134737Y273468D01*
X135818Y274355D01*
X136704Y275435D01*
X137363Y276668D01*
X137769Y278005D01*
X137906Y279396D01*
X137895D01*
Y350801D01*
X137894Y350809D01*
X138005Y351367D01*
X138326Y351846D01*
X138805Y352167D01*
X139364Y352278D01*
X139371Y352277D01*
X139379Y352278D01*
X139937Y352167D01*
X140417Y351846D01*
X140737Y351367D01*
X140848Y350809D01*
X140847Y350801D01*
Y279396D01*
X140837D01*
X140974Y278005D01*
X141380Y276668D01*
X142038Y275435D01*
X142925Y274355D01*
X144005Y273468D01*
X145238Y272809D01*
X146575Y272404D01*
X147486Y272314D01*
X147966Y272267D01*
X147966Y272267D01*
X147966D01*
Y272267D01*
X148447Y272314D01*
X149357Y272404D01*
X150694Y272809D01*
X151927Y273468D01*
X153007Y274355D01*
X153894Y275435D01*
X154552Y276668D01*
X154958Y278005D01*
X155095Y279396D01*
X155085D01*
Y350801D01*
X155084Y350809D01*
X155195Y351367D01*
X155515Y351846D01*
X155995Y352167D01*
X156553Y352278D01*
X156561Y352277D01*
X156569Y352278D01*
X157127Y352167D01*
X157606Y351846D01*
X157927Y351367D01*
X158038Y350809D01*
X158037Y350801D01*
Y279396D01*
X158027D01*
X158163Y278005D01*
X158569Y276668D01*
X159228Y275435D01*
X160115Y274355D01*
X161195Y273468D01*
X162427Y272809D01*
X163765Y272404D01*
X164675Y272314D01*
X165156Y272267D01*
X165156Y272267D01*
X165156D01*
Y272267D01*
X165636Y272314D01*
X166546Y272404D01*
X167884Y272809D01*
X169116Y273468D01*
X170197Y274355D01*
X171083Y275435D01*
X171742Y276668D01*
X172148Y278005D01*
X172285Y279396D01*
X172274D01*
Y350801D01*
X172274Y350809D01*
X172385Y351367D01*
X172705Y351846D01*
X173185Y352167D01*
X173743Y352278D01*
X173750Y352277D01*
X173758Y352278D01*
X174316Y352167D01*
X174796Y351846D01*
X175116Y351367D01*
X175227Y350809D01*
X175226Y350801D01*
Y279396D01*
X175216D01*
X175353Y278005D01*
X175759Y276668D01*
X176418Y275435D01*
X177304Y274355D01*
X178384Y273468D01*
X179617Y272809D01*
X180954Y272404D01*
X181865Y272314D01*
X182345Y272267D01*
X182345Y272267D01*
X182345D01*
Y272267D01*
X182826Y272314D01*
X183736Y272404D01*
X185073Y272809D01*
X186306Y273468D01*
X187386Y274355D01*
X188273Y275435D01*
X188932Y276668D01*
X189337Y278005D01*
X189474Y279396D01*
X189464D01*
Y350801D01*
X189463Y350809D01*
X189574Y351367D01*
X189894Y351846D01*
X190374Y352167D01*
X190932Y352278D01*
X190940Y352277D01*
X190948Y352278D01*
X191506Y352167D01*
X191985Y351846D01*
X192306Y351367D01*
X192417Y350809D01*
X192416Y350801D01*
Y279396D01*
X192406D01*
X192543Y278005D01*
X192948Y276668D01*
X193607Y275435D01*
X194494Y274355D01*
X195574Y273468D01*
X196807Y272809D01*
X198144Y272404D01*
X199054Y272314D01*
X199535Y272267D01*
X199535Y272267D01*
X199535D01*
Y272267D01*
X200015Y272314D01*
X200925Y272404D01*
X202263Y272809D01*
X203495Y273468D01*
X204576Y274355D01*
X205462Y275435D01*
X206121Y276668D01*
X206527Y278005D01*
X206664Y279396D01*
X206654D01*
Y350801D01*
X206653Y350809D01*
X206764Y351367D01*
X207084Y351846D01*
X207564Y352167D01*
X208122Y352278D01*
X208129Y352277D01*
X208137Y352278D01*
X208695Y352167D01*
X209175Y351846D01*
X209495Y351367D01*
X209606Y350809D01*
X209605Y350801D01*
Y279396D01*
X209595D01*
X209732Y278005D01*
X210138Y276668D01*
X210797Y275435D01*
X211683Y274355D01*
X212764Y273468D01*
X213996Y272809D01*
X215333Y272404D01*
X216244Y272314D01*
X216724Y272267D01*
X216724Y272267D01*
X216724D01*
Y272267D01*
X217205Y272314D01*
X218115Y272404D01*
X219452Y272809D01*
X220685Y273468D01*
X221765Y274355D01*
X222652Y275435D01*
X223311Y276668D01*
X223716Y278005D01*
X223853Y279396D01*
X223843D01*
Y350801D01*
X223842Y350809D01*
X223953Y351367D01*
X224274Y351846D01*
X224753Y352167D01*
X225311Y352278D01*
X225319Y352277D01*
X225327Y352278D01*
X225885Y352167D01*
X226364Y351846D01*
X226685Y351367D01*
X226796Y350809D01*
X226795Y350801D01*
Y279396D01*
X226785D01*
X226922Y278005D01*
X227327Y276668D01*
X227986Y275435D01*
X228873Y274355D01*
X229953Y273468D01*
X231186Y272809D01*
X232523Y272404D01*
X233433Y272314D01*
X233914Y272267D01*
X233914Y272267D01*
X233914D01*
Y272267D01*
X234394Y272314D01*
X235305Y272404D01*
X236642Y272809D01*
X237875Y273468D01*
X238955Y274355D01*
X239841Y275435D01*
X240500Y276668D01*
X240906Y278005D01*
X241043Y279396D01*
X241033D01*
Y350801D01*
X241032Y350809D01*
X241143Y351367D01*
X241463Y351846D01*
X241943Y352167D01*
X242501Y352278D01*
X242509Y352277D01*
X242516Y352278D01*
X243074Y352167D01*
X243554Y351846D01*
X243874Y351367D01*
X243985Y350809D01*
X243984Y350801D01*
Y279396D01*
X243974D01*
X244111Y278005D01*
X244517Y276668D01*
X245176Y275435D01*
X246062Y274355D01*
X247143Y273468D01*
X248375Y272809D01*
X249712Y272404D01*
X250623Y272314D01*
X251103Y272267D01*
X251103Y272267D01*
X251103D01*
Y272267D01*
X251584Y272314D01*
X252494Y272404D01*
X253832Y272809D01*
X255064Y273468D01*
X256144Y274355D01*
X257031Y275435D01*
X257690Y276668D01*
X258095Y278005D01*
X258232Y279396D01*
X258222D01*
Y350801D01*
X258221Y350809D01*
X258332Y351367D01*
X258653Y351846D01*
X259132Y352167D01*
X259690Y352278D01*
X259698Y352277D01*
X259706Y352278D01*
X260264Y352167D01*
X260743Y351846D01*
X261064Y351367D01*
X261175Y350809D01*
X261174Y350801D01*
Y279396D01*
X261164D01*
X261301Y278005D01*
X261706Y276668D01*
X262365Y275435D01*
X263252Y274355D01*
X264332Y273468D01*
X265565Y272809D01*
X266902Y272404D01*
X267812Y272314D01*
X268293Y272267D01*
X268293Y272267D01*
X268293D01*
Y272267D01*
X268773Y272314D01*
X269684Y272404D01*
X271021Y272809D01*
X272253Y273468D01*
X273334Y274355D01*
X274220Y275435D01*
X274879Y276668D01*
X275285Y278005D01*
X275422Y279396D01*
X275412D01*
Y350801D01*
X275411Y350809D01*
X275522Y351367D01*
X275842Y351846D01*
X276322Y352167D01*
X276880Y352278D01*
X276888Y352277D01*
X276895Y352278D01*
X277453Y352167D01*
X277933Y351846D01*
X278254Y351367D01*
X278364Y350809D01*
X278363Y350801D01*
Y279396D01*
X278353D01*
X278490Y278005D01*
X278896Y276668D01*
X279555Y275435D01*
X280441Y274355D01*
X281522Y273468D01*
X282754Y272809D01*
X284092Y272404D01*
X285002Y272314D01*
X285482Y272267D01*
X285482Y272267D01*
X285482D01*
Y272267D01*
X285963Y272314D01*
X286873Y272404D01*
X288211Y272809D01*
X289443Y273468D01*
X290523Y274355D01*
X291410Y275435D01*
X292069Y276668D01*
X292475Y278005D01*
X292612Y279396D01*
X292601D01*
Y350801D01*
X292600Y350809D01*
X292711Y351367D01*
X293032Y351846D01*
X293511Y352167D01*
X294069Y352278D01*
X294077Y352277D01*
X294085Y352278D01*
X294643Y352167D01*
X295123Y351846D01*
X295443Y351367D01*
X295554Y350809D01*
X295553Y350801D01*
Y279396D01*
X295543D01*
X295680Y278005D01*
X296086Y276668D01*
X296744Y275435D01*
X297631Y274355D01*
X298711Y273468D01*
X299944Y272809D01*
X301281Y272404D01*
X302191Y272314D01*
X302672Y272267D01*
X302672Y272267D01*
X302672D01*
Y272267D01*
X303152Y272314D01*
X304063Y272404D01*
X305400Y272809D01*
X306633Y273468D01*
X307713Y274355D01*
X308599Y275435D01*
X309258Y276668D01*
X309664Y278005D01*
X309801Y279396D01*
X309791D01*
Y350801D01*
X309790Y350809D01*
X309901Y351367D01*
X310221Y351846D01*
X310701Y352167D01*
X311259Y352278D01*
X311267Y352277D01*
X311274Y352278D01*
X311832Y352167D01*
X312312Y351846D01*
X312633Y351367D01*
X312744Y350809D01*
X312742Y350801D01*
Y279396D01*
X312732D01*
X312869Y278005D01*
X313275Y276668D01*
X313934Y275435D01*
X314820Y274355D01*
X315901Y273468D01*
X317133Y272809D01*
X318471Y272404D01*
X319381Y272314D01*
X319861Y272267D01*
X319861Y272267D01*
X319862D01*
Y272267D01*
X320342Y272314D01*
X321252Y272404D01*
X322590Y272809D01*
X323822Y273468D01*
X324903Y274355D01*
X325789Y275435D01*
X326448Y276668D01*
X326854Y278005D01*
X326991Y279396D01*
X326980D01*
Y350801D01*
X326979Y350809D01*
X327090Y351367D01*
X327411Y351846D01*
X327890Y352167D01*
X328449Y352278D01*
X328456Y352277D01*
X328464Y352278D01*
X329022Y352167D01*
D02*
G37*
G36*
X580451Y366000D02*
X589532D01*
Y317961D01*
X580451D01*
Y317782D01*
X474000D01*
X473890Y317768D01*
X472896D01*
X472828Y318289D01*
X472752Y318472D01*
Y320366D01*
X470212D01*
X470102Y320381D01*
X452495D01*
X452000Y320381D01*
X451516Y320420D01*
X450598Y320510D01*
X449250Y320919D01*
X448007Y321583D01*
X446918Y322477D01*
X446024Y323566D01*
X445360Y324809D01*
X444951Y326157D01*
X444861Y327075D01*
X444822Y327559D01*
X444822Y328054D01*
Y339165D01*
X445369Y339457D01*
X446288Y340212D01*
X447043Y341131D01*
X447603Y342179D01*
X447948Y343317D01*
X448065Y344500D01*
X447948Y345683D01*
X447603Y346821D01*
X447043Y347869D01*
X446288Y348788D01*
X445369Y349543D01*
X444321Y350103D01*
X443183Y350448D01*
X442000Y350565D01*
X440817Y350448D01*
X439679Y350103D01*
X438631Y349543D01*
X437712Y348788D01*
X436957Y347869D01*
X436397Y346821D01*
X436052Y345683D01*
X435935Y344500D01*
X436052Y343317D01*
X436397Y342179D01*
X436957Y341131D01*
X437712Y340212D01*
X438631Y339457D01*
X439179Y339165D01*
Y327559D01*
X439179Y327559D01*
X439163D01*
X439321Y325551D01*
X439791Y323592D01*
X440562Y321731D01*
X441615Y320014D01*
X442923Y318482D01*
X444455Y317174D01*
X446172Y316121D01*
X446896Y315822D01*
X446796Y315321D01*
X412898D01*
X412788Y315307D01*
X411794D01*
X411725Y315829D01*
X411650Y316012D01*
Y317905D01*
X409110D01*
X409000Y317920D01*
X354240D01*
X354233Y317919D01*
X353675Y318030D01*
X353195Y318350D01*
X352875Y318830D01*
X352855Y318929D01*
X352775Y319396D01*
X352775D01*
X352638Y320787D01*
X352232Y322124D01*
X351573Y323357D01*
X350687Y324437D01*
X349606Y325324D01*
X348374Y325982D01*
X347037Y326388D01*
X346126Y326478D01*
X345646Y326525D01*
X345646Y326525D01*
X345646D01*
Y326525D01*
X345165Y326478D01*
X344255Y326388D01*
X342918Y325982D01*
X341685Y325324D01*
X340605Y324437D01*
X339718Y323357D01*
X339059Y322124D01*
X338654Y320787D01*
X338517Y319396D01*
X338527D01*
Y280912D01*
X338528Y280904D01*
X338417Y280346D01*
X338096Y279867D01*
X337617Y279546D01*
X337059Y279435D01*
X337051Y279436D01*
X337043Y279435D01*
X336485Y279546D01*
X336006Y279867D01*
X335685Y280346D01*
X335574Y280904D01*
X335575Y280912D01*
Y350801D01*
X335585D01*
X335448Y352192D01*
X335043Y353529D01*
X334384Y354762D01*
X333497Y355842D01*
X332417Y356729D01*
X331184Y357387D01*
X329847Y357793D01*
X328937Y357883D01*
X328456Y357930D01*
X328456Y357930D01*
X328456D01*
Y357930D01*
X327976Y357883D01*
X327065Y357793D01*
X325728Y357387D01*
X324496Y356729D01*
X323415Y355842D01*
X322529Y354762D01*
X321870Y353529D01*
X321464Y352192D01*
X321327Y350801D01*
X321337D01*
Y279396D01*
X321338Y279388D01*
X321227Y278830D01*
X320907Y278350D01*
X320427Y278030D01*
X319869Y277919D01*
X319862Y277920D01*
X319854Y277919D01*
X319296Y278030D01*
X318816Y278350D01*
X318496Y278830D01*
X318385Y279388D01*
X318386Y279396D01*
Y350801D01*
X318396D01*
X318259Y352192D01*
X317853Y353529D01*
X317194Y354762D01*
X316308Y355842D01*
X315227Y356729D01*
X313995Y357387D01*
X312657Y357793D01*
X311747Y357883D01*
X311267Y357930D01*
X311267Y357930D01*
X311267D01*
Y357930D01*
X310786Y357883D01*
X309876Y357793D01*
X308539Y357387D01*
X307306Y356729D01*
X306226Y355842D01*
X305339Y354762D01*
X304680Y353529D01*
X304275Y352192D01*
X304138Y350801D01*
X304148D01*
Y279396D01*
X304149Y279388D01*
X304038Y278830D01*
X303717Y278350D01*
X303238Y278030D01*
X302680Y277919D01*
X302672Y277920D01*
X302664Y277919D01*
X302106Y278030D01*
X301626Y278350D01*
X301306Y278830D01*
X301195Y279388D01*
X301196Y279396D01*
Y350801D01*
X301206D01*
X301069Y352192D01*
X300664Y353529D01*
X300005Y354762D01*
X299118Y355842D01*
X298038Y356729D01*
X296805Y357387D01*
X295468Y357793D01*
X294557Y357883D01*
X294077Y357930D01*
X294077Y357930D01*
X294077D01*
Y357930D01*
X293597Y357883D01*
X292686Y357793D01*
X291349Y357387D01*
X290116Y356729D01*
X289036Y355842D01*
X288149Y354762D01*
X287491Y353529D01*
X287085Y352192D01*
X286948Y350801D01*
X286958D01*
Y279396D01*
X286959Y279388D01*
X286848Y278830D01*
X286528Y278350D01*
X286048Y278030D01*
X285490Y277919D01*
X285482Y277920D01*
X285475Y277919D01*
X284917Y278030D01*
X284437Y278350D01*
X284117Y278830D01*
X284005Y279388D01*
X284007Y279396D01*
Y350801D01*
X284017D01*
X283880Y352192D01*
X283474Y353529D01*
X282815Y354762D01*
X281929Y355842D01*
X280848Y356729D01*
X279616Y357387D01*
X278278Y357793D01*
X277368Y357883D01*
X276888Y357930D01*
X276888Y357930D01*
X276888D01*
Y357930D01*
X276407Y357883D01*
X275497Y357793D01*
X274159Y357387D01*
X272927Y356729D01*
X271847Y355842D01*
X270960Y354762D01*
X270301Y353529D01*
X269896Y352192D01*
X269759Y350801D01*
X269769D01*
Y279396D01*
X269770Y279388D01*
X269659Y278830D01*
X269338Y278350D01*
X268859Y278030D01*
X268301Y277919D01*
X268293Y277920D01*
X268285Y277919D01*
X267727Y278030D01*
X267247Y278350D01*
X266927Y278830D01*
X266816Y279388D01*
X266817Y279396D01*
Y350801D01*
X266827D01*
X266690Y352192D01*
X266284Y353529D01*
X265626Y354762D01*
X264739Y355842D01*
X263659Y356729D01*
X262426Y357387D01*
X261089Y357793D01*
X260178Y357883D01*
X259698Y357930D01*
X259698Y357930D01*
X259698D01*
Y357930D01*
X259218Y357883D01*
X258307Y357793D01*
X256970Y357387D01*
X255737Y356729D01*
X254657Y355842D01*
X253770Y354762D01*
X253112Y353529D01*
X252706Y352192D01*
X252569Y350801D01*
X252579D01*
Y279396D01*
X252580Y279388D01*
X252469Y278830D01*
X252149Y278350D01*
X251669Y278030D01*
X251111Y277919D01*
X251103Y277920D01*
X251096Y277919D01*
X250537Y278030D01*
X250058Y278350D01*
X249737Y278830D01*
X249626Y279388D01*
X249627Y279396D01*
Y350801D01*
X249638D01*
X249501Y352192D01*
X249095Y353529D01*
X248436Y354762D01*
X247550Y355842D01*
X246469Y356729D01*
X245237Y357387D01*
X243899Y357793D01*
X242989Y357883D01*
X242509Y357930D01*
X242509Y357930D01*
X242509D01*
Y357930D01*
X242028Y357883D01*
X241118Y357793D01*
X239780Y357387D01*
X238548Y356729D01*
X237468Y355842D01*
X236581Y354762D01*
X235922Y353529D01*
X235516Y352192D01*
X235379Y350801D01*
X235390D01*
Y279396D01*
X235391Y279388D01*
X235280Y278830D01*
X234959Y278350D01*
X234479Y278030D01*
X233922Y277919D01*
X233914Y277920D01*
X233906Y277919D01*
X233348Y278030D01*
X232868Y278350D01*
X232548Y278830D01*
X232437Y279388D01*
X232438Y279396D01*
Y350801D01*
X232448D01*
X232311Y352192D01*
X231905Y353529D01*
X231247Y354762D01*
X230360Y355842D01*
X229280Y356729D01*
X228047Y357387D01*
X226710Y357793D01*
X225799Y357883D01*
X225319Y357930D01*
X225319Y357930D01*
X225319D01*
Y357930D01*
X224839Y357883D01*
X223928Y357793D01*
X222591Y357387D01*
X221358Y356729D01*
X220278Y355842D01*
X219391Y354762D01*
X218733Y353529D01*
X218327Y352192D01*
X218190Y350801D01*
X218200D01*
Y279396D01*
X218201Y279388D01*
X218090Y278830D01*
X217770Y278350D01*
X217290Y278030D01*
X216732Y277919D01*
X216724Y277920D01*
X216717Y277919D01*
X216158Y278030D01*
X215679Y278350D01*
X215358Y278830D01*
X215247Y279388D01*
X215248Y279396D01*
Y350801D01*
X215259D01*
X215122Y352192D01*
X214716Y353529D01*
X214057Y354762D01*
X213171Y355842D01*
X212090Y356729D01*
X210858Y357387D01*
X209520Y357793D01*
X208610Y357883D01*
X208130Y357930D01*
X208130Y357930D01*
X208129D01*
Y357930D01*
X207649Y357883D01*
X206739Y357793D01*
X205401Y357387D01*
X204169Y356729D01*
X203088Y355842D01*
X202202Y354762D01*
X201543Y353529D01*
X201137Y352192D01*
X201000Y350801D01*
X201010D01*
Y279396D01*
X201012Y279388D01*
X200901Y278830D01*
X200580Y278350D01*
X200100Y278030D01*
X199542Y277919D01*
X199535Y277920D01*
X199527Y277919D01*
X198969Y278030D01*
X198489Y278350D01*
X198169Y278830D01*
X198058Y279388D01*
X198059Y279396D01*
Y350801D01*
X198069D01*
X197932Y352192D01*
X197526Y353529D01*
X196868Y354762D01*
X195981Y355842D01*
X194901Y356729D01*
X193668Y357387D01*
X192331Y357793D01*
X191420Y357883D01*
X190940Y357930D01*
X190940Y357930D01*
X190940D01*
Y357930D01*
X190460Y357883D01*
X189549Y357793D01*
X188212Y357387D01*
X186979Y356729D01*
X185899Y355842D01*
X185012Y354762D01*
X184353Y353529D01*
X183948Y352192D01*
X183811Y350801D01*
X183821D01*
Y279396D01*
X183822Y279388D01*
X183711Y278830D01*
X183390Y278350D01*
X182911Y278030D01*
X182353Y277919D01*
X182345Y277920D01*
X182337Y277919D01*
X181779Y278030D01*
X181300Y278350D01*
X180979Y278830D01*
X180868Y279388D01*
X180869Y279396D01*
Y350801D01*
X180879D01*
X180743Y352192D01*
X180337Y353529D01*
X179678Y354762D01*
X178791Y355842D01*
X177711Y356729D01*
X176479Y357387D01*
X175141Y357793D01*
X174231Y357883D01*
X173750Y357930D01*
X173750Y357930D01*
X173750D01*
Y357930D01*
X173270Y357883D01*
X172360Y357793D01*
X171022Y357387D01*
X169790Y356729D01*
X168709Y355842D01*
X167823Y354762D01*
X167164Y353529D01*
X166758Y352192D01*
X166621Y350801D01*
X166631D01*
Y279396D01*
X166632Y279388D01*
X166522Y278830D01*
X166201Y278350D01*
X165721Y278030D01*
X165163Y277919D01*
X165156Y277920D01*
X165148Y277919D01*
X164590Y278030D01*
X164110Y278350D01*
X163790Y278830D01*
X163679Y279388D01*
X163680Y279396D01*
Y350801D01*
X163690D01*
X163553Y352192D01*
X163147Y353529D01*
X162488Y354762D01*
X161602Y355842D01*
X160521Y356729D01*
X159289Y357387D01*
X157952Y357793D01*
X157041Y357883D01*
X156561Y357930D01*
X156561Y357930D01*
X156561D01*
Y357930D01*
X156080Y357883D01*
X155170Y357793D01*
X153833Y357387D01*
X152600Y356729D01*
X151520Y355842D01*
X150633Y354762D01*
X149974Y353529D01*
X149569Y352192D01*
X149432Y350801D01*
X149442D01*
Y279396D01*
X149443Y279388D01*
X149332Y278830D01*
X149011Y278350D01*
X148532Y278030D01*
X147974Y277919D01*
X147966Y277920D01*
X147958Y277919D01*
X147400Y278030D01*
X146921Y278350D01*
X146600Y278830D01*
X146489Y279388D01*
X146490Y279396D01*
Y350801D01*
X146500D01*
X146363Y352192D01*
X145958Y353529D01*
X145299Y354762D01*
X144412Y355842D01*
X143332Y356729D01*
X142099Y357387D01*
X140762Y357793D01*
X139852Y357883D01*
X139371Y357930D01*
X139371Y357930D01*
X139371D01*
Y357930D01*
X138891Y357883D01*
X137980Y357793D01*
X136643Y357387D01*
X135411Y356729D01*
X134330Y355842D01*
X133444Y354762D01*
X132785Y353529D01*
X132379Y352192D01*
X132242Y350801D01*
X132252D01*
Y279396D01*
X132253Y279388D01*
X132142Y278830D01*
X131822Y278350D01*
X131342Y278030D01*
X130784Y277919D01*
X130777Y277920D01*
X130769Y277919D01*
X130211Y278030D01*
X129731Y278350D01*
X129411Y278830D01*
X129300Y279388D01*
X129301Y279396D01*
Y350801D01*
X129311D01*
X129174Y352192D01*
X128768Y353529D01*
X128109Y354762D01*
X127223Y355842D01*
X126143Y356729D01*
X124910Y357387D01*
X123573Y357793D01*
X122662Y357883D01*
X122182Y357930D01*
X122182Y357930D01*
X122182D01*
Y357930D01*
X121701Y357883D01*
X120791Y357793D01*
X119454Y357387D01*
X118221Y356729D01*
X117141Y355842D01*
X116254Y354762D01*
X115595Y353529D01*
X115190Y352192D01*
X115053Y350801D01*
X115063D01*
Y279396D01*
X115064Y279388D01*
X114953Y278830D01*
X114632Y278350D01*
X114153Y278030D01*
X113595Y277919D01*
X113587Y277920D01*
X113579Y277919D01*
X113021Y278030D01*
X112542Y278350D01*
X112221Y278830D01*
X112110Y279388D01*
X112111Y279396D01*
Y350801D01*
X112121D01*
X111984Y352192D01*
X111579Y353529D01*
X110920Y354762D01*
X110033Y355842D01*
X108953Y356729D01*
X107720Y357387D01*
X106383Y357793D01*
X105473Y357883D01*
X104992Y357930D01*
X104992Y357930D01*
X104992D01*
Y357930D01*
X104512Y357883D01*
X103601Y357793D01*
X102264Y357387D01*
X101031Y356729D01*
X99951Y355842D01*
X99065Y354762D01*
X98406Y353529D01*
X98000Y352192D01*
X97863Y350801D01*
X97873D01*
Y319396D01*
X97874Y319388D01*
X97763Y318830D01*
X97443Y318350D01*
X96963Y318030D01*
X96405Y317919D01*
X96397Y317920D01*
X61100D01*
X60994Y317906D01*
X60500Y317935D01*
Y317935D01*
X58492Y317777D01*
X56533Y317307D01*
X54672Y316536D01*
X52955Y315484D01*
X51423Y314176D01*
X50115Y312644D01*
X49062Y310926D01*
X48291Y309065D01*
X47821Y307107D01*
X47663Y305098D01*
X47679D01*
Y301200D01*
Y297319D01*
X47668D01*
X47805Y295928D01*
X48211Y294591D01*
X48870Y293358D01*
X49756Y292278D01*
X50837Y291391D01*
X52069Y290733D01*
X53407Y290327D01*
X54797Y290190D01*
Y290200D01*
X86203D01*
X86210Y290201D01*
X86768Y290090D01*
X87248Y289770D01*
X87568Y289290D01*
X87679Y288732D01*
X87678Y288724D01*
X87679Y288717D01*
X87568Y288158D01*
X87248Y287679D01*
X86768Y287358D01*
X86210Y287247D01*
X86203Y287248D01*
X14797D01*
Y287259D01*
X13407Y287122D01*
X12069Y286716D01*
X10837Y286057D01*
X9756Y285171D01*
X8870Y284090D01*
X8211Y282858D01*
X7805Y281520D01*
X7716Y280610D01*
X7668Y280130D01*
X7668Y280130D01*
Y280129D01*
X7668D01*
X7716Y279649D01*
X7805Y278739D01*
X8211Y277401D01*
X8870Y276169D01*
X9756Y275088D01*
X10837Y274202D01*
X12069Y273543D01*
X13407Y273137D01*
X14797Y273000D01*
Y273010D01*
X86203D01*
X86210Y273012D01*
X86768Y272901D01*
X87248Y272580D01*
X87568Y272100D01*
X87679Y271542D01*
X87678Y271535D01*
X87679Y271527D01*
X87568Y270969D01*
X87248Y270489D01*
X86768Y270169D01*
X86210Y270058D01*
X86203Y270059D01*
X14797D01*
Y270069D01*
X13407Y269932D01*
X12069Y269526D01*
X10837Y268867D01*
X9756Y267981D01*
X8870Y266901D01*
X8211Y265668D01*
X7805Y264331D01*
X7716Y263420D01*
X7668Y262940D01*
X7668Y262940D01*
Y262940D01*
X7668D01*
X7716Y262459D01*
X7805Y261549D01*
X8211Y260212D01*
X8870Y258979D01*
X9756Y257899D01*
X10837Y257012D01*
X12069Y256353D01*
X13407Y255948D01*
X14797Y255811D01*
Y255821D01*
X86203D01*
X86210Y255822D01*
X86768Y255711D01*
X87248Y255391D01*
X87568Y254911D01*
X87679Y254353D01*
X87678Y254345D01*
X87679Y254337D01*
X87568Y253779D01*
X87248Y253300D01*
X86768Y252979D01*
X86210Y252868D01*
X86203Y252869D01*
X14797D01*
Y252880D01*
X13407Y252743D01*
X12069Y252337D01*
X10837Y251678D01*
X9756Y250791D01*
X8870Y249711D01*
X8211Y248479D01*
X7805Y247141D01*
X7716Y246231D01*
X7668Y245750D01*
X7668Y245750D01*
Y245750D01*
X7668D01*
X7716Y245270D01*
X7805Y244359D01*
X8211Y243022D01*
X8870Y241790D01*
X9756Y240709D01*
X10837Y239823D01*
X12069Y239164D01*
X13407Y238758D01*
X14797Y238621D01*
Y238632D01*
X86203D01*
X86210Y238632D01*
X86768Y238522D01*
X87248Y238201D01*
X87568Y237721D01*
X87679Y237163D01*
X87678Y237156D01*
X87679Y237148D01*
X87568Y236590D01*
X87248Y236110D01*
X86768Y235790D01*
X86210Y235679D01*
X86203Y235680D01*
X14797D01*
Y235690D01*
X13407Y235553D01*
X12069Y235147D01*
X10837Y234489D01*
X9756Y233602D01*
X8870Y232522D01*
X8211Y231289D01*
X7805Y229952D01*
X7716Y229041D01*
X7668Y228561D01*
X7668Y228561D01*
Y228561D01*
X7668D01*
X7716Y228080D01*
X7805Y227170D01*
X8211Y225833D01*
X8870Y224600D01*
X9756Y223520D01*
X10837Y222633D01*
X12069Y221974D01*
X13407Y221569D01*
X14797Y221432D01*
Y221442D01*
X86203D01*
X86210Y221443D01*
X86768Y221332D01*
X87248Y221011D01*
X87568Y220532D01*
X87679Y219974D01*
X87678Y219966D01*
X87679Y219958D01*
X87568Y219400D01*
X87248Y218921D01*
X86768Y218600D01*
X86210Y218489D01*
X86203Y218490D01*
X14797D01*
Y218500D01*
X13407Y218363D01*
X12069Y217958D01*
X10837Y217299D01*
X9756Y216412D01*
X8870Y215332D01*
X8211Y214100D01*
X7805Y212762D01*
X7716Y211852D01*
X7668Y211371D01*
X7668Y211371D01*
Y211371D01*
X7668D01*
X7716Y210891D01*
X7805Y209981D01*
X8211Y208643D01*
X8870Y207411D01*
X9756Y206330D01*
X10837Y205444D01*
X12069Y204785D01*
X13407Y204379D01*
X14797Y204242D01*
Y204252D01*
X86203D01*
X86210Y204253D01*
X86768Y204142D01*
X87248Y203822D01*
X87568Y203342D01*
X87679Y202784D01*
X87678Y202777D01*
X87679Y202769D01*
X87568Y202211D01*
X87248Y201731D01*
X86768Y201411D01*
X86210Y201300D01*
X86203Y201301D01*
X14797D01*
Y201311D01*
X13407Y201174D01*
X12069Y200768D01*
X10837Y200109D01*
X9756Y199223D01*
X8870Y198143D01*
X8211Y196910D01*
X7805Y195573D01*
X7716Y194662D01*
X7668Y194182D01*
X7668Y194182D01*
Y194182D01*
X7668D01*
X7716Y193701D01*
X7805Y192791D01*
X8211Y191454D01*
X8870Y190221D01*
X9756Y189141D01*
X10837Y188254D01*
X12069Y187595D01*
X13407Y187190D01*
X14797Y187053D01*
Y187063D01*
X86203D01*
X86210Y187064D01*
X86768Y186953D01*
X87248Y186632D01*
X87568Y186153D01*
X87679Y185595D01*
X87678Y185587D01*
X87679Y185579D01*
X87568Y185021D01*
X87248Y184542D01*
X86768Y184221D01*
X86210Y184110D01*
X86203Y184111D01*
X14797D01*
Y184121D01*
X13407Y183984D01*
X12069Y183579D01*
X10837Y182920D01*
X9756Y182033D01*
X8870Y180953D01*
X8211Y179720D01*
X7805Y178383D01*
X7716Y177473D01*
X7668Y176992D01*
X7668Y176992D01*
Y176992D01*
X7668D01*
X7716Y176512D01*
X7805Y175601D01*
X8211Y174264D01*
X8870Y173031D01*
X9756Y171951D01*
X10837Y171065D01*
X12069Y170406D01*
X13407Y170000D01*
X14797Y169863D01*
Y169873D01*
X46203D01*
X46210Y169874D01*
X46768Y169763D01*
X47248Y169443D01*
X47569Y168963D01*
X47679Y168405D01*
X47679Y168397D01*
Y165800D01*
X47663D01*
X47821Y163792D01*
X48291Y161833D01*
X49062Y159972D01*
X50115Y158255D01*
X51423Y156723D01*
X52955Y155415D01*
X54672Y154362D01*
X56533Y153591D01*
X58492Y153121D01*
X60500Y152963D01*
Y152979D01*
X148889D01*
X148943Y152986D01*
X150106Y152833D01*
X151241Y152363D01*
X152171Y151649D01*
X152205Y151605D01*
X155023Y148787D01*
X155366Y148443D01*
X155661Y148065D01*
X155919Y147730D01*
X156264Y146895D01*
X156380Y146014D01*
X156378Y146000D01*
Y131242D01*
X156384Y131204D01*
X156249Y129840D01*
X155840Y128492D01*
X155176Y127249D01*
X154591Y126536D01*
X154276Y126166D01*
X152905Y124795D01*
X152885Y124769D01*
X152079Y124151D01*
X151111Y123750D01*
X150104Y123617D01*
X150072Y123621D01*
X148950D01*
Y123784D01*
X142587D01*
Y122784D01*
X139650D01*
Y122368D01*
X138529D01*
X138212Y122755D01*
X138223Y122807D01*
X138105Y123397D01*
X137842Y123791D01*
X138105Y124186D01*
X138223Y124776D01*
X138105Y125365D01*
X137842Y125760D01*
X138105Y126154D01*
X138223Y126744D01*
X138105Y127334D01*
X137771Y127834D01*
X137271Y128168D01*
X136681Y128286D01*
X134860D01*
X134648Y128362D01*
X134489Y128863D01*
X134751Y129255D01*
X134908Y130046D01*
X134898D01*
Y136516D01*
X135550D01*
Y140484D01*
X135550D01*
Y140616D01*
X135550D01*
Y144584D01*
X127250D01*
Y144129D01*
X126484D01*
Y144618D01*
X122516D01*
Y143729D01*
X109371D01*
X109263Y143801D01*
X108600Y143933D01*
X107937Y143801D01*
X107374Y143426D01*
X106999Y142863D01*
X106867Y142200D01*
X106999Y141537D01*
X107374Y140974D01*
X107937Y140599D01*
X108600Y140467D01*
X109263Y140599D01*
X109371Y140671D01*
X122516D01*
Y140256D01*
X123471D01*
X123622Y139756D01*
X123282Y139529D01*
X122909Y138970D01*
X122778Y138311D01*
X122782D01*
Y135092D01*
X122114D01*
Y135108D01*
X120288Y134928D01*
X118533Y134396D01*
X116914Y133531D01*
X115496Y132367D01*
X114332Y130948D01*
X113467Y129330D01*
X112935Y127575D01*
X112917Y127398D01*
X109895D01*
Y124673D01*
X97438D01*
Y124688D01*
X95429Y124530D01*
X93471Y124060D01*
X91610Y123289D01*
X89892Y122237D01*
X88361Y120928D01*
X88361Y120928D01*
X88018Y120564D01*
X87701Y120252D01*
X87701Y120252D01*
X87701Y120252D01*
X86516Y118864D01*
X85484Y117181D01*
X84728Y115357D01*
X84267Y113437D01*
X84113Y111469D01*
X84127D01*
X84127Y111468D01*
Y78907D01*
X83445D01*
X83019Y78963D01*
X52807D01*
Y80425D01*
X52883Y80608D01*
X52979Y81339D01*
Y102481D01*
X53869Y102957D01*
X54788Y103712D01*
X55543Y104631D01*
X56103Y105679D01*
X56448Y106817D01*
X56565Y108000D01*
X56448Y109183D01*
X56103Y110321D01*
X55543Y111369D01*
X54788Y112288D01*
X53869Y113043D01*
X52821Y113603D01*
X51683Y113948D01*
X50500Y114065D01*
X49317Y113948D01*
X48179Y113603D01*
X47131Y113043D01*
X46212Y112288D01*
X45457Y111369D01*
X44897Y110321D01*
X44552Y109183D01*
X44435Y108000D01*
X44552Y106817D01*
X44897Y105679D01*
X45457Y104631D01*
X46212Y103712D01*
X47131Y102957D01*
X47336Y102848D01*
Y81547D01*
X46369D01*
X46260Y81562D01*
X10100D01*
Y81740D01*
X1020D01*
Y366000D01*
X10100D01*
Y366178D01*
X580451D01*
Y366000D01*
D02*
G37*
G36*
X474000Y312139D02*
X580451D01*
Y311961D01*
X589532D01*
Y1020D01*
X1020D01*
Y75740D01*
X10100D01*
Y75919D01*
X46260D01*
X46369Y75933D01*
X47363D01*
X47432Y75411D01*
X47508Y75229D01*
Y73335D01*
X49982D01*
X50157Y73312D01*
X50224Y73320D01*
X80402D01*
Y73293D01*
X84127D01*
Y66417D01*
X84113D01*
X84267Y64462D01*
X84725Y62554D01*
X85475Y60742D01*
X86501Y59069D01*
X87775Y57577D01*
X89266Y56303D01*
X90939Y55278D01*
X92752Y54527D01*
X94659Y54069D01*
X96615Y53915D01*
Y53930D01*
X110402D01*
X110971Y54005D01*
X111356Y53761D01*
X111471Y53625D01*
Y52512D01*
X111458D01*
X111623Y51682D01*
X111642Y51655D01*
Y49705D01*
X112581D01*
X112733Y49205D01*
X112371Y48963D01*
X111987Y48388D01*
X111852Y47709D01*
X111856D01*
Y41240D01*
X111973Y40655D01*
X112304Y40159D01*
X112801Y39827D01*
X113386Y39711D01*
X113971Y39827D01*
X114467Y40159D01*
X114799Y40655D01*
X114915Y41240D01*
Y47178D01*
X115039Y47364D01*
X115155Y47949D01*
X115039Y48534D01*
X114707Y49030D01*
X114446Y49205D01*
X114598Y49705D01*
X115610D01*
Y54067D01*
X114529D01*
Y55102D01*
X114807D01*
Y55602D01*
X116905D01*
Y56643D01*
X120922D01*
X121254Y56143D01*
X121183Y55787D01*
X121300Y55198D01*
X121634Y54697D01*
X122134Y54363D01*
X122724Y54246D01*
X123787D01*
X123957Y53746D01*
X123185Y53153D01*
X122425Y52164D01*
X121948Y51011D01*
X121785Y49775D01*
X121797D01*
Y36306D01*
X121811Y36231D01*
X121641Y34934D01*
X121111Y33656D01*
X120268Y32557D01*
X119170Y31715D01*
X117892Y31185D01*
X116595Y31014D01*
X116520Y31029D01*
X73953D01*
Y38753D01*
X66047D01*
Y31029D01*
X64700D01*
Y31030D01*
X63485Y30910D01*
X62316Y30556D01*
X61239Y29980D01*
X60295Y29205D01*
X59945Y28780D01*
X58968Y28651D01*
X58007Y28253D01*
X57181Y27619D01*
X56547Y26793D01*
X56149Y25832D01*
X56013Y24800D01*
X56149Y23768D01*
X56547Y22807D01*
X57181Y21981D01*
X58007Y21347D01*
X58968Y20949D01*
X60000Y20813D01*
X61032Y20949D01*
X61993Y21347D01*
X62819Y21981D01*
X63453Y22807D01*
X63851Y23768D01*
X63987Y24800D01*
X63851Y25832D01*
X63453Y26793D01*
X63226Y27090D01*
X63407Y27674D01*
X63878Y27869D01*
X64680Y27975D01*
X64700Y27971D01*
X66866D01*
X67067Y27471D01*
X66547Y26793D01*
X66149Y25832D01*
X66013Y24800D01*
X66149Y23768D01*
X66547Y22807D01*
X67181Y21981D01*
X68007Y21347D01*
X68968Y20949D01*
X70000Y20813D01*
X71032Y20949D01*
X71993Y21347D01*
X72819Y21981D01*
X73453Y22807D01*
X73851Y23768D01*
X73987Y24800D01*
X73851Y25832D01*
X73453Y26793D01*
X72933Y27471D01*
X73134Y27971D01*
X116520D01*
Y27960D01*
X118148Y28120D01*
X119714Y28595D01*
X121157Y29366D01*
X122422Y30404D01*
X123459Y31669D01*
X124231Y33112D01*
X124706Y34678D01*
X124866Y36306D01*
X124855D01*
Y49775D01*
X124849Y49806D01*
X124974Y50433D01*
X125068Y50574D01*
X125473Y50859D01*
X125973Y50525D01*
X126563Y50407D01*
X126797Y50216D01*
Y42320D01*
X126725Y42212D01*
X126593Y41549D01*
X126725Y40885D01*
X127100Y40323D01*
X127663Y39948D01*
X128326Y39816D01*
X128989Y39948D01*
X129552Y40323D01*
X129927Y40885D01*
X130059Y41549D01*
X129927Y42212D01*
X129855Y42320D01*
Y50026D01*
X130355Y50436D01*
X130500Y50407D01*
X130553Y50418D01*
X130827Y50193D01*
X130932Y49984D01*
X131101Y48697D01*
X131621Y47442D01*
X132448Y46365D01*
X133525Y45538D01*
X134142Y45283D01*
Y44205D01*
X135154D01*
X135306Y43705D01*
X135045Y43530D01*
X134713Y43034D01*
X134597Y42449D01*
X134713Y41864D01*
X134888Y41602D01*
Y32382D01*
X135004Y31797D01*
X135336Y31301D01*
X135832Y30969D01*
X136417Y30852D01*
X137003Y30969D01*
X137499Y31301D01*
X137830Y31797D01*
X137947Y32382D01*
Y42158D01*
X137952D01*
X137813Y42856D01*
X137417Y43449D01*
X137035Y43705D01*
X137186Y44205D01*
X138110D01*
Y48567D01*
X134578D01*
X134141Y49221D01*
X133988Y49991D01*
X133998Y50043D01*
Y51888D01*
X134010Y51949D01*
Y53770D01*
X134056Y53897D01*
X134476Y54127D01*
X134492Y54128D01*
X134543Y54094D01*
X135244Y53955D01*
X140419D01*
Y53816D01*
X143356D01*
Y52816D01*
X149718D01*
Y52978D01*
X170497D01*
Y52968D01*
X171888Y53105D01*
X173226Y53511D01*
X174458Y54170D01*
X175539Y55056D01*
X176425Y56137D01*
X177084Y57369D01*
X177490Y58707D01*
X177627Y60097D01*
X177616D01*
Y91503D01*
X177615Y91510D01*
X177726Y92068D01*
X178047Y92548D01*
X178526Y92869D01*
X179085Y92980D01*
X179092Y92979D01*
X179100Y92980D01*
X179658Y92869D01*
X180138Y92548D01*
X180458Y92068D01*
X180569Y91510D01*
X180568Y91503D01*
Y20097D01*
X180558D01*
X180695Y18707D01*
X181100Y17369D01*
X181759Y16137D01*
X182646Y15056D01*
X183726Y14170D01*
X184959Y13511D01*
X186296Y13105D01*
X187207Y13016D01*
X187687Y12968D01*
X187687Y12968D01*
X187687D01*
Y12968D01*
X188167Y13016D01*
X189078Y13105D01*
X190415Y13511D01*
X191648Y14170D01*
X192728Y15056D01*
X193615Y16137D01*
X194273Y17369D01*
X194679Y18707D01*
X194816Y20097D01*
X194806D01*
Y91503D01*
X194805Y91510D01*
X194916Y92068D01*
X195236Y92548D01*
X195716Y92869D01*
X196274Y92980D01*
X196282Y92979D01*
X196290Y92980D01*
X196847Y92869D01*
X197327Y92548D01*
X197648Y92068D01*
X197759Y91510D01*
X197758Y91503D01*
Y20097D01*
X197747D01*
X197884Y18707D01*
X198290Y17369D01*
X198949Y16137D01*
X199836Y15056D01*
X200916Y14170D01*
X202148Y13511D01*
X203486Y13105D01*
X204396Y13016D01*
X204876Y12968D01*
X204876Y12968D01*
X204876D01*
Y12968D01*
X205357Y13016D01*
X206267Y13105D01*
X207605Y13511D01*
X208837Y14170D01*
X209917Y15056D01*
X210804Y16137D01*
X211463Y17369D01*
X211869Y18707D01*
X212006Y20097D01*
X211995D01*
Y91503D01*
X211994Y91510D01*
X212105Y92068D01*
X212426Y92548D01*
X212906Y92869D01*
X213464Y92980D01*
X213471Y92979D01*
X213479Y92980D01*
X214037Y92869D01*
X214517Y92548D01*
X214837Y92068D01*
X214948Y91510D01*
X214947Y91503D01*
Y20097D01*
X214937D01*
X215074Y18707D01*
X215480Y17369D01*
X216138Y16137D01*
X217025Y15056D01*
X218105Y14170D01*
X219338Y13511D01*
X220675Y13105D01*
X221586Y13016D01*
X222066Y12968D01*
X222066Y12968D01*
X222066D01*
Y12968D01*
X222547Y13016D01*
X223457Y13105D01*
X224794Y13511D01*
X226027Y14170D01*
X227107Y15056D01*
X227994Y16137D01*
X228653Y17369D01*
X229058Y18707D01*
X229195Y20097D01*
X229185D01*
Y91503D01*
X229184Y91510D01*
X229295Y92068D01*
X229615Y92548D01*
X230095Y92869D01*
X230653Y92980D01*
X230661Y92979D01*
X230668Y92980D01*
X231227Y92869D01*
X231706Y92548D01*
X232027Y92068D01*
X232138Y91510D01*
X232137Y91503D01*
Y20097D01*
X232126D01*
X232263Y18707D01*
X232669Y17369D01*
X233328Y16137D01*
X234215Y15056D01*
X235295Y14170D01*
X236527Y13511D01*
X237865Y13105D01*
X238775Y13016D01*
X239256Y12968D01*
X239256Y12968D01*
X239256D01*
Y12968D01*
X239736Y13016D01*
X240646Y13105D01*
X241984Y13511D01*
X243216Y14170D01*
X244297Y15056D01*
X245183Y16137D01*
X245842Y17369D01*
X246248Y18707D01*
X246385Y20097D01*
X246375D01*
Y91503D01*
X246374Y91510D01*
X246484Y92068D01*
X246805Y92548D01*
X247285Y92869D01*
X247843Y92980D01*
X247850Y92979D01*
X247858Y92980D01*
X248416Y92869D01*
X248896Y92548D01*
X249216Y92068D01*
X249327Y91510D01*
X249326Y91503D01*
Y20097D01*
X249316D01*
X249453Y18707D01*
X249859Y17369D01*
X250518Y16137D01*
X251404Y15056D01*
X252484Y14170D01*
X253717Y13511D01*
X255054Y13105D01*
X255965Y13016D01*
X256445Y12968D01*
X256445Y12968D01*
X256445D01*
Y12968D01*
X256926Y13016D01*
X257836Y13105D01*
X259173Y13511D01*
X260406Y14170D01*
X261486Y15056D01*
X262373Y16137D01*
X263032Y17369D01*
X263437Y18707D01*
X263574Y20097D01*
X263564D01*
Y91503D01*
X263563Y91510D01*
X263674Y92068D01*
X263995Y92548D01*
X264474Y92869D01*
X265032Y92980D01*
X265040Y92979D01*
X265048Y92980D01*
X265606Y92869D01*
X266085Y92548D01*
X266406Y92068D01*
X266517Y91510D01*
X266516Y91503D01*
Y20097D01*
X266506D01*
X266643Y18707D01*
X267048Y17369D01*
X267707Y16137D01*
X268594Y15056D01*
X269674Y14170D01*
X270906Y13511D01*
X272244Y13105D01*
X273154Y13016D01*
X273635Y12968D01*
X273635Y12968D01*
X273635D01*
Y12968D01*
X274115Y13016D01*
X275026Y13105D01*
X276363Y13511D01*
X277595Y14170D01*
X278676Y15056D01*
X279562Y16137D01*
X280221Y17369D01*
X280627Y18707D01*
X280764Y20097D01*
X280754D01*
Y91503D01*
X280753Y91510D01*
X280864Y92068D01*
X281184Y92548D01*
X281664Y92869D01*
X282222Y92980D01*
X282229Y92979D01*
X282237Y92980D01*
X282795Y92869D01*
X283275Y92548D01*
X283595Y92068D01*
X283706Y91510D01*
X283705Y91503D01*
Y20097D01*
X283695D01*
X283832Y18707D01*
X284238Y17369D01*
X284897Y16137D01*
X285783Y15056D01*
X286863Y14170D01*
X288096Y13511D01*
X289433Y13105D01*
X290344Y13016D01*
X290824Y12968D01*
X290824Y12968D01*
X290824D01*
Y12968D01*
X291305Y13016D01*
X292215Y13105D01*
X293552Y13511D01*
X294785Y14170D01*
X295865Y15056D01*
X296752Y16137D01*
X297411Y17369D01*
X297816Y18707D01*
X297953Y20097D01*
X297943D01*
Y91503D01*
X297942Y91510D01*
X298053Y92068D01*
X298374Y92548D01*
X298853Y92869D01*
X299411Y92980D01*
X299419Y92979D01*
X299427Y92980D01*
X299985Y92869D01*
X300464Y92548D01*
X300785Y92068D01*
X300896Y91510D01*
X300895Y91503D01*
Y20097D01*
X300885D01*
X301022Y18707D01*
X301427Y17369D01*
X302086Y16137D01*
X302973Y15056D01*
X304053Y14170D01*
X305286Y13511D01*
X306623Y13105D01*
X307533Y13016D01*
X308014Y12968D01*
X308014Y12968D01*
X308014D01*
Y12968D01*
X308494Y13016D01*
X309405Y13105D01*
X310742Y13511D01*
X311975Y14170D01*
X313055Y15056D01*
X313941Y16137D01*
X314600Y17369D01*
X315006Y18707D01*
X315143Y20097D01*
X315133D01*
Y91503D01*
X315132Y91510D01*
X315243Y92068D01*
X315563Y92548D01*
X316043Y92869D01*
X316601Y92980D01*
X316609Y92979D01*
X316616Y92980D01*
X317174Y92869D01*
X317654Y92548D01*
X317974Y92068D01*
X318085Y91510D01*
X318084Y91503D01*
Y20097D01*
X318074D01*
X318211Y18707D01*
X318617Y17369D01*
X319276Y16137D01*
X320162Y15056D01*
X321243Y14170D01*
X322475Y13511D01*
X323813Y13105D01*
X324723Y13016D01*
X325203Y12968D01*
X325203Y12968D01*
X325203D01*
Y12968D01*
X325684Y13016D01*
X326594Y13105D01*
X327931Y13511D01*
X329164Y14170D01*
X330244Y15056D01*
X331131Y16137D01*
X331790Y17369D01*
X332195Y18707D01*
X332332Y20097D01*
X332322D01*
Y91503D01*
X332321Y91510D01*
X332432Y92068D01*
X332753Y92548D01*
X333232Y92869D01*
X333790Y92980D01*
X333798Y92979D01*
X333806Y92980D01*
X334364Y92869D01*
X334843Y92548D01*
X335164Y92068D01*
X335275Y91510D01*
X335274Y91503D01*
Y20097D01*
X335264D01*
X335401Y18707D01*
X335806Y17369D01*
X336465Y16137D01*
X337352Y15056D01*
X338432Y14170D01*
X339665Y13511D01*
X341002Y13105D01*
X341912Y13016D01*
X342393Y12968D01*
X342393Y12968D01*
X342393D01*
Y12968D01*
X342873Y13016D01*
X343784Y13105D01*
X345121Y13511D01*
X346354Y14170D01*
X347434Y15056D01*
X348321Y16137D01*
X348979Y17369D01*
X349385Y18707D01*
X349522Y20097D01*
X349512D01*
Y91503D01*
X349511Y91510D01*
X349622Y92068D01*
X349942Y92548D01*
X350422Y92869D01*
X350980Y92980D01*
X350988Y92979D01*
X350995Y92980D01*
X351553Y92869D01*
X352033Y92548D01*
X352354Y92068D01*
X352465Y91510D01*
X352464Y91503D01*
Y20097D01*
X352453D01*
X352590Y18707D01*
X352996Y17369D01*
X353655Y16137D01*
X354541Y15056D01*
X355622Y14170D01*
X356854Y13511D01*
X358192Y13105D01*
X359102Y13016D01*
X359582Y12968D01*
X359582Y12968D01*
X359582D01*
Y12968D01*
X360063Y13016D01*
X360973Y13105D01*
X362311Y13511D01*
X363543Y14170D01*
X364623Y15056D01*
X365510Y16137D01*
X366169Y17369D01*
X366575Y18707D01*
X366711Y20097D01*
X366701D01*
Y91503D01*
X366700Y91510D01*
X366811Y92068D01*
X367132Y92548D01*
X367611Y92869D01*
X368169Y92980D01*
X368177Y92979D01*
X368185Y92980D01*
X368743Y92869D01*
X369222Y92548D01*
X369543Y92068D01*
X369654Y91510D01*
X369653Y91503D01*
Y20097D01*
X369643D01*
X369780Y18707D01*
X370185Y17369D01*
X370844Y16137D01*
X371731Y15056D01*
X372811Y14170D01*
X374044Y13511D01*
X375381Y13105D01*
X376291Y13016D01*
X376772Y12968D01*
X376772Y12968D01*
X376772D01*
Y12968D01*
X377252Y13016D01*
X378163Y13105D01*
X379500Y13511D01*
X380733Y14170D01*
X381813Y15056D01*
X382699Y16137D01*
X383358Y17369D01*
X383764Y18707D01*
X383901Y20097D01*
X383891D01*
Y91503D01*
X383890Y91510D01*
X384001Y92068D01*
X384321Y92548D01*
X384801Y92869D01*
X385359Y92980D01*
X385367Y92979D01*
X385374Y92980D01*
X385932Y92869D01*
X386412Y92548D01*
X386733Y92068D01*
X386844Y91510D01*
X386842Y91503D01*
Y20097D01*
X386832D01*
X386969Y18707D01*
X387375Y17369D01*
X388034Y16137D01*
X388920Y15056D01*
X390001Y14170D01*
X391233Y13511D01*
X392571Y13105D01*
X393481Y13016D01*
X393961Y12968D01*
X393961Y12968D01*
X393962D01*
Y12968D01*
X394442Y13016D01*
X395352Y13105D01*
X396690Y13511D01*
X397922Y14170D01*
X399003Y15056D01*
X399889Y16137D01*
X400548Y17369D01*
X400954Y18707D01*
X401090Y20097D01*
X401080D01*
Y91503D01*
X401079Y91510D01*
X401190Y92068D01*
X401511Y92548D01*
X401991Y92869D01*
X402549Y92980D01*
X402556Y92979D01*
X402564Y92980D01*
X403122Y92869D01*
X403602Y92548D01*
X403922Y92068D01*
X404033Y91510D01*
X404032Y91503D01*
Y20097D01*
X404022D01*
X404159Y18707D01*
X404565Y17369D01*
X405223Y16137D01*
X406110Y15056D01*
X407190Y14170D01*
X408423Y13511D01*
X409760Y13105D01*
X410671Y13016D01*
X411151Y12968D01*
X411151Y12968D01*
X411151D01*
Y12968D01*
X411631Y13016D01*
X412542Y13105D01*
X413879Y13511D01*
X415112Y14170D01*
X416192Y15056D01*
X417079Y16137D01*
X417737Y17369D01*
X418143Y18707D01*
X418280Y20097D01*
X418270D01*
Y91503D01*
X418269Y91510D01*
X418380Y92068D01*
X418700Y92548D01*
X419180Y92869D01*
X419738Y92980D01*
X419746Y92979D01*
X419754Y92980D01*
X420311Y92869D01*
X420791Y92548D01*
X421112Y92068D01*
X421223Y91510D01*
X421222Y91503D01*
Y20097D01*
X421211D01*
X421348Y18707D01*
X421754Y17369D01*
X422413Y16137D01*
X423300Y15056D01*
X424380Y14170D01*
X425612Y13511D01*
X426950Y13105D01*
X427860Y13016D01*
X428340Y12968D01*
X428340Y12968D01*
X428341D01*
Y12968D01*
X428821Y13016D01*
X429731Y13105D01*
X431069Y13511D01*
X432301Y14170D01*
X433382Y15056D01*
X434268Y16137D01*
X434927Y17369D01*
X435333Y18707D01*
X435470Y20097D01*
X435459D01*
Y91503D01*
X435458Y91510D01*
X435569Y92068D01*
X435890Y92548D01*
X436370Y92869D01*
X436928Y92980D01*
X436935Y92979D01*
X436943Y92980D01*
X437501Y92869D01*
X437981Y92548D01*
X438301Y92068D01*
X438412Y91510D01*
X438411Y91503D01*
Y20097D01*
X438401D01*
X438538Y18707D01*
X438944Y17369D01*
X439603Y16137D01*
X440489Y15056D01*
X441569Y14170D01*
X442802Y13511D01*
X444139Y13105D01*
X445050Y13016D01*
X445530Y12968D01*
X445530Y12968D01*
X445530D01*
Y12968D01*
X446010Y13016D01*
X446921Y13105D01*
X448258Y13511D01*
X449491Y14170D01*
X450571Y15056D01*
X451458Y16137D01*
X452116Y17369D01*
X452522Y18707D01*
X452659Y20097D01*
X452649D01*
Y91503D01*
X452648Y91510D01*
X452759Y92068D01*
X453079Y92548D01*
X453559Y92869D01*
X454117Y92980D01*
X454125Y92979D01*
X454133Y92980D01*
X454691Y92869D01*
X455170Y92548D01*
X455491Y92068D01*
X455602Y91510D01*
X455601Y91503D01*
Y20097D01*
X455590D01*
X455727Y18707D01*
X456133Y17369D01*
X456792Y16137D01*
X457679Y15056D01*
X458759Y14170D01*
X459991Y13511D01*
X461329Y13105D01*
X462239Y13016D01*
X462720Y12968D01*
X462720Y12968D01*
X462720D01*
Y12968D01*
X463200Y13016D01*
X464110Y13105D01*
X465448Y13511D01*
X466680Y14170D01*
X467761Y15056D01*
X468647Y16137D01*
X469306Y17369D01*
X469712Y18707D01*
X469849Y20097D01*
X469838D01*
Y91503D01*
X469838Y91510D01*
X469948Y92068D01*
X470269Y92548D01*
X470749Y92869D01*
X471307Y92980D01*
X471314Y92979D01*
X471322Y92980D01*
X471880Y92869D01*
X472360Y92548D01*
X472680Y92068D01*
X472791Y91510D01*
X472790Y91503D01*
Y20097D01*
X472780D01*
X472917Y18707D01*
X473323Y17369D01*
X473982Y16137D01*
X474868Y15056D01*
X475948Y14170D01*
X477181Y13511D01*
X478518Y13105D01*
X479429Y13016D01*
X479909Y12968D01*
X479909Y12968D01*
X479909D01*
Y12968D01*
X480390Y13016D01*
X481300Y13105D01*
X482637Y13511D01*
X483870Y14170D01*
X484950Y15056D01*
X485837Y16137D01*
X486496Y17369D01*
X486901Y18707D01*
X487038Y20097D01*
X487028D01*
Y91503D01*
X487027Y91510D01*
X487138Y92068D01*
X487459Y92548D01*
X487938Y92869D01*
X488496Y92980D01*
X488504Y92979D01*
X488512Y92980D01*
X489070Y92869D01*
X489549Y92548D01*
X489870Y92068D01*
X489981Y91510D01*
X489980Y91503D01*
Y20097D01*
X489970D01*
X490107Y18707D01*
X490512Y17369D01*
X491171Y16137D01*
X492058Y15056D01*
X493138Y14170D01*
X494371Y13511D01*
X495708Y13105D01*
X496618Y13016D01*
X497099Y12968D01*
X497099Y12968D01*
X497099D01*
Y12968D01*
X497579Y13016D01*
X498490Y13105D01*
X499827Y13511D01*
X501059Y14170D01*
X502140Y15056D01*
X503026Y16137D01*
X503685Y17369D01*
X504091Y18707D01*
X504228Y20097D01*
X504218D01*
Y51503D01*
X504217Y51510D01*
X504328Y52068D01*
X504648Y52548D01*
X505128Y52868D01*
X505686Y52979D01*
X505693Y52978D01*
X520000D01*
Y52963D01*
X522008Y53121D01*
X523967Y53591D01*
X525828Y54362D01*
X527545Y55415D01*
X529077Y56723D01*
X530385Y58255D01*
X531438Y59972D01*
X532209Y61833D01*
X532679Y63792D01*
X532837Y65800D01*
X532822D01*
Y108200D01*
Y108997D01*
X532832D01*
X532695Y110388D01*
X532289Y111726D01*
X531630Y112958D01*
X530744Y114039D01*
X529663Y114925D01*
X528431Y115584D01*
X527093Y115990D01*
X525703Y116127D01*
Y116116D01*
X494297D01*
X494290Y116115D01*
X493732Y116226D01*
X493252Y116547D01*
X492932Y117026D01*
X492821Y117585D01*
X492822Y117592D01*
X492821Y117600D01*
X492932Y118158D01*
X493252Y118638D01*
X493732Y118958D01*
X494290Y119069D01*
X494297Y119068D01*
X565703D01*
Y119058D01*
X567093Y119195D01*
X568431Y119600D01*
X569663Y120259D01*
X570744Y121146D01*
X571630Y122226D01*
X572289Y123459D01*
X572695Y124796D01*
X572784Y125707D01*
X572832Y126187D01*
X572832Y126187D01*
Y126187D01*
X572832D01*
X572784Y126667D01*
X572695Y127578D01*
X572289Y128915D01*
X571630Y130148D01*
X570744Y131228D01*
X569663Y132115D01*
X568431Y132773D01*
X567093Y133179D01*
X565703Y133316D01*
Y133306D01*
X517846D01*
X517838Y133305D01*
X517280Y133416D01*
X516800Y133736D01*
X516480Y134216D01*
X516369Y134774D01*
X516370Y134782D01*
X516369Y134790D01*
X516480Y135347D01*
X516800Y135827D01*
X517280Y136148D01*
X517838Y136259D01*
X517846Y136258D01*
X525703D01*
Y136247D01*
X527093Y136384D01*
X528431Y136790D01*
X529663Y137449D01*
X530744Y138336D01*
X531630Y139416D01*
X532289Y140648D01*
X532695Y141986D01*
X532832Y143377D01*
X532822D01*
Y147674D01*
Y156269D01*
Y170000D01*
Y184600D01*
X532837D01*
X532679Y186608D01*
X532209Y188567D01*
X531438Y190428D01*
X530385Y192145D01*
X529077Y193677D01*
X527545Y194985D01*
X525828Y196038D01*
X523967Y196809D01*
X522008Y197279D01*
X520000Y197437D01*
Y197422D01*
X394200D01*
X394162Y197416D01*
X392798Y197551D01*
X391450Y197960D01*
X390207Y198624D01*
X389118Y199518D01*
X388224Y200607D01*
X387560Y201850D01*
X387151Y203198D01*
X387017Y204562D01*
X387021Y204600D01*
Y299902D01*
X387017Y299940D01*
X387151Y301304D01*
X387560Y302652D01*
X388224Y303895D01*
X389118Y304984D01*
X390207Y305877D01*
X391450Y306542D01*
X392798Y306951D01*
X394162Y307085D01*
X394200Y307080D01*
X409000D01*
X409110Y307095D01*
X411650D01*
Y308988D01*
X411725Y309171D01*
X411794Y309693D01*
X412788D01*
X412898Y309679D01*
X467453D01*
Y309555D01*
X469661D01*
X469965Y309429D01*
Y309429D01*
X470212Y309555D01*
X472752D01*
Y311449D01*
X472828Y311632D01*
X472896Y312154D01*
X473890D01*
X474000Y312139D01*
D02*
G37*
G36*
X131187Y137528D02*
Y136516D01*
X131839D01*
Y132312D01*
X131339Y132032D01*
X130874Y132124D01*
X130284Y132007D01*
X129890Y131743D01*
X129495Y132007D01*
X128905Y132124D01*
X128316Y132007D01*
X127921Y131743D01*
X127527Y132007D01*
X126937Y132124D01*
X126347Y132007D01*
X125847Y131673D01*
X125513Y131173D01*
X125396Y130583D01*
Y128761D01*
X125270Y128411D01*
X124920Y128286D01*
X123099D01*
X122509Y128168D01*
X122009Y127834D01*
X121674Y127334D01*
X121557Y126744D01*
X121628Y126389D01*
X121296Y125889D01*
X119248D01*
X119213Y125882D01*
X118397Y126044D01*
X118205Y126172D01*
Y126898D01*
X116439D01*
X116068Y127398D01*
X116299Y128158D01*
X116881Y129246D01*
X117663Y130200D01*
X118617Y130982D01*
X119705Y131564D01*
X120886Y131922D01*
X122082Y132040D01*
X122114Y132034D01*
X124311D01*
X124896Y132150D01*
X125392Y132482D01*
X125724Y132978D01*
X125840Y133563D01*
Y136971D01*
X129431D01*
X130017Y137087D01*
X130513Y137419D01*
X130687Y137680D01*
X131187Y137528D01*
D02*
G37*
G36*
X132253Y127033D02*
X132843Y126915D01*
X133014Y126744D01*
X133131Y126154D01*
X133395Y125760D01*
X133131Y125365D01*
X133014Y124776D01*
X133131Y124186D01*
X133395Y123791D01*
X133131Y123397D01*
X133014Y122807D01*
X133131Y122217D01*
X133395Y121823D01*
X133131Y121428D01*
X133014Y120839D01*
X132843Y120667D01*
X132253Y120550D01*
X131858Y120287D01*
X131464Y120550D01*
X130874Y120667D01*
X130284Y120550D01*
X129890Y120287D01*
X129495Y120550D01*
X128905Y120667D01*
X128316Y120550D01*
X127921Y120287D01*
X127527Y120550D01*
X126937Y120667D01*
X126766Y120839D01*
X126648Y121428D01*
X126314Y121929D01*
X126268Y121960D01*
X126178Y122412D01*
X126256Y122807D01*
X126178Y123202D01*
X125954Y123537D01*
Y124046D01*
X126178Y124381D01*
X126256Y124776D01*
X126178Y125170D01*
X126268Y125623D01*
X126314Y125654D01*
X126648Y126154D01*
X126766Y126744D01*
X126937Y126915D01*
X127527Y127033D01*
X127921Y127296D01*
X128316Y127033D01*
X128905Y126915D01*
X129495Y127033D01*
X129890Y127296D01*
X130284Y127033D01*
X130874Y126915D01*
X131464Y127033D01*
X131858Y127296D01*
X132253Y127033D01*
D02*
G37*
G36*
X130813Y72477D02*
Y71465D01*
X131465D01*
Y67260D01*
X130965Y66980D01*
X130500Y67073D01*
X129910Y66956D01*
X129516Y66692D01*
X129121Y66956D01*
X128532Y67073D01*
X127942Y66956D01*
X127547Y66692D01*
X127153Y66956D01*
X126563Y67073D01*
X125973Y66956D01*
X125473Y66622D01*
X125139Y66121D01*
X125022Y65531D01*
Y63710D01*
X124896Y63360D01*
X124546Y63234D01*
X122724D01*
X122134Y63117D01*
X121634Y62783D01*
X121300Y62283D01*
X121183Y61693D01*
X121254Y61338D01*
X120922Y60837D01*
X116905D01*
Y61798D01*
X114529D01*
Y66642D01*
X114515Y66717D01*
X114685Y68014D01*
X115215Y69293D01*
X116058Y70391D01*
X117156Y71234D01*
X118435Y71763D01*
X119732Y71934D01*
X119807Y71919D01*
X129058D01*
X129643Y72036D01*
X130139Y72367D01*
X130313Y72628D01*
X130813Y72477D01*
D02*
G37*
G36*
X131879Y61981D02*
X132468Y61864D01*
X132698Y61400D01*
X132757Y61103D01*
X133020Y60709D01*
X132757Y60314D01*
X132640Y59724D01*
X132757Y59135D01*
X133020Y58740D01*
X132757Y58346D01*
X132640Y57756D01*
X132757Y57166D01*
X133020Y56772D01*
X132757Y56377D01*
X132698Y56080D01*
X132468Y55616D01*
X131879Y55499D01*
X131484Y55235D01*
X131090Y55499D01*
X130500Y55616D01*
X129910Y55499D01*
X129516Y55235D01*
X129121Y55499D01*
X128532Y55616D01*
X127942Y55499D01*
X127547Y55235D01*
X127153Y55499D01*
X126563Y55616D01*
X126333Y56080D01*
X126275Y56377D01*
X125940Y56877D01*
X125893Y56909D01*
X125803Y57361D01*
X125882Y57756D01*
X125803Y58151D01*
X125580Y58485D01*
Y58995D01*
X125803Y59330D01*
X125882Y59724D01*
X125803Y60119D01*
X125893Y60572D01*
X125940Y60603D01*
X126275Y61103D01*
X126333Y61400D01*
X126563Y61864D01*
X127153Y61981D01*
X127547Y62245D01*
X127942Y61981D01*
X128532Y61864D01*
X129121Y61981D01*
X129516Y62245D01*
X129910Y61981D01*
X130500Y61864D01*
X131090Y61981D01*
X131484Y62245D01*
X131879Y61981D01*
D02*
G37*
%LPC*%
G36*
X457276Y360795D02*
X447669D01*
X447279Y360718D01*
X446948Y360496D01*
X446727Y360166D01*
X446650Y359776D01*
Y351429D01*
X446667Y351341D01*
X446665Y351252D01*
X446706Y351148D01*
X446727Y351039D01*
X446777Y350965D01*
X446809Y350881D01*
X446886Y350801D01*
X446948Y350708D01*
X447023Y350658D01*
X447085Y350594D01*
X447428Y350354D01*
X447489Y350299D01*
X447802Y349983D01*
X448098Y349650D01*
X448375Y349301D01*
X448632Y348936D01*
X448868Y348558D01*
X449083Y348168D01*
X449275Y347766D01*
X449445Y347354D01*
X449592Y346933D01*
X449715Y346505D01*
X449814Y346070D01*
X449888Y345631D01*
X449937Y345187D01*
X449962Y344742D01*
Y344297D01*
X449937Y343852D01*
X449888Y343409D01*
X449814Y342969D01*
X449715Y342535D01*
X449592Y342106D01*
X449445Y341685D01*
X449275Y341273D01*
X449083Y340872D01*
X448868Y340481D01*
X448632Y340103D01*
X448375Y339739D01*
X448098Y339389D01*
X447802Y339056D01*
X447489Y338740D01*
X447403Y338664D01*
X447032Y338367D01*
X446996Y338323D01*
X446948Y338292D01*
X446869Y338173D01*
X446776Y338063D01*
X446759Y338008D01*
X446727Y337961D01*
X446699Y337820D01*
X446656Y337684D01*
X446661Y337627D01*
X446650Y337571D01*
Y329224D01*
X446727Y328834D01*
X446948Y328503D01*
X447279Y328282D01*
X447669Y328205D01*
X457276D01*
X457666Y328282D01*
X457997Y328503D01*
X458218Y328834D01*
X458295Y329224D01*
Y359776D01*
X458218Y360166D01*
X457997Y360496D01*
X457666Y360718D01*
X457276Y360795D01*
D02*
G37*
G36*
X436331D02*
X426724D01*
X426334Y360718D01*
X426003Y360496D01*
X425782Y360166D01*
X425705Y359776D01*
Y329224D01*
X425782Y328834D01*
X426003Y328503D01*
X426334Y328282D01*
X426724Y328205D01*
X436331D01*
X436721Y328282D01*
X437052Y328503D01*
X437273Y328834D01*
X437350Y329224D01*
Y337571D01*
X437333Y337659D01*
X437335Y337748D01*
X437294Y337852D01*
X437273Y337961D01*
X437223Y338035D01*
X437190Y338119D01*
X437114Y338199D01*
X437052Y338292D01*
X436977Y338341D01*
X436915Y338406D01*
X436580Y338641D01*
X436415Y338795D01*
X436113Y339109D01*
X435828Y339440D01*
X435562Y339785D01*
X435315Y340145D01*
X435088Y340518D01*
X434881Y340902D01*
X434697Y341298D01*
X434534Y341703D01*
X434393Y342116D01*
X434275Y342536D01*
X434180Y342962D01*
X434109Y343393D01*
X434061Y343826D01*
X434038Y344262D01*
Y344699D01*
X434061Y345134D01*
X434109Y345568D01*
X434180Y345999D01*
X434275Y346425D01*
X434393Y346845D01*
X434534Y347258D01*
X434697Y347663D01*
X434882Y348058D01*
X435088Y348443D01*
X435315Y348815D01*
X435562Y349175D01*
X435828Y349521D01*
X436113Y349852D01*
X436415Y350166D01*
X436604Y350342D01*
X436968Y350633D01*
X437004Y350676D01*
X437052Y350708D01*
X437131Y350828D01*
X437224Y350937D01*
X437241Y350992D01*
X437273Y351039D01*
X437301Y351180D01*
X437344Y351316D01*
X437339Y351373D01*
X437350Y351429D01*
Y359776D01*
X437273Y360166D01*
X437052Y360496D01*
X436721Y360718D01*
X436331Y360795D01*
D02*
G37*
G36*
X65776Y124295D02*
X56169D01*
X55779Y124218D01*
X55448Y123997D01*
X55227Y123666D01*
X55150Y123276D01*
Y114929D01*
X55167Y114841D01*
X55165Y114752D01*
X55206Y114648D01*
X55227Y114539D01*
X55277Y114465D01*
X55309Y114381D01*
X55387Y114301D01*
X55448Y114208D01*
X55523Y114158D01*
X55585Y114094D01*
X55928Y113854D01*
X55989Y113799D01*
X56302Y113483D01*
X56598Y113150D01*
X56875Y112801D01*
X57132Y112436D01*
X57368Y112058D01*
X57583Y111668D01*
X57775Y111266D01*
X57945Y110854D01*
X58092Y110433D01*
X58215Y110005D01*
X58314Y109570D01*
X58388Y109130D01*
X58438Y108687D01*
X58462Y108242D01*
Y107797D01*
X58438Y107352D01*
X58388Y106909D01*
X58314Y106469D01*
X58215Y106035D01*
X58092Y105606D01*
X57945Y105185D01*
X57775Y104773D01*
X57583Y104372D01*
X57368Y103981D01*
X57132Y103603D01*
X56875Y103239D01*
X56598Y102889D01*
X56302Y102556D01*
X55989Y102241D01*
X55904Y102164D01*
X55532Y101867D01*
X55496Y101823D01*
X55448Y101792D01*
X55369Y101672D01*
X55276Y101563D01*
X55259Y101508D01*
X55227Y101461D01*
X55199Y101320D01*
X55156Y101183D01*
X55161Y101127D01*
X55150Y101071D01*
Y92724D01*
X55227Y92334D01*
X55448Y92003D01*
X55779Y91782D01*
X56169Y91705D01*
X65776D01*
X66166Y91782D01*
X66497Y92003D01*
X66718Y92334D01*
X66795Y92724D01*
Y123276D01*
X66718Y123666D01*
X66497Y123997D01*
X66166Y124218D01*
X65776Y124295D01*
D02*
G37*
G36*
X44831D02*
X35224D01*
X34834Y124218D01*
X34503Y123997D01*
X34282Y123666D01*
X34205Y123276D01*
Y92724D01*
X34282Y92334D01*
X34503Y92003D01*
X34834Y91782D01*
X35224Y91705D01*
X44831D01*
X45221Y91782D01*
X45552Y92003D01*
X45773Y92334D01*
X45850Y92724D01*
Y101071D01*
X45833Y101159D01*
X45835Y101248D01*
X45794Y101352D01*
X45773Y101461D01*
X45723Y101535D01*
X45691Y101619D01*
X45614Y101699D01*
X45552Y101792D01*
X45477Y101841D01*
X45415Y101906D01*
X45080Y102141D01*
X44915Y102295D01*
X44613Y102609D01*
X44328Y102940D01*
X44062Y103285D01*
X43815Y103645D01*
X43588Y104018D01*
X43382Y104402D01*
X43197Y104798D01*
X43034Y105203D01*
X42893Y105616D01*
X42775Y106036D01*
X42680Y106462D01*
X42609Y106893D01*
X42562Y107326D01*
X42538Y107762D01*
Y108199D01*
X42562Y108634D01*
X42609Y109068D01*
X42680Y109499D01*
X42775Y109925D01*
X42893Y110345D01*
X43034Y110758D01*
X43197Y111163D01*
X43382Y111558D01*
X43588Y111943D01*
X43815Y112315D01*
X44062Y112675D01*
X44328Y113021D01*
X44613Y113352D01*
X44915Y113666D01*
X45104Y113842D01*
X45468Y114133D01*
X45504Y114176D01*
X45552Y114208D01*
X45631Y114328D01*
X45724Y114437D01*
X45741Y114492D01*
X45773Y114539D01*
X45801Y114680D01*
X45844Y114816D01*
X45839Y114873D01*
X45850Y114929D01*
Y123276D01*
X45773Y123666D01*
X45552Y123997D01*
X45221Y124218D01*
X44831Y124295D01*
D02*
G37*
%LPD*%
G36*
X457276Y329224D02*
X447669D01*
Y337571D01*
X448063Y337886D01*
X448192Y338001D01*
X448546Y338358D01*
X448879Y338734D01*
X449192Y339128D01*
X449481Y339538D01*
X449748Y339965D01*
X449990Y340405D01*
X450207Y340859D01*
X450399Y341323D01*
X450564Y341798D01*
X450703Y342281D01*
X450814Y342771D01*
X450898Y343267D01*
X450954Y343766D01*
X450982Y344268D01*
Y344771D01*
X450954Y345273D01*
X450898Y345772D01*
X450814Y346268D01*
X450703Y346758D01*
X450564Y347241D01*
X450399Y347716D01*
X450207Y348181D01*
X449990Y348634D01*
X449748Y349075D01*
X449482Y349501D01*
X449192Y349912D01*
X448880Y350306D01*
X448546Y350681D01*
X448192Y351038D01*
X448063Y351153D01*
X447669Y351429D01*
Y359776D01*
X457276D01*
Y329224D01*
D02*
G37*
G36*
X436331Y351429D02*
X435937Y351114D01*
X435699Y350893D01*
X435358Y350538D01*
X435037Y350165D01*
X434737Y349775D01*
X434458Y349370D01*
X434202Y348949D01*
X433970Y348515D01*
X433761Y348070D01*
X433577Y347613D01*
X433419Y347147D01*
X433286Y346673D01*
X433179Y346193D01*
X433099Y345707D01*
X433045Y345218D01*
X433018Y344726D01*
Y344234D01*
X433045Y343743D01*
X433099Y343254D01*
X433179Y342768D01*
X433286Y342288D01*
X433419Y341814D01*
X433577Y341348D01*
X433761Y340891D01*
X433970Y340445D01*
X434202Y340012D01*
X434458Y339591D01*
X434737Y339185D01*
X435037Y338795D01*
X435358Y338422D01*
X435699Y338068D01*
X435937Y337846D01*
X436331Y337571D01*
Y329224D01*
X426724D01*
Y359776D01*
X436331D01*
Y351429D01*
D02*
G37*
G36*
X65776Y92724D02*
X56169D01*
Y101071D01*
X56563Y101386D01*
X56692Y101501D01*
X57046Y101858D01*
X57380Y102234D01*
X57692Y102628D01*
X57981Y103038D01*
X58248Y103465D01*
X58490Y103905D01*
X58707Y104358D01*
X58899Y104823D01*
X59064Y105298D01*
X59203Y105781D01*
X59314Y106271D01*
X59398Y106767D01*
X59454Y107266D01*
X59482Y107768D01*
Y108271D01*
X59454Y108773D01*
X59398Y109272D01*
X59314Y109768D01*
X59203Y110258D01*
X59064Y110741D01*
X58899Y111216D01*
X58707Y111681D01*
X58490Y112134D01*
X58248Y112575D01*
X57982Y113001D01*
X57692Y113412D01*
X57380Y113805D01*
X57046Y114181D01*
X56692Y114538D01*
X56563Y114654D01*
X56169Y114929D01*
Y123276D01*
X65776D01*
Y92724D01*
D02*
G37*
G36*
X44831Y114929D02*
X44437Y114614D01*
X44199Y114393D01*
X43858Y114038D01*
X43537Y113665D01*
X43237Y113275D01*
X42958Y112870D01*
X42702Y112449D01*
X42470Y112015D01*
X42261Y111570D01*
X42077Y111113D01*
X41919Y110647D01*
X41786Y110173D01*
X41679Y109693D01*
X41599Y109207D01*
X41545Y108718D01*
X41518Y108227D01*
Y107734D01*
X41545Y107243D01*
X41599Y106754D01*
X41679Y106268D01*
X41786Y105788D01*
X41919Y105314D01*
X42077Y104848D01*
X42261Y104391D01*
X42470Y103945D01*
X42702Y103512D01*
X42958Y103091D01*
X43237Y102685D01*
X43537Y102295D01*
X43858Y101923D01*
X44199Y101568D01*
X44437Y101347D01*
X44831Y101071D01*
Y92724D01*
X35224D01*
Y123276D01*
X44831D01*
Y114929D01*
D02*
G37*
%LPC*%
G36*
X60000Y38787D02*
X58968Y38651D01*
X58007Y38253D01*
X57181Y37619D01*
X56547Y36793D01*
X56149Y35832D01*
X56013Y34800D01*
X56149Y33768D01*
X56547Y32807D01*
X57181Y31981D01*
X58007Y31347D01*
X58968Y30949D01*
X60000Y30813D01*
X61032Y30949D01*
X61993Y31347D01*
X62819Y31981D01*
X63453Y32807D01*
X63851Y33768D01*
X63987Y34800D01*
X63851Y35832D01*
X63453Y36793D01*
X62819Y37619D01*
X61993Y38253D01*
X61032Y38651D01*
X60000Y38787D01*
D02*
G37*
G36*
X50000D02*
X48968Y38651D01*
X48007Y38253D01*
X47181Y37619D01*
X46547Y36793D01*
X46149Y35832D01*
X46013Y34800D01*
X46149Y33768D01*
X46547Y32807D01*
X47181Y31981D01*
X48007Y31347D01*
X48968Y30949D01*
X50000Y30813D01*
X51032Y30949D01*
X51993Y31347D01*
X52819Y31981D01*
X53453Y32807D01*
X53851Y33768D01*
X53987Y34800D01*
X53851Y35832D01*
X53453Y36793D01*
X52819Y37619D01*
X51993Y38253D01*
X51032Y38651D01*
X50000Y38787D01*
D02*
G37*
G36*
Y26329D02*
X39367D01*
X38782Y26213D01*
X38285Y25881D01*
X37954Y25385D01*
X37837Y24800D01*
X37954Y24215D01*
X38285Y23719D01*
X38782Y23387D01*
X39367Y23271D01*
X50000D01*
X50585Y23387D01*
X51081Y23719D01*
X51413Y24215D01*
X51529Y24800D01*
X51413Y25385D01*
X51081Y25881D01*
X50585Y26213D01*
X50000Y26329D01*
D02*
G37*
%LPD*%
D15*
X124263Y142200D02*
G03*
X124663Y142600I0J400D01*
G01*
X119807Y73449D02*
G03*
X113000Y66642I0J-6807D01*
G01*
X113528Y51984D02*
G03*
X113626Y51886I98J0D01*
G01*
X113000Y52512D02*
G03*
X113626Y51886I626J0D01*
G01*
X122114Y133563D02*
G03*
X114300Y125749I0J-7814D01*
G01*
X113902Y117035D02*
G03*
X114300Y117997I-962J962D01*
G01*
X113626Y47949D02*
G03*
X113386Y47709I0J-240D01*
G01*
X136417Y42158D02*
G03*
X136126Y42449I-291J0D01*
G01*
X114000Y113000D02*
G03*
X114106Y112894I106J0D01*
G01*
X124500Y138500D02*
G03*
X124311Y138311I0J-189D01*
G01*
X118549Y77549D02*
G03*
X108800Y67800I0J-9749D01*
G01*
X132468Y64468D02*
G03*
X132994Y64995I0J526D01*
G01*
X116520Y29500D02*
G03*
X123326Y36306I0J6806D01*
G01*
X126563Y53012D02*
G03*
X123326Y49775I0J-3237D01*
G01*
X128532Y53012D02*
G03*
X128326Y52806I0J-206D01*
G01*
X132468Y50043D02*
G03*
X136126Y46386I3658J0D01*
G01*
X126937Y118063D02*
G03*
X123700Y114826I0J-3237D01*
G01*
X128905Y118063D02*
G03*
X128700Y117857I0J-206D01*
G01*
X64700Y29500D02*
G03*
X60000Y24800I0J-4700D01*
G01*
X132843Y129520D02*
G03*
X133369Y130046I0J526D01*
G01*
X132843Y115094D02*
G03*
X136500Y111437I3658J0D01*
G01*
X108600Y142200D02*
X124263D01*
X119807Y73449D02*
X124126D01*
X113000Y60649D02*
Y66642D01*
Y52512D02*
Y56751D01*
X114300Y117997D02*
Y121851D01*
X135618Y120839D02*
X141738D01*
X39367Y24800D02*
X50000D01*
X136417Y32382D02*
Y42158D01*
X113386Y41240D02*
Y47709D01*
X114106Y112894D02*
X118996D01*
X124311Y133563D02*
Y138311D01*
X122114Y133563D02*
X124311D01*
X131791Y107480D02*
X136500D01*
X124500Y138500D02*
X129431D01*
X124500Y138500D02*
Y138500D01*
X136500Y107480D02*
Y107500D01*
X124663Y142600D02*
X129431D01*
X118549Y77549D02*
X129058D01*
X130500Y64468D02*
X132468D01*
X132994Y64995D02*
Y73449D01*
Y77549D01*
X129058Y73449D02*
Y73449D01*
X124126Y73449D02*
X129058D01*
X128326Y41549D02*
Y52806D01*
X123326Y36306D02*
Y49775D01*
X64700Y29500D02*
X116520D01*
X132468Y50043D02*
Y53012D01*
X130500Y52012D02*
Y53012D01*
X123700Y109300D02*
Y114826D01*
X128700Y106600D02*
Y117857D01*
X130874Y129520D02*
X132843D01*
X133369Y130046D02*
Y138500D01*
Y142600D01*
X130874Y117063D02*
Y118063D01*
X132843Y115094D02*
Y118063D01*
X0Y0D02*
Y393701D01*
X590551D01*
Y0D02*
Y393701D01*
X0Y0D02*
X590551D01*
D18*
X349943Y319396D02*
G03*
X354240Y315098I4297J0D01*
G01*
X349943Y319396D02*
G03*
X345646Y323693I-4297J0D01*
G01*
X345646D02*
G03*
X341348Y319396I0J-4297D01*
G01*
X337051Y276615D02*
G03*
X341348Y280912I0J4297D01*
G01*
X332754D02*
G03*
X337051Y276615I4297J0D01*
G01*
X332754Y350801D02*
G03*
X328456Y355098I-4297J0D01*
G01*
X328456D02*
G03*
X324159Y350801I0J-4297D01*
G01*
X319862Y275098D02*
G03*
X324159Y279396I0J4297D01*
G01*
X315564D02*
G03*
X319862Y275098I4297J0D01*
G01*
X315564Y350801D02*
G03*
X311267Y355098I-4297J0D01*
G01*
X311267D02*
G03*
X306969Y350801I0J-4297D01*
G01*
X302672Y275098D02*
G03*
X306969Y279396I0J4297D01*
G01*
X298375D02*
G03*
X302672Y275098I4297J0D01*
G01*
X298375Y350801D02*
G03*
X294077Y355098I-4297J0D01*
G01*
X294077D02*
G03*
X289780Y350801I0J-4297D01*
G01*
X285482Y275098D02*
G03*
X289780Y279396I0J4297D01*
G01*
X281185D02*
G03*
X285482Y275098I4297J0D01*
G01*
X281185Y350801D02*
G03*
X276888Y355098I-4297J0D01*
G01*
X276888D02*
G03*
X272590Y350801I0J-4297D01*
G01*
X268293Y275098D02*
G03*
X272590Y279396I0J4297D01*
G01*
X263995D02*
G03*
X268293Y275098I4297J0D01*
G01*
X263995Y350801D02*
G03*
X259698Y355098I-4297J0D01*
G01*
X259698D02*
G03*
X255401Y350801I0J-4297D01*
G01*
X251103Y275098D02*
G03*
X255401Y279396I0J4297D01*
G01*
X246806D02*
G03*
X251103Y275098I4297J0D01*
G01*
X246806Y350801D02*
G03*
X242509Y355098I-4297J0D01*
G01*
X242509D02*
G03*
X238211Y350801I0J-4297D01*
G01*
X233914Y275098D02*
G03*
X238211Y279396I0J4297D01*
G01*
X229616D02*
G03*
X233914Y275098I4297J0D01*
G01*
X229616Y350801D02*
G03*
X225319Y355098I-4297J0D01*
G01*
X225319D02*
G03*
X221022Y350801I0J-4297D01*
G01*
X216724Y275098D02*
G03*
X221022Y279396I0J4297D01*
G01*
X212427D02*
G03*
X216724Y275098I4297J0D01*
G01*
X212427Y350801D02*
G03*
X208129Y355098I-4297J0D01*
G01*
X208129D02*
G03*
X203832Y350801I0J-4297D01*
G01*
X199535Y275098D02*
G03*
X203832Y279396I0J4297D01*
G01*
X195237D02*
G03*
X199535Y275098I4297J0D01*
G01*
X195237Y350801D02*
G03*
X190940Y355098I-4297J0D01*
G01*
X190940D02*
G03*
X186643Y350801I0J-4297D01*
G01*
X182345Y275098D02*
G03*
X186643Y279396I0J4297D01*
G01*
X178048D02*
G03*
X182345Y275098I4297J0D01*
G01*
X178048Y350801D02*
G03*
X173750Y355098I-4297J0D01*
G01*
X173750D02*
G03*
X169453Y350801I0J-4297D01*
G01*
X165156Y275098D02*
G03*
X169453Y279396I0J4297D01*
G01*
X160858D02*
G03*
X165156Y275098I4297J0D01*
G01*
X160858Y350801D02*
G03*
X156561Y355098I-4297J0D01*
G01*
X156561D02*
G03*
X152263Y350801I0J-4297D01*
G01*
X147966Y275098D02*
G03*
X152263Y279396I0J4297D01*
G01*
X143669D02*
G03*
X147966Y275098I4297J0D01*
G01*
X143669Y350801D02*
G03*
X139371Y355098I-4297J0D01*
G01*
X139371D02*
G03*
X135074Y350801I0J-4297D01*
G01*
X130777Y275098D02*
G03*
X135074Y279396I0J4297D01*
G01*
X126479D02*
G03*
X130777Y275098I4297J0D01*
G01*
X126479Y350801D02*
G03*
X122182Y355098I-4297J0D01*
G01*
X122182D02*
G03*
X117884Y350801I0J-4297D01*
G01*
X113587Y275098D02*
G03*
X117884Y279396I0J4297D01*
G01*
X109290D02*
G03*
X113587Y275098I4297J0D01*
G01*
X109290Y350801D02*
G03*
X104992Y355098I-4297J0D01*
G01*
X104992D02*
G03*
X100695Y350801I0J-4297D01*
G01*
X96397Y315098D02*
G03*
X100695Y319396I0J4297D01*
G01*
X50500Y165800D02*
G03*
X60500Y155800I10000J0D01*
G01*
X154200Y153600D02*
G03*
X148889Y155800I-5311J-5311D01*
G01*
X50500Y297319D02*
G03*
X54797Y293022I4297J0D01*
G01*
X90500Y288724D02*
G03*
X86203Y293022I-4297J0D01*
G01*
Y284427D02*
G03*
X90500Y288724I0J4297D01*
G01*
X14797Y284427D02*
G03*
X10500Y280129I0J-4297D01*
G01*
Y280129D02*
G03*
X14797Y275832I4297J0D01*
G01*
X90500Y271535D02*
G03*
X86203Y275832I-4297J0D01*
G01*
Y267237D02*
G03*
X90500Y271535I0J4297D01*
G01*
X14797Y267237D02*
G03*
X10500Y262940I0J-4297D01*
G01*
Y262940D02*
G03*
X14797Y258643I4297J0D01*
G01*
X90500Y254345D02*
G03*
X86203Y258643I-4297J0D01*
G01*
Y250048D02*
G03*
X90500Y254345I0J4297D01*
G01*
X14797Y250048D02*
G03*
X10500Y245750I0J-4297D01*
G01*
Y245750D02*
G03*
X14797Y241453I4297J0D01*
G01*
X90500Y237156D02*
G03*
X86203Y241453I-4297J0D01*
G01*
Y232858D02*
G03*
X90500Y237156I0J4297D01*
G01*
X14797Y232858D02*
G03*
X10500Y228561I0J-4297D01*
G01*
Y228561D02*
G03*
X14797Y224263I4297J0D01*
G01*
X90500Y219966D02*
G03*
X86203Y224263I-4297J0D01*
G01*
Y215669D02*
G03*
X90500Y219966I0J4297D01*
G01*
X14797Y215669D02*
G03*
X10500Y211371I0J-4297D01*
G01*
Y211371D02*
G03*
X14797Y207074I4297J0D01*
G01*
X90500Y202777D02*
G03*
X86203Y207074I-4297J0D01*
G01*
Y198479D02*
G03*
X90500Y202777I0J4297D01*
G01*
X14797Y198479D02*
G03*
X10500Y194182I0J-4297D01*
G01*
Y194182D02*
G03*
X14797Y189884I4297J0D01*
G01*
X90500Y185587D02*
G03*
X86203Y189884I-4297J0D01*
G01*
Y181290D02*
G03*
X90500Y185587I0J4297D01*
G01*
X14797Y181290D02*
G03*
X10500Y176992I0J-4297D01*
G01*
Y176992D02*
G03*
X14797Y172695I4297J0D01*
G01*
X50500Y168397D02*
G03*
X46203Y172695I-4297J0D01*
G01*
X60500Y315098D02*
G03*
X50500Y305098I0J-10000D01*
G01*
X525703Y139079D02*
G03*
X530000Y143377I0J4297D01*
G01*
X517846Y139079D02*
G03*
X513548Y134782I0J-4297D01*
G01*
Y134782D02*
G03*
X517846Y130484I4297J0D01*
G01*
X570000Y126187D02*
G03*
X565703Y130484I-4297J0D01*
G01*
Y121890D02*
G03*
X570000Y126187I0J4297D01*
G01*
X494297Y121890D02*
G03*
X490000Y117592I0J-4297D01*
G01*
Y117592D02*
G03*
X494297Y113295I4297J0D01*
G01*
X530000Y108997D02*
G03*
X525703Y113295I-4297J0D01*
G01*
X530000Y184600D02*
G03*
X520000Y194600I-10000J0D01*
G01*
X505693Y55800D02*
G03*
X501396Y51503I0J-4297D01*
G01*
X497099Y15800D02*
G03*
X501396Y20097I0J4297D01*
G01*
X492801D02*
G03*
X497099Y15800I4297J0D01*
G01*
X492801Y91503D02*
G03*
X488504Y95800I-4297J0D01*
G01*
X488504D02*
G03*
X484206Y91503I0J-4297D01*
G01*
X479909Y15800D02*
G03*
X484206Y20097I0J4297D01*
G01*
X475612D02*
G03*
X479909Y15800I4297J0D01*
G01*
X475612Y91503D02*
G03*
X471314Y95800I-4297J0D01*
G01*
X471314D02*
G03*
X467017Y91503I0J-4297D01*
G01*
X462720Y15800D02*
G03*
X467017Y20097I0J4297D01*
G01*
X458422D02*
G03*
X462720Y15800I4297J0D01*
G01*
X458422Y91503D02*
G03*
X454125Y95800I-4297J0D01*
G01*
X454125D02*
G03*
X449827Y91503I0J-4297D01*
G01*
X445530Y15800D02*
G03*
X449827Y20097I0J4297D01*
G01*
X441233D02*
G03*
X445530Y15800I4297J0D01*
G01*
X441233Y91503D02*
G03*
X436935Y95800I-4297J0D01*
G01*
X436935D02*
G03*
X432638Y91503I0J-4297D01*
G01*
X428340Y15800D02*
G03*
X432638Y20097I0J4297D01*
G01*
X424043D02*
G03*
X428340Y15800I4297J0D01*
G01*
X424043Y91503D02*
G03*
X419746Y95800I-4297J0D01*
G01*
X419746D02*
G03*
X415448Y91503I0J-4297D01*
G01*
X411151Y15800D02*
G03*
X415448Y20097I0J4297D01*
G01*
X406854D02*
G03*
X411151Y15800I4297J0D01*
G01*
X406854Y91503D02*
G03*
X402556Y95800I-4297J0D01*
G01*
X402556D02*
G03*
X398259Y91503I0J-4297D01*
G01*
X393962Y15800D02*
G03*
X398259Y20097I0J4297D01*
G01*
X389664D02*
G03*
X393962Y15800I4297J0D01*
G01*
X389664Y91503D02*
G03*
X385367Y95800I-4297J0D01*
G01*
X385367D02*
G03*
X381069Y91503I0J-4297D01*
G01*
X376772Y15800D02*
G03*
X381069Y20097I0J4297D01*
G01*
X372475D02*
G03*
X376772Y15800I4297J0D01*
G01*
X372475Y91503D02*
G03*
X368177Y95800I-4297J0D01*
G01*
X368177D02*
G03*
X363880Y91503I0J-4297D01*
G01*
X359582Y15800D02*
G03*
X363880Y20097I0J4297D01*
G01*
X355285D02*
G03*
X359582Y15800I4297J0D01*
G01*
X355285Y91503D02*
G03*
X350988Y95800I-4297J0D01*
G01*
X350988D02*
G03*
X346690Y91503I0J-4297D01*
G01*
X342393Y15800D02*
G03*
X346690Y20097I0J4297D01*
G01*
X338095D02*
G03*
X342393Y15800I4297J0D01*
G01*
X338095Y91503D02*
G03*
X333798Y95800I-4297J0D01*
G01*
X333798D02*
G03*
X329501Y91503I0J-4297D01*
G01*
X325203Y15800D02*
G03*
X329501Y20097I0J4297D01*
G01*
X320906D02*
G03*
X325203Y15800I4297J0D01*
G01*
X320906Y91503D02*
G03*
X316609Y95800I-4297J0D01*
G01*
X316609D02*
G03*
X312311Y91503I0J-4297D01*
G01*
X308014Y15800D02*
G03*
X312311Y20097I0J4297D01*
G01*
X303716D02*
G03*
X308014Y15800I4297J0D01*
G01*
X303716Y91503D02*
G03*
X299419Y95800I-4297J0D01*
G01*
X299419D02*
G03*
X295122Y91503I0J-4297D01*
G01*
X290824Y15800D02*
G03*
X295122Y20097I0J4297D01*
G01*
X286527D02*
G03*
X290824Y15800I4297J0D01*
G01*
X286527Y91503D02*
G03*
X282229Y95800I-4297J0D01*
G01*
X282229D02*
G03*
X277932Y91503I0J-4297D01*
G01*
X273635Y15800D02*
G03*
X277932Y20097I0J4297D01*
G01*
X269337D02*
G03*
X273635Y15800I4297J0D01*
G01*
X269337Y91503D02*
G03*
X265040Y95800I-4297J0D01*
G01*
X265040D02*
G03*
X260742Y91503I0J-4297D01*
G01*
X256445Y15800D02*
G03*
X260742Y20097I0J4297D01*
G01*
X252148D02*
G03*
X256445Y15800I4297J0D01*
G01*
X252148Y91503D02*
G03*
X247850Y95800I-4297J0D01*
G01*
X247850D02*
G03*
X243553Y91503I0J-4297D01*
G01*
X239256Y15800D02*
G03*
X243553Y20097I0J4297D01*
G01*
X234958D02*
G03*
X239256Y15800I4297J0D01*
G01*
X234958Y91503D02*
G03*
X230661Y95800I-4297J0D01*
G01*
X230661D02*
G03*
X226363Y91503I0J-4297D01*
G01*
X222066Y15800D02*
G03*
X226363Y20097I0J4297D01*
G01*
X217769D02*
G03*
X222066Y15800I4297J0D01*
G01*
X217769Y91503D02*
G03*
X213471Y95800I-4297J0D01*
G01*
X213471D02*
G03*
X209174Y91503I0J-4297D01*
G01*
X204876Y15800D02*
G03*
X209174Y20097I0J4297D01*
G01*
X200579D02*
G03*
X204876Y15800I4297J0D01*
G01*
X200579Y91503D02*
G03*
X196282Y95800I-4297J0D01*
G01*
X196282D02*
G03*
X191984Y91503I0J-4297D01*
G01*
X187687Y15800D02*
G03*
X191984Y20097I0J4297D01*
G01*
X183390D02*
G03*
X187687Y15800I4297J0D01*
G01*
X183390Y91503D02*
G03*
X179092Y95800I-4297J0D01*
G01*
X179092D02*
G03*
X174795Y91503I0J-4297D01*
G01*
X170497Y55800D02*
G03*
X174795Y60097I0J4297D01*
G01*
X520000Y55800D02*
G03*
X530000Y65800I0J10000D01*
G01*
X384200Y204600D02*
G03*
X394200Y194600I10000J0D01*
G01*
Y309902D02*
G03*
X384200Y299902I0J-10000D01*
G01*
X156271Y124171D02*
G03*
X159200Y131242I-7071J7071D01*
G01*
X150072Y120800D02*
G03*
X154900Y122800I0J6828D01*
G01*
X86949Y66417D02*
G03*
X96615Y56751I9666J0D01*
G01*
X159200Y146000D02*
G03*
X157361Y150438I-6277J0D01*
G01*
X470102Y312362D02*
G03*
X469965Y312500I-138J0D01*
G01*
X50500Y108000D02*
G03*
X50157Y107658I0J-343D01*
G01*
X97438Y121851D02*
G03*
X90367Y118922I0J-10000D01*
G01*
X141832Y120800D02*
G03*
X141738Y120839I-93J-93D01*
G01*
X367133Y315098D02*
X379400D01*
X358538D02*
X367133D01*
X354240D02*
X358538D01*
X349943Y319396D02*
Y319396D01*
X345646Y323693D02*
X345646D01*
X341348Y280912D02*
Y319396D01*
X337051Y276615D02*
X337051D01*
X332754Y280912D02*
Y350801D01*
X328456Y355098D02*
X328456D01*
X324159Y279396D02*
Y350801D01*
X319862Y275098D02*
X319862D01*
X315564Y279396D02*
Y350801D01*
X311267Y355098D02*
X311267D01*
X306969Y279396D02*
Y350801D01*
X302672Y275098D02*
X302672D01*
X298375Y279396D02*
Y350801D01*
X294077Y355098D02*
X294077D01*
X289780Y279396D02*
Y350801D01*
X285482Y275098D02*
X285482D01*
X281185Y279396D02*
Y350801D01*
X276888Y355098D02*
X276888D01*
X272590Y279396D02*
Y350801D01*
X268293Y275098D02*
X268293D01*
X263995Y279396D02*
Y350801D01*
X259698Y355098D02*
X259698D01*
X255401Y279396D02*
Y350801D01*
X251103Y275098D02*
X251103D01*
X246806Y279396D02*
Y350801D01*
X242509Y355098D02*
X242509D01*
X238211Y279396D02*
Y350801D01*
X233914Y275098D02*
X233914D01*
X229616Y279396D02*
Y350801D01*
X225319Y355098D02*
X225319D01*
X221022Y279396D02*
Y350801D01*
X216724Y275098D02*
X216724D01*
X212427Y279396D02*
Y350801D01*
X208129Y355098D02*
X208129D01*
X203832Y279396D02*
Y350801D01*
X199535Y275098D02*
X199535D01*
X195237Y279396D02*
Y350801D01*
X190940Y355098D02*
X190940D01*
X186643Y279396D02*
Y350801D01*
X182345Y275098D02*
X182345D01*
X178048Y279396D02*
Y350801D01*
X173750Y355098D02*
X173750D01*
X169453Y279396D02*
Y350801D01*
X165156Y275098D02*
X165156D01*
X160858Y279396D02*
Y350801D01*
X156561Y355098D02*
X156561D01*
X152263Y279396D02*
Y350801D01*
X147966Y275098D02*
X147966D01*
X143669Y279396D02*
Y350801D01*
X139371Y355098D02*
X139371D01*
X135074Y279396D02*
Y350801D01*
X130777Y275098D02*
X130777D01*
X126479Y279396D02*
Y350801D01*
X122182Y355098D02*
X122182D01*
X117884Y279396D02*
Y350801D01*
X113587Y275098D02*
X113587D01*
X109290Y279396D02*
Y350801D01*
X104992Y355098D02*
X104992D01*
X100695Y319396D02*
Y350801D01*
X95600Y315098D02*
X96397D01*
X379400D02*
X409000D01*
X61100D02*
X95600D01*
X50500Y301200D02*
Y303300D01*
Y297319D02*
Y301200D01*
X54797Y293022D02*
X86203D01*
X90500Y288724D02*
Y288724D01*
X14797Y284427D02*
X86203D01*
X10500Y280129D02*
Y280129D01*
X14797Y275832D02*
X86203D01*
X90500Y271535D02*
Y271535D01*
X14797Y267237D02*
X86203D01*
X10500Y262940D02*
Y262940D01*
X14797Y258643D02*
X86203D01*
X90500Y254345D02*
Y254345D01*
X14797Y250048D02*
X86203D01*
X10500Y245750D02*
Y245750D01*
X14797Y241453D02*
X86203D01*
X90500Y237156D02*
Y237156D01*
X14797Y232858D02*
X86203D01*
X10500Y228561D02*
Y228561D01*
X14797Y224263D02*
X86203D01*
X90500Y219966D02*
Y219966D01*
X14797Y215669D02*
X86203D01*
X10500Y211371D02*
Y211371D01*
X14797Y207074D02*
X86203D01*
X90500Y202777D02*
Y202777D01*
X14797Y198479D02*
X86203D01*
X10500Y194182D02*
Y194182D01*
X14797Y189884D02*
X86203D01*
X90500Y185587D02*
Y185587D01*
X14797Y181290D02*
X86203D01*
X10500Y176992D02*
Y176992D01*
X14797Y172695D02*
X46203D01*
X50500Y167600D02*
Y168397D01*
Y303300D02*
Y305098D01*
Y165800D02*
Y167600D01*
X530000Y156269D02*
Y170000D01*
Y147674D02*
Y156269D01*
Y143377D02*
Y147674D01*
X517846Y139079D02*
X525703D01*
X513548Y134782D02*
Y134782D01*
X517846Y130484D02*
X565703D01*
X570000Y126187D02*
Y126187D01*
X494297Y121890D02*
X565703D01*
X490000Y117592D02*
Y117592D01*
X494297Y113295D02*
X525703D01*
X530000Y108200D02*
Y108997D01*
Y170000D02*
Y184600D01*
Y65800D02*
Y108200D01*
X394200Y194600D02*
X520000D01*
X515500Y55800D02*
X520000D01*
X505693D02*
X515500D01*
X501396Y20097D02*
Y51503D01*
X497099Y15800D02*
X497099D01*
X492801Y20097D02*
Y91503D01*
X488504Y95800D02*
X488504D01*
X484206Y20097D02*
Y91503D01*
X479909Y15800D02*
X479909D01*
X475612Y20097D02*
Y91503D01*
X471314Y95800D02*
X471314D01*
X467017Y20097D02*
Y91503D01*
X462720Y15800D02*
X462720D01*
X458422Y20097D02*
Y91503D01*
X454125Y95800D02*
X454125D01*
X449827Y20097D02*
Y91503D01*
X445530Y15800D02*
X445530D01*
X441233Y20097D02*
Y91503D01*
X436935Y95800D02*
X436935D01*
X432638Y20097D02*
Y91503D01*
X428340Y15800D02*
X428340D01*
X424043Y20097D02*
Y91503D01*
X419746Y95800D02*
X419746D01*
X415448Y20097D02*
Y91503D01*
X411151Y15800D02*
X411151D01*
X406854Y20097D02*
Y91503D01*
X402556Y95800D02*
X402556D01*
X398259Y20097D02*
Y91503D01*
X393962Y15800D02*
X393962D01*
X389664Y20097D02*
Y91503D01*
X385367Y95800D02*
X385367D01*
X381069Y20097D02*
Y91503D01*
X376772Y15800D02*
X376772D01*
X372475Y20097D02*
Y91503D01*
X368177Y95800D02*
X368177D01*
X363880Y20097D02*
Y91503D01*
X359582Y15800D02*
X359582D01*
X355285Y20097D02*
Y91503D01*
X350988Y95800D02*
X350988D01*
X346690Y20097D02*
Y91503D01*
X342393Y15800D02*
X342393D01*
X338095Y20097D02*
Y91503D01*
X333798Y95800D02*
X333798D01*
X329501Y20097D02*
Y91503D01*
X325203Y15800D02*
X325203D01*
X320906Y20097D02*
Y91503D01*
X316609Y95800D02*
X316609D01*
X312311Y20097D02*
Y91503D01*
X308014Y15800D02*
X308014D01*
X303716Y20097D02*
Y91503D01*
X299419Y95800D02*
X299419D01*
X295122Y20097D02*
Y91503D01*
X290824Y15800D02*
X290824D01*
X286527Y20097D02*
Y91503D01*
X282229Y95800D02*
X282229D01*
X277932Y20097D02*
Y91503D01*
X273635Y15800D02*
X273635D01*
X269337Y20097D02*
Y91503D01*
X265040Y95800D02*
X265040D01*
X260742Y20097D02*
Y91503D01*
X256445Y15800D02*
X256445D01*
X252148Y20097D02*
Y91503D01*
X247850Y95800D02*
X247850D01*
X243553Y20097D02*
Y91503D01*
X239256Y15800D02*
X239256D01*
X234958Y20097D02*
Y91503D01*
X230661Y95800D02*
X230661D01*
X226363Y20097D02*
Y91503D01*
X222066Y15800D02*
X222066D01*
X217769Y20097D02*
Y91503D01*
X213471Y95800D02*
X213471D01*
X209174Y20097D02*
Y91503D01*
X204876Y15800D02*
X204876D01*
X200579Y20097D02*
Y91503D01*
X196282Y95800D02*
X196282D01*
X191984Y20097D02*
Y91503D01*
X187687Y15800D02*
X187687D01*
X183390Y20097D02*
Y91503D01*
X179092Y95800D02*
X179092D01*
X174795Y60097D02*
Y91503D01*
X169700Y55800D02*
X170497D01*
X146537D02*
X169700D01*
X384200Y204600D02*
Y299902D01*
X442000Y327559D02*
Y344500D01*
X412898Y312500D02*
X469965D01*
X159200Y131242D02*
Y146000D01*
X394200Y309902D02*
X409000D01*
X96615Y56751D02*
X110402D01*
X97438Y121851D02*
X111702D01*
X50157Y76142D02*
X83019D01*
X50157Y81339D02*
Y107658D01*
X4350Y78740D02*
X46260D01*
X60500Y155800D02*
X148889D01*
X154200Y153600D02*
X157361Y150438D01*
X154900Y122800D02*
X156271Y124171D01*
X145768Y120800D02*
X150072D01*
X452000Y317559D02*
X470102D01*
X474000Y314961D02*
X586201D01*
X86949Y78698D02*
Y111469D01*
X89722Y118278D02*
X90367Y118922D01*
X142587Y55787D02*
X142600Y55800D01*
X135244Y55787D02*
X142587D01*
D19*
X442000Y327559D02*
G03*
X452000Y317559I10000J0D01*
G01*
X89722Y118278D02*
G03*
X86949Y111469I6972J-6810D01*
G01*
X4350Y369000D02*
X586201D01*
X4350D02*
X586201D01*
X86949Y66417D02*
Y73502D01*
D20*
X116603Y57756D02*
G03*
X115598Y56751I0J-1005D01*
G01*
Y60649D02*
G03*
X116523Y59724I924J0D01*
G01*
X119206Y122807D02*
G03*
X116898Y121851I0J-3264D01*
G01*
Y125749D02*
G03*
X119248Y124776I2350J2350D01*
G01*
X119206Y122807D02*
X124161D01*
X119248Y124776D02*
X124161D01*
X116603Y57756D02*
X123787D01*
X116523Y59724D02*
X123787D01*
D36*
X4350Y369000D02*
D03*
X586201D02*
D03*
X4350Y78740D02*
D03*
X586201Y314961D02*
D03*
D37*
X10600Y386400D02*
D03*
Y351600D02*
D03*
X579951D02*
D03*
Y386400D02*
D03*
X10600Y96140D02*
D03*
Y61340D02*
D03*
X579951Y297561D02*
D03*
Y332361D02*
D03*
D38*
X146537Y55800D02*
D03*
X142600D02*
D03*
X38976Y24902D02*
D03*
X35039D02*
D03*
X133369Y138500D02*
D03*
X129431D02*
D03*
X132994Y73449D02*
D03*
X129058D02*
D03*
X145768Y120800D02*
D03*
X141832D02*
D03*
X133369Y142600D02*
D03*
X129431D02*
D03*
X132994Y77549D02*
D03*
X129058D02*
D03*
D39*
X113626Y51886D02*
D03*
Y47949D02*
D03*
X124500Y142437D02*
D03*
Y138500D02*
D03*
X124126Y77386D02*
D03*
Y73449D02*
D03*
X136500Y111437D02*
D03*
Y107500D02*
D03*
X136126Y46386D02*
D03*
Y42449D02*
D03*
X114000Y116937D02*
D03*
Y113000D02*
D03*
D40*
X124161Y126744D02*
D03*
Y124776D02*
D03*
Y122807D02*
D03*
Y120839D02*
D03*
X135618D02*
D03*
Y122807D02*
D03*
Y124776D02*
D03*
Y126744D02*
D03*
X123787Y61693D02*
D03*
Y59724D02*
D03*
Y57756D02*
D03*
Y55787D02*
D03*
X135244D02*
D03*
Y57756D02*
D03*
Y59724D02*
D03*
Y61693D02*
D03*
D41*
X126937Y118063D02*
D03*
X128905D02*
D03*
X130874D02*
D03*
X132843D02*
D03*
Y129520D02*
D03*
X130874D02*
D03*
X128905D02*
D03*
X126937D02*
D03*
X126563Y53012D02*
D03*
X128532D02*
D03*
X130500D02*
D03*
X132468D02*
D03*
Y64468D02*
D03*
X130500D02*
D03*
X128532D02*
D03*
X126563D02*
D03*
D42*
X129890Y123791D02*
D03*
X129516Y58740D02*
D03*
D43*
X114300Y125749D02*
D03*
Y121851D02*
D03*
X111702Y125749D02*
D03*
Y121851D02*
D03*
X116898D02*
D03*
Y125749D02*
D03*
X113000Y60649D02*
D03*
Y56751D02*
D03*
X110402Y60649D02*
D03*
Y56751D02*
D03*
X115598D02*
D03*
Y60649D02*
D03*
D44*
X431173Y333673D02*
D03*
X452827D02*
D03*
Y355327D02*
D03*
X431173D02*
D03*
X39673Y97173D02*
D03*
X61327D02*
D03*
Y118827D02*
D03*
X39673D02*
D03*
X70000Y34800D02*
D03*
D45*
X442000Y344500D02*
D03*
X50500Y108000D02*
D03*
D46*
X86949Y76100D02*
D03*
X83051D02*
D03*
X86949Y78698D02*
D03*
X83051D02*
D03*
Y73502D02*
D03*
X86949D02*
D03*
X50157Y78740D02*
D03*
X46260D02*
D03*
X50157Y81339D02*
D03*
X46260D02*
D03*
Y76142D02*
D03*
X50157D02*
D03*
X409000Y312500D02*
D03*
X412898D02*
D03*
X409000Y309902D02*
D03*
X412898D02*
D03*
Y315098D02*
D03*
X409000D02*
D03*
X470102Y314961D02*
D03*
X474000D02*
D03*
X470102Y312362D02*
D03*
X474000D02*
D03*
Y317559D02*
D03*
X470102D02*
D03*
D47*
X83019Y76142D02*
X83051Y76109D01*
Y76100D02*
Y76109D01*
D48*
X50157Y76100D02*
Y76142D01*
D49*
X70000Y24800D02*
D03*
X60000Y34800D02*
D03*
Y24800D02*
D03*
X50000Y34800D02*
D03*
Y24800D02*
D03*
D50*
X442935Y316440D02*
D03*
X439735D02*
D03*
X436535D02*
D03*
X433335D02*
D03*
X430135D02*
D03*
X426935D02*
D03*
X423735D02*
D03*
X420535D02*
D03*
X417335D02*
D03*
X415340Y308560D02*
D03*
X418540D02*
D03*
X421740D02*
D03*
X424940D02*
D03*
X428140D02*
D03*
X431340D02*
D03*
X434540D02*
D03*
X437740D02*
D03*
X440940D02*
D03*
X444140D02*
D03*
X447340D02*
D03*
X450540D02*
D03*
X453740D02*
D03*
X456940D02*
D03*
X460140D02*
D03*
X463340D02*
D03*
X466540D02*
D03*
X469737Y308428D02*
D03*
X472800Y308800D02*
D03*
X439098Y351050D02*
D03*
X436532Y349139D02*
D03*
X435059Y346298D02*
D03*
X434960Y343099D02*
D03*
X436283Y340185D02*
D03*
X438060Y337525D02*
D03*
Y334325D02*
D03*
Y331124D02*
D03*
Y327924D02*
D03*
X438357Y324738D02*
D03*
X439356Y321698D02*
D03*
X441026Y318968D02*
D03*
X471566Y321384D02*
D03*
X468368Y321499D02*
D03*
X465168D02*
D03*
X461968D02*
D03*
X458768D02*
D03*
X455568D02*
D03*
X452368D02*
D03*
X449246Y322199D02*
D03*
X446880Y324354D02*
D03*
X445959Y327418D02*
D03*
X445940Y330619D02*
D03*
Y333819D02*
D03*
Y337018D02*
D03*
X447451Y339839D02*
D03*
X448934Y342675D02*
D03*
X449043Y345873D02*
D03*
X447734Y348793D02*
D03*
X445302Y350873D02*
D03*
X442203Y351670D02*
D03*
X587856Y319087D02*
D03*
X584656D02*
D03*
X581461Y318906D02*
D03*
X578261Y318900D02*
D03*
X575061D02*
D03*
X571861D02*
D03*
X568661D02*
D03*
X565461D02*
D03*
X562261D02*
D03*
X559061D02*
D03*
X555861D02*
D03*
X552661D02*
D03*
X549461D02*
D03*
X546261D02*
D03*
X543061D02*
D03*
X539861D02*
D03*
X536661D02*
D03*
X533461D02*
D03*
X530261D02*
D03*
X527061D02*
D03*
X523861D02*
D03*
X520661D02*
D03*
X517461D02*
D03*
X514261D02*
D03*
X511061D02*
D03*
X507861D02*
D03*
X504661D02*
D03*
X501461D02*
D03*
X498261D02*
D03*
X495061D02*
D03*
X491861D02*
D03*
X488661D02*
D03*
X485461D02*
D03*
X482261D02*
D03*
X479061D02*
D03*
X478973Y311021D02*
D03*
X482173D02*
D03*
X485373D02*
D03*
X488573D02*
D03*
X491773D02*
D03*
X494973D02*
D03*
X498173D02*
D03*
X501373D02*
D03*
X504573D02*
D03*
X507773D02*
D03*
X510973D02*
D03*
X514173D02*
D03*
X517373D02*
D03*
X520573D02*
D03*
X523773D02*
D03*
X526973D02*
D03*
X530173D02*
D03*
X533373D02*
D03*
X536573D02*
D03*
X539773D02*
D03*
X542973D02*
D03*
X546173D02*
D03*
X549373D02*
D03*
X552573D02*
D03*
X555773D02*
D03*
X558973D02*
D03*
X562173D02*
D03*
X565373D02*
D03*
X568573D02*
D03*
X571773D02*
D03*
X574973D02*
D03*
X578173D02*
D03*
X581373D02*
D03*
X584568Y310834D02*
D03*
X587768D02*
D03*
X586023Y373127D02*
D03*
X582823D02*
D03*
X579629Y372940D02*
D03*
X576429D02*
D03*
X573229D02*
D03*
X570029D02*
D03*
X566829D02*
D03*
X563629D02*
D03*
X560429D02*
D03*
X557229D02*
D03*
X554029D02*
D03*
X550829D02*
D03*
X547629D02*
D03*
X544429D02*
D03*
X541229D02*
D03*
X538029D02*
D03*
X534829D02*
D03*
X531629D02*
D03*
X528429D02*
D03*
X525229D02*
D03*
X522029D02*
D03*
X518829D02*
D03*
X515629D02*
D03*
X512429D02*
D03*
X509229D02*
D03*
X506029D02*
D03*
X502829D02*
D03*
X499629D02*
D03*
X496429D02*
D03*
X493229D02*
D03*
X490029D02*
D03*
X486829D02*
D03*
X483629D02*
D03*
X480429D02*
D03*
X477229D02*
D03*
X474029D02*
D03*
X470829D02*
D03*
X467629D02*
D03*
X464429D02*
D03*
X461229D02*
D03*
X458029D02*
D03*
X454829D02*
D03*
X451629D02*
D03*
X448429D02*
D03*
X445229D02*
D03*
X442029D02*
D03*
X438829D02*
D03*
X435629D02*
D03*
X432429D02*
D03*
X429229D02*
D03*
X426029D02*
D03*
X422829D02*
D03*
X419629D02*
D03*
X416429D02*
D03*
X413229D02*
D03*
X410029D02*
D03*
X406829D02*
D03*
X403629D02*
D03*
X400429D02*
D03*
X397229D02*
D03*
X394029D02*
D03*
X390829D02*
D03*
X387629D02*
D03*
X384429D02*
D03*
X381229D02*
D03*
X378029D02*
D03*
X374829D02*
D03*
X371629D02*
D03*
X368429D02*
D03*
X365229D02*
D03*
X362029D02*
D03*
X358829D02*
D03*
X355629D02*
D03*
X352429D02*
D03*
X349229D02*
D03*
X346029D02*
D03*
X342829D02*
D03*
X339629D02*
D03*
X336429D02*
D03*
X333229D02*
D03*
X330029D02*
D03*
X326829D02*
D03*
X323629D02*
D03*
X320429D02*
D03*
X317229D02*
D03*
X314029D02*
D03*
X310829D02*
D03*
X307629D02*
D03*
X304429D02*
D03*
X301229D02*
D03*
X298029D02*
D03*
X294829D02*
D03*
X291629D02*
D03*
X288429D02*
D03*
X285229D02*
D03*
X282029D02*
D03*
X278829D02*
D03*
X275629D02*
D03*
X272429D02*
D03*
X269229D02*
D03*
X266029D02*
D03*
X262829D02*
D03*
X259629D02*
D03*
X256429D02*
D03*
X253229D02*
D03*
X250029D02*
D03*
X246829D02*
D03*
X243629D02*
D03*
X240429D02*
D03*
X237229D02*
D03*
X234029D02*
D03*
X230829D02*
D03*
X227629D02*
D03*
X224429D02*
D03*
X221229D02*
D03*
X218029D02*
D03*
X214829D02*
D03*
X211629D02*
D03*
X208429D02*
D03*
X205229D02*
D03*
X202029D02*
D03*
X198829D02*
D03*
X195629D02*
D03*
X192429D02*
D03*
X189229D02*
D03*
X186029D02*
D03*
X182829D02*
D03*
X179629D02*
D03*
X176429D02*
D03*
X173229D02*
D03*
X170029D02*
D03*
X166829D02*
D03*
X163629D02*
D03*
X160429D02*
D03*
X157229D02*
D03*
X154029D02*
D03*
X150829D02*
D03*
X147629D02*
D03*
X144429D02*
D03*
X141229D02*
D03*
X138029D02*
D03*
X134829D02*
D03*
X131629D02*
D03*
X128429D02*
D03*
X125229D02*
D03*
X122029D02*
D03*
X118829D02*
D03*
X115629D02*
D03*
X112429D02*
D03*
X109229D02*
D03*
X106029D02*
D03*
X102829D02*
D03*
X99629D02*
D03*
X96429D02*
D03*
X93229D02*
D03*
X90029D02*
D03*
X86829D02*
D03*
X83629D02*
D03*
X80429D02*
D03*
X77229D02*
D03*
X74029D02*
D03*
X70829D02*
D03*
X67629D02*
D03*
X64429D02*
D03*
X61229D02*
D03*
X58029D02*
D03*
X54829D02*
D03*
X51629D02*
D03*
X48429D02*
D03*
X45229D02*
D03*
X42029D02*
D03*
X38829D02*
D03*
X35629D02*
D03*
X32429D02*
D03*
X29229D02*
D03*
X26029D02*
D03*
X22829D02*
D03*
X19629D02*
D03*
X16429D02*
D03*
X13229D02*
D03*
X10029D02*
D03*
X6834Y373127D02*
D03*
X3634D02*
D03*
X2176Y364873D02*
D03*
X5376D02*
D03*
X8576Y364936D02*
D03*
X11773Y365060D02*
D03*
X14973D02*
D03*
X18173D02*
D03*
X21373D02*
D03*
X24573D02*
D03*
X27773D02*
D03*
X30973D02*
D03*
X34173D02*
D03*
X37373D02*
D03*
X40573D02*
D03*
X43773D02*
D03*
X46973D02*
D03*
X50173D02*
D03*
X53373D02*
D03*
X56573D02*
D03*
X59773D02*
D03*
X62973D02*
D03*
X66173D02*
D03*
X69373D02*
D03*
X72573D02*
D03*
X75773D02*
D03*
X78973D02*
D03*
X82173D02*
D03*
X85373D02*
D03*
X88573D02*
D03*
X91773D02*
D03*
X94973D02*
D03*
X98173D02*
D03*
X101373D02*
D03*
X104573D02*
D03*
X107773D02*
D03*
X110973D02*
D03*
X114173D02*
D03*
X117373D02*
D03*
X120573D02*
D03*
X123773D02*
D03*
X126973D02*
D03*
X130173D02*
D03*
X133373D02*
D03*
X136573D02*
D03*
X139773D02*
D03*
X142973D02*
D03*
X146173D02*
D03*
X149373D02*
D03*
X152573D02*
D03*
X155773D02*
D03*
X158973D02*
D03*
X162173D02*
D03*
X165373D02*
D03*
X168573D02*
D03*
X171773D02*
D03*
X174973D02*
D03*
X178173D02*
D03*
X181373D02*
D03*
X184573D02*
D03*
X187773D02*
D03*
X190973D02*
D03*
X194173D02*
D03*
X197373D02*
D03*
X200573D02*
D03*
X203773D02*
D03*
X206973D02*
D03*
X210173D02*
D03*
X213373D02*
D03*
X216573D02*
D03*
X219773D02*
D03*
X222973D02*
D03*
X226173D02*
D03*
X229373D02*
D03*
X232573D02*
D03*
X235773D02*
D03*
X238973D02*
D03*
X242173D02*
D03*
X245373D02*
D03*
X248573D02*
D03*
X251773D02*
D03*
X254973D02*
D03*
X258173D02*
D03*
X261373D02*
D03*
X264573D02*
D03*
X267773D02*
D03*
X270973D02*
D03*
X274173D02*
D03*
X277373D02*
D03*
X280573D02*
D03*
X283773D02*
D03*
X286973D02*
D03*
X290173D02*
D03*
X293373D02*
D03*
X296573D02*
D03*
X299773D02*
D03*
X302973D02*
D03*
X306173D02*
D03*
X309373D02*
D03*
X312573D02*
D03*
X315773D02*
D03*
X318973D02*
D03*
X322173D02*
D03*
X325373D02*
D03*
X328573D02*
D03*
X331773D02*
D03*
X334973D02*
D03*
X338173D02*
D03*
X341373D02*
D03*
X344573D02*
D03*
X347773D02*
D03*
X350973D02*
D03*
X354173D02*
D03*
X357373D02*
D03*
X360573D02*
D03*
X363773D02*
D03*
X366973D02*
D03*
X370173D02*
D03*
X373373D02*
D03*
X376573D02*
D03*
X379773D02*
D03*
X382973D02*
D03*
X386173D02*
D03*
X389373D02*
D03*
X392573D02*
D03*
X395773D02*
D03*
X398973D02*
D03*
X402173D02*
D03*
X405373D02*
D03*
X408573D02*
D03*
X411773D02*
D03*
X414973D02*
D03*
X418173D02*
D03*
X421373D02*
D03*
X424573D02*
D03*
X427773D02*
D03*
X430973D02*
D03*
X434173D02*
D03*
X437373D02*
D03*
X440573D02*
D03*
X443773D02*
D03*
X446973D02*
D03*
X450173D02*
D03*
X453373D02*
D03*
X456573D02*
D03*
X459773D02*
D03*
X462973D02*
D03*
X466173D02*
D03*
X469373D02*
D03*
X472573D02*
D03*
X475773D02*
D03*
X478973D02*
D03*
X482173D02*
D03*
X485373D02*
D03*
X488573D02*
D03*
X491773D02*
D03*
X494973D02*
D03*
X498173D02*
D03*
X501373D02*
D03*
X504573D02*
D03*
X507773D02*
D03*
X510973D02*
D03*
X514173D02*
D03*
X517373D02*
D03*
X520573D02*
D03*
X523773D02*
D03*
X526973D02*
D03*
X530173D02*
D03*
X533373D02*
D03*
X536573D02*
D03*
X539773D02*
D03*
X542973D02*
D03*
X546173D02*
D03*
X549373D02*
D03*
X552573D02*
D03*
X555773D02*
D03*
X558973D02*
D03*
X562173D02*
D03*
X565373D02*
D03*
X568573D02*
D03*
X571773D02*
D03*
X574973D02*
D03*
X578173D02*
D03*
X581373D02*
D03*
X584568Y364873D02*
D03*
X587768D02*
D03*
X117084Y63832D02*
D03*
X116197Y53479D02*
D03*
X119232Y54493D02*
D03*
X141179Y59375D02*
D03*
X137000Y52100D02*
D03*
X140013Y52352D02*
D03*
X143209Y52193D02*
D03*
X144460Y59317D02*
D03*
X139549Y124142D02*
D03*
X136500Y117300D02*
D03*
X139267Y117600D02*
D03*
X142441Y117193D02*
D03*
X143691Y124317D02*
D03*
X118384Y128931D02*
D03*
X117100Y118700D02*
D03*
X119609Y119411D02*
D03*
X93638Y125259D02*
D03*
X90679Y124040D02*
D03*
X88081Y122171D02*
D03*
X85877Y119851D02*
D03*
X84233Y117106D02*
D03*
X83258Y114058D02*
D03*
X83009Y110868D02*
D03*
Y107668D02*
D03*
Y104468D02*
D03*
Y101268D02*
D03*
Y98068D02*
D03*
Y94868D02*
D03*
Y91668D02*
D03*
Y88468D02*
D03*
Y85268D02*
D03*
Y82068D02*
D03*
X90889Y78986D02*
D03*
Y82186D02*
D03*
Y85386D02*
D03*
Y88586D02*
D03*
Y91786D02*
D03*
Y94986D02*
D03*
Y98186D02*
D03*
Y101386D02*
D03*
Y104586D02*
D03*
Y107786D02*
D03*
Y110986D02*
D03*
X91564Y114114D02*
D03*
X93651Y116539D02*
D03*
X96583Y117822D02*
D03*
X99782Y117911D02*
D03*
X102982D02*
D03*
X109382D02*
D03*
X107173Y125791D02*
D03*
X100773D02*
D03*
X97573D02*
D03*
X47580Y114543D02*
D03*
X45020Y112623D02*
D03*
X43553Y109778D02*
D03*
X43463Y106580D02*
D03*
X44795Y103670D02*
D03*
X46218Y100804D02*
D03*
Y97604D02*
D03*
Y94404D02*
D03*
Y91204D02*
D03*
Y88004D02*
D03*
Y84804D02*
D03*
X54097Y84731D02*
D03*
Y87931D02*
D03*
Y91131D02*
D03*
Y94331D02*
D03*
Y97531D02*
D03*
Y100731D02*
D03*
X55951Y103339D02*
D03*
X57434Y106175D02*
D03*
X57543Y109373D02*
D03*
X56234Y112293D02*
D03*
X53802Y114373D02*
D03*
X50703Y115170D02*
D03*
X79247Y80081D02*
D03*
X76047D02*
D03*
X72847D02*
D03*
X69647D02*
D03*
X66447D02*
D03*
X63247D02*
D03*
X60047D02*
D03*
X56847D02*
D03*
X53647D02*
D03*
X47100Y72800D02*
D03*
X50293Y72202D02*
D03*
X53493D02*
D03*
X56693D02*
D03*
X59893D02*
D03*
X63093D02*
D03*
X66293D02*
D03*
X69493D02*
D03*
X72693D02*
D03*
X75893D02*
D03*
X79093D02*
D03*
X5866Y82867D02*
D03*
X2667D02*
D03*
X3121Y74613D02*
D03*
X6321D02*
D03*
X9516Y74800D02*
D03*
X12716D02*
D03*
X15916D02*
D03*
X19116D02*
D03*
X22316D02*
D03*
X25516D02*
D03*
X28716D02*
D03*
X31916D02*
D03*
X35116D02*
D03*
X38316D02*
D03*
X41516D02*
D03*
X43300Y83000D02*
D03*
X40908Y82680D02*
D03*
X37708D02*
D03*
X34508D02*
D03*
X31308D02*
D03*
X28108D02*
D03*
X24908D02*
D03*
X21708D02*
D03*
X18508D02*
D03*
X15308D02*
D03*
X12108D02*
D03*
X8909Y82760D02*
D03*
X325039Y358284D02*
D03*
X322432Y356428D02*
D03*
X319504Y280228D02*
D03*
Y283428D02*
D03*
Y286628D02*
D03*
Y289828D02*
D03*
Y293028D02*
D03*
Y296228D02*
D03*
Y299428D02*
D03*
Y302628D02*
D03*
Y305828D02*
D03*
Y309028D02*
D03*
Y312228D02*
D03*
Y315428D02*
D03*
Y318628D02*
D03*
Y321828D02*
D03*
Y325028D02*
D03*
Y328228D02*
D03*
Y331428D02*
D03*
Y334628D02*
D03*
Y337828D02*
D03*
Y341028D02*
D03*
Y344228D02*
D03*
Y347428D02*
D03*
X319509Y350628D02*
D03*
X318934Y353775D02*
D03*
X317233Y356486D02*
D03*
X314608Y358316D02*
D03*
X311491Y359040D02*
D03*
X308339Y358487D02*
D03*
X305618Y356803D02*
D03*
X303771Y354190D02*
D03*
X302314Y280758D02*
D03*
Y283958D02*
D03*
Y287158D02*
D03*
Y290358D02*
D03*
Y293558D02*
D03*
Y296758D02*
D03*
Y299958D02*
D03*
Y303158D02*
D03*
Y306358D02*
D03*
Y309558D02*
D03*
Y312758D02*
D03*
Y315958D02*
D03*
Y319158D02*
D03*
Y322358D02*
D03*
Y325558D02*
D03*
Y328758D02*
D03*
Y331958D02*
D03*
Y335158D02*
D03*
Y338358D02*
D03*
Y341558D02*
D03*
Y344758D02*
D03*
Y347958D02*
D03*
X302316Y351158D02*
D03*
X301542Y354263D02*
D03*
X299671Y356859D02*
D03*
X296934Y358517D02*
D03*
X293777Y359040D02*
D03*
X290666Y358287D02*
D03*
X288058Y356433D02*
D03*
X285125Y280235D02*
D03*
Y283435D02*
D03*
Y286635D02*
D03*
Y289835D02*
D03*
Y293035D02*
D03*
Y296235D02*
D03*
Y299435D02*
D03*
Y302635D02*
D03*
Y305835D02*
D03*
Y309035D02*
D03*
Y312235D02*
D03*
Y315435D02*
D03*
Y318635D02*
D03*
Y321835D02*
D03*
Y325035D02*
D03*
Y328235D02*
D03*
Y331435D02*
D03*
Y334635D02*
D03*
Y337835D02*
D03*
Y341035D02*
D03*
Y344235D02*
D03*
Y347435D02*
D03*
X285131Y350635D02*
D03*
X284552Y353782D02*
D03*
X282849Y356491D02*
D03*
X280222Y358319D02*
D03*
X277104Y359040D02*
D03*
X273953Y358484D02*
D03*
X271233Y356798D02*
D03*
X269389Y354183D02*
D03*
X267935Y280751D02*
D03*
Y283951D02*
D03*
Y287151D02*
D03*
Y290351D02*
D03*
Y293551D02*
D03*
Y296751D02*
D03*
Y299951D02*
D03*
Y303151D02*
D03*
Y306351D02*
D03*
Y309551D02*
D03*
Y312751D02*
D03*
Y315951D02*
D03*
Y319151D02*
D03*
Y322351D02*
D03*
Y325551D02*
D03*
Y328751D02*
D03*
Y331951D02*
D03*
Y335151D02*
D03*
Y338351D02*
D03*
Y341551D02*
D03*
Y344751D02*
D03*
Y347951D02*
D03*
X267937Y351151D02*
D03*
X267166Y354256D02*
D03*
X265297Y356854D02*
D03*
X262561Y358514D02*
D03*
X259405Y359040D02*
D03*
X256294Y358290D02*
D03*
X253684Y356438D02*
D03*
X250746Y280241D02*
D03*
Y283441D02*
D03*
Y286642D02*
D03*
Y289842D02*
D03*
Y293041D02*
D03*
Y296241D02*
D03*
Y299442D02*
D03*
Y302642D02*
D03*
Y305841D02*
D03*
Y309042D02*
D03*
Y312242D02*
D03*
Y315441D02*
D03*
Y318641D02*
D03*
Y321842D02*
D03*
Y325042D02*
D03*
Y328241D02*
D03*
Y331441D02*
D03*
Y334642D02*
D03*
Y337842D02*
D03*
Y341041D02*
D03*
Y344241D02*
D03*
Y347442D02*
D03*
X250753Y350641D02*
D03*
X250170Y353788D02*
D03*
X248465Y356496D02*
D03*
X245837Y358321D02*
D03*
X242719Y359040D02*
D03*
X239567Y358482D02*
D03*
X236849Y356793D02*
D03*
X235008Y354176D02*
D03*
X233556Y280743D02*
D03*
Y283943D02*
D03*
Y287143D02*
D03*
Y290343D02*
D03*
Y293543D02*
D03*
Y296743D02*
D03*
Y299943D02*
D03*
Y303143D02*
D03*
Y306343D02*
D03*
Y309543D02*
D03*
Y312743D02*
D03*
Y315943D02*
D03*
Y319143D02*
D03*
Y322343D02*
D03*
Y325543D02*
D03*
Y328743D02*
D03*
Y331943D02*
D03*
Y335143D02*
D03*
Y338343D02*
D03*
Y341543D02*
D03*
Y344743D02*
D03*
Y347943D02*
D03*
X233558Y351143D02*
D03*
X232789Y354250D02*
D03*
X230923Y356849D02*
D03*
X228188Y358511D02*
D03*
X225032Y359040D02*
D03*
X221921Y358292D02*
D03*
X219309Y356443D02*
D03*
X216367Y280248D02*
D03*
Y283448D02*
D03*
Y286648D02*
D03*
Y289848D02*
D03*
Y293048D02*
D03*
Y296248D02*
D03*
Y299448D02*
D03*
Y302648D02*
D03*
Y305848D02*
D03*
Y309048D02*
D03*
Y312248D02*
D03*
Y315448D02*
D03*
Y318648D02*
D03*
Y321848D02*
D03*
Y325048D02*
D03*
Y328248D02*
D03*
Y331448D02*
D03*
Y334648D02*
D03*
Y337848D02*
D03*
Y341048D02*
D03*
Y344248D02*
D03*
Y347448D02*
D03*
X216375Y350648D02*
D03*
X215789Y353794D02*
D03*
X214082Y356500D02*
D03*
X211452Y358324D02*
D03*
X208333Y359040D02*
D03*
X205183Y358479D02*
D03*
X202466Y356788D02*
D03*
X200626Y354170D02*
D03*
X199177Y280737D02*
D03*
Y283937D02*
D03*
Y287137D02*
D03*
Y290337D02*
D03*
Y293537D02*
D03*
Y296737D02*
D03*
Y299937D02*
D03*
Y303137D02*
D03*
Y306337D02*
D03*
Y309537D02*
D03*
Y312737D02*
D03*
Y315937D02*
D03*
Y319137D02*
D03*
Y322337D02*
D03*
Y325537D02*
D03*
Y328737D02*
D03*
Y331937D02*
D03*
Y335137D02*
D03*
Y338337D02*
D03*
Y341537D02*
D03*
Y344737D02*
D03*
Y347937D02*
D03*
X199179Y351137D02*
D03*
X198413Y354244D02*
D03*
X196548Y356844D02*
D03*
X193815Y358509D02*
D03*
X190659Y359040D02*
D03*
X187547Y358295D02*
D03*
X184935Y356447D02*
D03*
X181988Y280254D02*
D03*
Y283454D02*
D03*
Y286654D02*
D03*
Y289854D02*
D03*
Y293054D02*
D03*
Y296254D02*
D03*
Y299454D02*
D03*
Y302654D02*
D03*
Y305854D02*
D03*
Y309054D02*
D03*
Y312254D02*
D03*
Y315454D02*
D03*
Y318654D02*
D03*
Y321854D02*
D03*
Y325054D02*
D03*
Y328254D02*
D03*
Y331454D02*
D03*
Y334654D02*
D03*
Y337854D02*
D03*
Y341054D02*
D03*
Y344254D02*
D03*
Y347454D02*
D03*
X181997Y350654D02*
D03*
X181407Y353799D02*
D03*
X179698Y356505D02*
D03*
X177067Y358326D02*
D03*
X173948Y359040D02*
D03*
X170798Y358477D02*
D03*
X168082Y356784D02*
D03*
X166245Y354165D02*
D03*
X164798Y280731D02*
D03*
Y283931D02*
D03*
Y287131D02*
D03*
Y290331D02*
D03*
Y293531D02*
D03*
Y296731D02*
D03*
Y299931D02*
D03*
Y303131D02*
D03*
Y306331D02*
D03*
Y309531D02*
D03*
Y312731D02*
D03*
Y315931D02*
D03*
Y319131D02*
D03*
Y322331D02*
D03*
Y325531D02*
D03*
Y328731D02*
D03*
Y331931D02*
D03*
Y335131D02*
D03*
Y338331D02*
D03*
Y341531D02*
D03*
Y344731D02*
D03*
Y347931D02*
D03*
X164799Y351131D02*
D03*
X164036Y354238D02*
D03*
X162173Y356840D02*
D03*
X159441Y358507D02*
D03*
X156286Y359040D02*
D03*
X153173Y358297D02*
D03*
X150559Y356451D02*
D03*
X147608Y280259D02*
D03*
Y283459D02*
D03*
Y286659D02*
D03*
Y289859D02*
D03*
Y293059D02*
D03*
Y296259D02*
D03*
Y299459D02*
D03*
Y302659D02*
D03*
Y305859D02*
D03*
Y309059D02*
D03*
Y312259D02*
D03*
Y315459D02*
D03*
Y318659D02*
D03*
Y321859D02*
D03*
Y325059D02*
D03*
Y328259D02*
D03*
Y331459D02*
D03*
Y334659D02*
D03*
Y337859D02*
D03*
Y341059D02*
D03*
Y344259D02*
D03*
Y347459D02*
D03*
X147618Y350659D02*
D03*
X147026Y353804D02*
D03*
X145315Y356508D02*
D03*
X142683Y358328D02*
D03*
X139564Y359041D02*
D03*
X136414Y358475D02*
D03*
X133700Y356781D02*
D03*
X131864Y354160D02*
D03*
X130419Y280725D02*
D03*
Y283925D02*
D03*
Y287125D02*
D03*
Y290325D02*
D03*
Y293525D02*
D03*
Y296725D02*
D03*
Y299925D02*
D03*
Y303125D02*
D03*
Y306325D02*
D03*
Y309525D02*
D03*
Y312725D02*
D03*
Y315925D02*
D03*
Y319125D02*
D03*
Y322325D02*
D03*
Y325525D02*
D03*
Y328725D02*
D03*
Y331925D02*
D03*
Y335125D02*
D03*
Y338325D02*
D03*
Y341525D02*
D03*
Y344725D02*
D03*
Y347925D02*
D03*
X130420Y351125D02*
D03*
X129659Y354233D02*
D03*
X127798Y356836D02*
D03*
X125067Y358505D02*
D03*
X121912Y359040D02*
D03*
X118799Y358299D02*
D03*
X116184Y356455D02*
D03*
X113229Y280264D02*
D03*
Y283464D02*
D03*
Y286664D02*
D03*
Y289864D02*
D03*
Y293064D02*
D03*
Y296264D02*
D03*
Y299464D02*
D03*
Y302664D02*
D03*
Y305864D02*
D03*
Y309064D02*
D03*
Y312264D02*
D03*
Y315464D02*
D03*
Y318664D02*
D03*
Y321864D02*
D03*
Y325064D02*
D03*
Y328264D02*
D03*
Y331464D02*
D03*
Y334664D02*
D03*
Y337864D02*
D03*
Y341064D02*
D03*
Y344264D02*
D03*
Y347464D02*
D03*
X113240Y350664D02*
D03*
X112645Y353808D02*
D03*
X110933Y356512D02*
D03*
X108300Y358330D02*
D03*
X105180Y359042D02*
D03*
X102031Y358473D02*
D03*
X99317Y356777D02*
D03*
X97483Y354155D02*
D03*
X96754Y351039D02*
D03*
X96755Y347839D02*
D03*
Y344639D02*
D03*
Y341439D02*
D03*
Y338239D02*
D03*
Y335039D02*
D03*
Y331839D02*
D03*
Y328639D02*
D03*
Y325439D02*
D03*
Y322239D02*
D03*
X96356Y319064D02*
D03*
X93157Y319038D02*
D03*
X89957D02*
D03*
X86757D02*
D03*
X83557D02*
D03*
X80357D02*
D03*
X77157D02*
D03*
X73957D02*
D03*
X70757D02*
D03*
X67557D02*
D03*
X64357D02*
D03*
X61157D02*
D03*
X57965Y318810D02*
D03*
X54911Y317855D02*
D03*
X52136Y316260D02*
D03*
X49828Y314043D02*
D03*
X48057Y311378D02*
D03*
X46966Y308370D02*
D03*
X46555Y305196D02*
D03*
X46560Y301996D02*
D03*
Y298797D02*
D03*
X46731Y295601D02*
D03*
X48005Y292666D02*
D03*
X50284Y290419D02*
D03*
X85170Y288367D02*
D03*
X81970D02*
D03*
X78770D02*
D03*
X75570D02*
D03*
X72370D02*
D03*
X69170D02*
D03*
X65970D02*
D03*
X62770D02*
D03*
X59570D02*
D03*
X56370D02*
D03*
X53170D02*
D03*
X49970D02*
D03*
X46770D02*
D03*
X43570D02*
D03*
X40370D02*
D03*
X37170D02*
D03*
X33970D02*
D03*
X30770D02*
D03*
X27570D02*
D03*
X24370D02*
D03*
X21170D02*
D03*
X17970D02*
D03*
X14770Y288391D02*
D03*
X11641Y287721D02*
D03*
X8972Y285956D02*
D03*
X7207Y283287D02*
D03*
X6536Y280158D02*
D03*
X7185Y277025D02*
D03*
X8932Y274344D02*
D03*
X11588Y272560D02*
D03*
X85033Y271177D02*
D03*
X81833D02*
D03*
X78633D02*
D03*
X75433D02*
D03*
X72233D02*
D03*
X69033D02*
D03*
X65833D02*
D03*
X62633D02*
D03*
X59433D02*
D03*
X56233D02*
D03*
X53033D02*
D03*
X49833D02*
D03*
X46633D02*
D03*
X43433D02*
D03*
X40233D02*
D03*
X37033D02*
D03*
X33833D02*
D03*
X30633D02*
D03*
X27433D02*
D03*
X24233D02*
D03*
X21033D02*
D03*
X17833D02*
D03*
X14633Y271184D02*
D03*
X11512Y270478D02*
D03*
X8873Y268667D02*
D03*
X7153Y265969D02*
D03*
X6547Y262827D02*
D03*
X7239Y259703D02*
D03*
X9033Y257053D02*
D03*
X85176Y253988D02*
D03*
X81976D02*
D03*
X78776D02*
D03*
X75576D02*
D03*
X72376D02*
D03*
X69176D02*
D03*
X65976D02*
D03*
X62776D02*
D03*
X59576D02*
D03*
X56376D02*
D03*
X53176D02*
D03*
X49976D02*
D03*
X46776D02*
D03*
X43576D02*
D03*
X40376D02*
D03*
X37176D02*
D03*
X33976D02*
D03*
X30776D02*
D03*
X27576D02*
D03*
X24376D02*
D03*
X21176D02*
D03*
X17976D02*
D03*
X14776Y254013D02*
D03*
X11647Y253344D02*
D03*
X8977Y251581D02*
D03*
X7209Y248914D02*
D03*
X6537Y245785D02*
D03*
X7182Y242651D02*
D03*
X8928Y239969D02*
D03*
X11583Y238183D02*
D03*
X85028Y236798D02*
D03*
X81828D02*
D03*
X78628D02*
D03*
X75428D02*
D03*
X72228D02*
D03*
X69028D02*
D03*
X65828D02*
D03*
X62628D02*
D03*
X59428D02*
D03*
X56228D02*
D03*
X53028D02*
D03*
X49828D02*
D03*
X46628D02*
D03*
X43428D02*
D03*
X40228D02*
D03*
X37028D02*
D03*
X33828D02*
D03*
X30628D02*
D03*
X27428D02*
D03*
X24228D02*
D03*
X21028D02*
D03*
X17828D02*
D03*
X14628Y236804D02*
D03*
X11507Y236097D02*
D03*
X8869Y234284D02*
D03*
X7151Y231585D02*
D03*
X6548Y228442D02*
D03*
X7242Y225318D02*
D03*
X9037Y222670D02*
D03*
X85182Y219608D02*
D03*
X81982D02*
D03*
X78782D02*
D03*
X75582D02*
D03*
X72382D02*
D03*
X69182D02*
D03*
X65982D02*
D03*
X62782D02*
D03*
X59582D02*
D03*
X56382D02*
D03*
X53182D02*
D03*
X49982D02*
D03*
X46782D02*
D03*
X43582D02*
D03*
X40382D02*
D03*
X37182D02*
D03*
X33982D02*
D03*
X30782D02*
D03*
X27582D02*
D03*
X24382D02*
D03*
X21182D02*
D03*
X17982D02*
D03*
X14782Y219635D02*
D03*
X11653Y218968D02*
D03*
X8981Y217206D02*
D03*
X7211Y214540D02*
D03*
X6537Y211412D02*
D03*
X7180Y208277D02*
D03*
X8924Y205594D02*
D03*
X11578Y203806D02*
D03*
X85022Y202419D02*
D03*
X81822D02*
D03*
X78622D02*
D03*
X75422D02*
D03*
X72222D02*
D03*
X69022D02*
D03*
X65822D02*
D03*
X62622D02*
D03*
X59422D02*
D03*
X56222D02*
D03*
X53022D02*
D03*
X49822D02*
D03*
X46622D02*
D03*
X43422D02*
D03*
X40222D02*
D03*
X37022D02*
D03*
X33822D02*
D03*
X30622D02*
D03*
X27422D02*
D03*
X24222D02*
D03*
X21022D02*
D03*
X17822D02*
D03*
X14622Y202424D02*
D03*
X11501Y201715D02*
D03*
X8865Y199901D02*
D03*
X7149Y197200D02*
D03*
X6548Y194057D02*
D03*
X7244Y190934D02*
D03*
X9041Y188286D02*
D03*
X85188Y185229D02*
D03*
X81988D02*
D03*
X78788D02*
D03*
X75588D02*
D03*
X72388D02*
D03*
X69188D02*
D03*
X65988D02*
D03*
X62788D02*
D03*
X59588D02*
D03*
X56388D02*
D03*
X53188D02*
D03*
X49988D02*
D03*
X46788D02*
D03*
X43588D02*
D03*
X40388D02*
D03*
X37188D02*
D03*
X33988D02*
D03*
X30788D02*
D03*
X27588D02*
D03*
X24388D02*
D03*
X21188D02*
D03*
X17988D02*
D03*
X14788Y185257D02*
D03*
X11658Y184591D02*
D03*
X8985Y182831D02*
D03*
X7213Y180167D02*
D03*
X6538Y177039D02*
D03*
X7178Y173904D02*
D03*
X8919Y171219D02*
D03*
X11572Y169429D02*
D03*
X14697Y168740D02*
D03*
X17897Y168755D02*
D03*
X21097D02*
D03*
X24297D02*
D03*
X27497D02*
D03*
X30697D02*
D03*
X33897D02*
D03*
X37097D02*
D03*
X40297D02*
D03*
X43497D02*
D03*
X46560Y167830D02*
D03*
X46625Y164630D02*
D03*
X47248Y161491D02*
D03*
X48590Y158586D02*
D03*
X50536Y156046D02*
D03*
X53033Y154045D02*
D03*
X55904Y152632D02*
D03*
X59030Y151948D02*
D03*
X62229Y151860D02*
D03*
X65429D02*
D03*
X68629D02*
D03*
X71829D02*
D03*
X75029D02*
D03*
X78229D02*
D03*
X81429D02*
D03*
X84629D02*
D03*
X87829D02*
D03*
X91029D02*
D03*
X94229D02*
D03*
X97429D02*
D03*
X100629D02*
D03*
X103829D02*
D03*
X107029D02*
D03*
X110229D02*
D03*
X113429D02*
D03*
X116629D02*
D03*
X119829D02*
D03*
X123029D02*
D03*
X126229D02*
D03*
X129429D02*
D03*
X132629D02*
D03*
X135829D02*
D03*
X139029D02*
D03*
X142229D02*
D03*
X145429D02*
D03*
X148629D02*
D03*
X151588Y150641D02*
D03*
X153850Y148378D02*
D03*
X155260Y145505D02*
D03*
Y142305D02*
D03*
Y139105D02*
D03*
Y135905D02*
D03*
Y132705D02*
D03*
X154974Y129518D02*
D03*
X153312Y126784D02*
D03*
X150759Y124854D02*
D03*
X147559Y124831D02*
D03*
X146256Y116689D02*
D03*
X149452Y116860D02*
D03*
X152637Y117170D02*
D03*
X155595Y118389D02*
D03*
X158079Y120407D02*
D03*
X160258Y122750D02*
D03*
X161893Y125501D02*
D03*
X162873Y128547D02*
D03*
X163140Y131736D02*
D03*
Y134936D02*
D03*
Y138136D02*
D03*
Y141336D02*
D03*
Y144536D02*
D03*
X162997Y147733D02*
D03*
X161948Y150756D02*
D03*
X160044Y153328D02*
D03*
X157781Y155590D02*
D03*
X155393Y157721D02*
D03*
X152523Y159136D02*
D03*
X149379Y159731D02*
D03*
X146179Y159740D02*
D03*
X142979D02*
D03*
X139779D02*
D03*
X136579D02*
D03*
X133379D02*
D03*
X130179D02*
D03*
X126979D02*
D03*
X123779D02*
D03*
X120579D02*
D03*
X117379D02*
D03*
X114179D02*
D03*
X110979D02*
D03*
X107779D02*
D03*
X104579D02*
D03*
X101379D02*
D03*
X98179D02*
D03*
X94979D02*
D03*
X91779D02*
D03*
X88579D02*
D03*
X85379D02*
D03*
X82179D02*
D03*
X78979D02*
D03*
X75779D02*
D03*
X72579D02*
D03*
X69379D02*
D03*
X66179D02*
D03*
X62979D02*
D03*
X59780Y159816D02*
D03*
X56818Y161027D02*
D03*
X54879Y163572D02*
D03*
X54440Y166742D02*
D03*
X54292Y169938D02*
D03*
X53103Y172909D02*
D03*
X50857Y175189D02*
D03*
X16008Y177350D02*
D03*
X19208D02*
D03*
X22408D02*
D03*
X25608D02*
D03*
X28808D02*
D03*
X32008D02*
D03*
X35208D02*
D03*
X38408D02*
D03*
X41608D02*
D03*
X44808D02*
D03*
X48008D02*
D03*
X51208D02*
D03*
X54408D02*
D03*
X57608D02*
D03*
X60808D02*
D03*
X64008D02*
D03*
X67208D02*
D03*
X70408D02*
D03*
X73608D02*
D03*
X76808D02*
D03*
X80008D02*
D03*
X83208D02*
D03*
X86408Y177348D02*
D03*
X89526Y178065D02*
D03*
X92156Y179889D02*
D03*
X93862Y182596D02*
D03*
X94448Y185742D02*
D03*
X93744Y188864D02*
D03*
X91937Y191504D02*
D03*
X15780Y194539D02*
D03*
X18981D02*
D03*
X22181D02*
D03*
X25381D02*
D03*
X28580D02*
D03*
X31780D02*
D03*
X34980D02*
D03*
X38181D02*
D03*
X41381D02*
D03*
X44581D02*
D03*
X47780D02*
D03*
X50981D02*
D03*
X54181D02*
D03*
X57380D02*
D03*
X60580D02*
D03*
X63780D02*
D03*
X66980D02*
D03*
X70180D02*
D03*
X73381D02*
D03*
X76581D02*
D03*
X79781D02*
D03*
X82981D02*
D03*
X86180Y194514D02*
D03*
X89313Y195166D02*
D03*
X91993Y196915D02*
D03*
X93775Y199573D02*
D03*
X94458Y202699D02*
D03*
X93833Y205838D02*
D03*
X92102Y208529D02*
D03*
X89455Y210328D02*
D03*
X16013Y211729D02*
D03*
X19213D02*
D03*
X22413D02*
D03*
X25613D02*
D03*
X28813D02*
D03*
X32013D02*
D03*
X35213D02*
D03*
X38413D02*
D03*
X41613D02*
D03*
X44813D02*
D03*
X48013D02*
D03*
X51213D02*
D03*
X54413D02*
D03*
X57613D02*
D03*
X60813D02*
D03*
X64013D02*
D03*
X67213D02*
D03*
X70413D02*
D03*
X73613D02*
D03*
X76813D02*
D03*
X80013D02*
D03*
X83213D02*
D03*
X86413Y211727D02*
D03*
X89531Y212446D02*
D03*
X92159Y214272D02*
D03*
X93865Y216980D02*
D03*
X94447Y220126D02*
D03*
X93742Y223248D02*
D03*
X91933Y225887D02*
D03*
X15775Y228919D02*
D03*
X18975D02*
D03*
X22175D02*
D03*
X25375D02*
D03*
X28575D02*
D03*
X31775D02*
D03*
X34975D02*
D03*
X38175D02*
D03*
X41375D02*
D03*
X44575D02*
D03*
X47775D02*
D03*
X50975D02*
D03*
X54175D02*
D03*
X57375D02*
D03*
X60575D02*
D03*
X63775D02*
D03*
X66975D02*
D03*
X70175D02*
D03*
X73375D02*
D03*
X76575D02*
D03*
X79775D02*
D03*
X82975D02*
D03*
X86175Y228894D02*
D03*
X89308Y229543D02*
D03*
X91989Y231291D02*
D03*
X93773Y233947D02*
D03*
X94457Y237073D02*
D03*
X93835Y240212D02*
D03*
X92105Y242904D02*
D03*
X89460Y244705D02*
D03*
X16018Y246108D02*
D03*
X19218D02*
D03*
X22418D02*
D03*
X25618D02*
D03*
X28818D02*
D03*
X32018D02*
D03*
X35218D02*
D03*
X38418D02*
D03*
X41618D02*
D03*
X44818D02*
D03*
X48018D02*
D03*
X51218D02*
D03*
X54418D02*
D03*
X57618D02*
D03*
X60818D02*
D03*
X64018D02*
D03*
X67218D02*
D03*
X70418D02*
D03*
X73618D02*
D03*
X76818D02*
D03*
X80018D02*
D03*
X83218D02*
D03*
X86418Y246106D02*
D03*
X89536Y246827D02*
D03*
X92163Y248654D02*
D03*
X93866Y251363D02*
D03*
X94446Y254510D02*
D03*
X93740Y257631D02*
D03*
X91930Y260270D02*
D03*
X15770Y263298D02*
D03*
X18970D02*
D03*
X22170D02*
D03*
X25370D02*
D03*
X28570D02*
D03*
X31770D02*
D03*
X34970D02*
D03*
X38170D02*
D03*
X41370D02*
D03*
X44570D02*
D03*
X47770D02*
D03*
X50970D02*
D03*
X54170D02*
D03*
X57370D02*
D03*
X60570D02*
D03*
X63770D02*
D03*
X66970D02*
D03*
X70170D02*
D03*
X73370D02*
D03*
X76570D02*
D03*
X79770D02*
D03*
X82970D02*
D03*
X86170Y263274D02*
D03*
X89304Y263920D02*
D03*
X91985Y265666D02*
D03*
X93771Y268322D02*
D03*
X94457Y271448D02*
D03*
X93837Y274587D02*
D03*
X92109Y277280D02*
D03*
X89464Y279082D02*
D03*
X16023Y280487D02*
D03*
X19223D02*
D03*
X22423D02*
D03*
X25623D02*
D03*
X28823D02*
D03*
X32023D02*
D03*
X35223D02*
D03*
X38423D02*
D03*
X41623D02*
D03*
X44823D02*
D03*
X48023D02*
D03*
X51223D02*
D03*
X54423D02*
D03*
X57623D02*
D03*
X60823D02*
D03*
X64023D02*
D03*
X67223D02*
D03*
X70423D02*
D03*
X73623D02*
D03*
X76823D02*
D03*
X80023D02*
D03*
X83223D02*
D03*
X86423Y280486D02*
D03*
X89540Y281208D02*
D03*
X92166Y283036D02*
D03*
X93868Y285746D02*
D03*
X94446Y288894D02*
D03*
X93739Y292015D02*
D03*
X91926Y294652D02*
D03*
X89227Y296371D02*
D03*
X86084Y296974D02*
D03*
X82884Y296961D02*
D03*
X79684D02*
D03*
X76484D02*
D03*
X73284D02*
D03*
X70084D02*
D03*
X66884D02*
D03*
X63684D02*
D03*
X60484D02*
D03*
X57284D02*
D03*
X54440Y298427D02*
D03*
Y301627D02*
D03*
Y304827D02*
D03*
X55186Y307939D02*
D03*
X57383Y310265D02*
D03*
X60459Y311149D02*
D03*
X63659Y311159D02*
D03*
X66859D02*
D03*
X70059D02*
D03*
X73259D02*
D03*
X76459D02*
D03*
X79659D02*
D03*
X82859D02*
D03*
X86059D02*
D03*
X89259D02*
D03*
X92459D02*
D03*
X95659D02*
D03*
X98838Y311520D02*
D03*
X101644Y313059D02*
D03*
X105350Y350517D02*
D03*
Y347317D02*
D03*
Y344117D02*
D03*
Y340917D02*
D03*
Y337717D02*
D03*
Y334517D02*
D03*
Y331317D02*
D03*
Y328117D02*
D03*
Y324917D02*
D03*
Y321717D02*
D03*
Y318517D02*
D03*
Y315317D02*
D03*
Y312117D02*
D03*
Y308917D02*
D03*
Y305717D02*
D03*
Y302517D02*
D03*
Y299317D02*
D03*
Y296117D02*
D03*
Y292917D02*
D03*
Y289717D02*
D03*
Y286517D02*
D03*
Y283317D02*
D03*
Y280117D02*
D03*
X105716Y276938D02*
D03*
X107261Y274135D02*
D03*
X109735Y272106D02*
D03*
X112806Y271206D02*
D03*
X115992Y271511D02*
D03*
X118805Y273036D02*
D03*
X120850Y275498D02*
D03*
X122539Y348881D02*
D03*
Y345681D02*
D03*
Y342481D02*
D03*
Y339281D02*
D03*
Y336081D02*
D03*
Y332881D02*
D03*
Y329681D02*
D03*
Y326481D02*
D03*
Y323281D02*
D03*
Y320081D02*
D03*
Y316881D02*
D03*
Y313681D02*
D03*
Y310481D02*
D03*
Y307281D02*
D03*
Y304081D02*
D03*
Y300881D02*
D03*
Y297681D02*
D03*
Y294481D02*
D03*
Y291281D02*
D03*
Y288081D02*
D03*
Y284881D02*
D03*
Y281681D02*
D03*
X122604Y278482D02*
D03*
X123555Y275426D02*
D03*
X125625Y272986D02*
D03*
X128453Y271489D02*
D03*
X131642Y271217D02*
D03*
X134703Y272149D02*
D03*
X137156Y274204D02*
D03*
X139729Y350524D02*
D03*
Y347324D02*
D03*
Y344124D02*
D03*
Y340924D02*
D03*
Y337724D02*
D03*
Y334524D02*
D03*
Y331324D02*
D03*
Y328124D02*
D03*
Y324924D02*
D03*
Y321724D02*
D03*
Y318524D02*
D03*
Y315324D02*
D03*
Y312124D02*
D03*
Y308924D02*
D03*
Y305724D02*
D03*
Y302524D02*
D03*
Y299324D02*
D03*
Y296124D02*
D03*
Y292924D02*
D03*
Y289724D02*
D03*
Y286524D02*
D03*
Y283324D02*
D03*
Y280124D02*
D03*
X140094Y276945D02*
D03*
X141635Y274141D02*
D03*
X144108Y272110D02*
D03*
X147178Y271207D02*
D03*
X150364Y271509D02*
D03*
X153178Y273032D02*
D03*
X155225Y275492D02*
D03*
X156919Y348874D02*
D03*
Y345674D02*
D03*
Y342475D02*
D03*
Y339275D02*
D03*
Y336074D02*
D03*
Y332874D02*
D03*
Y329675D02*
D03*
Y326474D02*
D03*
Y323274D02*
D03*
Y320075D02*
D03*
Y316875D02*
D03*
Y313674D02*
D03*
Y310474D02*
D03*
Y307275D02*
D03*
Y304075D02*
D03*
Y300874D02*
D03*
Y297674D02*
D03*
Y294475D02*
D03*
Y291274D02*
D03*
Y288074D02*
D03*
Y284875D02*
D03*
Y281675D02*
D03*
X156984Y278475D02*
D03*
X157938Y275420D02*
D03*
X160009Y272982D02*
D03*
X162839Y271487D02*
D03*
X166028Y271218D02*
D03*
X169088Y272153D02*
D03*
X171539Y274210D02*
D03*
X174108Y350531D02*
D03*
Y347331D02*
D03*
Y344131D02*
D03*
Y340931D02*
D03*
Y337731D02*
D03*
Y334531D02*
D03*
Y331331D02*
D03*
Y328131D02*
D03*
Y324931D02*
D03*
Y321731D02*
D03*
Y318531D02*
D03*
Y315331D02*
D03*
Y312131D02*
D03*
Y308931D02*
D03*
Y305731D02*
D03*
Y302531D02*
D03*
Y299331D02*
D03*
Y296131D02*
D03*
Y292931D02*
D03*
Y289731D02*
D03*
Y286531D02*
D03*
Y283331D02*
D03*
Y280131D02*
D03*
X174471Y276952D02*
D03*
X176010Y274146D02*
D03*
X178481Y272113D02*
D03*
X181551Y271208D02*
D03*
X184737Y271507D02*
D03*
X187552Y273028D02*
D03*
X189601Y275486D02*
D03*
X191297Y348868D02*
D03*
Y345668D02*
D03*
Y342468D02*
D03*
Y339268D02*
D03*
Y336068D02*
D03*
Y332868D02*
D03*
Y329668D02*
D03*
Y326468D02*
D03*
Y323268D02*
D03*
Y320068D02*
D03*
Y316868D02*
D03*
Y313668D02*
D03*
Y310468D02*
D03*
Y307268D02*
D03*
Y304068D02*
D03*
Y300868D02*
D03*
Y297668D02*
D03*
Y294468D02*
D03*
Y291268D02*
D03*
Y288068D02*
D03*
Y284868D02*
D03*
Y281668D02*
D03*
X191364Y278469D02*
D03*
X192320Y275415D02*
D03*
X194394Y272978D02*
D03*
X197224Y271485D02*
D03*
X200413Y271219D02*
D03*
X203473Y272156D02*
D03*
X205923Y274215D02*
D03*
X208487Y350538D02*
D03*
Y347338D02*
D03*
Y344138D02*
D03*
Y340938D02*
D03*
Y337738D02*
D03*
Y334538D02*
D03*
Y331338D02*
D03*
Y328138D02*
D03*
Y324938D02*
D03*
Y321738D02*
D03*
Y318538D02*
D03*
Y315338D02*
D03*
Y312138D02*
D03*
Y308938D02*
D03*
Y305738D02*
D03*
Y302538D02*
D03*
Y299338D02*
D03*
Y296138D02*
D03*
Y292938D02*
D03*
Y289738D02*
D03*
Y286538D02*
D03*
Y283338D02*
D03*
Y280138D02*
D03*
X208848Y276958D02*
D03*
X210385Y274152D02*
D03*
X212855Y272117D02*
D03*
X215923Y271209D02*
D03*
X219109Y271505D02*
D03*
X221926Y273024D02*
D03*
X223977Y275481D02*
D03*
X225677Y348862D02*
D03*
Y345662D02*
D03*
Y342462D02*
D03*
Y339262D02*
D03*
Y336062D02*
D03*
Y332862D02*
D03*
Y329662D02*
D03*
Y326462D02*
D03*
Y323262D02*
D03*
Y320062D02*
D03*
Y316862D02*
D03*
Y313662D02*
D03*
Y310462D02*
D03*
Y307262D02*
D03*
Y304062D02*
D03*
Y300862D02*
D03*
Y297662D02*
D03*
Y294462D02*
D03*
Y291262D02*
D03*
Y288062D02*
D03*
Y284862D02*
D03*
Y281662D02*
D03*
X225744Y278463D02*
D03*
X226702Y275409D02*
D03*
X228778Y272974D02*
D03*
X231610Y271484D02*
D03*
X234799Y271220D02*
D03*
X237858Y272160D02*
D03*
X240306Y274221D02*
D03*
X242866Y350545D02*
D03*
Y347345D02*
D03*
Y344145D02*
D03*
Y340945D02*
D03*
Y337745D02*
D03*
Y334545D02*
D03*
Y331345D02*
D03*
Y328145D02*
D03*
Y324945D02*
D03*
Y321745D02*
D03*
Y318545D02*
D03*
Y315345D02*
D03*
Y312145D02*
D03*
Y308945D02*
D03*
Y305745D02*
D03*
Y302545D02*
D03*
Y299345D02*
D03*
Y296145D02*
D03*
Y292945D02*
D03*
Y289745D02*
D03*
Y286545D02*
D03*
Y283345D02*
D03*
Y280145D02*
D03*
X243225Y276965D02*
D03*
X244760Y274157D02*
D03*
X247228Y272120D02*
D03*
X250296Y271210D02*
D03*
X253482Y271504D02*
D03*
X256300Y273021D02*
D03*
X258353Y275475D02*
D03*
X260056Y348856D02*
D03*
Y345656D02*
D03*
Y342456D02*
D03*
Y339256D02*
D03*
Y336056D02*
D03*
Y332856D02*
D03*
Y329656D02*
D03*
Y326456D02*
D03*
Y323256D02*
D03*
Y320056D02*
D03*
Y316856D02*
D03*
Y313656D02*
D03*
Y310456D02*
D03*
Y307256D02*
D03*
Y304056D02*
D03*
Y300856D02*
D03*
Y297656D02*
D03*
Y294456D02*
D03*
Y291256D02*
D03*
Y288056D02*
D03*
Y284856D02*
D03*
Y281656D02*
D03*
X260124Y278456D02*
D03*
X261084Y275404D02*
D03*
X263162Y272970D02*
D03*
X265995Y271482D02*
D03*
X269184Y271221D02*
D03*
X272242Y272163D02*
D03*
X274689Y274226D02*
D03*
X277245Y350551D02*
D03*
Y347351D02*
D03*
Y344151D02*
D03*
Y340951D02*
D03*
Y337751D02*
D03*
Y334551D02*
D03*
Y331351D02*
D03*
Y328151D02*
D03*
Y324951D02*
D03*
Y321751D02*
D03*
Y318551D02*
D03*
Y315351D02*
D03*
Y312151D02*
D03*
Y308951D02*
D03*
Y305751D02*
D03*
Y302551D02*
D03*
Y299351D02*
D03*
Y296151D02*
D03*
Y292951D02*
D03*
Y289751D02*
D03*
Y286551D02*
D03*
Y283351D02*
D03*
Y280151D02*
D03*
X277603Y276971D02*
D03*
X279135Y274162D02*
D03*
X281602Y272123D02*
D03*
X284669Y271211D02*
D03*
X287855Y271502D02*
D03*
X290674Y273017D02*
D03*
X292729Y275470D02*
D03*
X294435Y348850D02*
D03*
Y345650D02*
D03*
Y342450D02*
D03*
Y339250D02*
D03*
Y336050D02*
D03*
Y332850D02*
D03*
Y329650D02*
D03*
Y326450D02*
D03*
Y323250D02*
D03*
Y320050D02*
D03*
Y316850D02*
D03*
Y313650D02*
D03*
Y310450D02*
D03*
Y307250D02*
D03*
Y304050D02*
D03*
Y300850D02*
D03*
Y297650D02*
D03*
Y294450D02*
D03*
Y291250D02*
D03*
Y288050D02*
D03*
Y284850D02*
D03*
Y281650D02*
D03*
X294504Y278450D02*
D03*
X295466Y275399D02*
D03*
X297546Y272966D02*
D03*
X300380Y271481D02*
D03*
X303569Y271221D02*
D03*
X306627Y272166D02*
D03*
X309072Y274231D02*
D03*
X311624Y350557D02*
D03*
Y347357D02*
D03*
Y344157D02*
D03*
Y340957D02*
D03*
Y337757D02*
D03*
Y334557D02*
D03*
Y331357D02*
D03*
Y328157D02*
D03*
Y324957D02*
D03*
Y321757D02*
D03*
Y318557D02*
D03*
Y315357D02*
D03*
Y312157D02*
D03*
Y308957D02*
D03*
Y305757D02*
D03*
Y302557D02*
D03*
Y299357D02*
D03*
Y296157D02*
D03*
Y292957D02*
D03*
Y289757D02*
D03*
Y286557D02*
D03*
Y283357D02*
D03*
Y280157D02*
D03*
X311980Y276977D02*
D03*
X313511Y274167D02*
D03*
X315975Y272126D02*
D03*
X319042Y271211D02*
D03*
X322229Y271501D02*
D03*
X325049Y273013D02*
D03*
X327105Y275465D02*
D03*
X328814Y348844D02*
D03*
Y345644D02*
D03*
Y342444D02*
D03*
Y339244D02*
D03*
Y336044D02*
D03*
Y332844D02*
D03*
Y329644D02*
D03*
Y326444D02*
D03*
Y323244D02*
D03*
Y320044D02*
D03*
Y316844D02*
D03*
Y313644D02*
D03*
Y310444D02*
D03*
Y307244D02*
D03*
Y304044D02*
D03*
Y300844D02*
D03*
Y297644D02*
D03*
Y294444D02*
D03*
Y291244D02*
D03*
Y288044D02*
D03*
Y284844D02*
D03*
Y281644D02*
D03*
X329177Y278465D02*
D03*
X330718Y275660D02*
D03*
X333190Y273628D02*
D03*
X336260Y272724D02*
D03*
X339445Y273024D02*
D03*
X342260Y274546D02*
D03*
X344308Y277005D02*
D03*
X345232Y280068D02*
D03*
X345288Y283268D02*
D03*
Y286468D02*
D03*
Y289668D02*
D03*
Y292868D02*
D03*
Y296068D02*
D03*
Y299268D02*
D03*
Y302468D02*
D03*
Y305668D02*
D03*
Y308868D02*
D03*
Y312068D02*
D03*
X346083Y318368D02*
D03*
X347077Y315326D02*
D03*
X349181Y312915D02*
D03*
X352031Y311459D02*
D03*
X355217Y311159D02*
D03*
X358417D02*
D03*
X361617D02*
D03*
X364817D02*
D03*
X368017D02*
D03*
X371217D02*
D03*
X374417D02*
D03*
X377617D02*
D03*
X380817D02*
D03*
X384017D02*
D03*
X411121Y318652D02*
D03*
X407944Y319038D02*
D03*
X404744D02*
D03*
X401544D02*
D03*
X398344D02*
D03*
X395144D02*
D03*
X391944D02*
D03*
X388744D02*
D03*
X385544D02*
D03*
X382344D02*
D03*
X379144D02*
D03*
X375944D02*
D03*
X372744D02*
D03*
X369544D02*
D03*
X366344D02*
D03*
X363144D02*
D03*
X359944D02*
D03*
X356744D02*
D03*
X353816Y320328D02*
D03*
X352858Y323381D02*
D03*
X350783Y325817D02*
D03*
X347951Y327308D02*
D03*
X344762Y327572D02*
D03*
X341703Y326633D02*
D03*
X339255Y324572D02*
D03*
X336693Y283448D02*
D03*
Y286648D02*
D03*
Y289848D02*
D03*
Y293048D02*
D03*
Y296248D02*
D03*
Y299448D02*
D03*
Y302648D02*
D03*
Y305848D02*
D03*
Y309048D02*
D03*
Y312248D02*
D03*
Y315448D02*
D03*
Y318648D02*
D03*
Y321848D02*
D03*
Y325048D02*
D03*
Y328248D02*
D03*
Y331448D02*
D03*
Y334648D02*
D03*
Y337848D02*
D03*
Y341048D02*
D03*
Y344248D02*
D03*
Y347448D02*
D03*
X336702Y350648D02*
D03*
X336115Y353794D02*
D03*
X334408Y356501D02*
D03*
X331778Y358324D02*
D03*
X328659Y359040D02*
D03*
X82800Y70400D02*
D03*
X83139Y64491D02*
D03*
X83982Y61404D02*
D03*
X85486Y58579D02*
D03*
X87638Y56212D02*
D03*
X90262Y54379D02*
D03*
X93255Y53247D02*
D03*
X102825Y52811D02*
D03*
X106025D02*
D03*
X109225D02*
D03*
X107300Y60800D02*
D03*
X104740Y60691D02*
D03*
X95147Y60914D02*
D03*
X92409Y62570D02*
D03*
X90992Y65439D02*
D03*
X90889Y71837D02*
D03*
X90631Y75027D02*
D03*
X383723Y309075D02*
D03*
X381885Y306455D02*
D03*
X380736Y303468D02*
D03*
X380264Y300304D02*
D03*
X380260Y297104D02*
D03*
Y293903D02*
D03*
Y290704D02*
D03*
Y287504D02*
D03*
Y284303D02*
D03*
Y281103D02*
D03*
Y277904D02*
D03*
Y274704D02*
D03*
Y271503D02*
D03*
Y268303D02*
D03*
Y265104D02*
D03*
Y261904D02*
D03*
Y258703D02*
D03*
Y255504D02*
D03*
Y252304D02*
D03*
Y249103D02*
D03*
Y245903D02*
D03*
Y242704D02*
D03*
Y239504D02*
D03*
Y236303D02*
D03*
Y233103D02*
D03*
Y229904D02*
D03*
Y226704D02*
D03*
Y223503D02*
D03*
Y220304D02*
D03*
Y217104D02*
D03*
Y213903D02*
D03*
Y210703D02*
D03*
Y207504D02*
D03*
X380256Y204304D02*
D03*
X380712Y201136D02*
D03*
X381842Y198142D02*
D03*
X383656Y195506D02*
D03*
X386003Y193331D02*
D03*
X388795Y191768D02*
D03*
X391862Y190853D02*
D03*
X395056Y190660D02*
D03*
X398256D02*
D03*
X401456D02*
D03*
X404656D02*
D03*
X407856D02*
D03*
X411056D02*
D03*
X414256D02*
D03*
X417456D02*
D03*
X420656D02*
D03*
X423856D02*
D03*
X427056D02*
D03*
X430256D02*
D03*
X433456D02*
D03*
X436656D02*
D03*
X439856D02*
D03*
X443056D02*
D03*
X446256D02*
D03*
X449456D02*
D03*
X452656D02*
D03*
X455856D02*
D03*
X459056D02*
D03*
X462256D02*
D03*
X465456D02*
D03*
X468656D02*
D03*
X471856D02*
D03*
X475056D02*
D03*
X478256D02*
D03*
X481456D02*
D03*
X484656D02*
D03*
X487856D02*
D03*
X491056D02*
D03*
X494256D02*
D03*
X497456D02*
D03*
X500656D02*
D03*
X503856D02*
D03*
X507056D02*
D03*
X510256D02*
D03*
X513456D02*
D03*
X516656D02*
D03*
X519856D02*
D03*
X522953Y189855D02*
D03*
X525227Y187604D02*
D03*
X526060Y184514D02*
D03*
Y181314D02*
D03*
Y178114D02*
D03*
Y174914D02*
D03*
Y171714D02*
D03*
Y168514D02*
D03*
Y165314D02*
D03*
Y162114D02*
D03*
Y158914D02*
D03*
Y155714D02*
D03*
Y152514D02*
D03*
Y149314D02*
D03*
Y146114D02*
D03*
X525248Y143019D02*
D03*
X522048D02*
D03*
X518848D02*
D03*
X515661Y142726D02*
D03*
X512807Y141279D02*
D03*
X510695Y138874D02*
D03*
X509692Y135836D02*
D03*
X509890Y132642D02*
D03*
X511321Y129780D02*
D03*
X564664Y125829D02*
D03*
X561464D02*
D03*
X558264D02*
D03*
X555064D02*
D03*
X551864D02*
D03*
X548664D02*
D03*
X545464D02*
D03*
X542264D02*
D03*
X539064D02*
D03*
X535864D02*
D03*
X532664D02*
D03*
X529464D02*
D03*
X526264D02*
D03*
X523064D02*
D03*
X519864D02*
D03*
X516664D02*
D03*
X513464D02*
D03*
X510264D02*
D03*
X507064D02*
D03*
X503864D02*
D03*
X500664D02*
D03*
X497464D02*
D03*
X494264Y125853D02*
D03*
X491135Y125181D02*
D03*
X488468Y123414D02*
D03*
X486704Y120744D02*
D03*
X486035Y117615D02*
D03*
X486687Y114482D02*
D03*
X488436Y111802D02*
D03*
X491094Y110020D02*
D03*
X494220Y109337D02*
D03*
X497420Y109355D02*
D03*
X500620D02*
D03*
X503820D02*
D03*
X507020D02*
D03*
X510220D02*
D03*
X513420D02*
D03*
X516620D02*
D03*
X519820D02*
D03*
X523020D02*
D03*
X526060Y108356D02*
D03*
Y105156D02*
D03*
Y101956D02*
D03*
Y98756D02*
D03*
Y95556D02*
D03*
Y92356D02*
D03*
Y89156D02*
D03*
Y85956D02*
D03*
Y82756D02*
D03*
Y79556D02*
D03*
Y76356D02*
D03*
Y73156D02*
D03*
Y69956D02*
D03*
Y66756D02*
D03*
X525625Y63586D02*
D03*
X523693Y61035D02*
D03*
X520733Y59817D02*
D03*
X517534Y59740D02*
D03*
X514334D02*
D03*
X511134D02*
D03*
X507934D02*
D03*
X504735Y59669D02*
D03*
X501685Y58701D02*
D03*
X499256Y56618D02*
D03*
X496741Y21879D02*
D03*
Y25079D02*
D03*
Y28279D02*
D03*
Y31479D02*
D03*
Y34679D02*
D03*
Y37879D02*
D03*
Y41079D02*
D03*
Y44279D02*
D03*
Y47479D02*
D03*
Y50679D02*
D03*
Y53879D02*
D03*
Y57079D02*
D03*
Y60279D02*
D03*
Y63479D02*
D03*
Y66679D02*
D03*
Y69879D02*
D03*
Y73079D02*
D03*
Y76279D02*
D03*
Y79479D02*
D03*
Y82679D02*
D03*
Y85879D02*
D03*
Y89079D02*
D03*
X496694Y92278D02*
D03*
X495796Y95350D02*
D03*
X493769Y97826D02*
D03*
X490967Y99372D02*
D03*
X487784Y99700D02*
D03*
X484707Y98824D02*
D03*
X482216Y96814D02*
D03*
X479552Y20527D02*
D03*
Y23728D02*
D03*
Y26928D02*
D03*
Y30128D02*
D03*
Y33327D02*
D03*
Y36527D02*
D03*
Y39728D02*
D03*
Y42928D02*
D03*
Y46128D02*
D03*
Y49327D02*
D03*
Y52527D02*
D03*
Y55727D02*
D03*
Y58928D02*
D03*
Y62128D02*
D03*
Y65328D02*
D03*
Y68528D02*
D03*
Y71728D02*
D03*
Y74928D02*
D03*
Y78127D02*
D03*
Y81327D02*
D03*
Y84527D02*
D03*
Y87727D02*
D03*
Y90927D02*
D03*
X479137Y94101D02*
D03*
X477551Y96880D02*
D03*
X475037Y98860D02*
D03*
X471952Y99711D02*
D03*
X468773Y99349D02*
D03*
X465986Y97777D02*
D03*
X463983Y95281D02*
D03*
X462362Y21883D02*
D03*
Y25083D02*
D03*
Y28283D02*
D03*
Y31483D02*
D03*
Y34683D02*
D03*
Y37883D02*
D03*
Y41083D02*
D03*
Y44283D02*
D03*
Y47483D02*
D03*
Y50683D02*
D03*
Y53883D02*
D03*
Y57083D02*
D03*
Y60283D02*
D03*
Y63483D02*
D03*
Y66683D02*
D03*
Y69883D02*
D03*
Y73083D02*
D03*
Y76283D02*
D03*
Y79483D02*
D03*
Y82683D02*
D03*
Y85883D02*
D03*
Y89083D02*
D03*
X462315Y92282D02*
D03*
X461415Y95353D02*
D03*
X459386Y97828D02*
D03*
X456584Y99373D02*
D03*
X453401Y99700D02*
D03*
X450324Y98821D02*
D03*
X447835Y96810D02*
D03*
X445172Y20523D02*
D03*
Y23723D02*
D03*
Y26923D02*
D03*
Y30123D02*
D03*
Y33323D02*
D03*
Y36523D02*
D03*
Y39723D02*
D03*
Y42923D02*
D03*
Y46123D02*
D03*
Y49323D02*
D03*
Y52523D02*
D03*
Y55723D02*
D03*
Y58923D02*
D03*
Y62123D02*
D03*
Y65323D02*
D03*
Y68523D02*
D03*
Y71723D02*
D03*
Y74923D02*
D03*
Y78123D02*
D03*
Y81323D02*
D03*
Y84523D02*
D03*
Y87723D02*
D03*
Y90923D02*
D03*
X444760Y94096D02*
D03*
X443175Y96876D02*
D03*
X440662Y98858D02*
D03*
X437578Y99711D02*
D03*
X434398Y99351D02*
D03*
X431610Y97780D02*
D03*
X429606Y95285D02*
D03*
X427983Y21887D02*
D03*
Y25087D02*
D03*
Y28287D02*
D03*
Y31487D02*
D03*
Y34687D02*
D03*
Y37887D02*
D03*
Y41087D02*
D03*
Y44287D02*
D03*
Y47487D02*
D03*
Y50687D02*
D03*
Y53887D02*
D03*
Y57087D02*
D03*
Y60287D02*
D03*
Y63487D02*
D03*
Y66687D02*
D03*
Y69887D02*
D03*
Y73087D02*
D03*
Y76287D02*
D03*
Y79487D02*
D03*
Y82687D02*
D03*
Y85887D02*
D03*
Y89087D02*
D03*
X427935Y92287D02*
D03*
X427034Y95357D02*
D03*
X425004Y97831D02*
D03*
X422200Y99374D02*
D03*
X419017Y99699D02*
D03*
X415940Y98819D02*
D03*
X413452Y96806D02*
D03*
X410793Y20518D02*
D03*
Y23718D02*
D03*
Y26918D02*
D03*
Y30118D02*
D03*
Y33318D02*
D03*
Y36518D02*
D03*
Y39718D02*
D03*
Y42918D02*
D03*
Y46118D02*
D03*
Y49318D02*
D03*
Y52518D02*
D03*
Y55718D02*
D03*
Y58918D02*
D03*
Y62118D02*
D03*
Y65318D02*
D03*
Y68518D02*
D03*
Y71718D02*
D03*
Y74918D02*
D03*
Y78118D02*
D03*
Y81318D02*
D03*
Y84518D02*
D03*
Y87718D02*
D03*
Y90918D02*
D03*
X410383Y94091D02*
D03*
X408799Y96872D02*
D03*
X406288Y98856D02*
D03*
X403204Y99710D02*
D03*
X400024Y99353D02*
D03*
X397236Y97783D02*
D03*
X395230Y95290D02*
D03*
X393604Y21892D02*
D03*
Y25092D02*
D03*
Y28292D02*
D03*
Y31492D02*
D03*
Y34692D02*
D03*
Y37892D02*
D03*
Y41092D02*
D03*
Y44292D02*
D03*
Y47492D02*
D03*
Y50692D02*
D03*
Y53892D02*
D03*
Y57092D02*
D03*
Y60292D02*
D03*
Y63492D02*
D03*
Y66692D02*
D03*
Y69892D02*
D03*
Y73092D02*
D03*
Y76292D02*
D03*
Y79492D02*
D03*
Y82692D02*
D03*
Y85892D02*
D03*
Y89092D02*
D03*
X393555Y92292D02*
D03*
X392652Y95362D02*
D03*
X390620Y97834D02*
D03*
X387816Y99376D02*
D03*
X384632Y99698D02*
D03*
X381556Y98816D02*
D03*
X379070Y96802D02*
D03*
X376414Y20512D02*
D03*
Y23712D02*
D03*
Y26912D02*
D03*
Y30112D02*
D03*
Y33312D02*
D03*
Y36512D02*
D03*
Y39712D02*
D03*
Y42912D02*
D03*
Y46112D02*
D03*
Y49312D02*
D03*
Y52512D02*
D03*
Y55712D02*
D03*
Y58912D02*
D03*
Y62112D02*
D03*
Y65312D02*
D03*
Y68512D02*
D03*
Y71712D02*
D03*
Y74912D02*
D03*
Y78112D02*
D03*
Y81312D02*
D03*
Y84512D02*
D03*
Y87712D02*
D03*
Y90912D02*
D03*
X376006Y94086D02*
D03*
X374424Y96867D02*
D03*
X371915Y98853D02*
D03*
X368831Y99709D02*
D03*
X365651Y99355D02*
D03*
X362861Y97787D02*
D03*
X360854Y95295D02*
D03*
X359225Y21898D02*
D03*
Y25098D02*
D03*
Y28298D02*
D03*
Y31498D02*
D03*
Y34698D02*
D03*
Y37898D02*
D03*
Y41098D02*
D03*
Y44298D02*
D03*
Y47498D02*
D03*
Y50698D02*
D03*
Y53898D02*
D03*
Y57098D02*
D03*
Y60298D02*
D03*
Y63498D02*
D03*
Y66698D02*
D03*
Y69898D02*
D03*
Y73098D02*
D03*
Y76298D02*
D03*
Y79498D02*
D03*
Y82698D02*
D03*
Y85898D02*
D03*
Y89098D02*
D03*
X359175Y92298D02*
D03*
X358270Y95367D02*
D03*
X356236Y97838D02*
D03*
X353431Y99377D02*
D03*
X350247Y99698D02*
D03*
X347172Y98813D02*
D03*
X344687Y96797D02*
D03*
X342035Y20505D02*
D03*
Y23705D02*
D03*
Y26905D02*
D03*
Y30105D02*
D03*
Y33305D02*
D03*
Y36505D02*
D03*
Y39705D02*
D03*
Y42905D02*
D03*
Y46105D02*
D03*
Y49305D02*
D03*
Y52505D02*
D03*
Y55705D02*
D03*
Y58905D02*
D03*
Y62105D02*
D03*
Y65305D02*
D03*
Y68505D02*
D03*
Y71705D02*
D03*
Y74905D02*
D03*
Y78105D02*
D03*
Y81305D02*
D03*
Y84505D02*
D03*
Y87705D02*
D03*
Y90905D02*
D03*
X341630Y94079D02*
D03*
X340049Y96862D02*
D03*
X337542Y98851D02*
D03*
X334459Y99708D02*
D03*
X331278Y99357D02*
D03*
X328488Y97791D02*
D03*
X326478Y95301D02*
D03*
X324846Y21905D02*
D03*
Y25105D02*
D03*
Y28305D02*
D03*
Y31505D02*
D03*
Y34705D02*
D03*
Y37905D02*
D03*
Y41105D02*
D03*
Y44305D02*
D03*
Y47505D02*
D03*
Y50705D02*
D03*
Y53905D02*
D03*
Y57105D02*
D03*
Y60305D02*
D03*
Y63505D02*
D03*
Y66705D02*
D03*
Y69905D02*
D03*
Y73105D02*
D03*
Y76305D02*
D03*
Y79505D02*
D03*
Y82705D02*
D03*
Y85905D02*
D03*
Y89105D02*
D03*
X324795Y92304D02*
D03*
X323887Y95373D02*
D03*
X321852Y97842D02*
D03*
X319045Y99379D02*
D03*
X315861Y99697D02*
D03*
X312787Y98809D02*
D03*
X310303Y96791D02*
D03*
X307656Y20498D02*
D03*
Y23698D02*
D03*
Y26898D02*
D03*
Y30098D02*
D03*
Y33298D02*
D03*
Y36498D02*
D03*
Y39698D02*
D03*
Y42898D02*
D03*
Y46098D02*
D03*
Y49298D02*
D03*
Y52498D02*
D03*
Y55698D02*
D03*
Y58898D02*
D03*
Y62098D02*
D03*
Y65298D02*
D03*
Y68498D02*
D03*
Y71698D02*
D03*
Y74898D02*
D03*
Y78098D02*
D03*
Y81298D02*
D03*
Y84498D02*
D03*
Y87698D02*
D03*
Y90898D02*
D03*
X307253Y94073D02*
D03*
X305674Y96856D02*
D03*
X303170Y98848D02*
D03*
X300087Y99707D02*
D03*
X296906Y99359D02*
D03*
X294114Y97795D02*
D03*
X292102Y95307D02*
D03*
X290467Y21912D02*
D03*
Y25112D02*
D03*
Y28312D02*
D03*
Y31512D02*
D03*
Y34712D02*
D03*
Y37912D02*
D03*
Y41112D02*
D03*
Y44312D02*
D03*
Y47512D02*
D03*
Y50712D02*
D03*
Y53912D02*
D03*
Y57112D02*
D03*
Y60312D02*
D03*
Y63512D02*
D03*
Y66712D02*
D03*
Y69912D02*
D03*
Y73112D02*
D03*
Y76312D02*
D03*
Y79512D02*
D03*
Y82712D02*
D03*
Y85912D02*
D03*
Y89112D02*
D03*
X290416Y92311D02*
D03*
X289505Y95379D02*
D03*
X287467Y97846D02*
D03*
X284659Y99381D02*
D03*
X281475Y99696D02*
D03*
X278401Y98806D02*
D03*
X275920Y96785D02*
D03*
X273277Y20490D02*
D03*
Y23690D02*
D03*
Y26890D02*
D03*
Y30090D02*
D03*
Y33290D02*
D03*
Y36490D02*
D03*
Y39690D02*
D03*
Y42890D02*
D03*
Y46090D02*
D03*
Y49290D02*
D03*
Y52490D02*
D03*
Y55690D02*
D03*
Y58890D02*
D03*
Y62090D02*
D03*
Y65290D02*
D03*
Y68490D02*
D03*
Y71690D02*
D03*
Y74890D02*
D03*
Y78090D02*
D03*
Y81290D02*
D03*
Y84490D02*
D03*
Y87690D02*
D03*
Y90890D02*
D03*
X272877Y94065D02*
D03*
X271300Y96850D02*
D03*
X268798Y98845D02*
D03*
X265716Y99706D02*
D03*
X262535Y99361D02*
D03*
X259741Y97800D02*
D03*
X257727Y95314D02*
D03*
X256087Y21919D02*
D03*
Y25119D02*
D03*
Y28319D02*
D03*
Y31519D02*
D03*
Y34719D02*
D03*
Y37919D02*
D03*
Y41119D02*
D03*
Y44319D02*
D03*
Y47519D02*
D03*
Y50719D02*
D03*
Y53919D02*
D03*
Y57119D02*
D03*
Y60319D02*
D03*
Y63519D02*
D03*
Y66719D02*
D03*
Y69919D02*
D03*
Y73119D02*
D03*
Y76319D02*
D03*
Y79519D02*
D03*
Y82719D02*
D03*
Y85919D02*
D03*
Y89119D02*
D03*
X256035Y92319D02*
D03*
X255122Y95385D02*
D03*
X253082Y97851D02*
D03*
X250273Y99383D02*
D03*
X247088Y99695D02*
D03*
X244015Y98801D02*
D03*
X241536Y96779D02*
D03*
X238898Y20482D02*
D03*
Y23682D02*
D03*
Y26882D02*
D03*
Y30082D02*
D03*
Y33282D02*
D03*
Y36482D02*
D03*
Y39682D02*
D03*
Y42882D02*
D03*
Y46082D02*
D03*
Y49282D02*
D03*
Y52482D02*
D03*
Y55682D02*
D03*
Y58882D02*
D03*
Y62082D02*
D03*
Y65282D02*
D03*
Y68482D02*
D03*
Y71682D02*
D03*
Y74882D02*
D03*
Y78082D02*
D03*
Y81282D02*
D03*
Y84482D02*
D03*
Y87682D02*
D03*
Y90882D02*
D03*
X238502Y94057D02*
D03*
X236926Y96843D02*
D03*
X234427Y98841D02*
D03*
X231346Y99705D02*
D03*
X228164Y99363D02*
D03*
X225369Y97805D02*
D03*
X223352Y95321D02*
D03*
X221708Y21927D02*
D03*
Y25127D02*
D03*
Y28327D02*
D03*
Y31527D02*
D03*
Y34727D02*
D03*
Y37927D02*
D03*
Y41127D02*
D03*
Y44327D02*
D03*
Y47527D02*
D03*
Y50727D02*
D03*
Y53927D02*
D03*
Y57127D02*
D03*
Y60327D02*
D03*
Y63527D02*
D03*
Y66727D02*
D03*
Y69927D02*
D03*
Y73127D02*
D03*
Y76327D02*
D03*
Y79527D02*
D03*
Y82727D02*
D03*
Y85927D02*
D03*
Y89127D02*
D03*
X221655Y92327D02*
D03*
X220739Y95393D02*
D03*
X218696Y97856D02*
D03*
X215885Y99385D02*
D03*
X212700Y99694D02*
D03*
X209629Y98797D02*
D03*
X207151Y96772D02*
D03*
X204519Y20473D02*
D03*
Y23673D02*
D03*
Y26873D02*
D03*
Y30073D02*
D03*
Y33273D02*
D03*
Y36473D02*
D03*
Y39673D02*
D03*
Y42873D02*
D03*
Y46073D02*
D03*
Y49273D02*
D03*
Y52473D02*
D03*
Y55673D02*
D03*
Y58873D02*
D03*
Y62073D02*
D03*
Y65273D02*
D03*
Y68473D02*
D03*
Y71673D02*
D03*
Y74873D02*
D03*
Y78073D02*
D03*
Y81273D02*
D03*
Y84473D02*
D03*
Y87673D02*
D03*
Y90873D02*
D03*
X204126Y94049D02*
D03*
X202553Y96836D02*
D03*
X200056Y98837D02*
D03*
X196976Y99704D02*
D03*
X193793Y99365D02*
D03*
X190997Y97810D02*
D03*
X188977Y95328D02*
D03*
X187329Y21935D02*
D03*
Y25135D02*
D03*
Y28335D02*
D03*
Y31535D02*
D03*
Y34735D02*
D03*
Y37935D02*
D03*
Y41135D02*
D03*
Y44335D02*
D03*
Y47535D02*
D03*
Y50735D02*
D03*
Y53935D02*
D03*
Y57135D02*
D03*
Y60335D02*
D03*
Y63535D02*
D03*
Y66735D02*
D03*
Y69935D02*
D03*
Y73135D02*
D03*
Y76335D02*
D03*
Y79535D02*
D03*
Y82735D02*
D03*
Y85935D02*
D03*
Y89135D02*
D03*
X187275Y92335D02*
D03*
X186355Y95400D02*
D03*
X184311Y97861D02*
D03*
X181498Y99387D02*
D03*
X178313Y99692D02*
D03*
X175242Y98793D02*
D03*
X172767Y96764D02*
D03*
X171222Y93962D02*
D03*
X170855Y90783D02*
D03*
Y87583D02*
D03*
Y84383D02*
D03*
Y81183D02*
D03*
Y77983D02*
D03*
Y74783D02*
D03*
Y71583D02*
D03*
Y68383D02*
D03*
Y65183D02*
D03*
Y61983D02*
D03*
X168573Y59740D02*
D03*
X165373D02*
D03*
X162173D02*
D03*
X158973D02*
D03*
X155773D02*
D03*
X152573D02*
D03*
X149373D02*
D03*
X146011Y51689D02*
D03*
X149207Y51860D02*
D03*
X152407D02*
D03*
X155607D02*
D03*
X158807D02*
D03*
X162007D02*
D03*
X165207D02*
D03*
X168407D02*
D03*
X171606Y51951D02*
D03*
X174637Y52974D02*
D03*
X177027Y55102D02*
D03*
X179450Y89873D02*
D03*
Y86673D02*
D03*
Y83473D02*
D03*
Y80273D02*
D03*
Y77073D02*
D03*
Y73873D02*
D03*
Y70673D02*
D03*
Y67473D02*
D03*
Y64273D02*
D03*
Y61073D02*
D03*
Y57873D02*
D03*
Y54673D02*
D03*
Y51473D02*
D03*
Y48273D02*
D03*
Y45073D02*
D03*
Y41873D02*
D03*
Y38673D02*
D03*
Y35473D02*
D03*
Y32273D02*
D03*
Y29073D02*
D03*
Y25873D02*
D03*
Y22673D02*
D03*
X179477Y19473D02*
D03*
X180325Y16387D02*
D03*
X182299Y13869D02*
D03*
X185076Y12280D02*
D03*
X188251Y11879D02*
D03*
X191341Y12712D02*
D03*
X193879Y14661D02*
D03*
X196639Y90919D02*
D03*
Y87719D02*
D03*
Y84519D02*
D03*
Y81319D02*
D03*
Y78119D02*
D03*
Y74919D02*
D03*
Y71719D02*
D03*
Y68519D02*
D03*
Y65319D02*
D03*
Y62119D02*
D03*
Y58919D02*
D03*
Y55719D02*
D03*
Y52519D02*
D03*
Y49319D02*
D03*
Y46119D02*
D03*
Y42919D02*
D03*
Y39719D02*
D03*
Y36519D02*
D03*
Y33319D02*
D03*
Y30119D02*
D03*
Y26919D02*
D03*
Y23719D02*
D03*
Y20519D02*
D03*
X197114Y17355D02*
D03*
X198735Y14596D02*
D03*
X201298Y12680D02*
D03*
X204394Y11868D02*
D03*
X207563Y12311D02*
D03*
X210330Y13919D02*
D03*
X212270Y16464D02*
D03*
X213829Y89874D02*
D03*
Y86674D02*
D03*
Y83474D02*
D03*
Y80274D02*
D03*
Y77074D02*
D03*
Y73874D02*
D03*
Y70674D02*
D03*
Y67474D02*
D03*
Y64274D02*
D03*
Y61074D02*
D03*
Y57874D02*
D03*
Y54674D02*
D03*
Y51474D02*
D03*
Y48274D02*
D03*
Y45074D02*
D03*
Y41874D02*
D03*
Y38674D02*
D03*
Y35474D02*
D03*
Y32274D02*
D03*
Y29074D02*
D03*
Y25874D02*
D03*
Y22674D02*
D03*
X213856Y19474D02*
D03*
X214704Y16388D02*
D03*
X216677Y13869D02*
D03*
X219455Y12280D02*
D03*
X222629Y11879D02*
D03*
X225719Y12712D02*
D03*
X228257Y14661D02*
D03*
X231018Y90918D02*
D03*
Y87718D02*
D03*
Y84518D02*
D03*
Y81318D02*
D03*
Y78118D02*
D03*
Y74919D02*
D03*
Y71719D02*
D03*
Y68519D02*
D03*
Y65319D02*
D03*
Y62119D02*
D03*
Y58918D02*
D03*
Y55718D02*
D03*
Y52518D02*
D03*
Y49319D02*
D03*
Y46119D02*
D03*
Y42919D02*
D03*
Y39718D02*
D03*
Y36518D02*
D03*
Y33318D02*
D03*
Y30119D02*
D03*
Y26919D02*
D03*
Y23719D02*
D03*
Y20518D02*
D03*
X231493Y17354D02*
D03*
X233115Y14595D02*
D03*
X235678Y12680D02*
D03*
X238774Y11868D02*
D03*
X241943Y12312D02*
D03*
X244710Y13919D02*
D03*
X246650Y16464D02*
D03*
X248208Y89875D02*
D03*
Y86674D02*
D03*
Y83474D02*
D03*
Y80274D02*
D03*
Y77074D02*
D03*
Y73874D02*
D03*
Y70675D02*
D03*
Y67475D02*
D03*
Y64275D02*
D03*
Y61075D02*
D03*
Y57875D02*
D03*
Y54675D02*
D03*
Y51474D02*
D03*
Y48274D02*
D03*
Y45074D02*
D03*
Y41875D02*
D03*
Y38675D02*
D03*
Y35475D02*
D03*
Y32274D02*
D03*
Y29074D02*
D03*
Y25875D02*
D03*
Y22674D02*
D03*
X248235Y19475D02*
D03*
X249082Y16389D02*
D03*
X251056Y13870D02*
D03*
X253833Y12280D02*
D03*
X257008Y11879D02*
D03*
X260098Y12711D02*
D03*
X262636Y14660D02*
D03*
X265398Y90918D02*
D03*
Y87718D02*
D03*
Y84518D02*
D03*
Y81318D02*
D03*
Y78118D02*
D03*
Y74918D02*
D03*
Y71718D02*
D03*
Y68518D02*
D03*
Y65318D02*
D03*
Y62118D02*
D03*
Y58918D02*
D03*
Y55718D02*
D03*
Y52518D02*
D03*
Y49318D02*
D03*
Y46118D02*
D03*
Y42918D02*
D03*
Y39718D02*
D03*
Y36518D02*
D03*
Y33318D02*
D03*
Y30118D02*
D03*
Y26918D02*
D03*
Y23718D02*
D03*
Y20518D02*
D03*
X265873Y17353D02*
D03*
X267494Y14594D02*
D03*
X270058Y12680D02*
D03*
X273153Y11868D02*
D03*
X276323Y12312D02*
D03*
X279089Y13920D02*
D03*
X281029Y16465D02*
D03*
X282587Y89875D02*
D03*
Y86675D02*
D03*
Y83475D02*
D03*
Y80275D02*
D03*
Y77075D02*
D03*
Y73875D02*
D03*
Y70675D02*
D03*
Y67475D02*
D03*
Y64275D02*
D03*
Y61075D02*
D03*
Y57875D02*
D03*
Y54675D02*
D03*
Y51475D02*
D03*
Y48275D02*
D03*
Y45075D02*
D03*
Y41875D02*
D03*
Y38675D02*
D03*
Y35475D02*
D03*
Y32275D02*
D03*
Y29075D02*
D03*
Y25875D02*
D03*
Y22675D02*
D03*
X282614Y19475D02*
D03*
X283461Y16390D02*
D03*
X285434Y13870D02*
D03*
X288211Y12281D02*
D03*
X291386Y11879D02*
D03*
X294476Y12711D02*
D03*
X297014Y14659D02*
D03*
X299777Y90917D02*
D03*
Y87717D02*
D03*
Y84517D02*
D03*
Y81317D02*
D03*
Y78117D02*
D03*
Y74917D02*
D03*
Y71717D02*
D03*
Y68517D02*
D03*
Y65317D02*
D03*
Y62117D02*
D03*
Y58917D02*
D03*
Y55717D02*
D03*
Y52517D02*
D03*
Y49317D02*
D03*
Y46117D02*
D03*
Y42917D02*
D03*
Y39717D02*
D03*
Y36517D02*
D03*
Y33317D02*
D03*
Y30117D02*
D03*
Y26917D02*
D03*
Y23717D02*
D03*
Y20517D02*
D03*
X300252Y17352D02*
D03*
X301874Y14594D02*
D03*
X304438Y12680D02*
D03*
X307533Y11868D02*
D03*
X310702Y12312D02*
D03*
X313469Y13920D02*
D03*
X315408Y16466D02*
D03*
X316966Y89876D02*
D03*
Y86676D02*
D03*
Y83476D02*
D03*
Y80276D02*
D03*
Y77076D02*
D03*
Y73876D02*
D03*
Y70676D02*
D03*
Y67476D02*
D03*
Y64276D02*
D03*
Y61076D02*
D03*
Y57876D02*
D03*
Y54676D02*
D03*
Y51476D02*
D03*
Y48276D02*
D03*
Y45076D02*
D03*
Y41876D02*
D03*
Y38676D02*
D03*
Y35476D02*
D03*
Y32276D02*
D03*
Y29076D02*
D03*
Y25876D02*
D03*
Y22676D02*
D03*
X316993Y19476D02*
D03*
X317840Y16390D02*
D03*
X319813Y13871D02*
D03*
X322590Y12281D02*
D03*
X325764Y11879D02*
D03*
X328854Y12711D02*
D03*
X331393Y14659D02*
D03*
X334156Y90916D02*
D03*
Y87716D02*
D03*
Y84516D02*
D03*
Y81316D02*
D03*
Y78116D02*
D03*
Y74916D02*
D03*
Y71716D02*
D03*
Y68516D02*
D03*
Y65316D02*
D03*
Y62116D02*
D03*
Y58916D02*
D03*
Y55716D02*
D03*
Y52516D02*
D03*
Y49316D02*
D03*
Y46116D02*
D03*
Y42916D02*
D03*
Y39716D02*
D03*
Y36516D02*
D03*
Y33316D02*
D03*
Y30116D02*
D03*
Y26916D02*
D03*
Y23716D02*
D03*
Y20516D02*
D03*
X334631Y17352D02*
D03*
X336253Y14593D02*
D03*
X338818Y12679D02*
D03*
X341913Y11868D02*
D03*
X345082Y12313D02*
D03*
X347849Y13921D02*
D03*
X349788Y16466D02*
D03*
X351345Y89877D02*
D03*
Y86677D02*
D03*
Y83477D02*
D03*
Y80277D02*
D03*
Y77077D02*
D03*
Y73877D02*
D03*
Y70677D02*
D03*
Y67477D02*
D03*
Y64277D02*
D03*
Y61077D02*
D03*
Y57877D02*
D03*
Y54677D02*
D03*
Y51477D02*
D03*
Y48277D02*
D03*
Y45077D02*
D03*
Y41877D02*
D03*
Y38677D02*
D03*
Y35477D02*
D03*
Y32277D02*
D03*
Y29077D02*
D03*
Y25877D02*
D03*
Y22677D02*
D03*
X351372Y19477D02*
D03*
X352219Y16391D02*
D03*
X354191Y13871D02*
D03*
X356968Y12281D02*
D03*
X360143Y11879D02*
D03*
X363233Y12710D02*
D03*
X365772Y14658D02*
D03*
X368535Y90915D02*
D03*
Y87715D02*
D03*
Y84515D02*
D03*
Y81315D02*
D03*
Y78115D02*
D03*
Y74915D02*
D03*
Y71715D02*
D03*
Y68515D02*
D03*
Y65315D02*
D03*
Y62115D02*
D03*
Y58915D02*
D03*
Y55715D02*
D03*
Y52515D02*
D03*
Y49315D02*
D03*
Y46115D02*
D03*
Y42915D02*
D03*
Y39715D02*
D03*
Y36515D02*
D03*
Y33315D02*
D03*
Y30115D02*
D03*
Y26915D02*
D03*
Y23716D02*
D03*
Y20516D02*
D03*
X369011Y17351D02*
D03*
X370633Y14593D02*
D03*
X373198Y12679D02*
D03*
X376293Y11868D02*
D03*
X379462Y12313D02*
D03*
X382228Y13921D02*
D03*
X384167Y16467D02*
D03*
X385724Y89878D02*
D03*
Y86678D02*
D03*
Y83478D02*
D03*
Y80278D02*
D03*
Y77078D02*
D03*
Y73878D02*
D03*
Y70678D02*
D03*
Y67478D02*
D03*
Y64278D02*
D03*
Y61078D02*
D03*
Y57878D02*
D03*
Y54678D02*
D03*
Y51478D02*
D03*
Y48278D02*
D03*
Y45078D02*
D03*
Y41878D02*
D03*
Y38678D02*
D03*
Y35478D02*
D03*
Y32278D02*
D03*
Y29078D02*
D03*
Y25878D02*
D03*
Y22678D02*
D03*
X385751Y19478D02*
D03*
X386597Y16392D02*
D03*
X388570Y13872D02*
D03*
X391347Y12282D02*
D03*
X394521Y11879D02*
D03*
X397611Y12710D02*
D03*
X400150Y14658D02*
D03*
X402914Y90915D02*
D03*
Y87715D02*
D03*
Y84515D02*
D03*
Y81315D02*
D03*
Y78115D02*
D03*
Y74915D02*
D03*
Y71715D02*
D03*
Y68515D02*
D03*
Y65315D02*
D03*
Y62115D02*
D03*
Y58915D02*
D03*
Y55715D02*
D03*
Y52515D02*
D03*
Y49315D02*
D03*
Y46115D02*
D03*
Y42915D02*
D03*
Y39715D02*
D03*
Y36515D02*
D03*
Y33315D02*
D03*
Y30115D02*
D03*
Y26915D02*
D03*
Y23715D02*
D03*
Y20515D02*
D03*
X403390Y17350D02*
D03*
X405012Y14592D02*
D03*
X407577Y12679D02*
D03*
X410673Y11868D02*
D03*
X413842Y12313D02*
D03*
X416608Y13922D02*
D03*
X418546Y16468D02*
D03*
X420103Y89878D02*
D03*
Y86678D02*
D03*
Y83478D02*
D03*
Y80278D02*
D03*
Y77078D02*
D03*
Y73878D02*
D03*
Y70678D02*
D03*
Y67478D02*
D03*
Y64278D02*
D03*
Y61078D02*
D03*
Y57878D02*
D03*
Y54678D02*
D03*
Y51478D02*
D03*
Y48278D02*
D03*
Y45078D02*
D03*
Y41878D02*
D03*
Y38678D02*
D03*
Y35478D02*
D03*
Y32278D02*
D03*
Y29078D02*
D03*
Y25878D02*
D03*
Y22678D02*
D03*
X420130Y19478D02*
D03*
X420976Y16392D02*
D03*
X422948Y13872D02*
D03*
X425725Y12282D02*
D03*
X428899Y11879D02*
D03*
X431990Y12710D02*
D03*
X434529Y14657D02*
D03*
X437293Y90914D02*
D03*
Y87714D02*
D03*
Y84514D02*
D03*
Y81314D02*
D03*
Y78114D02*
D03*
Y74914D02*
D03*
Y71714D02*
D03*
Y68514D02*
D03*
Y65314D02*
D03*
Y62114D02*
D03*
Y58914D02*
D03*
Y55714D02*
D03*
Y52514D02*
D03*
Y49314D02*
D03*
Y46114D02*
D03*
Y42914D02*
D03*
Y39714D02*
D03*
Y36514D02*
D03*
Y33314D02*
D03*
Y30114D02*
D03*
Y26914D02*
D03*
Y23714D02*
D03*
Y20514D02*
D03*
X437769Y17350D02*
D03*
X439392Y14592D02*
D03*
X441957Y12678D02*
D03*
X445053Y11868D02*
D03*
X448221Y12313D02*
D03*
X450988Y13922D02*
D03*
X452926Y16468D02*
D03*
X454483Y89879D02*
D03*
Y86679D02*
D03*
Y83479D02*
D03*
Y80279D02*
D03*
Y77079D02*
D03*
Y73879D02*
D03*
Y70679D02*
D03*
Y67479D02*
D03*
Y64279D02*
D03*
Y61079D02*
D03*
Y57879D02*
D03*
Y54679D02*
D03*
Y51479D02*
D03*
Y48279D02*
D03*
Y45079D02*
D03*
Y41879D02*
D03*
Y38679D02*
D03*
Y35479D02*
D03*
Y32279D02*
D03*
Y29079D02*
D03*
Y25879D02*
D03*
Y22679D02*
D03*
X454509Y19479D02*
D03*
X455355Y16393D02*
D03*
X457327Y13873D02*
D03*
X460103Y12282D02*
D03*
X463278Y11878D02*
D03*
X466368Y12710D02*
D03*
X468908Y14657D02*
D03*
X471672Y90913D02*
D03*
Y87713D02*
D03*
Y84513D02*
D03*
Y81313D02*
D03*
Y78113D02*
D03*
Y74913D02*
D03*
Y71713D02*
D03*
Y68513D02*
D03*
Y65313D02*
D03*
Y62113D02*
D03*
Y58913D02*
D03*
Y55713D02*
D03*
Y52513D02*
D03*
Y49313D02*
D03*
Y46113D02*
D03*
Y42913D02*
D03*
Y39713D02*
D03*
Y36513D02*
D03*
Y33313D02*
D03*
Y30113D02*
D03*
Y26913D02*
D03*
Y23713D02*
D03*
Y20513D02*
D03*
X472149Y17349D02*
D03*
X473771Y14591D02*
D03*
X476337Y12678D02*
D03*
X479432Y11868D02*
D03*
X482601Y12314D02*
D03*
X485367Y13923D02*
D03*
X487305Y16469D02*
D03*
X488862Y89880D02*
D03*
Y86680D02*
D03*
Y83480D02*
D03*
Y80280D02*
D03*
Y77080D02*
D03*
Y73880D02*
D03*
Y70680D02*
D03*
Y67480D02*
D03*
Y64280D02*
D03*
Y61080D02*
D03*
Y57880D02*
D03*
Y54680D02*
D03*
Y51480D02*
D03*
Y48280D02*
D03*
Y45080D02*
D03*
Y41880D02*
D03*
Y38680D02*
D03*
Y35480D02*
D03*
Y32280D02*
D03*
Y29080D02*
D03*
Y25880D02*
D03*
Y22680D02*
D03*
X488888Y19480D02*
D03*
X489734Y16394D02*
D03*
X491705Y13873D02*
D03*
X494482Y12282D02*
D03*
X497656Y11878D02*
D03*
X500746Y12709D02*
D03*
X503286Y14656D02*
D03*
X504891Y17425D02*
D03*
X505336Y20594D02*
D03*
Y23794D02*
D03*
Y26994D02*
D03*
Y30194D02*
D03*
Y33394D02*
D03*
Y36594D02*
D03*
Y39794D02*
D03*
Y42994D02*
D03*
Y46194D02*
D03*
Y49394D02*
D03*
X507374Y51860D02*
D03*
X510574D02*
D03*
X513774D02*
D03*
X516974D02*
D03*
X520175Y51856D02*
D03*
X523346Y52284D02*
D03*
X526347Y53393D02*
D03*
X529003Y55178D02*
D03*
X531204Y57501D02*
D03*
X532786Y60283D02*
D03*
X533729Y63341D02*
D03*
X533940Y66534D02*
D03*
Y69734D02*
D03*
Y72934D02*
D03*
Y76134D02*
D03*
Y79334D02*
D03*
Y82534D02*
D03*
Y85734D02*
D03*
Y88934D02*
D03*
Y92134D02*
D03*
Y95334D02*
D03*
Y98534D02*
D03*
Y101734D02*
D03*
Y104934D02*
D03*
Y108134D02*
D03*
X533610Y111317D02*
D03*
X532115Y114146D02*
D03*
X494702Y117950D02*
D03*
X497902D02*
D03*
X501102D02*
D03*
X504302D02*
D03*
X507502D02*
D03*
X510702D02*
D03*
X513902D02*
D03*
X517102D02*
D03*
X520302D02*
D03*
X523502D02*
D03*
X526702D02*
D03*
X529902D02*
D03*
X533102D02*
D03*
X536302D02*
D03*
X539502D02*
D03*
X542702D02*
D03*
X545902D02*
D03*
X549102D02*
D03*
X552302D02*
D03*
X555502D02*
D03*
X558702D02*
D03*
X561902D02*
D03*
X565102D02*
D03*
X568277Y118354D02*
D03*
X571059Y119934D02*
D03*
X573049Y122440D02*
D03*
X573908Y125523D02*
D03*
X573558Y128704D02*
D03*
X571993Y131495D02*
D03*
X569503Y133506D02*
D03*
X566426Y134384D02*
D03*
X563227Y134424D02*
D03*
X560027D02*
D03*
X556826D02*
D03*
X553626D02*
D03*
X550426D02*
D03*
X547226D02*
D03*
X544027D02*
D03*
X540827D02*
D03*
X537627D02*
D03*
X534426D02*
D03*
X531226D02*
D03*
X518507Y135139D02*
D03*
X521707D02*
D03*
X524907D02*
D03*
X528089Y135486D02*
D03*
X530905Y137005D02*
D03*
X532956Y139462D02*
D03*
X533883Y142525D02*
D03*
X533940Y145724D02*
D03*
Y148924D02*
D03*
Y152124D02*
D03*
Y155324D02*
D03*
Y158524D02*
D03*
Y161724D02*
D03*
Y164924D02*
D03*
Y168124D02*
D03*
Y171324D02*
D03*
Y174524D02*
D03*
Y177724D02*
D03*
Y180924D02*
D03*
Y184124D02*
D03*
X533669Y187313D02*
D03*
X532686Y190358D02*
D03*
X531046Y193106D02*
D03*
X528806Y195391D02*
D03*
X526122Y197134D02*
D03*
X523097Y198176D02*
D03*
X519918Y198547D02*
D03*
X516718Y198540D02*
D03*
X513518D02*
D03*
X510318D02*
D03*
X507118D02*
D03*
X503918D02*
D03*
X500718D02*
D03*
X497518D02*
D03*
X494318D02*
D03*
X491118D02*
D03*
X487918D02*
D03*
X484718D02*
D03*
X481518D02*
D03*
X478318D02*
D03*
X475118D02*
D03*
X471918D02*
D03*
X468718D02*
D03*
X465518D02*
D03*
X462318D02*
D03*
X459118D02*
D03*
X455918D02*
D03*
X452718D02*
D03*
X449518D02*
D03*
X446318D02*
D03*
X443118D02*
D03*
X439918D02*
D03*
X436718D02*
D03*
X433518D02*
D03*
X430318D02*
D03*
X427118D02*
D03*
X423918D02*
D03*
X420718D02*
D03*
X417518D02*
D03*
X414318D02*
D03*
X411118D02*
D03*
X407918D02*
D03*
X404718D02*
D03*
X401518D02*
D03*
X398318D02*
D03*
X395118D02*
D03*
X391950Y198986D02*
D03*
X389412Y200935D02*
D03*
X388214Y203903D02*
D03*
X388140Y207102D02*
D03*
Y210302D02*
D03*
Y213502D02*
D03*
Y216702D02*
D03*
Y219902D02*
D03*
Y223102D02*
D03*
Y226302D02*
D03*
Y229502D02*
D03*
Y232702D02*
D03*
Y235902D02*
D03*
Y239102D02*
D03*
Y242302D02*
D03*
Y245502D02*
D03*
Y248702D02*
D03*
Y251902D02*
D03*
Y255102D02*
D03*
Y258302D02*
D03*
Y261502D02*
D03*
Y264702D02*
D03*
Y267902D02*
D03*
Y271102D02*
D03*
Y274302D02*
D03*
Y277502D02*
D03*
Y280702D02*
D03*
Y283902D02*
D03*
Y287102D02*
D03*
Y290302D02*
D03*
Y293502D02*
D03*
Y296702D02*
D03*
X388145Y299902D02*
D03*
X389014Y302981D02*
D03*
X391323Y305196D02*
D03*
X394430Y305962D02*
D03*
X397630D02*
D03*
X400830D02*
D03*
X404030D02*
D03*
X407230D02*
D03*
X410428Y306070D02*
D03*
D51*
X119587Y73228D02*
D03*
X113386Y41240D02*
D03*
X136417Y32382D02*
D03*
X118996Y112894D02*
D03*
X124311Y133563D02*
D03*
X131791Y107480D02*
D03*
X108800Y67800D02*
D03*
X108600Y142200D02*
D03*
X128326Y41549D02*
D03*
X123700Y109300D02*
D03*
X128700Y106600D02*
D03*
D52*
X431173Y355327D02*
D03*
X452827D02*
D03*
X431173Y333673D02*
D03*
X452827D02*
D03*
X39673Y97173D02*
D03*
X61900Y119400D02*
D03*
X61327Y97173D02*
D03*
X39673Y118827D02*
D03*
X129516Y58740D02*
D03*
X129890Y123791D02*
D03*
M02*
