G04*
G04 #@! TF.GenerationSoftware,Altium Limited,Altium Designer,20.0.9 (164)*
G04*
G04 Layer_Color=8388736*
%FSLAX25Y25*%
%MOIN*%
G70*
G01*
G75*
%ADD15C,0.01000*%
%ADD18C,0.01595*%
%ADD19C,0.01595*%
%ADD20C,0.01183*%
%ADD21R,0.08300X0.02800*%
%ADD22R,0.20800X0.09800*%
%ADD23R,0.03162X0.02769*%
%ADD24R,0.02769X0.03162*%
%ADD25O,0.03950X0.01824*%
%ADD26O,0.01824X0.03950*%
%ADD27R,0.07493X0.07493*%
%ADD28R,0.02414X0.02099*%
%ADD29R,0.06706X0.06706*%
%ADD30C,0.08871*%
%ADD31R,0.02099X0.02414*%
%ADD32C,0.06706*%
%ADD33C,0.02000*%
%ADD34C,0.02200*%
%ADD35C,0.02300*%
D15*
X0Y0D02*
Y393701D01*
X590551D01*
Y0D02*
Y393701D01*
X0Y0D02*
X590551D01*
D18*
X530000Y184600D02*
G03*
X520000Y194600I-10000J0D01*
G01*
X384200Y204600D02*
G03*
X394200Y194600I10000J0D01*
G01*
X60500Y315098D02*
G03*
X50500Y305098I0J-10000D01*
G01*
X50502Y165600D02*
G03*
X60500Y155800I9998J200D01*
G01*
X154200Y153600D02*
G03*
X148889Y155800I-5311J-5311D01*
G01*
X159200Y146000D02*
G03*
X157361Y150438I-6277J0D01*
G01*
X156271Y124171D02*
G03*
X159200Y131242I-7071J7071D01*
G01*
X150072Y120800D02*
G03*
X154900Y122800I0J6828D01*
G01*
X394200Y309902D02*
G03*
X384200Y299902I0J-10000D01*
G01*
X520000Y55800D02*
G03*
X530000Y65800I0J10000D01*
G01*
X86949Y66417D02*
G03*
X96615Y56751I9666J0D01*
G01*
X97438Y121851D02*
G03*
X90367Y118922I0J-10000D01*
G01*
X356100Y315100D02*
X409000Y315098D01*
X469500Y194600D02*
X520000D01*
X394200D02*
X469500D01*
X530000Y145000D02*
Y184600D01*
Y65800D02*
Y95800D01*
X384200Y204600D02*
Y299902D01*
X474000Y314961D02*
X586201D01*
X452000Y317559D02*
X470102D01*
X442000Y327559D02*
Y344500D01*
X412898Y312500D02*
X469965D01*
X154900Y122800D02*
X156271Y124171D01*
X61100Y315098D02*
X96400D01*
X60500Y155800D02*
X148889D01*
X154200Y153600D02*
X157361Y150438D01*
X159200Y131242D02*
Y146000D01*
X145768Y120800D02*
X150072D01*
X135618Y120839D02*
X141738D01*
X394200Y309902D02*
X409000D01*
X146537Y55800D02*
X169700D01*
X135244Y55787D02*
X142587D01*
X96615Y56751D02*
X110402D01*
X97438Y121851D02*
X111702D01*
X86949Y78698D02*
Y111469D01*
X50157Y76142D02*
X83019D01*
X50157Y81339D02*
Y107658D01*
X4350Y78740D02*
X46260D01*
D19*
X442000Y327559D02*
G03*
X452000Y317559I10000J0D01*
G01*
X89722Y118278D02*
G03*
X86949Y111469I6972J-6810D01*
G01*
X4350Y369000D02*
X586201D01*
X86949Y66417D02*
Y73502D01*
D20*
X119206Y122807D02*
G03*
X116898Y121851I0J-3264D01*
G01*
Y125749D02*
G03*
X119248Y124776I2350J2350D01*
G01*
X116603Y57756D02*
G03*
X115598Y56751I0J-1005D01*
G01*
Y60649D02*
G03*
X116523Y59724I924J0D01*
G01*
X119206Y122807D02*
X124161D01*
X119248Y124776D02*
X124161D01*
X116603Y57756D02*
X123787D01*
X116523Y59724D02*
X123787D01*
D21*
X4350Y369000D02*
D03*
X586201D02*
D03*
X4350Y78740D02*
D03*
X586201Y314961D02*
D03*
D22*
X10600Y386400D02*
D03*
Y351600D02*
D03*
X579951D02*
D03*
Y386400D02*
D03*
X10600Y96140D02*
D03*
Y61340D02*
D03*
X579951Y297561D02*
D03*
Y332361D02*
D03*
D23*
X146537Y55800D02*
D03*
X142600D02*
D03*
X38976Y24902D02*
D03*
X35039D02*
D03*
X133369Y138500D02*
D03*
X129431D02*
D03*
X132994Y73449D02*
D03*
X129058D02*
D03*
X145768Y120800D02*
D03*
X141832D02*
D03*
X133369Y142600D02*
D03*
X129431D02*
D03*
X132994Y77549D02*
D03*
X129058D02*
D03*
D24*
X113626Y51886D02*
D03*
Y47949D02*
D03*
X124500Y142437D02*
D03*
Y138500D02*
D03*
X124126Y77386D02*
D03*
Y73449D02*
D03*
X136500Y111437D02*
D03*
Y107500D02*
D03*
X136126Y46386D02*
D03*
Y42449D02*
D03*
X114000Y116937D02*
D03*
Y113000D02*
D03*
D25*
X124161Y126744D02*
D03*
Y124776D02*
D03*
Y122807D02*
D03*
Y120839D02*
D03*
X135618D02*
D03*
Y122807D02*
D03*
Y124776D02*
D03*
Y126744D02*
D03*
X123787Y61693D02*
D03*
Y59724D02*
D03*
Y57756D02*
D03*
Y55787D02*
D03*
X135244D02*
D03*
Y57756D02*
D03*
Y59724D02*
D03*
Y61693D02*
D03*
D26*
X126937Y118063D02*
D03*
X128905D02*
D03*
X130874D02*
D03*
X132843D02*
D03*
Y129520D02*
D03*
X130874D02*
D03*
X128905D02*
D03*
X126937D02*
D03*
X126563Y53012D02*
D03*
X128532D02*
D03*
X130500D02*
D03*
X132468D02*
D03*
Y64468D02*
D03*
X130500D02*
D03*
X128532D02*
D03*
X126563D02*
D03*
D27*
X129890Y123791D02*
D03*
X129516Y58740D02*
D03*
D28*
X114300Y125749D02*
D03*
Y121851D02*
D03*
X111702Y125749D02*
D03*
Y121851D02*
D03*
X116898D02*
D03*
Y125749D02*
D03*
X113000Y60649D02*
D03*
Y56751D02*
D03*
X110402Y60649D02*
D03*
Y56751D02*
D03*
X115598D02*
D03*
Y60649D02*
D03*
D29*
X431173Y333673D02*
D03*
X452827D02*
D03*
Y355327D02*
D03*
X431173D02*
D03*
X39673Y97173D02*
D03*
X61327D02*
D03*
Y118827D02*
D03*
X39673D02*
D03*
X70000Y34800D02*
D03*
D30*
X442000Y344500D02*
D03*
X50500Y108000D02*
D03*
D31*
X86949Y76100D02*
D03*
X83051D02*
D03*
X86949Y78698D02*
D03*
X83051D02*
D03*
Y73502D02*
D03*
X86949D02*
D03*
X50157Y78740D02*
D03*
X46260D02*
D03*
X50157Y81339D02*
D03*
X46260D02*
D03*
Y76142D02*
D03*
X50157D02*
D03*
X409000Y312500D02*
D03*
X412898D02*
D03*
X409000Y309902D02*
D03*
X412898D02*
D03*
Y315098D02*
D03*
X409000D02*
D03*
X470102Y314961D02*
D03*
X474000D02*
D03*
X470102Y312362D02*
D03*
X474000D02*
D03*
Y317559D02*
D03*
X470102D02*
D03*
D32*
X70000Y24800D02*
D03*
X60000Y34800D02*
D03*
Y24800D02*
D03*
X50000Y34800D02*
D03*
Y24800D02*
D03*
D33*
X442935Y316440D02*
D03*
X439735D02*
D03*
X436535D02*
D03*
X433335D02*
D03*
X430135D02*
D03*
X426935D02*
D03*
X423735D02*
D03*
X420535D02*
D03*
X417335D02*
D03*
X415340Y308560D02*
D03*
X418540D02*
D03*
X421740D02*
D03*
X424940D02*
D03*
X428140D02*
D03*
X431340D02*
D03*
X434540D02*
D03*
X437740D02*
D03*
X440940D02*
D03*
X444140D02*
D03*
X447340D02*
D03*
X450540D02*
D03*
X453740D02*
D03*
X456940D02*
D03*
X460140D02*
D03*
X463340D02*
D03*
X466540D02*
D03*
X469737Y308428D02*
D03*
X472800Y308800D02*
D03*
X439098Y351050D02*
D03*
X436532Y349139D02*
D03*
X435059Y346298D02*
D03*
X434960Y343099D02*
D03*
X436283Y340185D02*
D03*
X438060Y337525D02*
D03*
Y334325D02*
D03*
Y331124D02*
D03*
Y327924D02*
D03*
X438357Y324738D02*
D03*
X439356Y321698D02*
D03*
X441026Y318968D02*
D03*
X471566Y321384D02*
D03*
X468368Y321499D02*
D03*
X465168D02*
D03*
X461968D02*
D03*
X458768D02*
D03*
X455568D02*
D03*
X452368D02*
D03*
X449246Y322199D02*
D03*
X446880Y324354D02*
D03*
X445959Y327418D02*
D03*
X445940Y330619D02*
D03*
Y333819D02*
D03*
Y337018D02*
D03*
X447451Y339839D02*
D03*
X448934Y342675D02*
D03*
X449043Y345873D02*
D03*
X447734Y348793D02*
D03*
X445302Y350873D02*
D03*
X442203Y351670D02*
D03*
X587856Y319087D02*
D03*
X584656D02*
D03*
X581461Y318906D02*
D03*
X578261Y318900D02*
D03*
X575061D02*
D03*
X571861D02*
D03*
X568661D02*
D03*
X565461D02*
D03*
X562261D02*
D03*
X559061D02*
D03*
X555861D02*
D03*
X552661D02*
D03*
X549461D02*
D03*
X546261D02*
D03*
X543061D02*
D03*
X539861D02*
D03*
X536661D02*
D03*
X533461D02*
D03*
X530261D02*
D03*
X527061D02*
D03*
X523861D02*
D03*
X520661D02*
D03*
X517461D02*
D03*
X514261D02*
D03*
X511061D02*
D03*
X507861D02*
D03*
X504661D02*
D03*
X501461D02*
D03*
X498261D02*
D03*
X495061D02*
D03*
X491861D02*
D03*
X488661D02*
D03*
X485461D02*
D03*
X482261D02*
D03*
X479061D02*
D03*
X478973Y311021D02*
D03*
X482173D02*
D03*
X485373D02*
D03*
X488573D02*
D03*
X491773D02*
D03*
X494973D02*
D03*
X498173D02*
D03*
X501373D02*
D03*
X504573D02*
D03*
X507773D02*
D03*
X510973D02*
D03*
X514173D02*
D03*
X517373D02*
D03*
X520573D02*
D03*
X523773D02*
D03*
X526973D02*
D03*
X530173D02*
D03*
X533373D02*
D03*
X536573D02*
D03*
X539773D02*
D03*
X542973D02*
D03*
X546173D02*
D03*
X549373D02*
D03*
X552573D02*
D03*
X555773D02*
D03*
X558973D02*
D03*
X562173D02*
D03*
X565373D02*
D03*
X568573D02*
D03*
X571773D02*
D03*
X574973D02*
D03*
X578173D02*
D03*
X581373D02*
D03*
X584568Y310834D02*
D03*
X587768D02*
D03*
X586023Y373127D02*
D03*
X582823D02*
D03*
X579629Y372940D02*
D03*
X576429D02*
D03*
X573229D02*
D03*
X570029D02*
D03*
X566829D02*
D03*
X563629D02*
D03*
X560429D02*
D03*
X557229D02*
D03*
X554029D02*
D03*
X550829D02*
D03*
X547629D02*
D03*
X544429D02*
D03*
X541229D02*
D03*
X538029D02*
D03*
X534829D02*
D03*
X531629D02*
D03*
X528429D02*
D03*
X525229D02*
D03*
X522029D02*
D03*
X518829D02*
D03*
X515629D02*
D03*
X512429D02*
D03*
X509229D02*
D03*
X506029D02*
D03*
X502829D02*
D03*
X499629D02*
D03*
X496429D02*
D03*
X493229D02*
D03*
X490029D02*
D03*
X486829D02*
D03*
X483629D02*
D03*
X480429D02*
D03*
X477229D02*
D03*
X474029D02*
D03*
X470829D02*
D03*
X467629D02*
D03*
X464429D02*
D03*
X461229D02*
D03*
X458029D02*
D03*
X454829D02*
D03*
X451629D02*
D03*
X448429D02*
D03*
X445229D02*
D03*
X442029D02*
D03*
X438829D02*
D03*
X435629D02*
D03*
X432429D02*
D03*
X429229D02*
D03*
X426029D02*
D03*
X422829D02*
D03*
X419629D02*
D03*
X416429D02*
D03*
X413229D02*
D03*
X410029D02*
D03*
X406829D02*
D03*
X403629D02*
D03*
X400429D02*
D03*
X397229D02*
D03*
X394029D02*
D03*
X390829D02*
D03*
X387629D02*
D03*
X384429D02*
D03*
X381229D02*
D03*
X378029D02*
D03*
X374829D02*
D03*
X371629D02*
D03*
X368429D02*
D03*
X365229D02*
D03*
X362029D02*
D03*
X358829D02*
D03*
X355629D02*
D03*
X352429D02*
D03*
X349229D02*
D03*
X346029D02*
D03*
X342829D02*
D03*
X339629D02*
D03*
X336429D02*
D03*
X333229D02*
D03*
X330029D02*
D03*
X326829D02*
D03*
X323629D02*
D03*
X320429D02*
D03*
X317229D02*
D03*
X314029D02*
D03*
X310829D02*
D03*
X307629D02*
D03*
X304429D02*
D03*
X301229D02*
D03*
X298029D02*
D03*
X294829D02*
D03*
X291629D02*
D03*
X288429D02*
D03*
X285229D02*
D03*
X282029D02*
D03*
X278829D02*
D03*
X275629D02*
D03*
X272429D02*
D03*
X269229D02*
D03*
X266029D02*
D03*
X262829D02*
D03*
X259629D02*
D03*
X256429D02*
D03*
X253229D02*
D03*
X250029D02*
D03*
X246829D02*
D03*
X243629D02*
D03*
X240429D02*
D03*
X237229D02*
D03*
X234029D02*
D03*
X230829D02*
D03*
X227629D02*
D03*
X224429D02*
D03*
X221229D02*
D03*
X218029D02*
D03*
X214829D02*
D03*
X211629D02*
D03*
X208429D02*
D03*
X205229D02*
D03*
X202029D02*
D03*
X198829D02*
D03*
X195629D02*
D03*
X192429D02*
D03*
X189229D02*
D03*
X186029D02*
D03*
X182829D02*
D03*
X179629D02*
D03*
X176429D02*
D03*
X173229D02*
D03*
X170029D02*
D03*
X166829D02*
D03*
X163629D02*
D03*
X160429D02*
D03*
X157229D02*
D03*
X154029D02*
D03*
X150829D02*
D03*
X147629D02*
D03*
X144429D02*
D03*
X141229D02*
D03*
X138029D02*
D03*
X134829D02*
D03*
X131629D02*
D03*
X128429D02*
D03*
X125229D02*
D03*
X122029D02*
D03*
X118829D02*
D03*
X115629D02*
D03*
X112429D02*
D03*
X109229D02*
D03*
X106029D02*
D03*
X102829D02*
D03*
X99629D02*
D03*
X96429D02*
D03*
X93229D02*
D03*
X90029D02*
D03*
X86829D02*
D03*
X83629D02*
D03*
X80429D02*
D03*
X77229D02*
D03*
X74029D02*
D03*
X70829D02*
D03*
X67629D02*
D03*
X64429D02*
D03*
X61229D02*
D03*
X58029D02*
D03*
X54829D02*
D03*
X51629D02*
D03*
X48429D02*
D03*
X45229D02*
D03*
X42029D02*
D03*
X38829D02*
D03*
X35629D02*
D03*
X32429D02*
D03*
X29229D02*
D03*
X26029D02*
D03*
X22829D02*
D03*
X19629D02*
D03*
X16429D02*
D03*
X13229D02*
D03*
X10029D02*
D03*
X6834Y373127D02*
D03*
X3634D02*
D03*
X2176Y364873D02*
D03*
X5376D02*
D03*
X8576Y364936D02*
D03*
X11773Y365060D02*
D03*
X14973D02*
D03*
X18173D02*
D03*
X21373D02*
D03*
X24573D02*
D03*
X27773D02*
D03*
X30973D02*
D03*
X34173D02*
D03*
X37373D02*
D03*
X40573D02*
D03*
X43773D02*
D03*
X46973D02*
D03*
X50173D02*
D03*
X53373D02*
D03*
X56573D02*
D03*
X59773D02*
D03*
X62973D02*
D03*
X66173D02*
D03*
X69373D02*
D03*
X72573D02*
D03*
X75773D02*
D03*
X78973D02*
D03*
X82173D02*
D03*
X85373D02*
D03*
X88573D02*
D03*
X91773D02*
D03*
X94973D02*
D03*
X98173D02*
D03*
X101373D02*
D03*
X104573D02*
D03*
X107773D02*
D03*
X110973D02*
D03*
X114173D02*
D03*
X117373D02*
D03*
X120573D02*
D03*
X123773D02*
D03*
X126973D02*
D03*
X130173D02*
D03*
X133373D02*
D03*
X136573D02*
D03*
X139773D02*
D03*
X142973D02*
D03*
X146173D02*
D03*
X149373D02*
D03*
X152573D02*
D03*
X155773D02*
D03*
X158973D02*
D03*
X162173D02*
D03*
X165373D02*
D03*
X168573D02*
D03*
X171773D02*
D03*
X174973D02*
D03*
X178173D02*
D03*
X181373D02*
D03*
X184573D02*
D03*
X187773D02*
D03*
X190973D02*
D03*
X194173D02*
D03*
X197373D02*
D03*
X200573D02*
D03*
X203773D02*
D03*
X206973D02*
D03*
X210173D02*
D03*
X213373D02*
D03*
X216573D02*
D03*
X219773D02*
D03*
X222973D02*
D03*
X226173D02*
D03*
X229373D02*
D03*
X232573D02*
D03*
X235773D02*
D03*
X238973D02*
D03*
X242173D02*
D03*
X245373D02*
D03*
X248573D02*
D03*
X251773D02*
D03*
X254973D02*
D03*
X258173D02*
D03*
X261373D02*
D03*
X264573D02*
D03*
X267773D02*
D03*
X270973D02*
D03*
X274173D02*
D03*
X277373D02*
D03*
X280573D02*
D03*
X283773D02*
D03*
X286973D02*
D03*
X290173D02*
D03*
X293373D02*
D03*
X296573D02*
D03*
X299773D02*
D03*
X302973D02*
D03*
X306173D02*
D03*
X309373D02*
D03*
X312573D02*
D03*
X315773D02*
D03*
X318973D02*
D03*
X322173D02*
D03*
X325373D02*
D03*
X328573D02*
D03*
X331773D02*
D03*
X334973D02*
D03*
X338173D02*
D03*
X341373D02*
D03*
X344573D02*
D03*
X347773D02*
D03*
X350973D02*
D03*
X354173D02*
D03*
X357373D02*
D03*
X360573D02*
D03*
X363773D02*
D03*
X366973D02*
D03*
X370173D02*
D03*
X373373D02*
D03*
X376573D02*
D03*
X379773D02*
D03*
X382973D02*
D03*
X386173D02*
D03*
X389373D02*
D03*
X392573D02*
D03*
X395773D02*
D03*
X398973D02*
D03*
X402173D02*
D03*
X405373D02*
D03*
X408573D02*
D03*
X411773D02*
D03*
X414973D02*
D03*
X418173D02*
D03*
X421373D02*
D03*
X424573D02*
D03*
X427773D02*
D03*
X430973D02*
D03*
X434173D02*
D03*
X437373D02*
D03*
X440573D02*
D03*
X443773D02*
D03*
X446973D02*
D03*
X450173D02*
D03*
X453373D02*
D03*
X456573D02*
D03*
X459773D02*
D03*
X462973D02*
D03*
X466173D02*
D03*
X469373D02*
D03*
X472573D02*
D03*
X475773D02*
D03*
X478973D02*
D03*
X482173D02*
D03*
X485373D02*
D03*
X488573D02*
D03*
X491773D02*
D03*
X494973D02*
D03*
X498173D02*
D03*
X501373D02*
D03*
X504573D02*
D03*
X507773D02*
D03*
X510973D02*
D03*
X514173D02*
D03*
X517373D02*
D03*
X520573D02*
D03*
X523773D02*
D03*
X526973D02*
D03*
X530173D02*
D03*
X533373D02*
D03*
X536573D02*
D03*
X539773D02*
D03*
X542973D02*
D03*
X546173D02*
D03*
X549373D02*
D03*
X552573D02*
D03*
X555773D02*
D03*
X558973D02*
D03*
X562173D02*
D03*
X565373D02*
D03*
X568573D02*
D03*
X571773D02*
D03*
X574973D02*
D03*
X578173D02*
D03*
X581373D02*
D03*
X584568Y364873D02*
D03*
X587768D02*
D03*
X117084Y63832D02*
D03*
X116197Y53479D02*
D03*
X119232Y54493D02*
D03*
X141179Y59375D02*
D03*
X137000Y52100D02*
D03*
X140013Y52352D02*
D03*
X143209Y52193D02*
D03*
X144460Y59317D02*
D03*
X139549Y124142D02*
D03*
X136500Y117300D02*
D03*
X139267Y117600D02*
D03*
X142441Y117193D02*
D03*
X143691Y124317D02*
D03*
X118384Y128931D02*
D03*
X117100Y118700D02*
D03*
X119609Y119411D02*
D03*
X93638Y125259D02*
D03*
X90679Y124040D02*
D03*
X88081Y122171D02*
D03*
X85877Y119851D02*
D03*
X84233Y117106D02*
D03*
X83258Y114058D02*
D03*
X83009Y110868D02*
D03*
Y107668D02*
D03*
Y104468D02*
D03*
Y101268D02*
D03*
Y98068D02*
D03*
Y94868D02*
D03*
Y91668D02*
D03*
Y88468D02*
D03*
Y85268D02*
D03*
Y82068D02*
D03*
X90889Y78986D02*
D03*
Y82186D02*
D03*
Y85386D02*
D03*
Y88586D02*
D03*
Y91786D02*
D03*
Y94986D02*
D03*
Y98186D02*
D03*
Y101386D02*
D03*
Y104586D02*
D03*
Y107786D02*
D03*
Y110986D02*
D03*
X91564Y114114D02*
D03*
X93651Y116539D02*
D03*
X96583Y117822D02*
D03*
X99782Y117911D02*
D03*
X102982D02*
D03*
X109382D02*
D03*
X107173Y125791D02*
D03*
X100773D02*
D03*
X97573D02*
D03*
X47580Y114543D02*
D03*
X45020Y112623D02*
D03*
X43553Y109778D02*
D03*
X43463Y106580D02*
D03*
X44795Y103670D02*
D03*
X46218Y100804D02*
D03*
Y97604D02*
D03*
Y94404D02*
D03*
Y91204D02*
D03*
Y88004D02*
D03*
Y84804D02*
D03*
X54097Y84731D02*
D03*
Y87931D02*
D03*
Y91131D02*
D03*
Y94331D02*
D03*
Y97531D02*
D03*
Y100731D02*
D03*
X55951Y103339D02*
D03*
X57434Y106175D02*
D03*
X57543Y109373D02*
D03*
X56234Y112293D02*
D03*
X53802Y114373D02*
D03*
X50703Y115170D02*
D03*
X79247Y80081D02*
D03*
X76047D02*
D03*
X72847D02*
D03*
X69647D02*
D03*
X66447D02*
D03*
X63247D02*
D03*
X60047D02*
D03*
X56847D02*
D03*
X53647D02*
D03*
X47100Y72800D02*
D03*
X50293Y72202D02*
D03*
X53493D02*
D03*
X56693D02*
D03*
X59893D02*
D03*
X63093D02*
D03*
X66293D02*
D03*
X69493D02*
D03*
X72693D02*
D03*
X75893D02*
D03*
X79093D02*
D03*
X5866Y82867D02*
D03*
X2667D02*
D03*
X3121Y74613D02*
D03*
X6321D02*
D03*
X9516Y74800D02*
D03*
X12716D02*
D03*
X15916D02*
D03*
X19116D02*
D03*
X22316D02*
D03*
X25516D02*
D03*
X28716D02*
D03*
X31916D02*
D03*
X35116D02*
D03*
X38316D02*
D03*
X41516D02*
D03*
X43300Y83000D02*
D03*
X40908Y82680D02*
D03*
X37708D02*
D03*
X34508D02*
D03*
X31308D02*
D03*
X28108D02*
D03*
X24908D02*
D03*
X21708D02*
D03*
X18508D02*
D03*
X15308D02*
D03*
X12108D02*
D03*
X8909Y82760D02*
D03*
X325039Y358284D02*
D03*
X322432Y356428D02*
D03*
X319504Y280228D02*
D03*
Y283428D02*
D03*
Y286628D02*
D03*
Y289828D02*
D03*
Y293028D02*
D03*
Y296228D02*
D03*
Y299428D02*
D03*
Y302628D02*
D03*
Y305828D02*
D03*
Y309028D02*
D03*
Y312228D02*
D03*
Y315428D02*
D03*
Y318628D02*
D03*
Y321828D02*
D03*
Y325028D02*
D03*
Y328228D02*
D03*
Y331428D02*
D03*
Y334628D02*
D03*
Y337828D02*
D03*
Y341028D02*
D03*
Y344228D02*
D03*
Y347428D02*
D03*
X319509Y350628D02*
D03*
X318934Y353775D02*
D03*
X317233Y356486D02*
D03*
X314608Y358316D02*
D03*
X311491Y359040D02*
D03*
X308339Y358487D02*
D03*
X305618Y356803D02*
D03*
X303771Y354190D02*
D03*
X302314Y280758D02*
D03*
Y283958D02*
D03*
Y287158D02*
D03*
Y290358D02*
D03*
Y293558D02*
D03*
Y296758D02*
D03*
Y299958D02*
D03*
Y303158D02*
D03*
Y306358D02*
D03*
Y309558D02*
D03*
Y312758D02*
D03*
Y315958D02*
D03*
Y319158D02*
D03*
Y322358D02*
D03*
Y325558D02*
D03*
Y328758D02*
D03*
Y331958D02*
D03*
Y335158D02*
D03*
Y338358D02*
D03*
Y341558D02*
D03*
Y344758D02*
D03*
Y347958D02*
D03*
X302316Y351158D02*
D03*
X301542Y354263D02*
D03*
X299671Y356859D02*
D03*
X296934Y358517D02*
D03*
X293777Y359040D02*
D03*
X290666Y358287D02*
D03*
X288058Y356433D02*
D03*
X285125Y280235D02*
D03*
Y283435D02*
D03*
Y286635D02*
D03*
Y289835D02*
D03*
Y293035D02*
D03*
Y296235D02*
D03*
Y299435D02*
D03*
Y302635D02*
D03*
Y305835D02*
D03*
Y309035D02*
D03*
Y312235D02*
D03*
Y315435D02*
D03*
Y318635D02*
D03*
Y321835D02*
D03*
Y325035D02*
D03*
Y328235D02*
D03*
Y331435D02*
D03*
Y334635D02*
D03*
Y337835D02*
D03*
Y341035D02*
D03*
Y344235D02*
D03*
Y347435D02*
D03*
X285131Y350635D02*
D03*
X284552Y353782D02*
D03*
X282849Y356491D02*
D03*
X280222Y358319D02*
D03*
X277104Y359040D02*
D03*
X273953Y358484D02*
D03*
X271233Y356798D02*
D03*
X269389Y354183D02*
D03*
X267935Y280751D02*
D03*
Y283951D02*
D03*
Y287151D02*
D03*
Y290351D02*
D03*
Y293551D02*
D03*
Y296751D02*
D03*
Y299951D02*
D03*
Y303151D02*
D03*
Y306351D02*
D03*
Y309551D02*
D03*
Y312751D02*
D03*
Y315951D02*
D03*
Y319151D02*
D03*
Y322351D02*
D03*
Y325551D02*
D03*
Y328751D02*
D03*
Y331951D02*
D03*
Y335151D02*
D03*
Y338351D02*
D03*
Y341551D02*
D03*
Y344751D02*
D03*
Y347951D02*
D03*
X267937Y351151D02*
D03*
X267166Y354256D02*
D03*
X265297Y356854D02*
D03*
X262561Y358514D02*
D03*
X259405Y359040D02*
D03*
X256294Y358290D02*
D03*
X253684Y356438D02*
D03*
X250746Y280241D02*
D03*
Y283441D02*
D03*
Y286642D02*
D03*
Y289842D02*
D03*
Y293041D02*
D03*
Y296241D02*
D03*
Y299442D02*
D03*
Y302642D02*
D03*
Y305841D02*
D03*
Y309042D02*
D03*
Y312242D02*
D03*
Y315441D02*
D03*
Y318641D02*
D03*
Y321842D02*
D03*
Y325042D02*
D03*
Y328241D02*
D03*
Y331441D02*
D03*
Y334642D02*
D03*
Y337842D02*
D03*
Y341041D02*
D03*
Y344241D02*
D03*
Y347442D02*
D03*
X250753Y350641D02*
D03*
X250170Y353788D02*
D03*
X248465Y356496D02*
D03*
X245837Y358321D02*
D03*
X242719Y359040D02*
D03*
X239567Y358482D02*
D03*
X236849Y356793D02*
D03*
X235008Y354176D02*
D03*
X233556Y280743D02*
D03*
Y283943D02*
D03*
Y287143D02*
D03*
Y290343D02*
D03*
Y293543D02*
D03*
Y296743D02*
D03*
Y299943D02*
D03*
Y303143D02*
D03*
Y306343D02*
D03*
Y309543D02*
D03*
Y312743D02*
D03*
Y315943D02*
D03*
Y319143D02*
D03*
Y322343D02*
D03*
Y325543D02*
D03*
Y328743D02*
D03*
Y331943D02*
D03*
Y335143D02*
D03*
Y338343D02*
D03*
Y341543D02*
D03*
Y344743D02*
D03*
Y347943D02*
D03*
X233558Y351143D02*
D03*
X232789Y354250D02*
D03*
X230923Y356849D02*
D03*
X228188Y358511D02*
D03*
X225032Y359040D02*
D03*
X221921Y358292D02*
D03*
X219309Y356443D02*
D03*
X216367Y280248D02*
D03*
Y283448D02*
D03*
Y286648D02*
D03*
Y289848D02*
D03*
Y293048D02*
D03*
Y296248D02*
D03*
Y299448D02*
D03*
Y302648D02*
D03*
Y305848D02*
D03*
Y309048D02*
D03*
Y312248D02*
D03*
Y315448D02*
D03*
Y318648D02*
D03*
Y321848D02*
D03*
Y325048D02*
D03*
Y328248D02*
D03*
Y331448D02*
D03*
Y334648D02*
D03*
Y337848D02*
D03*
Y341048D02*
D03*
Y344248D02*
D03*
Y347448D02*
D03*
X216375Y350648D02*
D03*
X215789Y353794D02*
D03*
X214082Y356500D02*
D03*
X211452Y358324D02*
D03*
X208333Y359040D02*
D03*
X205183Y358479D02*
D03*
X202466Y356788D02*
D03*
X200626Y354170D02*
D03*
X199177Y280737D02*
D03*
Y283937D02*
D03*
Y287137D02*
D03*
Y290337D02*
D03*
Y293537D02*
D03*
Y296737D02*
D03*
Y299937D02*
D03*
Y303137D02*
D03*
Y306337D02*
D03*
Y309537D02*
D03*
Y312737D02*
D03*
Y315937D02*
D03*
Y319137D02*
D03*
Y322337D02*
D03*
Y325537D02*
D03*
Y328737D02*
D03*
Y331937D02*
D03*
Y335137D02*
D03*
Y338337D02*
D03*
Y341537D02*
D03*
Y344737D02*
D03*
Y347937D02*
D03*
X199179Y351137D02*
D03*
X198413Y354244D02*
D03*
X196548Y356844D02*
D03*
X193815Y358509D02*
D03*
X190659Y359040D02*
D03*
X187547Y358295D02*
D03*
X184935Y356447D02*
D03*
X181988Y280254D02*
D03*
Y283454D02*
D03*
Y286654D02*
D03*
Y289854D02*
D03*
Y293054D02*
D03*
Y296254D02*
D03*
Y299454D02*
D03*
Y302654D02*
D03*
Y305854D02*
D03*
Y309054D02*
D03*
Y312254D02*
D03*
Y315454D02*
D03*
Y318654D02*
D03*
Y321854D02*
D03*
Y325054D02*
D03*
Y328254D02*
D03*
Y331454D02*
D03*
Y334654D02*
D03*
Y337854D02*
D03*
Y341054D02*
D03*
Y344254D02*
D03*
Y347454D02*
D03*
X181997Y350654D02*
D03*
X181407Y353799D02*
D03*
X179698Y356505D02*
D03*
X177067Y358326D02*
D03*
X173948Y359040D02*
D03*
X170798Y358477D02*
D03*
X168082Y356784D02*
D03*
X166245Y354165D02*
D03*
X164798Y280731D02*
D03*
Y283931D02*
D03*
Y287131D02*
D03*
Y290331D02*
D03*
Y293531D02*
D03*
Y296731D02*
D03*
Y299931D02*
D03*
Y303131D02*
D03*
Y306331D02*
D03*
Y309531D02*
D03*
Y312731D02*
D03*
Y315931D02*
D03*
Y319131D02*
D03*
Y322331D02*
D03*
Y325531D02*
D03*
Y328731D02*
D03*
Y331931D02*
D03*
Y335131D02*
D03*
Y338331D02*
D03*
Y341531D02*
D03*
Y344731D02*
D03*
Y347931D02*
D03*
X164799Y351131D02*
D03*
X164036Y354238D02*
D03*
X162173Y356840D02*
D03*
X159441Y358507D02*
D03*
X156286Y359040D02*
D03*
X153173Y358297D02*
D03*
X150559Y356451D02*
D03*
X147608Y280259D02*
D03*
Y283459D02*
D03*
Y286659D02*
D03*
Y289859D02*
D03*
Y293059D02*
D03*
Y296259D02*
D03*
Y299459D02*
D03*
Y302659D02*
D03*
Y305859D02*
D03*
Y309059D02*
D03*
Y312259D02*
D03*
Y315459D02*
D03*
Y318659D02*
D03*
Y321859D02*
D03*
Y325059D02*
D03*
Y328259D02*
D03*
Y331459D02*
D03*
Y334659D02*
D03*
Y337859D02*
D03*
Y341059D02*
D03*
Y344259D02*
D03*
Y347459D02*
D03*
X147618Y350659D02*
D03*
X147026Y353804D02*
D03*
X145315Y356508D02*
D03*
X142683Y358328D02*
D03*
X139564Y359041D02*
D03*
X136414Y358475D02*
D03*
X133700Y356781D02*
D03*
X131864Y354160D02*
D03*
X130419Y280725D02*
D03*
Y283925D02*
D03*
Y287125D02*
D03*
Y290325D02*
D03*
Y293525D02*
D03*
Y296725D02*
D03*
Y299925D02*
D03*
Y303125D02*
D03*
Y306325D02*
D03*
Y309525D02*
D03*
Y312725D02*
D03*
Y315925D02*
D03*
Y319125D02*
D03*
Y322325D02*
D03*
Y325525D02*
D03*
Y328725D02*
D03*
Y331925D02*
D03*
Y335125D02*
D03*
Y338325D02*
D03*
Y341525D02*
D03*
Y344725D02*
D03*
Y347925D02*
D03*
X130420Y351125D02*
D03*
X129659Y354233D02*
D03*
X127798Y356836D02*
D03*
X125067Y358505D02*
D03*
X121912Y359040D02*
D03*
X118799Y358299D02*
D03*
X116184Y356455D02*
D03*
X113229Y280264D02*
D03*
Y283464D02*
D03*
Y286664D02*
D03*
Y289864D02*
D03*
Y293064D02*
D03*
Y296264D02*
D03*
Y299464D02*
D03*
Y302664D02*
D03*
Y305864D02*
D03*
Y309064D02*
D03*
Y312264D02*
D03*
Y315464D02*
D03*
Y318664D02*
D03*
Y321864D02*
D03*
Y325064D02*
D03*
Y328264D02*
D03*
Y331464D02*
D03*
Y334664D02*
D03*
Y337864D02*
D03*
Y341064D02*
D03*
Y344264D02*
D03*
Y347464D02*
D03*
X113240Y350664D02*
D03*
X112645Y353808D02*
D03*
X110933Y356512D02*
D03*
X108300Y358330D02*
D03*
X105180Y359042D02*
D03*
X102031Y358473D02*
D03*
X99317Y356777D02*
D03*
X97483Y354155D02*
D03*
X96754Y351039D02*
D03*
X96755Y347839D02*
D03*
Y344639D02*
D03*
Y341439D02*
D03*
Y338239D02*
D03*
Y335039D02*
D03*
Y331839D02*
D03*
Y328639D02*
D03*
Y325439D02*
D03*
Y322239D02*
D03*
X96356Y319064D02*
D03*
X93157Y319038D02*
D03*
X89957D02*
D03*
X86757D02*
D03*
X83557D02*
D03*
X80357D02*
D03*
X77157D02*
D03*
X73957D02*
D03*
X70757D02*
D03*
X67557D02*
D03*
X64357D02*
D03*
X61157D02*
D03*
X57965Y318810D02*
D03*
X54911Y317855D02*
D03*
X52136Y316260D02*
D03*
X49828Y314043D02*
D03*
X48057Y311378D02*
D03*
X46966Y308370D02*
D03*
X46555Y305196D02*
D03*
X46560Y301996D02*
D03*
Y298797D02*
D03*
X46731Y295601D02*
D03*
X48005Y292666D02*
D03*
X50284Y290419D02*
D03*
X85170Y288367D02*
D03*
X81970D02*
D03*
X78770D02*
D03*
X75570D02*
D03*
X72370D02*
D03*
X69170D02*
D03*
X65970D02*
D03*
X62770D02*
D03*
X59570D02*
D03*
X56370D02*
D03*
X53170D02*
D03*
X49970D02*
D03*
X46770D02*
D03*
X43570D02*
D03*
X40370D02*
D03*
X37170D02*
D03*
X33970D02*
D03*
X30770D02*
D03*
X27570D02*
D03*
X24370D02*
D03*
X21170D02*
D03*
X17970D02*
D03*
X14770Y288391D02*
D03*
X11641Y287721D02*
D03*
X8972Y285956D02*
D03*
X7207Y283287D02*
D03*
X6536Y280158D02*
D03*
X7185Y277025D02*
D03*
X8932Y274344D02*
D03*
X11588Y272560D02*
D03*
X85033Y271177D02*
D03*
X81833D02*
D03*
X78633D02*
D03*
X75433D02*
D03*
X72233D02*
D03*
X69033D02*
D03*
X65833D02*
D03*
X62633D02*
D03*
X59433D02*
D03*
X56233D02*
D03*
X53033D02*
D03*
X49833D02*
D03*
X46633D02*
D03*
X43433D02*
D03*
X40233D02*
D03*
X37033D02*
D03*
X33833D02*
D03*
X30633D02*
D03*
X27433D02*
D03*
X24233D02*
D03*
X21033D02*
D03*
X17833D02*
D03*
X14633Y271184D02*
D03*
X11512Y270478D02*
D03*
X8873Y268667D02*
D03*
X7153Y265969D02*
D03*
X6547Y262827D02*
D03*
X7239Y259703D02*
D03*
X9033Y257053D02*
D03*
X85176Y253988D02*
D03*
X81976D02*
D03*
X78776D02*
D03*
X75576D02*
D03*
X72376D02*
D03*
X69176D02*
D03*
X65976D02*
D03*
X62776D02*
D03*
X59576D02*
D03*
X56376D02*
D03*
X53176D02*
D03*
X49976D02*
D03*
X46776D02*
D03*
X43576D02*
D03*
X40376D02*
D03*
X37176D02*
D03*
X33976D02*
D03*
X30776D02*
D03*
X27576D02*
D03*
X24376D02*
D03*
X21176D02*
D03*
X17976D02*
D03*
X14776Y254013D02*
D03*
X11647Y253344D02*
D03*
X8977Y251581D02*
D03*
X7209Y248914D02*
D03*
X6537Y245785D02*
D03*
X7182Y242651D02*
D03*
X8928Y239969D02*
D03*
X11583Y238183D02*
D03*
X85028Y236798D02*
D03*
X81828D02*
D03*
X78628D02*
D03*
X75428D02*
D03*
X72228D02*
D03*
X69028D02*
D03*
X65828D02*
D03*
X62628D02*
D03*
X59428D02*
D03*
X56228D02*
D03*
X53028D02*
D03*
X49828D02*
D03*
X46628D02*
D03*
X43428D02*
D03*
X40228D02*
D03*
X37028D02*
D03*
X33828D02*
D03*
X30628D02*
D03*
X27428D02*
D03*
X24228D02*
D03*
X21028D02*
D03*
X17828D02*
D03*
X14628Y236804D02*
D03*
X11507Y236097D02*
D03*
X8869Y234284D02*
D03*
X7151Y231585D02*
D03*
X6548Y228442D02*
D03*
X7242Y225318D02*
D03*
X9037Y222670D02*
D03*
X85182Y219608D02*
D03*
X81982D02*
D03*
X78782D02*
D03*
X75582D02*
D03*
X72382D02*
D03*
X69182D02*
D03*
X65982D02*
D03*
X62782D02*
D03*
X59582D02*
D03*
X56382D02*
D03*
X53182D02*
D03*
X49982D02*
D03*
X46782D02*
D03*
X43582D02*
D03*
X40382D02*
D03*
X37182D02*
D03*
X33982D02*
D03*
X30782D02*
D03*
X27582D02*
D03*
X24382D02*
D03*
X21182D02*
D03*
X17982D02*
D03*
X14782Y219635D02*
D03*
X11653Y218968D02*
D03*
X8981Y217206D02*
D03*
X7211Y214540D02*
D03*
X6537Y211412D02*
D03*
X7180Y208277D02*
D03*
X8924Y205594D02*
D03*
X11578Y203806D02*
D03*
X85022Y202419D02*
D03*
X81822D02*
D03*
X78622D02*
D03*
X75422D02*
D03*
X72222D02*
D03*
X69022D02*
D03*
X65822D02*
D03*
X62622D02*
D03*
X59422D02*
D03*
X56222D02*
D03*
X53022D02*
D03*
X49822D02*
D03*
X46622D02*
D03*
X43422D02*
D03*
X40222D02*
D03*
X37022D02*
D03*
X33822D02*
D03*
X30622D02*
D03*
X27422D02*
D03*
X24222D02*
D03*
X21022D02*
D03*
X17822D02*
D03*
X14622Y202424D02*
D03*
X11501Y201715D02*
D03*
X8865Y199901D02*
D03*
X7149Y197200D02*
D03*
X6548Y194057D02*
D03*
X7244Y190934D02*
D03*
X9041Y188286D02*
D03*
X85188Y185229D02*
D03*
X81988D02*
D03*
X78788D02*
D03*
X75588D02*
D03*
X72388D02*
D03*
X69188D02*
D03*
X65988D02*
D03*
X62788D02*
D03*
X59588D02*
D03*
X56388D02*
D03*
X53188D02*
D03*
X49988D02*
D03*
X46788D02*
D03*
X43588D02*
D03*
X40388D02*
D03*
X37188D02*
D03*
X33988D02*
D03*
X30788D02*
D03*
X27588D02*
D03*
X24388D02*
D03*
X21188D02*
D03*
X17988D02*
D03*
X14788Y185257D02*
D03*
X11658Y184591D02*
D03*
X8985Y182831D02*
D03*
X7213Y180167D02*
D03*
X6538Y177039D02*
D03*
X7178Y173904D02*
D03*
X8919Y171219D02*
D03*
X11572Y169429D02*
D03*
X14697Y168740D02*
D03*
X17897Y168755D02*
D03*
X21097D02*
D03*
X24297D02*
D03*
X27497D02*
D03*
X30697D02*
D03*
X33897D02*
D03*
X37097D02*
D03*
X40297D02*
D03*
X43497D02*
D03*
X46560Y167830D02*
D03*
X46625Y164630D02*
D03*
X47248Y161491D02*
D03*
X48590Y158586D02*
D03*
X50536Y156046D02*
D03*
X53033Y154045D02*
D03*
X55904Y152632D02*
D03*
X59030Y151948D02*
D03*
X62229Y151860D02*
D03*
X65429D02*
D03*
X68629D02*
D03*
X71829D02*
D03*
X75029D02*
D03*
X78229D02*
D03*
X81429D02*
D03*
X84629D02*
D03*
X87829D02*
D03*
X91029D02*
D03*
X94229D02*
D03*
X97429D02*
D03*
X100629D02*
D03*
X103829D02*
D03*
X107029D02*
D03*
X110229D02*
D03*
X113429D02*
D03*
X116629D02*
D03*
X119829D02*
D03*
X123029D02*
D03*
X126229D02*
D03*
X129429D02*
D03*
X132629D02*
D03*
X135829D02*
D03*
X139029D02*
D03*
X142229D02*
D03*
X145429D02*
D03*
X148629D02*
D03*
X151588Y150641D02*
D03*
X153850Y148378D02*
D03*
X155260Y145505D02*
D03*
Y142305D02*
D03*
Y139105D02*
D03*
Y135905D02*
D03*
Y132705D02*
D03*
X154974Y129518D02*
D03*
X153312Y126784D02*
D03*
X150759Y124854D02*
D03*
X147559Y124831D02*
D03*
X146256Y116689D02*
D03*
X149452Y116860D02*
D03*
X152637Y117170D02*
D03*
X155595Y118389D02*
D03*
X158079Y120407D02*
D03*
X160258Y122750D02*
D03*
X161893Y125501D02*
D03*
X162873Y128547D02*
D03*
X163140Y131736D02*
D03*
Y134936D02*
D03*
Y138136D02*
D03*
Y141336D02*
D03*
Y144536D02*
D03*
X162997Y147733D02*
D03*
X161948Y150756D02*
D03*
X160044Y153328D02*
D03*
X157781Y155590D02*
D03*
X155393Y157721D02*
D03*
X152523Y159136D02*
D03*
X149379Y159731D02*
D03*
X146179Y159740D02*
D03*
X142979D02*
D03*
X139779D02*
D03*
X136579D02*
D03*
X133379D02*
D03*
X130179D02*
D03*
X126979D02*
D03*
X123779D02*
D03*
X120579D02*
D03*
X117379D02*
D03*
X114179D02*
D03*
X110979D02*
D03*
X107779D02*
D03*
X104579D02*
D03*
X101379D02*
D03*
X98179D02*
D03*
X94979D02*
D03*
X91779D02*
D03*
X88579D02*
D03*
X85379D02*
D03*
X82179D02*
D03*
X78979D02*
D03*
X75779D02*
D03*
X72579D02*
D03*
X69379D02*
D03*
X66179D02*
D03*
X62979D02*
D03*
X59780Y159816D02*
D03*
X56818Y161027D02*
D03*
X54879Y163572D02*
D03*
X54440Y166742D02*
D03*
X54292Y169938D02*
D03*
X53103Y172909D02*
D03*
X50857Y175189D02*
D03*
X16008Y177350D02*
D03*
X19208D02*
D03*
X22408D02*
D03*
X25608D02*
D03*
X28808D02*
D03*
X32008D02*
D03*
X35208D02*
D03*
X38408D02*
D03*
X41608D02*
D03*
X44808D02*
D03*
X48008D02*
D03*
X51208D02*
D03*
X54408D02*
D03*
X57608D02*
D03*
X60808D02*
D03*
X64008D02*
D03*
X67208D02*
D03*
X70408D02*
D03*
X73608D02*
D03*
X76808D02*
D03*
X80008D02*
D03*
X83208D02*
D03*
X86408Y177348D02*
D03*
X89526Y178065D02*
D03*
X92156Y179889D02*
D03*
X93862Y182596D02*
D03*
X94448Y185742D02*
D03*
X93744Y188864D02*
D03*
X91937Y191504D02*
D03*
X15780Y194539D02*
D03*
X18981D02*
D03*
X22181D02*
D03*
X25381D02*
D03*
X28580D02*
D03*
X31780D02*
D03*
X34980D02*
D03*
X38181D02*
D03*
X41381D02*
D03*
X44581D02*
D03*
X47780D02*
D03*
X50981D02*
D03*
X54181D02*
D03*
X57380D02*
D03*
X60580D02*
D03*
X63780D02*
D03*
X66980D02*
D03*
X70180D02*
D03*
X73381D02*
D03*
X76581D02*
D03*
X79781D02*
D03*
X82981D02*
D03*
X86180Y194514D02*
D03*
X89313Y195166D02*
D03*
X91993Y196915D02*
D03*
X93775Y199573D02*
D03*
X94458Y202699D02*
D03*
X93833Y205838D02*
D03*
X92102Y208529D02*
D03*
X89455Y210328D02*
D03*
X16013Y211729D02*
D03*
X19213D02*
D03*
X22413D02*
D03*
X25613D02*
D03*
X28813D02*
D03*
X32013D02*
D03*
X35213D02*
D03*
X38413D02*
D03*
X41613D02*
D03*
X44813D02*
D03*
X48013D02*
D03*
X51213D02*
D03*
X54413D02*
D03*
X57613D02*
D03*
X60813D02*
D03*
X64013D02*
D03*
X67213D02*
D03*
X70413D02*
D03*
X73613D02*
D03*
X76813D02*
D03*
X80013D02*
D03*
X83213D02*
D03*
X86413Y211727D02*
D03*
X89531Y212446D02*
D03*
X92159Y214272D02*
D03*
X93865Y216980D02*
D03*
X94447Y220126D02*
D03*
X93742Y223248D02*
D03*
X91933Y225887D02*
D03*
X15775Y228919D02*
D03*
X18975D02*
D03*
X22175D02*
D03*
X25375D02*
D03*
X28575D02*
D03*
X31775D02*
D03*
X34975D02*
D03*
X38175D02*
D03*
X41375D02*
D03*
X44575D02*
D03*
X47775D02*
D03*
X50975D02*
D03*
X54175D02*
D03*
X57375D02*
D03*
X60575D02*
D03*
X63775D02*
D03*
X66975D02*
D03*
X70175D02*
D03*
X73375D02*
D03*
X76575D02*
D03*
X79775D02*
D03*
X82975D02*
D03*
X86175Y228894D02*
D03*
X89308Y229543D02*
D03*
X91989Y231291D02*
D03*
X93773Y233947D02*
D03*
X94457Y237073D02*
D03*
X93835Y240212D02*
D03*
X92105Y242904D02*
D03*
X89460Y244705D02*
D03*
X16018Y246108D02*
D03*
X19218D02*
D03*
X22418D02*
D03*
X25618D02*
D03*
X28818D02*
D03*
X32018D02*
D03*
X35218D02*
D03*
X38418D02*
D03*
X41618D02*
D03*
X44818D02*
D03*
X48018D02*
D03*
X51218D02*
D03*
X54418D02*
D03*
X57618D02*
D03*
X60818D02*
D03*
X64018D02*
D03*
X67218D02*
D03*
X70418D02*
D03*
X73618D02*
D03*
X76818D02*
D03*
X80018D02*
D03*
X83218D02*
D03*
X86418Y246106D02*
D03*
X89536Y246827D02*
D03*
X92163Y248654D02*
D03*
X93866Y251363D02*
D03*
X94446Y254510D02*
D03*
X93740Y257631D02*
D03*
X91930Y260270D02*
D03*
X15770Y263298D02*
D03*
X18970D02*
D03*
X22170D02*
D03*
X25370D02*
D03*
X28570D02*
D03*
X31770D02*
D03*
X34970D02*
D03*
X38170D02*
D03*
X41370D02*
D03*
X44570D02*
D03*
X47770D02*
D03*
X50970D02*
D03*
X54170D02*
D03*
X57370D02*
D03*
X60570D02*
D03*
X63770D02*
D03*
X66970D02*
D03*
X70170D02*
D03*
X73370D02*
D03*
X76570D02*
D03*
X79770D02*
D03*
X82970D02*
D03*
X86170Y263274D02*
D03*
X89304Y263920D02*
D03*
X91985Y265666D02*
D03*
X93771Y268322D02*
D03*
X94457Y271448D02*
D03*
X93837Y274587D02*
D03*
X92109Y277280D02*
D03*
X89464Y279082D02*
D03*
X16023Y280487D02*
D03*
X19223D02*
D03*
X22423D02*
D03*
X25623D02*
D03*
X28823D02*
D03*
X32023D02*
D03*
X35223D02*
D03*
X38423D02*
D03*
X41623D02*
D03*
X44823D02*
D03*
X48023D02*
D03*
X51223D02*
D03*
X54423D02*
D03*
X57623D02*
D03*
X60823D02*
D03*
X64023D02*
D03*
X67223D02*
D03*
X70423D02*
D03*
X73623D02*
D03*
X76823D02*
D03*
X80023D02*
D03*
X83223D02*
D03*
X86423Y280486D02*
D03*
X89540Y281208D02*
D03*
X92166Y283036D02*
D03*
X93868Y285746D02*
D03*
X94446Y288894D02*
D03*
X93739Y292015D02*
D03*
X91926Y294652D02*
D03*
X89227Y296371D02*
D03*
X86084Y296974D02*
D03*
X82884Y296961D02*
D03*
X79684D02*
D03*
X76484D02*
D03*
X73284D02*
D03*
X70084D02*
D03*
X66884D02*
D03*
X63684D02*
D03*
X60484D02*
D03*
X57284D02*
D03*
X54440Y298427D02*
D03*
Y301627D02*
D03*
Y304827D02*
D03*
X55186Y307939D02*
D03*
X57383Y310265D02*
D03*
X60459Y311149D02*
D03*
X63659Y311159D02*
D03*
X66859D02*
D03*
X70059D02*
D03*
X73259D02*
D03*
X76459D02*
D03*
X79659D02*
D03*
X82859D02*
D03*
X86059D02*
D03*
X89259D02*
D03*
X92459D02*
D03*
X95659D02*
D03*
X98838Y311520D02*
D03*
X101644Y313059D02*
D03*
X105350Y350517D02*
D03*
Y347317D02*
D03*
Y344117D02*
D03*
Y340917D02*
D03*
Y337717D02*
D03*
Y334517D02*
D03*
Y331317D02*
D03*
Y328117D02*
D03*
Y324917D02*
D03*
Y321717D02*
D03*
Y318517D02*
D03*
Y315317D02*
D03*
Y312117D02*
D03*
Y308917D02*
D03*
Y305717D02*
D03*
Y302517D02*
D03*
Y299317D02*
D03*
Y296117D02*
D03*
Y292917D02*
D03*
Y289717D02*
D03*
Y286517D02*
D03*
Y283317D02*
D03*
Y280117D02*
D03*
X105716Y276938D02*
D03*
X107261Y274135D02*
D03*
X109735Y272106D02*
D03*
X112806Y271206D02*
D03*
X115992Y271511D02*
D03*
X118805Y273036D02*
D03*
X120850Y275498D02*
D03*
X122539Y348881D02*
D03*
Y345681D02*
D03*
Y342481D02*
D03*
Y339281D02*
D03*
Y336081D02*
D03*
Y332881D02*
D03*
Y329681D02*
D03*
Y326481D02*
D03*
Y323281D02*
D03*
Y320081D02*
D03*
Y316881D02*
D03*
Y313681D02*
D03*
Y310481D02*
D03*
Y307281D02*
D03*
Y304081D02*
D03*
Y300881D02*
D03*
Y297681D02*
D03*
Y294481D02*
D03*
Y291281D02*
D03*
Y288081D02*
D03*
Y284881D02*
D03*
Y281681D02*
D03*
X122604Y278482D02*
D03*
X123555Y275426D02*
D03*
X125625Y272986D02*
D03*
X128453Y271489D02*
D03*
X131642Y271217D02*
D03*
X134703Y272149D02*
D03*
X137156Y274204D02*
D03*
X139729Y350524D02*
D03*
Y347324D02*
D03*
Y344124D02*
D03*
Y340924D02*
D03*
Y337724D02*
D03*
Y334524D02*
D03*
Y331324D02*
D03*
Y328124D02*
D03*
Y324924D02*
D03*
Y321724D02*
D03*
Y318524D02*
D03*
Y315324D02*
D03*
Y312124D02*
D03*
Y308924D02*
D03*
Y305724D02*
D03*
Y302524D02*
D03*
Y299324D02*
D03*
Y296124D02*
D03*
Y292924D02*
D03*
Y289724D02*
D03*
Y286524D02*
D03*
Y283324D02*
D03*
Y280124D02*
D03*
X140094Y276945D02*
D03*
X141635Y274141D02*
D03*
X144108Y272110D02*
D03*
X147178Y271207D02*
D03*
X150364Y271509D02*
D03*
X153178Y273032D02*
D03*
X155225Y275492D02*
D03*
X156919Y348874D02*
D03*
Y345674D02*
D03*
Y342475D02*
D03*
Y339275D02*
D03*
Y336074D02*
D03*
Y332874D02*
D03*
Y329675D02*
D03*
Y326474D02*
D03*
Y323274D02*
D03*
Y320075D02*
D03*
Y316875D02*
D03*
Y313674D02*
D03*
Y310474D02*
D03*
Y307275D02*
D03*
Y304075D02*
D03*
Y300874D02*
D03*
Y297674D02*
D03*
Y294475D02*
D03*
Y291274D02*
D03*
Y288074D02*
D03*
Y284875D02*
D03*
Y281675D02*
D03*
X156984Y278475D02*
D03*
X157938Y275420D02*
D03*
X160009Y272982D02*
D03*
X162839Y271487D02*
D03*
X166028Y271218D02*
D03*
X169088Y272153D02*
D03*
X171539Y274210D02*
D03*
X174108Y350531D02*
D03*
Y347331D02*
D03*
Y344131D02*
D03*
Y340931D02*
D03*
Y337731D02*
D03*
Y334531D02*
D03*
Y331331D02*
D03*
Y328131D02*
D03*
Y324931D02*
D03*
Y321731D02*
D03*
Y318531D02*
D03*
Y315331D02*
D03*
Y312131D02*
D03*
Y308931D02*
D03*
Y305731D02*
D03*
Y302531D02*
D03*
Y299331D02*
D03*
Y296131D02*
D03*
Y292931D02*
D03*
Y289731D02*
D03*
Y286531D02*
D03*
Y283331D02*
D03*
Y280131D02*
D03*
X174471Y276952D02*
D03*
X176010Y274146D02*
D03*
X178481Y272113D02*
D03*
X181551Y271208D02*
D03*
X184737Y271507D02*
D03*
X187552Y273028D02*
D03*
X189601Y275486D02*
D03*
X191297Y348868D02*
D03*
Y345668D02*
D03*
Y342468D02*
D03*
Y339268D02*
D03*
Y336068D02*
D03*
Y332868D02*
D03*
Y329668D02*
D03*
Y326468D02*
D03*
Y323268D02*
D03*
Y320068D02*
D03*
Y316868D02*
D03*
Y313668D02*
D03*
Y310468D02*
D03*
Y307268D02*
D03*
Y304068D02*
D03*
Y300868D02*
D03*
Y297668D02*
D03*
Y294468D02*
D03*
Y291268D02*
D03*
Y288068D02*
D03*
Y284868D02*
D03*
Y281668D02*
D03*
X191364Y278469D02*
D03*
X192320Y275415D02*
D03*
X194394Y272978D02*
D03*
X197224Y271485D02*
D03*
X200413Y271219D02*
D03*
X203473Y272156D02*
D03*
X205923Y274215D02*
D03*
X208487Y350538D02*
D03*
Y347338D02*
D03*
Y344138D02*
D03*
Y340938D02*
D03*
Y337738D02*
D03*
Y334538D02*
D03*
Y331338D02*
D03*
Y328138D02*
D03*
Y324938D02*
D03*
Y321738D02*
D03*
Y318538D02*
D03*
Y315338D02*
D03*
Y312138D02*
D03*
Y308938D02*
D03*
Y305738D02*
D03*
Y302538D02*
D03*
Y299338D02*
D03*
Y296138D02*
D03*
Y292938D02*
D03*
Y289738D02*
D03*
Y286538D02*
D03*
Y283338D02*
D03*
Y280138D02*
D03*
X208848Y276958D02*
D03*
X210385Y274152D02*
D03*
X212855Y272117D02*
D03*
X215923Y271209D02*
D03*
X219109Y271505D02*
D03*
X221926Y273024D02*
D03*
X223977Y275481D02*
D03*
X225677Y348862D02*
D03*
Y345662D02*
D03*
Y342462D02*
D03*
Y339262D02*
D03*
Y336062D02*
D03*
Y332862D02*
D03*
Y329662D02*
D03*
Y326462D02*
D03*
Y323262D02*
D03*
Y320062D02*
D03*
Y316862D02*
D03*
Y313662D02*
D03*
Y310462D02*
D03*
Y307262D02*
D03*
Y304062D02*
D03*
Y300862D02*
D03*
Y297662D02*
D03*
Y294462D02*
D03*
Y291262D02*
D03*
Y288062D02*
D03*
Y284862D02*
D03*
Y281662D02*
D03*
X225744Y278463D02*
D03*
X226702Y275409D02*
D03*
X228778Y272974D02*
D03*
X231610Y271484D02*
D03*
X234799Y271220D02*
D03*
X237858Y272160D02*
D03*
X240306Y274221D02*
D03*
X242866Y350545D02*
D03*
Y347345D02*
D03*
Y344145D02*
D03*
Y340945D02*
D03*
Y337745D02*
D03*
Y334545D02*
D03*
Y331345D02*
D03*
Y328145D02*
D03*
Y324945D02*
D03*
Y321745D02*
D03*
Y318545D02*
D03*
Y315345D02*
D03*
Y312145D02*
D03*
Y308945D02*
D03*
Y305745D02*
D03*
Y302545D02*
D03*
Y299345D02*
D03*
Y296145D02*
D03*
Y292945D02*
D03*
Y289745D02*
D03*
Y286545D02*
D03*
Y283345D02*
D03*
Y280145D02*
D03*
X243225Y276965D02*
D03*
X244760Y274157D02*
D03*
X247228Y272120D02*
D03*
X250296Y271210D02*
D03*
X253482Y271504D02*
D03*
X256300Y273021D02*
D03*
X258353Y275475D02*
D03*
X260056Y348856D02*
D03*
Y345656D02*
D03*
Y342456D02*
D03*
Y339256D02*
D03*
Y336056D02*
D03*
Y332856D02*
D03*
Y329656D02*
D03*
Y326456D02*
D03*
Y323256D02*
D03*
Y320056D02*
D03*
Y316856D02*
D03*
Y313656D02*
D03*
Y310456D02*
D03*
Y307256D02*
D03*
Y304056D02*
D03*
Y300856D02*
D03*
Y297656D02*
D03*
Y294456D02*
D03*
Y291256D02*
D03*
Y288056D02*
D03*
Y284856D02*
D03*
Y281656D02*
D03*
X260124Y278456D02*
D03*
X261084Y275404D02*
D03*
X263162Y272970D02*
D03*
X265995Y271482D02*
D03*
X269184Y271221D02*
D03*
X272242Y272163D02*
D03*
X274689Y274226D02*
D03*
X277245Y350551D02*
D03*
Y347351D02*
D03*
Y344151D02*
D03*
Y340951D02*
D03*
Y337751D02*
D03*
Y334551D02*
D03*
Y331351D02*
D03*
Y328151D02*
D03*
Y324951D02*
D03*
Y321751D02*
D03*
Y318551D02*
D03*
Y315351D02*
D03*
Y312151D02*
D03*
Y308951D02*
D03*
Y305751D02*
D03*
Y302551D02*
D03*
Y299351D02*
D03*
Y296151D02*
D03*
Y292951D02*
D03*
Y289751D02*
D03*
Y286551D02*
D03*
Y283351D02*
D03*
Y280151D02*
D03*
X277603Y276971D02*
D03*
X279135Y274162D02*
D03*
X281602Y272123D02*
D03*
X284669Y271211D02*
D03*
X287855Y271502D02*
D03*
X290674Y273017D02*
D03*
X292729Y275470D02*
D03*
X294435Y348850D02*
D03*
Y345650D02*
D03*
Y342450D02*
D03*
Y339250D02*
D03*
Y336050D02*
D03*
Y332850D02*
D03*
Y329650D02*
D03*
Y326450D02*
D03*
Y323250D02*
D03*
Y320050D02*
D03*
Y316850D02*
D03*
Y313650D02*
D03*
Y310450D02*
D03*
Y307250D02*
D03*
Y304050D02*
D03*
Y300850D02*
D03*
Y297650D02*
D03*
Y294450D02*
D03*
Y291250D02*
D03*
Y288050D02*
D03*
Y284850D02*
D03*
Y281650D02*
D03*
X294504Y278450D02*
D03*
X295466Y275399D02*
D03*
X297546Y272966D02*
D03*
X300380Y271481D02*
D03*
X303569Y271221D02*
D03*
X306627Y272166D02*
D03*
X309072Y274231D02*
D03*
X311624Y350557D02*
D03*
Y347357D02*
D03*
Y344157D02*
D03*
Y340957D02*
D03*
Y337757D02*
D03*
Y334557D02*
D03*
Y331357D02*
D03*
Y328157D02*
D03*
Y324957D02*
D03*
Y321757D02*
D03*
Y318557D02*
D03*
Y315357D02*
D03*
Y312157D02*
D03*
Y308957D02*
D03*
Y305757D02*
D03*
Y302557D02*
D03*
Y299357D02*
D03*
Y296157D02*
D03*
Y292957D02*
D03*
Y289757D02*
D03*
Y286557D02*
D03*
Y283357D02*
D03*
Y280157D02*
D03*
X311980Y276977D02*
D03*
X313511Y274167D02*
D03*
X315975Y272126D02*
D03*
X319042Y271211D02*
D03*
X322229Y271501D02*
D03*
X325049Y273013D02*
D03*
X327105Y275465D02*
D03*
X328814Y348844D02*
D03*
Y345644D02*
D03*
Y342444D02*
D03*
Y339244D02*
D03*
Y336044D02*
D03*
Y332844D02*
D03*
Y329644D02*
D03*
Y326444D02*
D03*
Y323244D02*
D03*
Y320044D02*
D03*
Y316844D02*
D03*
Y313644D02*
D03*
Y310444D02*
D03*
Y307244D02*
D03*
Y304044D02*
D03*
Y300844D02*
D03*
Y297644D02*
D03*
Y294444D02*
D03*
Y291244D02*
D03*
Y288044D02*
D03*
Y284844D02*
D03*
Y281644D02*
D03*
X329177Y278465D02*
D03*
X330718Y275660D02*
D03*
X333190Y273628D02*
D03*
X336260Y272724D02*
D03*
X339445Y273024D02*
D03*
X342260Y274546D02*
D03*
X344308Y277005D02*
D03*
X345232Y280068D02*
D03*
X345288Y283268D02*
D03*
Y286468D02*
D03*
Y289668D02*
D03*
Y292868D02*
D03*
Y296068D02*
D03*
Y299268D02*
D03*
Y302468D02*
D03*
Y305668D02*
D03*
Y308868D02*
D03*
Y312068D02*
D03*
X346083Y318368D02*
D03*
X347077Y315326D02*
D03*
X349181Y312915D02*
D03*
X352031Y311459D02*
D03*
X355217Y311159D02*
D03*
X358417D02*
D03*
X361617D02*
D03*
X364817D02*
D03*
X368017D02*
D03*
X371217D02*
D03*
X374417D02*
D03*
X377617D02*
D03*
X380817D02*
D03*
X384017D02*
D03*
X411121Y318652D02*
D03*
X407944Y319038D02*
D03*
X404744D02*
D03*
X401544D02*
D03*
X398344D02*
D03*
X395144D02*
D03*
X391944D02*
D03*
X388744D02*
D03*
X385544D02*
D03*
X382344D02*
D03*
X379144D02*
D03*
X375944D02*
D03*
X372744D02*
D03*
X369544D02*
D03*
X366344D02*
D03*
X363144D02*
D03*
X359944D02*
D03*
X356744D02*
D03*
X353816Y320328D02*
D03*
X352858Y323381D02*
D03*
X350783Y325817D02*
D03*
X347951Y327308D02*
D03*
X344762Y327572D02*
D03*
X341703Y326633D02*
D03*
X339255Y324572D02*
D03*
X336693Y283448D02*
D03*
Y286648D02*
D03*
Y289848D02*
D03*
Y293048D02*
D03*
Y296248D02*
D03*
Y299448D02*
D03*
Y302648D02*
D03*
Y305848D02*
D03*
Y309048D02*
D03*
Y312248D02*
D03*
Y315448D02*
D03*
Y318648D02*
D03*
Y321848D02*
D03*
Y325048D02*
D03*
Y328248D02*
D03*
Y331448D02*
D03*
Y334648D02*
D03*
Y337848D02*
D03*
Y341048D02*
D03*
Y344248D02*
D03*
Y347448D02*
D03*
X336702Y350648D02*
D03*
X336115Y353794D02*
D03*
X334408Y356501D02*
D03*
X331778Y358324D02*
D03*
X328659Y359040D02*
D03*
X82800Y70400D02*
D03*
X83139Y64491D02*
D03*
X83982Y61404D02*
D03*
X85486Y58579D02*
D03*
X87638Y56212D02*
D03*
X90262Y54379D02*
D03*
X93255Y53247D02*
D03*
X102825Y52811D02*
D03*
X106025D02*
D03*
X109225D02*
D03*
X107300Y60800D02*
D03*
X104740Y60691D02*
D03*
X95147Y60914D02*
D03*
X92409Y62570D02*
D03*
X90992Y65439D02*
D03*
X90889Y71837D02*
D03*
X90631Y75027D02*
D03*
X383723Y309075D02*
D03*
X381885Y306455D02*
D03*
X380736Y303468D02*
D03*
X380264Y300304D02*
D03*
X380260Y297104D02*
D03*
Y293903D02*
D03*
Y290704D02*
D03*
Y287504D02*
D03*
Y284303D02*
D03*
Y281103D02*
D03*
Y277904D02*
D03*
Y274704D02*
D03*
Y271503D02*
D03*
Y268303D02*
D03*
Y265104D02*
D03*
Y261904D02*
D03*
Y258703D02*
D03*
Y255504D02*
D03*
Y252304D02*
D03*
Y249103D02*
D03*
Y245903D02*
D03*
Y242704D02*
D03*
Y239504D02*
D03*
Y236303D02*
D03*
Y233103D02*
D03*
Y229904D02*
D03*
Y226704D02*
D03*
Y223503D02*
D03*
Y220304D02*
D03*
Y217104D02*
D03*
Y213903D02*
D03*
Y210703D02*
D03*
Y207504D02*
D03*
X380256Y204304D02*
D03*
X380712Y201136D02*
D03*
X381842Y198142D02*
D03*
X383656Y195506D02*
D03*
X386003Y193331D02*
D03*
X388795Y191768D02*
D03*
X391862Y190853D02*
D03*
X395056Y190660D02*
D03*
X398256D02*
D03*
X401456D02*
D03*
X404656D02*
D03*
X407856D02*
D03*
X411056D02*
D03*
X414256D02*
D03*
X417456D02*
D03*
X420656D02*
D03*
X423856D02*
D03*
X427056D02*
D03*
X430256D02*
D03*
X433456D02*
D03*
X436656D02*
D03*
X439856D02*
D03*
X443056D02*
D03*
X446256D02*
D03*
X449456D02*
D03*
X452656D02*
D03*
X455856D02*
D03*
X459056D02*
D03*
X462256D02*
D03*
X465456D02*
D03*
X468656D02*
D03*
X471856D02*
D03*
X475056D02*
D03*
X478256D02*
D03*
X481456D02*
D03*
X484656D02*
D03*
X487856D02*
D03*
X491056D02*
D03*
X494256D02*
D03*
X497456D02*
D03*
X500656D02*
D03*
X503856D02*
D03*
X507056D02*
D03*
X510256D02*
D03*
X513456D02*
D03*
X516656D02*
D03*
X519856D02*
D03*
X522953Y189855D02*
D03*
X525227Y187604D02*
D03*
X526060Y184514D02*
D03*
Y181314D02*
D03*
Y178114D02*
D03*
Y174914D02*
D03*
Y171714D02*
D03*
Y168514D02*
D03*
Y165314D02*
D03*
Y162114D02*
D03*
Y158914D02*
D03*
Y155714D02*
D03*
Y152514D02*
D03*
Y149314D02*
D03*
Y146114D02*
D03*
X525248Y143019D02*
D03*
X522048D02*
D03*
X518848D02*
D03*
X515661Y142726D02*
D03*
X512807Y141279D02*
D03*
X510695Y138874D02*
D03*
X509692Y135836D02*
D03*
X509890Y132642D02*
D03*
X511321Y129780D02*
D03*
X564664Y125829D02*
D03*
X561464D02*
D03*
X558264D02*
D03*
X555064D02*
D03*
X551864D02*
D03*
X548664D02*
D03*
X545464D02*
D03*
X542264D02*
D03*
X539064D02*
D03*
X535864D02*
D03*
X532664D02*
D03*
X529464D02*
D03*
X526264D02*
D03*
X523064D02*
D03*
X519864D02*
D03*
X516664D02*
D03*
X513464D02*
D03*
X510264D02*
D03*
X507064D02*
D03*
X503864D02*
D03*
X500664D02*
D03*
X497464D02*
D03*
X494264Y125853D02*
D03*
X491135Y125181D02*
D03*
X488468Y123414D02*
D03*
X486704Y120744D02*
D03*
X486035Y117615D02*
D03*
X486687Y114482D02*
D03*
X488436Y111802D02*
D03*
X491094Y110020D02*
D03*
X494220Y109337D02*
D03*
X497420Y109355D02*
D03*
X500620D02*
D03*
X503820D02*
D03*
X507020D02*
D03*
X510220D02*
D03*
X513420D02*
D03*
X516620D02*
D03*
X519820D02*
D03*
X523020D02*
D03*
X526060Y108356D02*
D03*
Y105156D02*
D03*
Y101956D02*
D03*
Y98756D02*
D03*
Y95556D02*
D03*
Y92356D02*
D03*
Y89156D02*
D03*
Y85956D02*
D03*
Y82756D02*
D03*
Y79556D02*
D03*
Y76356D02*
D03*
Y73156D02*
D03*
Y69956D02*
D03*
Y66756D02*
D03*
X525625Y63586D02*
D03*
X523693Y61035D02*
D03*
X520733Y59817D02*
D03*
X517534Y59740D02*
D03*
X514334D02*
D03*
X511134D02*
D03*
X507934D02*
D03*
X504735Y59669D02*
D03*
X501685Y58701D02*
D03*
X499256Y56618D02*
D03*
X496741Y21879D02*
D03*
Y25079D02*
D03*
Y28279D02*
D03*
Y31479D02*
D03*
Y34679D02*
D03*
Y37879D02*
D03*
Y41079D02*
D03*
Y44279D02*
D03*
Y47479D02*
D03*
Y50679D02*
D03*
Y53879D02*
D03*
Y57079D02*
D03*
Y60279D02*
D03*
Y63479D02*
D03*
Y66679D02*
D03*
Y69879D02*
D03*
Y73079D02*
D03*
Y76279D02*
D03*
Y79479D02*
D03*
Y82679D02*
D03*
Y85879D02*
D03*
Y89079D02*
D03*
X496694Y92278D02*
D03*
X495796Y95350D02*
D03*
X493769Y97826D02*
D03*
X490967Y99372D02*
D03*
X487784Y99700D02*
D03*
X484707Y98824D02*
D03*
X482216Y96814D02*
D03*
X479552Y20527D02*
D03*
Y23728D02*
D03*
Y26928D02*
D03*
Y30128D02*
D03*
Y33327D02*
D03*
Y36527D02*
D03*
Y39728D02*
D03*
Y42928D02*
D03*
Y46128D02*
D03*
Y49327D02*
D03*
Y52527D02*
D03*
Y55727D02*
D03*
Y58928D02*
D03*
Y62128D02*
D03*
Y65328D02*
D03*
Y68528D02*
D03*
Y71728D02*
D03*
Y74928D02*
D03*
Y78127D02*
D03*
Y81327D02*
D03*
Y84527D02*
D03*
Y87727D02*
D03*
Y90927D02*
D03*
X479137Y94101D02*
D03*
X477551Y96880D02*
D03*
X475037Y98860D02*
D03*
X471952Y99711D02*
D03*
X468773Y99349D02*
D03*
X465986Y97777D02*
D03*
X463983Y95281D02*
D03*
X462362Y21883D02*
D03*
Y25083D02*
D03*
Y28283D02*
D03*
Y31483D02*
D03*
Y34683D02*
D03*
Y37883D02*
D03*
Y41083D02*
D03*
Y44283D02*
D03*
Y47483D02*
D03*
Y50683D02*
D03*
Y53883D02*
D03*
Y57083D02*
D03*
Y60283D02*
D03*
Y63483D02*
D03*
Y66683D02*
D03*
Y69883D02*
D03*
Y73083D02*
D03*
Y76283D02*
D03*
Y79483D02*
D03*
Y82683D02*
D03*
Y85883D02*
D03*
Y89083D02*
D03*
X462315Y92282D02*
D03*
X461415Y95353D02*
D03*
X459386Y97828D02*
D03*
X456584Y99373D02*
D03*
X453401Y99700D02*
D03*
X450324Y98821D02*
D03*
X447835Y96810D02*
D03*
X445172Y20523D02*
D03*
Y23723D02*
D03*
Y26923D02*
D03*
Y30123D02*
D03*
Y33323D02*
D03*
Y36523D02*
D03*
Y39723D02*
D03*
Y42923D02*
D03*
Y46123D02*
D03*
Y49323D02*
D03*
Y52523D02*
D03*
Y55723D02*
D03*
Y58923D02*
D03*
Y62123D02*
D03*
Y65323D02*
D03*
Y68523D02*
D03*
Y71723D02*
D03*
Y74923D02*
D03*
Y78123D02*
D03*
Y81323D02*
D03*
Y84523D02*
D03*
Y87723D02*
D03*
Y90923D02*
D03*
X444760Y94096D02*
D03*
X443175Y96876D02*
D03*
X440662Y98858D02*
D03*
X437578Y99711D02*
D03*
X434398Y99351D02*
D03*
X431610Y97780D02*
D03*
X429606Y95285D02*
D03*
X427983Y21887D02*
D03*
Y25087D02*
D03*
Y28287D02*
D03*
Y31487D02*
D03*
Y34687D02*
D03*
Y37887D02*
D03*
Y41087D02*
D03*
Y44287D02*
D03*
Y47487D02*
D03*
Y50687D02*
D03*
Y53887D02*
D03*
Y57087D02*
D03*
Y60287D02*
D03*
Y63487D02*
D03*
Y66687D02*
D03*
Y69887D02*
D03*
Y73087D02*
D03*
Y76287D02*
D03*
Y79487D02*
D03*
Y82687D02*
D03*
Y85887D02*
D03*
Y89087D02*
D03*
X427935Y92287D02*
D03*
X427034Y95357D02*
D03*
X425004Y97831D02*
D03*
X422200Y99374D02*
D03*
X419017Y99699D02*
D03*
X415940Y98819D02*
D03*
X413452Y96806D02*
D03*
X410793Y20518D02*
D03*
Y23718D02*
D03*
Y26918D02*
D03*
Y30118D02*
D03*
Y33318D02*
D03*
Y36518D02*
D03*
Y39718D02*
D03*
Y42918D02*
D03*
Y46118D02*
D03*
Y49318D02*
D03*
Y52518D02*
D03*
Y55718D02*
D03*
Y58918D02*
D03*
Y62118D02*
D03*
Y65318D02*
D03*
Y68518D02*
D03*
Y71718D02*
D03*
Y74918D02*
D03*
Y78118D02*
D03*
Y81318D02*
D03*
Y84518D02*
D03*
Y87718D02*
D03*
Y90918D02*
D03*
X410383Y94091D02*
D03*
X408799Y96872D02*
D03*
X406288Y98856D02*
D03*
X403204Y99710D02*
D03*
X400024Y99353D02*
D03*
X397236Y97783D02*
D03*
X395230Y95290D02*
D03*
X393604Y21892D02*
D03*
Y25092D02*
D03*
Y28292D02*
D03*
Y31492D02*
D03*
Y34692D02*
D03*
Y37892D02*
D03*
Y41092D02*
D03*
Y44292D02*
D03*
Y47492D02*
D03*
Y50692D02*
D03*
Y53892D02*
D03*
Y57092D02*
D03*
Y60292D02*
D03*
Y63492D02*
D03*
Y66692D02*
D03*
Y69892D02*
D03*
Y73092D02*
D03*
Y76292D02*
D03*
Y79492D02*
D03*
Y82692D02*
D03*
Y85892D02*
D03*
Y89092D02*
D03*
X393555Y92292D02*
D03*
X392652Y95362D02*
D03*
X390620Y97834D02*
D03*
X387816Y99376D02*
D03*
X384632Y99698D02*
D03*
X381556Y98816D02*
D03*
X379070Y96802D02*
D03*
X376414Y20512D02*
D03*
Y23712D02*
D03*
Y26912D02*
D03*
Y30112D02*
D03*
Y33312D02*
D03*
Y36512D02*
D03*
Y39712D02*
D03*
Y42912D02*
D03*
Y46112D02*
D03*
Y49312D02*
D03*
Y52512D02*
D03*
Y55712D02*
D03*
Y58912D02*
D03*
Y62112D02*
D03*
Y65312D02*
D03*
Y68512D02*
D03*
Y71712D02*
D03*
Y74912D02*
D03*
Y78112D02*
D03*
Y81312D02*
D03*
Y84512D02*
D03*
Y87712D02*
D03*
Y90912D02*
D03*
X376006Y94086D02*
D03*
X374424Y96867D02*
D03*
X371915Y98853D02*
D03*
X368831Y99709D02*
D03*
X365651Y99355D02*
D03*
X362861Y97787D02*
D03*
X360854Y95295D02*
D03*
X359225Y21898D02*
D03*
Y25098D02*
D03*
Y28298D02*
D03*
Y31498D02*
D03*
Y34698D02*
D03*
Y37898D02*
D03*
Y41098D02*
D03*
Y44298D02*
D03*
Y47498D02*
D03*
Y50698D02*
D03*
Y53898D02*
D03*
Y57098D02*
D03*
Y60298D02*
D03*
Y63498D02*
D03*
Y66698D02*
D03*
Y69898D02*
D03*
Y73098D02*
D03*
Y76298D02*
D03*
Y79498D02*
D03*
Y82698D02*
D03*
Y85898D02*
D03*
Y89098D02*
D03*
X359175Y92298D02*
D03*
X358270Y95367D02*
D03*
X356236Y97838D02*
D03*
X353431Y99377D02*
D03*
X350247Y99698D02*
D03*
X347172Y98813D02*
D03*
X344687Y96797D02*
D03*
X342035Y20505D02*
D03*
Y23705D02*
D03*
Y26905D02*
D03*
Y30105D02*
D03*
Y33305D02*
D03*
Y36505D02*
D03*
Y39705D02*
D03*
Y42905D02*
D03*
Y46105D02*
D03*
Y49305D02*
D03*
Y52505D02*
D03*
Y55705D02*
D03*
Y58905D02*
D03*
Y62105D02*
D03*
Y65305D02*
D03*
Y68505D02*
D03*
Y71705D02*
D03*
Y74905D02*
D03*
Y78105D02*
D03*
Y81305D02*
D03*
Y84505D02*
D03*
Y87705D02*
D03*
Y90905D02*
D03*
X341630Y94079D02*
D03*
X340049Y96862D02*
D03*
X337542Y98851D02*
D03*
X334459Y99708D02*
D03*
X331278Y99357D02*
D03*
X328488Y97791D02*
D03*
X326478Y95301D02*
D03*
X324846Y21905D02*
D03*
Y25105D02*
D03*
Y28305D02*
D03*
Y31505D02*
D03*
Y34705D02*
D03*
Y37905D02*
D03*
Y41105D02*
D03*
Y44305D02*
D03*
Y47505D02*
D03*
Y50705D02*
D03*
Y53905D02*
D03*
Y57105D02*
D03*
Y60305D02*
D03*
Y63505D02*
D03*
Y66705D02*
D03*
Y69905D02*
D03*
Y73105D02*
D03*
Y76305D02*
D03*
Y79505D02*
D03*
Y82705D02*
D03*
Y85905D02*
D03*
Y89105D02*
D03*
X324795Y92304D02*
D03*
X323887Y95373D02*
D03*
X321852Y97842D02*
D03*
X319045Y99379D02*
D03*
X315861Y99697D02*
D03*
X312787Y98809D02*
D03*
X310303Y96791D02*
D03*
X307656Y20498D02*
D03*
Y23698D02*
D03*
Y26898D02*
D03*
Y30098D02*
D03*
Y33298D02*
D03*
Y36498D02*
D03*
Y39698D02*
D03*
Y42898D02*
D03*
Y46098D02*
D03*
Y49298D02*
D03*
Y52498D02*
D03*
Y55698D02*
D03*
Y58898D02*
D03*
Y62098D02*
D03*
Y65298D02*
D03*
Y68498D02*
D03*
Y71698D02*
D03*
Y74898D02*
D03*
Y78098D02*
D03*
Y81298D02*
D03*
Y84498D02*
D03*
Y87698D02*
D03*
Y90898D02*
D03*
X307253Y94073D02*
D03*
X305674Y96856D02*
D03*
X303170Y98848D02*
D03*
X300087Y99707D02*
D03*
X296906Y99359D02*
D03*
X294114Y97795D02*
D03*
X292102Y95307D02*
D03*
X290467Y21912D02*
D03*
Y25112D02*
D03*
Y28312D02*
D03*
Y31512D02*
D03*
Y34712D02*
D03*
Y37912D02*
D03*
Y41112D02*
D03*
Y44312D02*
D03*
Y47512D02*
D03*
Y50712D02*
D03*
Y53912D02*
D03*
Y57112D02*
D03*
Y60312D02*
D03*
Y63512D02*
D03*
Y66712D02*
D03*
Y69912D02*
D03*
Y73112D02*
D03*
Y76312D02*
D03*
Y79512D02*
D03*
Y82712D02*
D03*
Y85912D02*
D03*
Y89112D02*
D03*
X290416Y92311D02*
D03*
X289505Y95379D02*
D03*
X287467Y97846D02*
D03*
X284659Y99381D02*
D03*
X281475Y99696D02*
D03*
X278401Y98806D02*
D03*
X275920Y96785D02*
D03*
X273277Y20490D02*
D03*
Y23690D02*
D03*
Y26890D02*
D03*
Y30090D02*
D03*
Y33290D02*
D03*
Y36490D02*
D03*
Y39690D02*
D03*
Y42890D02*
D03*
Y46090D02*
D03*
Y49290D02*
D03*
Y52490D02*
D03*
Y55690D02*
D03*
Y58890D02*
D03*
Y62090D02*
D03*
Y65290D02*
D03*
Y68490D02*
D03*
Y71690D02*
D03*
Y74890D02*
D03*
Y78090D02*
D03*
Y81290D02*
D03*
Y84490D02*
D03*
Y87690D02*
D03*
Y90890D02*
D03*
X272877Y94065D02*
D03*
X271300Y96850D02*
D03*
X268798Y98845D02*
D03*
X265716Y99706D02*
D03*
X262535Y99361D02*
D03*
X259741Y97800D02*
D03*
X257727Y95314D02*
D03*
X256087Y21919D02*
D03*
Y25119D02*
D03*
Y28319D02*
D03*
Y31519D02*
D03*
Y34719D02*
D03*
Y37919D02*
D03*
Y41119D02*
D03*
Y44319D02*
D03*
Y47519D02*
D03*
Y50719D02*
D03*
Y53919D02*
D03*
Y57119D02*
D03*
Y60319D02*
D03*
Y63519D02*
D03*
Y66719D02*
D03*
Y69919D02*
D03*
Y73119D02*
D03*
Y76319D02*
D03*
Y79519D02*
D03*
Y82719D02*
D03*
Y85919D02*
D03*
Y89119D02*
D03*
X256035Y92319D02*
D03*
X255122Y95385D02*
D03*
X253082Y97851D02*
D03*
X250273Y99383D02*
D03*
X247088Y99695D02*
D03*
X244015Y98801D02*
D03*
X241536Y96779D02*
D03*
X238898Y20482D02*
D03*
Y23682D02*
D03*
Y26882D02*
D03*
Y30082D02*
D03*
Y33282D02*
D03*
Y36482D02*
D03*
Y39682D02*
D03*
Y42882D02*
D03*
Y46082D02*
D03*
Y49282D02*
D03*
Y52482D02*
D03*
Y55682D02*
D03*
Y58882D02*
D03*
Y62082D02*
D03*
Y65282D02*
D03*
Y68482D02*
D03*
Y71682D02*
D03*
Y74882D02*
D03*
Y78082D02*
D03*
Y81282D02*
D03*
Y84482D02*
D03*
Y87682D02*
D03*
Y90882D02*
D03*
X238502Y94057D02*
D03*
X236926Y96843D02*
D03*
X234427Y98841D02*
D03*
X231346Y99705D02*
D03*
X228164Y99363D02*
D03*
X225369Y97805D02*
D03*
X223352Y95321D02*
D03*
X221708Y21927D02*
D03*
Y25127D02*
D03*
Y28327D02*
D03*
Y31527D02*
D03*
Y34727D02*
D03*
Y37927D02*
D03*
Y41127D02*
D03*
Y44327D02*
D03*
Y47527D02*
D03*
Y50727D02*
D03*
Y53927D02*
D03*
Y57127D02*
D03*
Y60327D02*
D03*
Y63527D02*
D03*
Y66727D02*
D03*
Y69927D02*
D03*
Y73127D02*
D03*
Y76327D02*
D03*
Y79527D02*
D03*
Y82727D02*
D03*
Y85927D02*
D03*
Y89127D02*
D03*
X221655Y92327D02*
D03*
X220739Y95393D02*
D03*
X218696Y97856D02*
D03*
X215885Y99385D02*
D03*
X212700Y99694D02*
D03*
X209629Y98797D02*
D03*
X207151Y96772D02*
D03*
X204519Y20473D02*
D03*
Y23673D02*
D03*
Y26873D02*
D03*
Y30073D02*
D03*
Y33273D02*
D03*
Y36473D02*
D03*
Y39673D02*
D03*
Y42873D02*
D03*
Y46073D02*
D03*
Y49273D02*
D03*
Y52473D02*
D03*
Y55673D02*
D03*
Y58873D02*
D03*
Y62073D02*
D03*
Y65273D02*
D03*
Y68473D02*
D03*
Y71673D02*
D03*
Y74873D02*
D03*
Y78073D02*
D03*
Y81273D02*
D03*
Y84473D02*
D03*
Y87673D02*
D03*
Y90873D02*
D03*
X204126Y94049D02*
D03*
X202553Y96836D02*
D03*
X200056Y98837D02*
D03*
X196976Y99704D02*
D03*
X193793Y99365D02*
D03*
X190997Y97810D02*
D03*
X188977Y95328D02*
D03*
X187329Y21935D02*
D03*
Y25135D02*
D03*
Y28335D02*
D03*
Y31535D02*
D03*
Y34735D02*
D03*
Y37935D02*
D03*
Y41135D02*
D03*
Y44335D02*
D03*
Y47535D02*
D03*
Y50735D02*
D03*
Y53935D02*
D03*
Y57135D02*
D03*
Y60335D02*
D03*
Y63535D02*
D03*
Y66735D02*
D03*
Y69935D02*
D03*
Y73135D02*
D03*
Y76335D02*
D03*
Y79535D02*
D03*
Y82735D02*
D03*
Y85935D02*
D03*
Y89135D02*
D03*
X187275Y92335D02*
D03*
X186355Y95400D02*
D03*
X184311Y97861D02*
D03*
X181498Y99387D02*
D03*
X178313Y99692D02*
D03*
X175242Y98793D02*
D03*
X172767Y96764D02*
D03*
X171222Y93962D02*
D03*
X170855Y90783D02*
D03*
Y87583D02*
D03*
Y84383D02*
D03*
Y81183D02*
D03*
Y77983D02*
D03*
Y74783D02*
D03*
Y71583D02*
D03*
Y68383D02*
D03*
Y65183D02*
D03*
Y61983D02*
D03*
X168573Y59740D02*
D03*
X165373D02*
D03*
X162173D02*
D03*
X158973D02*
D03*
X155773D02*
D03*
X152573D02*
D03*
X149373D02*
D03*
X146011Y51689D02*
D03*
X149207Y51860D02*
D03*
X152407D02*
D03*
X155607D02*
D03*
X158807D02*
D03*
X162007D02*
D03*
X165207D02*
D03*
X168407D02*
D03*
X171606Y51951D02*
D03*
X174637Y52974D02*
D03*
X177027Y55102D02*
D03*
X179450Y89873D02*
D03*
Y86673D02*
D03*
Y83473D02*
D03*
Y80273D02*
D03*
Y77073D02*
D03*
Y73873D02*
D03*
Y70673D02*
D03*
Y67473D02*
D03*
Y64273D02*
D03*
Y61073D02*
D03*
Y57873D02*
D03*
Y54673D02*
D03*
Y51473D02*
D03*
Y48273D02*
D03*
Y45073D02*
D03*
Y41873D02*
D03*
Y38673D02*
D03*
Y35473D02*
D03*
Y32273D02*
D03*
Y29073D02*
D03*
Y25873D02*
D03*
Y22673D02*
D03*
X179477Y19473D02*
D03*
X180325Y16387D02*
D03*
X182299Y13869D02*
D03*
X185076Y12280D02*
D03*
X188251Y11879D02*
D03*
X191341Y12712D02*
D03*
X193879Y14661D02*
D03*
X196639Y90919D02*
D03*
Y87719D02*
D03*
Y84519D02*
D03*
Y81319D02*
D03*
Y78119D02*
D03*
Y74919D02*
D03*
Y71719D02*
D03*
Y68519D02*
D03*
Y65319D02*
D03*
Y62119D02*
D03*
Y58919D02*
D03*
Y55719D02*
D03*
Y52519D02*
D03*
Y49319D02*
D03*
Y46119D02*
D03*
Y42919D02*
D03*
Y39719D02*
D03*
Y36519D02*
D03*
Y33319D02*
D03*
Y30119D02*
D03*
Y26919D02*
D03*
Y23719D02*
D03*
Y20519D02*
D03*
X197114Y17355D02*
D03*
X198735Y14596D02*
D03*
X201298Y12680D02*
D03*
X204394Y11868D02*
D03*
X207563Y12311D02*
D03*
X210330Y13919D02*
D03*
X212270Y16464D02*
D03*
X213829Y89874D02*
D03*
Y86674D02*
D03*
Y83474D02*
D03*
Y80274D02*
D03*
Y77074D02*
D03*
Y73874D02*
D03*
Y70674D02*
D03*
Y67474D02*
D03*
Y64274D02*
D03*
Y61074D02*
D03*
Y57874D02*
D03*
Y54674D02*
D03*
Y51474D02*
D03*
Y48274D02*
D03*
Y45074D02*
D03*
Y41874D02*
D03*
Y38674D02*
D03*
Y35474D02*
D03*
Y32274D02*
D03*
Y29074D02*
D03*
Y25874D02*
D03*
Y22674D02*
D03*
X213856Y19474D02*
D03*
X214704Y16388D02*
D03*
X216677Y13869D02*
D03*
X219455Y12280D02*
D03*
X222629Y11879D02*
D03*
X225719Y12712D02*
D03*
X228257Y14661D02*
D03*
X231018Y90918D02*
D03*
Y87718D02*
D03*
Y84518D02*
D03*
Y81318D02*
D03*
Y78118D02*
D03*
Y74919D02*
D03*
Y71719D02*
D03*
Y68519D02*
D03*
Y65319D02*
D03*
Y62119D02*
D03*
Y58918D02*
D03*
Y55718D02*
D03*
Y52518D02*
D03*
Y49319D02*
D03*
Y46119D02*
D03*
Y42919D02*
D03*
Y39718D02*
D03*
Y36518D02*
D03*
Y33318D02*
D03*
Y30119D02*
D03*
Y26919D02*
D03*
Y23719D02*
D03*
Y20518D02*
D03*
X231493Y17354D02*
D03*
X233115Y14595D02*
D03*
X235678Y12680D02*
D03*
X238774Y11868D02*
D03*
X241943Y12312D02*
D03*
X244710Y13919D02*
D03*
X246650Y16464D02*
D03*
X248208Y89875D02*
D03*
Y86674D02*
D03*
Y83474D02*
D03*
Y80274D02*
D03*
Y77074D02*
D03*
Y73874D02*
D03*
Y70675D02*
D03*
Y67475D02*
D03*
Y64275D02*
D03*
Y61075D02*
D03*
Y57875D02*
D03*
Y54675D02*
D03*
Y51474D02*
D03*
Y48274D02*
D03*
Y45074D02*
D03*
Y41875D02*
D03*
Y38675D02*
D03*
Y35475D02*
D03*
Y32274D02*
D03*
Y29074D02*
D03*
Y25875D02*
D03*
Y22674D02*
D03*
X248235Y19475D02*
D03*
X249082Y16389D02*
D03*
X251056Y13870D02*
D03*
X253833Y12280D02*
D03*
X257008Y11879D02*
D03*
X260098Y12711D02*
D03*
X262636Y14660D02*
D03*
X265398Y90918D02*
D03*
Y87718D02*
D03*
Y84518D02*
D03*
Y81318D02*
D03*
Y78118D02*
D03*
Y74918D02*
D03*
Y71718D02*
D03*
Y68518D02*
D03*
Y65318D02*
D03*
Y62118D02*
D03*
Y58918D02*
D03*
Y55718D02*
D03*
Y52518D02*
D03*
Y49318D02*
D03*
Y46118D02*
D03*
Y42918D02*
D03*
Y39718D02*
D03*
Y36518D02*
D03*
Y33318D02*
D03*
Y30118D02*
D03*
Y26918D02*
D03*
Y23718D02*
D03*
Y20518D02*
D03*
X265873Y17353D02*
D03*
X267494Y14594D02*
D03*
X270058Y12680D02*
D03*
X273153Y11868D02*
D03*
X276323Y12312D02*
D03*
X279089Y13920D02*
D03*
X281029Y16465D02*
D03*
X282587Y89875D02*
D03*
Y86675D02*
D03*
Y83475D02*
D03*
Y80275D02*
D03*
Y77075D02*
D03*
Y73875D02*
D03*
Y70675D02*
D03*
Y67475D02*
D03*
Y64275D02*
D03*
Y61075D02*
D03*
Y57875D02*
D03*
Y54675D02*
D03*
Y51475D02*
D03*
Y48275D02*
D03*
Y45075D02*
D03*
Y41875D02*
D03*
Y38675D02*
D03*
Y35475D02*
D03*
Y32275D02*
D03*
Y29075D02*
D03*
Y25875D02*
D03*
Y22675D02*
D03*
X282614Y19475D02*
D03*
X283461Y16390D02*
D03*
X285434Y13870D02*
D03*
X288211Y12281D02*
D03*
X291386Y11879D02*
D03*
X294476Y12711D02*
D03*
X297014Y14659D02*
D03*
X299777Y90917D02*
D03*
Y87717D02*
D03*
Y84517D02*
D03*
Y81317D02*
D03*
Y78117D02*
D03*
Y74917D02*
D03*
Y71717D02*
D03*
Y68517D02*
D03*
Y65317D02*
D03*
Y62117D02*
D03*
Y58917D02*
D03*
Y55717D02*
D03*
Y52517D02*
D03*
Y49317D02*
D03*
Y46117D02*
D03*
Y42917D02*
D03*
Y39717D02*
D03*
Y36517D02*
D03*
Y33317D02*
D03*
Y30117D02*
D03*
Y26917D02*
D03*
Y23717D02*
D03*
Y20517D02*
D03*
X300252Y17352D02*
D03*
X301874Y14594D02*
D03*
X304438Y12680D02*
D03*
X307533Y11868D02*
D03*
X310702Y12312D02*
D03*
X313469Y13920D02*
D03*
X315408Y16466D02*
D03*
X316966Y89876D02*
D03*
Y86676D02*
D03*
Y83476D02*
D03*
Y80276D02*
D03*
Y77076D02*
D03*
Y73876D02*
D03*
Y70676D02*
D03*
Y67476D02*
D03*
Y64276D02*
D03*
Y61076D02*
D03*
Y57876D02*
D03*
Y54676D02*
D03*
Y51476D02*
D03*
Y48276D02*
D03*
Y45076D02*
D03*
Y41876D02*
D03*
Y38676D02*
D03*
Y35476D02*
D03*
Y32276D02*
D03*
Y29076D02*
D03*
Y25876D02*
D03*
Y22676D02*
D03*
X316993Y19476D02*
D03*
X317840Y16390D02*
D03*
X319813Y13871D02*
D03*
X322590Y12281D02*
D03*
X325764Y11879D02*
D03*
X328854Y12711D02*
D03*
X331393Y14659D02*
D03*
X334156Y90916D02*
D03*
Y87716D02*
D03*
Y84516D02*
D03*
Y81316D02*
D03*
Y78116D02*
D03*
Y74916D02*
D03*
Y71716D02*
D03*
Y68516D02*
D03*
Y65316D02*
D03*
Y62116D02*
D03*
Y58916D02*
D03*
Y55716D02*
D03*
Y52516D02*
D03*
Y49316D02*
D03*
Y46116D02*
D03*
Y42916D02*
D03*
Y39716D02*
D03*
Y36516D02*
D03*
Y33316D02*
D03*
Y30116D02*
D03*
Y26916D02*
D03*
Y23716D02*
D03*
Y20516D02*
D03*
X334631Y17352D02*
D03*
X336253Y14593D02*
D03*
X338818Y12679D02*
D03*
X341913Y11868D02*
D03*
X345082Y12313D02*
D03*
X347849Y13921D02*
D03*
X349788Y16466D02*
D03*
X351345Y89877D02*
D03*
Y86677D02*
D03*
Y83477D02*
D03*
Y80277D02*
D03*
Y77077D02*
D03*
Y73877D02*
D03*
Y70677D02*
D03*
Y67477D02*
D03*
Y64277D02*
D03*
Y61077D02*
D03*
Y57877D02*
D03*
Y54677D02*
D03*
Y51477D02*
D03*
Y48277D02*
D03*
Y45077D02*
D03*
Y41877D02*
D03*
Y38677D02*
D03*
Y35477D02*
D03*
Y32277D02*
D03*
Y29077D02*
D03*
Y25877D02*
D03*
Y22677D02*
D03*
X351372Y19477D02*
D03*
X352219Y16391D02*
D03*
X354191Y13871D02*
D03*
X356968Y12281D02*
D03*
X360143Y11879D02*
D03*
X363233Y12710D02*
D03*
X365772Y14658D02*
D03*
X368535Y90915D02*
D03*
Y87715D02*
D03*
Y84515D02*
D03*
Y81315D02*
D03*
Y78115D02*
D03*
Y74915D02*
D03*
Y71715D02*
D03*
Y68515D02*
D03*
Y65315D02*
D03*
Y62115D02*
D03*
Y58915D02*
D03*
Y55715D02*
D03*
Y52515D02*
D03*
Y49315D02*
D03*
Y46115D02*
D03*
Y42915D02*
D03*
Y39715D02*
D03*
Y36515D02*
D03*
Y33315D02*
D03*
Y30115D02*
D03*
Y26915D02*
D03*
Y23716D02*
D03*
Y20516D02*
D03*
X369011Y17351D02*
D03*
X370633Y14593D02*
D03*
X373198Y12679D02*
D03*
X376293Y11868D02*
D03*
X379462Y12313D02*
D03*
X382228Y13921D02*
D03*
X384167Y16467D02*
D03*
X385724Y89878D02*
D03*
Y86678D02*
D03*
Y83478D02*
D03*
Y80278D02*
D03*
Y77078D02*
D03*
Y73878D02*
D03*
Y70678D02*
D03*
Y67478D02*
D03*
Y64278D02*
D03*
Y61078D02*
D03*
Y57878D02*
D03*
Y54678D02*
D03*
Y51478D02*
D03*
Y48278D02*
D03*
Y45078D02*
D03*
Y41878D02*
D03*
Y38678D02*
D03*
Y35478D02*
D03*
Y32278D02*
D03*
Y29078D02*
D03*
Y25878D02*
D03*
Y22678D02*
D03*
X385751Y19478D02*
D03*
X386597Y16392D02*
D03*
X388570Y13872D02*
D03*
X391347Y12282D02*
D03*
X394521Y11879D02*
D03*
X397611Y12710D02*
D03*
X400150Y14658D02*
D03*
X402914Y90915D02*
D03*
Y87715D02*
D03*
Y84515D02*
D03*
Y81315D02*
D03*
Y78115D02*
D03*
Y74915D02*
D03*
Y71715D02*
D03*
Y68515D02*
D03*
Y65315D02*
D03*
Y62115D02*
D03*
Y58915D02*
D03*
Y55715D02*
D03*
Y52515D02*
D03*
Y49315D02*
D03*
Y46115D02*
D03*
Y42915D02*
D03*
Y39715D02*
D03*
Y36515D02*
D03*
Y33315D02*
D03*
Y30115D02*
D03*
Y26915D02*
D03*
Y23715D02*
D03*
Y20515D02*
D03*
X403390Y17350D02*
D03*
X405012Y14592D02*
D03*
X407577Y12679D02*
D03*
X410673Y11868D02*
D03*
X413842Y12313D02*
D03*
X416608Y13922D02*
D03*
X418546Y16468D02*
D03*
X420103Y89878D02*
D03*
Y86678D02*
D03*
Y83478D02*
D03*
Y80278D02*
D03*
Y77078D02*
D03*
Y73878D02*
D03*
Y70678D02*
D03*
Y67478D02*
D03*
Y64278D02*
D03*
Y61078D02*
D03*
Y57878D02*
D03*
Y54678D02*
D03*
Y51478D02*
D03*
Y48278D02*
D03*
Y45078D02*
D03*
Y41878D02*
D03*
Y38678D02*
D03*
Y35478D02*
D03*
Y32278D02*
D03*
Y29078D02*
D03*
Y25878D02*
D03*
Y22678D02*
D03*
X420130Y19478D02*
D03*
X420976Y16392D02*
D03*
X422948Y13872D02*
D03*
X425725Y12282D02*
D03*
X428899Y11879D02*
D03*
X431990Y12710D02*
D03*
X434529Y14657D02*
D03*
X437293Y90914D02*
D03*
Y87714D02*
D03*
Y84514D02*
D03*
Y81314D02*
D03*
Y78114D02*
D03*
Y74914D02*
D03*
Y71714D02*
D03*
Y68514D02*
D03*
Y65314D02*
D03*
Y62114D02*
D03*
Y58914D02*
D03*
Y55714D02*
D03*
Y52514D02*
D03*
Y49314D02*
D03*
Y46114D02*
D03*
Y42914D02*
D03*
Y39714D02*
D03*
Y36514D02*
D03*
Y33314D02*
D03*
Y30114D02*
D03*
Y26914D02*
D03*
Y23714D02*
D03*
Y20514D02*
D03*
X437769Y17350D02*
D03*
X439392Y14592D02*
D03*
X441957Y12678D02*
D03*
X445053Y11868D02*
D03*
X448221Y12313D02*
D03*
X450988Y13922D02*
D03*
X452926Y16468D02*
D03*
X454483Y89879D02*
D03*
Y86679D02*
D03*
Y83479D02*
D03*
Y80279D02*
D03*
Y77079D02*
D03*
Y73879D02*
D03*
Y70679D02*
D03*
Y67479D02*
D03*
Y64279D02*
D03*
Y61079D02*
D03*
Y57879D02*
D03*
Y54679D02*
D03*
Y51479D02*
D03*
Y48279D02*
D03*
Y45079D02*
D03*
Y41879D02*
D03*
Y38679D02*
D03*
Y35479D02*
D03*
Y32279D02*
D03*
Y29079D02*
D03*
Y25879D02*
D03*
Y22679D02*
D03*
X454509Y19479D02*
D03*
X455355Y16393D02*
D03*
X457327Y13873D02*
D03*
X460103Y12282D02*
D03*
X463278Y11878D02*
D03*
X466368Y12710D02*
D03*
X468908Y14657D02*
D03*
X471672Y90913D02*
D03*
Y87713D02*
D03*
Y84513D02*
D03*
Y81313D02*
D03*
Y78113D02*
D03*
Y74913D02*
D03*
Y71713D02*
D03*
Y68513D02*
D03*
Y65313D02*
D03*
Y62113D02*
D03*
Y58913D02*
D03*
Y55713D02*
D03*
Y52513D02*
D03*
Y49313D02*
D03*
Y46113D02*
D03*
Y42913D02*
D03*
Y39713D02*
D03*
Y36513D02*
D03*
Y33313D02*
D03*
Y30113D02*
D03*
Y26913D02*
D03*
Y23713D02*
D03*
Y20513D02*
D03*
X472149Y17349D02*
D03*
X473771Y14591D02*
D03*
X476337Y12678D02*
D03*
X479432Y11868D02*
D03*
X482601Y12314D02*
D03*
X485367Y13923D02*
D03*
X487305Y16469D02*
D03*
X488862Y89880D02*
D03*
Y86680D02*
D03*
Y83480D02*
D03*
Y80280D02*
D03*
Y77080D02*
D03*
Y73880D02*
D03*
Y70680D02*
D03*
Y67480D02*
D03*
Y64280D02*
D03*
Y61080D02*
D03*
Y57880D02*
D03*
Y54680D02*
D03*
Y51480D02*
D03*
Y48280D02*
D03*
Y45080D02*
D03*
Y41880D02*
D03*
Y38680D02*
D03*
Y35480D02*
D03*
Y32280D02*
D03*
Y29080D02*
D03*
Y25880D02*
D03*
Y22680D02*
D03*
X488888Y19480D02*
D03*
X489734Y16394D02*
D03*
X491705Y13873D02*
D03*
X494482Y12282D02*
D03*
X497656Y11878D02*
D03*
X500746Y12709D02*
D03*
X503286Y14656D02*
D03*
X504891Y17425D02*
D03*
X505336Y20594D02*
D03*
Y23794D02*
D03*
Y26994D02*
D03*
Y30194D02*
D03*
Y33394D02*
D03*
Y36594D02*
D03*
Y39794D02*
D03*
Y42994D02*
D03*
Y46194D02*
D03*
Y49394D02*
D03*
X507374Y51860D02*
D03*
X510574D02*
D03*
X513774D02*
D03*
X516974D02*
D03*
X520175Y51856D02*
D03*
X523346Y52284D02*
D03*
X526347Y53393D02*
D03*
X529003Y55178D02*
D03*
X531204Y57501D02*
D03*
X532786Y60283D02*
D03*
X533729Y63341D02*
D03*
X533940Y66534D02*
D03*
Y69734D02*
D03*
Y72934D02*
D03*
Y76134D02*
D03*
Y79334D02*
D03*
Y82534D02*
D03*
Y85734D02*
D03*
Y88934D02*
D03*
Y92134D02*
D03*
Y95334D02*
D03*
Y98534D02*
D03*
Y101734D02*
D03*
Y104934D02*
D03*
Y108134D02*
D03*
X533610Y111317D02*
D03*
X532115Y114146D02*
D03*
X494702Y117950D02*
D03*
X497902D02*
D03*
X501102D02*
D03*
X504302D02*
D03*
X507502D02*
D03*
X510702D02*
D03*
X513902D02*
D03*
X517102D02*
D03*
X520302D02*
D03*
X523502D02*
D03*
X526702D02*
D03*
X529902D02*
D03*
X533102D02*
D03*
X536302D02*
D03*
X539502D02*
D03*
X542702D02*
D03*
X545902D02*
D03*
X549102D02*
D03*
X552302D02*
D03*
X555502D02*
D03*
X558702D02*
D03*
X561902D02*
D03*
X565102D02*
D03*
X568277Y118354D02*
D03*
X571059Y119934D02*
D03*
X573049Y122440D02*
D03*
X573908Y125523D02*
D03*
X573558Y128704D02*
D03*
X571993Y131495D02*
D03*
X569503Y133506D02*
D03*
X566426Y134384D02*
D03*
X563227Y134424D02*
D03*
X560027D02*
D03*
X556826D02*
D03*
X553626D02*
D03*
X550426D02*
D03*
X547226D02*
D03*
X544027D02*
D03*
X540827D02*
D03*
X537627D02*
D03*
X534426D02*
D03*
X531226D02*
D03*
X518507Y135139D02*
D03*
X521707D02*
D03*
X524907D02*
D03*
X528089Y135486D02*
D03*
X530905Y137005D02*
D03*
X532956Y139462D02*
D03*
X533883Y142525D02*
D03*
X533940Y145724D02*
D03*
Y148924D02*
D03*
Y152124D02*
D03*
Y155324D02*
D03*
Y158524D02*
D03*
Y161724D02*
D03*
Y164924D02*
D03*
Y168124D02*
D03*
Y171324D02*
D03*
Y174524D02*
D03*
Y177724D02*
D03*
Y180924D02*
D03*
Y184124D02*
D03*
X533669Y187313D02*
D03*
X532686Y190358D02*
D03*
X531046Y193106D02*
D03*
X528806Y195391D02*
D03*
X526122Y197134D02*
D03*
X523097Y198176D02*
D03*
X519918Y198547D02*
D03*
X516718Y198540D02*
D03*
X513518D02*
D03*
X510318D02*
D03*
X507118D02*
D03*
X503918D02*
D03*
X500718D02*
D03*
X497518D02*
D03*
X494318D02*
D03*
X491118D02*
D03*
X487918D02*
D03*
X484718D02*
D03*
X481518D02*
D03*
X478318D02*
D03*
X475118D02*
D03*
X471918D02*
D03*
X468718D02*
D03*
X465518D02*
D03*
X462318D02*
D03*
X459118D02*
D03*
X455918D02*
D03*
X452718D02*
D03*
X449518D02*
D03*
X446318D02*
D03*
X443118D02*
D03*
X439918D02*
D03*
X436718D02*
D03*
X433518D02*
D03*
X430318D02*
D03*
X427118D02*
D03*
X423918D02*
D03*
X420718D02*
D03*
X417518D02*
D03*
X414318D02*
D03*
X411118D02*
D03*
X407918D02*
D03*
X404718D02*
D03*
X401518D02*
D03*
X398318D02*
D03*
X395118D02*
D03*
X391950Y198986D02*
D03*
X389412Y200935D02*
D03*
X388214Y203903D02*
D03*
X388140Y207102D02*
D03*
Y210302D02*
D03*
Y213502D02*
D03*
Y216702D02*
D03*
Y219902D02*
D03*
Y223102D02*
D03*
Y226302D02*
D03*
Y229502D02*
D03*
Y232702D02*
D03*
Y235902D02*
D03*
Y239102D02*
D03*
Y242302D02*
D03*
Y245502D02*
D03*
Y248702D02*
D03*
Y251902D02*
D03*
Y255102D02*
D03*
Y258302D02*
D03*
Y261502D02*
D03*
Y264702D02*
D03*
Y267902D02*
D03*
Y271102D02*
D03*
Y274302D02*
D03*
Y277502D02*
D03*
Y280702D02*
D03*
Y283902D02*
D03*
Y287102D02*
D03*
Y290302D02*
D03*
Y293502D02*
D03*
Y296702D02*
D03*
X388145Y299902D02*
D03*
X389014Y302981D02*
D03*
X391323Y305196D02*
D03*
X394430Y305962D02*
D03*
X397630D02*
D03*
X400830D02*
D03*
X404030D02*
D03*
X407230D02*
D03*
X410428Y306070D02*
D03*
D34*
X119587Y73228D02*
D03*
X113386Y41240D02*
D03*
X136417Y32382D02*
D03*
X118996Y112894D02*
D03*
X124311Y133563D02*
D03*
X131791Y107480D02*
D03*
X108800Y67800D02*
D03*
X108600Y142200D02*
D03*
X128326Y41549D02*
D03*
X123700Y109300D02*
D03*
X128700Y106600D02*
D03*
D35*
X431173Y355327D02*
D03*
X452827D02*
D03*
X431173Y333673D02*
D03*
X452827D02*
D03*
X39673Y97173D02*
D03*
X61900Y119400D02*
D03*
X61327Y97173D02*
D03*
X39673Y118827D02*
D03*
X129516Y58740D02*
D03*
X129890Y123791D02*
D03*
M02*
